<svg version="1.0" xmlns="http://www.w3.org/2000/svg" width="400" height="400" viewBox="0 0 300 300"><path d="M136.5 25.5c-16.5 5.1-29.4 19.2-32.3 35.1-.8 4.7-.8 17.8.1 21.4.2.8.7 3.1 1.1 5 1.2 5.1 7.2 17.4 10.4 21.2 2.7 3.2 2.1 3.1-3.1-.4-3.5-2.5-13.6-6.6-18.4-7.6-7.8-1.5-22.5-.8-29.8 1.5-16 5-28.8 17.1-34.7 32.7-2.5 6.6-3.2 21.3-1.4 28.3 4.2 15.7 16.3 29.3 31.7 35.4 15.4 6 34.2 5.6 51.9-1.2 7.7-3 21.4-11.6 36.1-22.6 8.5-6.4 18.5-13.6 22.2-16.1 15.1-9.8 28.9-14.2 42.2-13.5 8.2.4 7.3-.7-3.1-3.5-13.6-3.6-30.5-1-48 7.6-4.4 2.2-15 8.2-23.5 13.2-17.4 10.4-24.2 14-31.4 16.5-25.5 8.9-49.2 1.9-58.6-17.2-2-3.9-2.4-6.4-2.4-13.3 0-7.6.4-9.2 3.3-15.2 5.1-10.4 14.8-18.2 28.7-22.9 2.6-.9 8.5-1.4 16.5-1.3 10.7 0 13.5.4 19.8 2.6 7.3 2.5 7.3 2.5 6.7.4-4-12.8-5.1-28.4-2.8-39.3 3.5-16.9 14.9-27.7 29.4-27.8 8.3 0 13.5 3.1 16.9 10 5.7 11.7 2.9 26.9-9.1 50.8l-3.9 7.8 4.2-3c8.3-5.7 17.6-16.8 22.7-26.8 11.4-22.3 4.5-46.8-15.8-56.1-6.5-3-18.9-3.8-25.6-1.7zm68 43c-5 4.9-1.5 13.5 5.5 13.5 1.9 0 4-.9 5.5-2.5 1.6-1.5 2.5-3.6 2.5-5.5s-.9-4-2.5-5.5c-1.5-1.6-3.6-2.5-5.5-2.5s-4 .9-5.5 2.5z"/><path d="M205.8 98.1c-17.6 2.8-30 9.3-59.2 31.2-18.6 14.1-31.3 21.4-42.1 24.2-6.1 1.6-20.4 2.3-22.4 1.1-.6-.4-1.1-.3-1.1.3s2.8 1.9 6.2 3c7.8 2.4 22.3 2.6 30.5.4 3.2-.8 6.3-1.6 6.8-1.8 5.2-1.2 18.5-8 35.6-18.1 29.8-17.5 40-21.4 55.7-20.9 15.5.4 27 6.5 34.3 18.2 3.3 5.2 4.8 13.6 3.7 20.6-2.4 15.9-16.5 29.2-34.9 33.1-16.1 3.3-37.6-1.5-49-11.1-2.7-2.3-3.2-2.5-2.5-.8 1.5 3.6 4.6 13.7 5 16.3 3.6 21.5 3.7 34.6.5 43.9-6.9 19.4-26.5 24.6-40.4 10.8-12.3-12.4-11.7-33 1.6-46.9 2.1-2.2 3.6-4.2 3.4-4.4-.7-.8-11.1 4.5-14.4 7.4-7.3 6.2-12.9 17.8-13.4 28.1-.9 18.9 13.1 37.9 31.2 42.3 23.7 5.7 44.8-8.8 49.5-34 2.5-13.4-.8-30.4-8.9-45.8l-3.3-6.2 3.5 2.1c34.1 21.1 75.8 9 88.5-25.6 3-8.5 3.1-24.6.1-32.7-7.6-20.4-28.1-34.5-51.2-35.2-4.7-.1-10.7.1-13.3.5zM83.5 215.5c-5.1 5-1.5 13.5 5.8 13.5 4.5 0 7.7-3.4 7.7-8.2 0-7-8.6-10.3-13.5-5.3z"/></svg>