<svg width="200" height="200" viewBox="0 0 200 200" fill="none" xmlns="http://www.w3.org/2000/svg">
<g clip-path="url(#clip0_105_2)">
<g filter="url(#filter0_d_105_2)">
<circle cx="100" cy="100" r="65" fill="white"/>
</g>
<g clip-path="url(#clip1_105_2)">
<path d="M107.059 113.759H89.2437" stroke="#323232" stroke-linecap="round" stroke-linejoin="round"/>
<path d="M112.412 121.799H83.8909" stroke="#323232" stroke-linecap="round" stroke-linejoin="round"/>
<path d="M127.815 93.5967L132.979 95.1536C134.419 95.5869 135.74 96.3419 136.842 97.361C137.944 98.3802 138.797 99.6364 139.336 101.034C141.147 105.729 143.556 113.124 144.757 118.412C146.25 124.934 147.287 129.158 147.287 138.652" stroke="#323232" stroke-linecap="round" stroke-linejoin="round"/>
<path d="M68.7128 129.832V66.9265C68.7128 65.2806 69.3685 63.702 70.5363 62.5365C71.704 61.3711 73.2885 60.714 74.9423 60.7093H121.343C123 60.7093 124.589 61.3643 125.76 62.5303C126.932 63.6962 127.59 65.2776 127.59 66.9265V113.199C127.59 115.16 125.552 116.355 123.962 115.185C119.151 111.659 116.439 107.964 114.426 105.336C114.137 104.952 113.773 104.631 113.356 104.392C112.939 104.152 112.478 103.999 112 103.942C111.522 103.884 111.038 103.924 110.576 104.058C110.113 104.192 109.683 104.418 109.311 104.722C109.276 104.758 109.244 104.783 109.201 104.818C105.776 107.811 109.711 110.61 113.834 117.11C115.067 119.036 116.403 120.987 116.892 123.221C117.936 128.037 121.097 132.85 124.144 134.077C125.176 134.504 126.057 135.227 126.675 136.153C127.293 137.08 127.62 138.168 127.615 139.28V139.28H74.2865C73.5547 139.281 72.83 139.137 72.1538 138.859C71.4776 138.581 70.8631 138.172 70.3455 137.658C69.8279 137.143 69.4173 136.532 69.1371 135.859C68.857 135.186 68.7128 134.465 68.7128 133.737V129.836" stroke="#323232" stroke-linecap="round" stroke-linejoin="round"/>
<path d="M109.048 60.7093V63.7452C109.045 64.6341 108.688 65.4856 108.055 66.1132C107.423 66.7408 106.566 67.0931 105.673 67.0931H90.6229C90.1794 67.0931 89.7403 67.0062 89.3306 66.8371C88.9209 66.6681 88.5487 66.4204 88.2352 66.1082C87.9218 65.7959 87.6733 65.4253 87.5039 65.0174C87.3345 64.6095 87.2475 64.1723 87.248 63.731V60.7093" stroke="#323232" stroke-linecap="round" stroke-linejoin="round"/>
<path d="M74.2865 136.099C73.6598 136.098 73.059 135.85 72.6155 135.409C72.1721 134.969 71.922 134.371 71.9202 133.747V116.617L91.4996 136.099H74.2865Z" fill="#FAD101"/>
<path d="M118.29 73.0001H78.9999V102.467H118.29V73.0001Z" stroke="#323232" stroke-linecap="round" stroke-linejoin="round"/>
<path d="M98.8447 90.0054C102.288 90.0054 105.08 86.6549 105.08 82.5218C105.08 78.3887 102.288 75.0381 98.8447 75.0381C95.401 75.0381 92.6094 78.3887 92.6094 82.5218C92.6094 86.6549 95.401 90.0054 98.8447 90.0054Z" stroke="#323232" stroke-linecap="round" stroke-linejoin="round"/>
<path d="M87.6893 98.7156V96.6751C87.6881 95.4394 88.0178 94.2258 88.644 93.1605C89.2703 92.0952 90.1703 91.217 91.2506 90.617C92.5918 89.8832 94.0039 89.2874 95.4654 88.8388" stroke="#323232" stroke-linecap="round" stroke-linejoin="round"/>
<path d="M102.229 88.8388C103.689 89.2881 105.1 89.8838 106.44 90.617C107.52 91.217 108.42 92.0953 109.046 93.1607C109.672 94.226 110.001 95.4395 110 96.6751V98.7156" stroke="#323232" stroke-linecap="round" stroke-linejoin="round"/>
<path d="M105.712 91.934C104.659 91.3579 103.559 90.8737 102.423 90.4867C101.349 91.1552 100.11 91.5095 98.8447 91.5095C97.5799 91.5095 96.3404 91.1552 95.2666 90.4867C94.1309 90.874 93.0305 91.3582 91.9777 91.934C91.4042 92.2546 90.8944 92.6777 90.4736 93.1824C93.0384 94.5966 95.9226 95.3302 98.8514 95.3132C101.78 95.3304 104.664 94.5968 107.229 93.1824C106.804 92.6765 106.29 92.2532 105.712 91.934Z" fill="#FAD101"/>
</g>
</g>
<defs>
<filter id="filter0_d_105_2" x="-25" y="-15" width="250" height="250" filterUnits="userSpaceOnUse" color-interpolation-filters="sRGB">
<feFlood flood-opacity="0" result="BackgroundImageFix"/>
<feColorMatrix in="SourceAlpha" type="matrix" values="0 0 0 0 0 0 0 0 0 0 0 0 0 0 0 0 0 0 127 0" result="hardAlpha"/>
<feOffset dy="10"/>
<feGaussianBlur stdDeviation="30"/>
<feComposite in2="hardAlpha" operator="out"/>
<feColorMatrix type="matrix" values="0 0 0 0 0.196078 0 0 0 0 0.196078 0 0 0 0 0.196078 0 0 0 0.1 0"/>
<feBlend mode="normal" in2="BackgroundImageFix" result="effect1_dropShadow_105_2"/>
<feBlend mode="normal" in="SourceGraphic" in2="effect1_dropShadow_105_2" result="shape"/>
</filter>
<clipPath id="clip0_105_2">
<rect width="200" height="200" fill="white"/>
</clipPath>
<clipPath id="clip1_105_2">
<rect width="80" height="80" fill="white" transform="matrix(-1 0 0 1 148 60)"/>
</clipPath>
</defs>
</svg>
