<svg width="200" height="200" viewBox="0 0 200 200" fill="none" xmlns="http://www.w3.org/2000/svg">
<g clip-path="url(#clip0_105_2)">
<g filter="url(#filter0_d_105_2)">
<circle cx="100" cy="100" r="65" fill="white"/>
</g>
<g clip-path="url(#clip1_105_2)">
<ellipse cx="100" cy="79.5" rx="4" ry="4.5" fill="#FAD101"/>
<path d="M104.322 60.7576H70.7165C69.3571 60.7576 68.0534 61.2912 67.0922 62.2411C66.1309 63.191 65.5909 64.4793 65.5909 65.8227V106.181C65.5904 106.846 65.7226 107.505 65.98 108.12C66.2373 108.735 66.6148 109.294 67.0908 109.765C67.5668 110.235 68.132 110.609 68.7541 110.864C69.3763 111.118 70.0431 111.25 70.7165 111.25H129.283C129.957 111.25 130.624 111.118 131.246 110.864C131.868 110.609 132.433 110.235 132.909 109.765C133.385 109.294 133.763 108.735 134.02 108.12C134.277 107.505 134.409 106.846 134.409 106.181V65.8227C134.409 65.1575 134.276 64.4989 134.019 63.8843C133.761 63.2698 133.384 62.7114 132.908 62.2411C132.432 61.7708 131.867 61.3977 131.245 61.1431C130.623 60.8886 129.956 60.7576 129.283 60.7576H104.322Z" stroke="#323232" stroke-linecap="round" stroke-linejoin="round"/>
<path d="M82.4475 111.25L79.3192 119.061H100.002H120.681L117.552 111.25" stroke="#323232" stroke-linecap="round" stroke-linejoin="round"/>
<path d="M128.935 124.986L134.923 135.666C135.129 136.032 135.235 136.446 135.23 136.866C135.225 137.285 135.109 137.696 134.894 138.057C134.678 138.419 134.371 138.718 134.002 138.926C133.633 139.134 133.216 139.243 132.791 139.242H67.2087C66.7842 139.243 66.3668 139.134 65.998 138.926C65.6292 138.718 65.3218 138.419 65.1063 138.057C64.8909 137.696 64.7748 137.285 64.7697 136.866C64.7646 136.446 64.8706 136.032 65.0772 135.666L71.0654 124.986H128.935Z" stroke="#323232" stroke-linecap="round" stroke-linejoin="round"/>
<path d="M100.002 86.5908C103.15 86.5908 105.703 83.5649 105.703 79.8322C105.703 76.0996 103.15 73.0737 100.002 73.0737C96.8535 73.0737 94.3012 76.0996 94.3012 79.8322C94.3012 83.5649 96.8535 86.5908 100.002 86.5908Z" stroke="#323232" stroke-linecap="round" stroke-linejoin="round"/>
<path d="M89.8005 94.4745V92.6182C89.7995 91.5022 90.1008 90.4064 90.6731 89.4444C91.2455 88.4824 92.068 87.6894 93.0553 87.1477C94.2824 86.4836 95.5746 85.9441 96.9119 85.5376" stroke="#323232" stroke-linecap="round" stroke-linejoin="round"/>
<path d="M103.103 85.5376C104.433 85.9449 105.717 86.4843 106.937 87.1477C107.924 87.6894 108.747 88.4824 109.319 89.4444C109.891 90.4064 110.193 91.5022 110.192 92.6182V94.4745" stroke="#323232" stroke-linecap="round" stroke-linejoin="round"/>
<path d="M100.002 103.427C109.917 103.427 117.955 95.4835 117.955 85.6854C117.955 75.8872 109.917 67.9442 100.002 67.9442C90.0867 67.9442 82.0488 75.8872 82.0488 85.6854C82.0488 95.4835 90.0867 103.427 100.002 103.427Z" stroke="#323232" stroke-linecap="round" stroke-linejoin="round"/>
<path d="M100.002 132.116C90.7918 132.152 81.605 131.201 72.6027 129.279L68.9262 135.833H131.089L127.413 129.279C118.406 131.202 109.216 132.153 100.002 132.116V132.116Z" fill="#FAD101"/>
</g>
</g>
<defs>
<filter id="filter0_d_105_2" x="-25" y="-15" width="250" height="250" filterUnits="userSpaceOnUse" color-interpolation-filters="sRGB">
<feFlood flood-opacity="0" result="BackgroundImageFix"/>
<feColorMatrix in="SourceAlpha" type="matrix" values="0 0 0 0 0 0 0 0 0 0 0 0 0 0 0 0 0 0 127 0" result="hardAlpha"/>
<feOffset dy="10"/>
<feGaussianBlur stdDeviation="30"/>
<feComposite in2="hardAlpha" operator="out"/>
<feColorMatrix type="matrix" values="0 0 0 0 0.196078 0 0 0 0 0.196078 0 0 0 0 0.196078 0 0 0 0.1 0"/>
<feBlend mode="normal" in2="BackgroundImageFix" result="effect1_dropShadow_105_2"/>
<feBlend mode="normal" in="SourceGraphic" in2="effect1_dropShadow_105_2" result="shape"/>
</filter>
<clipPath id="clip0_105_2">
<rect width="200" height="200" fill="white"/>
</clipPath>
<clipPath id="clip1_105_2">
<rect width="72" height="80" fill="white" transform="translate(64 60)"/>
</clipPath>
</defs>
</svg>
