<svg width="200" height="200" viewBox="0 0 200 200" fill="none" xmlns="http://www.w3.org/2000/svg">
<g clip-path="url(#clip0_105_2)">
<g filter="url(#filter0_d_105_2)">
<circle cx="100" cy="100" r="65" fill="white"/>
</g>
<g clip-path="url(#clip1_105_2)">
<rect width="5" height="5" transform="matrix(-1 0 0 1 82.0001 85.0001)" fill="#FAD101"/>
<rect width="4" height="5" transform="matrix(-1 0 0 1 92.0001 85.0001)" fill="#FAD101"/>
<rect width="4" height="5" transform="matrix(-1 0 0 1 102 85.0001)" fill="#FAD101"/>
<rect width="4" height="5" transform="matrix(-1 0 0 1 112 85.0001)" fill="#FAD101"/>
<rect width="5" height="5" transform="matrix(-1 0 0 1 123 85.0001)" fill="#FAD101"/>
<rect width="5" height="5" transform="matrix(-1 0 0 1 133 85.0001)" fill="#FAD101"/>
<rect width="4" height="4" transform="matrix(-1 0 0 1 112 96.0001)" fill="#FAD101"/>
<rect width="4" height="4" transform="matrix(-1 0 0 1 102 96.0001)" fill="#FAD101"/>
<rect width="4" height="4" transform="matrix(-1 0 0 1 92.0001 96.0001)" fill="#FAD101"/>
<rect width="5" height="5" transform="matrix(-1 0 0 1 72.0001 85.0001)" fill="#FAD101"/>
<path d="M139.225 108.92V84.0687C139.225 82.936 138.773 81.8498 137.969 81.0489C137.164 80.248 136.074 79.798 134.936 79.798H65.0029C63.8656 79.798 62.7749 80.248 61.9707 81.0489C61.1665 81.8498 60.7147 82.936 60.7147 84.0687V108.92" stroke="#323232" stroke-linecap="round" stroke-linejoin="round"/>
<path d="M99.8982 79.7909C99.8982 78.4421 100.436 77.1486 101.394 76.1948C102.351 75.2411 103.65 74.7053 105.005 74.7053H114.86C115.953 74.7043 117.001 74.2712 117.774 73.5011C118.547 72.731 118.981 71.687 118.981 70.5983V70.5983C118.981 69.5097 118.547 68.4656 117.774 67.6955C117.001 66.9254 115.953 66.4923 114.86 66.4914H84.164C82.6249 66.4914 81.1488 65.8825 80.0604 64.7986C78.9721 63.7147 78.3607 62.2446 78.3607 60.7118V60.7118" stroke="#323232" stroke-linecap="round" stroke-linejoin="round"/>
<path d="M71.6568 89.9124V85.4531H67.1792V89.9124" stroke="#323232" stroke-linecap="round" stroke-linejoin="round"/>
<path d="M81.8412 89.9124V85.4531H77.3636V89.9124" stroke="#323232" stroke-linecap="round" stroke-linejoin="round"/>
<path d="M92.0257 89.9124V85.4531H87.5446V89.9124" stroke="#323232" stroke-linecap="round" stroke-linejoin="round"/>
<path d="M102.21 89.9124V85.4531H97.729V89.9124" stroke="#323232" stroke-linecap="round" stroke-linejoin="round"/>
<path d="M112.395 89.9124V85.4531H107.914V89.9124" stroke="#323232" stroke-linecap="round" stroke-linejoin="round"/>
<path d="M122.576 89.9124V85.4531H118.098V89.9124" stroke="#323232" stroke-linecap="round" stroke-linejoin="round"/>
<path d="M132.76 89.9124V85.4531H128.283V89.9124" stroke="#323232" stroke-linecap="round" stroke-linejoin="round"/>
<path d="M92.0257 100.254V95.7952H87.5446V100.254" stroke="#323232" stroke-linecap="round" stroke-linejoin="round"/>
<path d="M102.21 100.254V95.7952H97.729V100.254" stroke="#323232" stroke-linecap="round" stroke-linejoin="round"/>
<path d="M112.395 100.254V95.7952H107.914V100.254" stroke="#323232" stroke-linecap="round" stroke-linejoin="round"/>
<path d="M75.2445 114.34V100.571C75.2441 100.239 75.3094 99.9092 75.4369 99.6018C75.5644 99.2944 75.7515 99.015 75.9874 98.7797C76.2234 98.5443 76.5037 98.3576 76.8122 98.2302C77.1207 98.1028 77.4513 98.0373 77.7853 98.0373V98.0373C78.1194 98.0373 78.4503 98.1028 78.759 98.2302C79.0677 98.3575 79.3482 98.5442 79.5844 98.7795C79.8207 99.0147 80.0081 99.2941 80.136 99.6015C80.2638 99.9089 80.3296 100.238 80.3296 100.571V118.501" stroke="#323232" stroke-linecap="round" stroke-linejoin="round"/>
<path d="M70.1595 114.34V110.426C70.1595 109.755 70.4271 109.111 70.9036 108.636C71.3801 108.162 72.0264 107.895 72.7002 107.895V107.895" stroke="#323232" stroke-linecap="round" stroke-linejoin="round"/>
<path d="M65.0744 114.34V112.095C65.0744 111.423 65.3424 110.778 65.8196 110.303C66.2967 109.828 66.9439 109.561 67.6187 109.561V109.561" stroke="#323232" stroke-linecap="round" stroke-linejoin="round"/>
<path d="M64.1166 139.288C64.2167 134.626 63.8379 133.736 63.8379 133.736C63.6461 132.846 63.4075 131.965 63.1232 131.099C61.6497 126.529 60.841 121.772 60.7218 116.974V114.839C60.7237 114.17 60.9912 113.529 61.466 113.057C61.9407 112.584 62.584 112.317 63.2554 112.315" stroke="#323232" stroke-linecap="round" stroke-linejoin="round"/>
<path d="M84.8966 110.935C86.3974 110.935 87.1908 111.785 87.4445 112.625C87.4695 112.7 87.4909 112.778 87.5088 112.856C87.6963 113.709 87.6101 114.6 87.2622 115.401C86.2046 118.01 85.8558 120.85 86.2509 123.636C86.5555 125.878 86.0129 128.152 84.7286 130.017C83.9103 131.202 82.9419 132.541 81.9091 133.776C81.9091 133.776 79.3862 136.267 79.3862 139.288" stroke="#323232" stroke-linecap="round" stroke-linejoin="round"/>
<path d="M63.2554 112.305H65.0743" stroke="#323232" stroke-linecap="round" stroke-linejoin="round"/>
<path d="M67.6187 109.561H70.3095" stroke="#323232" stroke-linecap="round" stroke-linejoin="round"/>
<path d="M72.7002 107.885H75.2446" stroke="#323232" stroke-linecap="round" stroke-linejoin="round"/>
<path d="M124.755 114.34V100.571C124.756 100.239 124.691 99.9092 124.563 99.6018C124.436 99.2944 124.249 99.015 124.013 98.7797C123.777 98.5443 123.496 98.3576 123.188 98.2302C122.879 98.1028 122.549 98.0373 122.215 98.0373V98.0373C121.881 98.0377 121.551 98.1037 121.243 98.2313C120.935 98.3588 120.655 98.5456 120.419 98.7809C120.184 99.0162 119.997 99.2954 119.87 99.6026C119.742 99.9098 119.677 100.239 119.677 100.571V118.501" stroke="#323232" stroke-linecap="round" stroke-linejoin="round"/>
<path d="M129.841 114.34V110.426C129.841 110.093 129.775 109.764 129.647 109.457C129.519 109.15 129.332 108.871 129.096 108.636C128.86 108.402 128.58 108.215 128.272 108.088C127.964 107.961 127.633 107.895 127.3 107.895" stroke="#323232" stroke-linecap="round" stroke-linejoin="round"/>
<path d="M134.926 114.34V112.095C134.926 111.762 134.861 111.433 134.733 111.125C134.606 110.818 134.419 110.539 134.183 110.303C133.947 110.068 133.666 109.881 133.358 109.754C133.049 109.626 132.719 109.561 132.385 109.561" stroke="#323232" stroke-linecap="round" stroke-linejoin="round"/>
<path d="M135.883 139.288C135.783 134.626 136.162 133.736 136.162 133.736C136.353 132.845 136.592 131.965 136.877 131.099C138.347 126.529 139.155 121.772 139.275 116.974L139.292 114.839C139.292 114.506 139.227 114.177 139.099 113.87C138.971 113.563 138.784 113.284 138.548 113.05C138.312 112.815 138.032 112.628 137.724 112.501C137.416 112.374 137.085 112.308 136.752 112.308" stroke="#323232" stroke-linecap="round" stroke-linejoin="round"/>
<path d="M115.107 110.935C113.603 110.935 112.809 111.785 112.555 112.625L112.491 112.856C112.304 113.709 112.39 114.6 112.738 115.401C113.797 118.01 114.145 120.85 113.749 123.636C113.446 125.878 113.989 128.151 115.271 130.017C116.09 131.202 117.058 132.541 118.094 133.776C118.094 133.776 120.617 136.267 120.617 139.288" stroke="#323232" stroke-linecap="round" stroke-linejoin="round"/>
<path d="M136.745 112.305H134.926" stroke="#323232" stroke-linecap="round" stroke-linejoin="round"/>
<path d="M132.385 109.561H129.69" stroke="#323232" stroke-linecap="round" stroke-linejoin="round"/>
<path d="M127.3 107.885H124.755" stroke="#323232" stroke-linecap="round" stroke-linejoin="round"/>
<path d="M88.0446 105.253H111.891V107.758H88.0446V105.253Z" fill="#FFC524" stroke="#323232"/>
</g>
</g>
<defs>
<filter id="filter0_d_105_2" x="-25" y="-15" width="250" height="250" filterUnits="userSpaceOnUse" color-interpolation-filters="sRGB">
<feFlood flood-opacity="0" result="BackgroundImageFix"/>
<feColorMatrix in="SourceAlpha" type="matrix" values="0 0 0 0 0 0 0 0 0 0 0 0 0 0 0 0 0 0 127 0" result="hardAlpha"/>
<feOffset dy="10"/>
<feGaussianBlur stdDeviation="30"/>
<feComposite in2="hardAlpha" operator="out"/>
<feColorMatrix type="matrix" values="0 0 0 0 0.196078 0 0 0 0 0.196078 0 0 0 0 0.196078 0 0 0 0.1 0"/>
<feBlend mode="normal" in2="BackgroundImageFix" result="effect1_dropShadow_105_2"/>
<feBlend mode="normal" in="SourceGraphic" in2="effect1_dropShadow_105_2" result="shape"/>
</filter>
<clipPath id="clip0_105_2">
<rect width="200" height="200" fill="white"/>
</clipPath>
<clipPath id="clip1_105_2">
<rect width="80" height="80" fill="white" transform="translate(60 60)"/>
</clipPath>
</defs>
</svg>
