<svg width="216" height="216" viewBox="0 0 216 216" fill="none" xmlns="http://www.w3.org/2000/svg">
<rect width="216" height="216" rx="10" fill="#3E9AF6"/>
<path d="M108 95.12C99.5999 95.12 92.8 101.92 92.8 110.32C92.8 118.72 99.5999 125.52 108 125.52C116.4 125.52 123.2 118.72 123.2 110.32C123.2 102 116.4 95.12 108 95.12V95.12ZM108 122.32C101.36 122.32 95.9999 116.96 95.9999 110.32C95.9999 103.68 101.36 98.32 108 98.32C114.64 98.32 120 103.68 120 110.32C120 116.96 114.64 122.32 108 122.32ZM134.4 91.92L122.4 92L117.36 84.64C117.04 84.24 116.56 84 116.08 84H99.92C99.44 84 98.9599 84.24 98.6399 84.64L93.6 92H81.6C78.08 92 75.2 94.8 75.2 98.32V125.6C75.2 129.12 78.08 132 81.6 132H134.4C137.92 132 140.8 129.12 140.8 125.6V97.6C140.8 94.08 137.92 91.92 134.4 91.92V91.92ZM137.6 125.6C137.6 127.36 136.16 128.8 134.4 128.8H81.6C79.84 128.8 78.4 127.36 78.4 125.6V98.32C78.4 96.56 79.84 95.2 81.6 95.2H94.4C94.88 95.2 95.3599 94.96 95.6799 94.56L100.72 87.2H115.28L120.32 94.56C120.64 94.96 121.12 95.2 121.6 95.2L134.4 95.12C136.16 95.12 137.6 95.84 137.6 97.6V125.6V125.6Z" fill="white"/>
</svg>
