<svg width="360" height="110" viewBox="0 0 360 110" fill="none" xmlns="http://www.w3.org/2000/svg">
<path d="M24.2994 91.9955C24.5707 90.8596 23.5896 89.7389 22.4446 89.4711C21.2995 89.2033 20.1132 89.6276 19.0811 90.1817C17.4845 91.093 16.0233 92.2227 14.7405 93.5378C15.3951 91.9073 15.9871 90.2543 16.5268 88.5894C16.8857 87.4851 17.2173 86.3779 17.5281 85.2598C20.1132 85.8382 22.8159 85.6345 25.2908 84.6749C26.2225 84.3073 27.2048 83.7246 27.4354 82.7578C27.6925 81.6026 26.7214 80.5032 25.5806 80.2334C24.4398 79.9636 23.2557 80.3817 22.2237 80.9358C20.5777 81.8784 19.0739 83.0491 17.7573 84.4127C18.6794 80.962 19.3282 77.4454 19.6976 73.8957C22.3122 74.031 24.9124 73.3987 27.1759 72.0771C28.038 71.5712 28.915 70.841 28.9862 69.845C29.0706 68.6877 27.9121 67.7222 26.7487 67.6493C25.5853 67.5764 24.4806 68.1645 23.5516 68.8724C22.123 70.0172 20.8628 71.3563 19.8082 72.8503C20.139 69.0988 20.1161 65.1914 19.0263 61.5853L18.9527 61.3609C21.5879 61.1408 24.1018 60.1476 26.1767 58.5068C26.9579 57.8834 27.7224 57.0348 27.6331 56.0517C27.549 54.8902 26.2652 54.1023 25.1012 54.1953C23.9372 54.2883 22.9292 55.0279 22.1103 55.8604C20.7562 57.3204 19.6212 58.9677 18.7408 60.7507C17.3712 56.6231 15.2297 52.7263 14.0025 48.5581C16.6843 48.3605 19.2469 47.3593 21.3534 45.6861C22.1366 45.067 22.9054 44.2165 22.8098 43.2311C22.7277 42.0738 21.4419 41.2816 20.2799 41.3789C19.1179 41.4762 18.1036 42.2135 17.289 43.044C15.8036 44.5447 14.8346 46.2599 13.8373 48.0814C13.5445 47.0281 13.3272 45.9552 13.187 44.8706C12.9278 42.6452 13.0952 40.3892 13.6803 38.2224C16.3735 38.7692 19.1741 38.471 21.6974 37.3686C22.6033 36.9457 23.5715 36.3438 23.7622 35.3697C23.9808 34.2325 22.9541 33.159 21.7996 32.9267C20.6451 32.6943 19.4845 33.1739 18.4808 33.7666C16.6365 34.8551 15.244 36.2762 13.7933 37.8177C14.8147 34.3131 16.6536 31.0959 19.1593 28.4294C21.6448 28.6273 24.1391 28.1266 26.359 26.9841C27.2429 26.525 28.1628 25.842 28.2886 24.8516C28.4319 23.6978 27.33 22.675 26.1704 22.5433C25.0108 22.4117 23.8721 22.938 22.9087 23.5947C21.4435 24.6438 20.1322 25.8917 19.0131 27.3021C18.9432 27.3262 18.8799 27.3664 18.8284 27.4193C16.711 29.6032 15.0245 32.1639 13.8575 34.9669C13.6186 35.5702 13.3597 36.2086 13.1705 36.8403C13.0213 34.4227 12.2118 32.0945 10.8294 30.1072C10.261 29.2908 9.46488 28.4771 8.46554 28.4881C7.30564 28.5119 6.43789 29.7191 6.43319 30.891C6.4285 32.063 7.11685 33.1029 7.87329 33.9765C9.31842 35.5897 11.0148 36.6819 12.8449 37.8152C12.4411 39.163 12.1989 40.553 12.1234 41.9562C12.0568 44.0444 12.3152 46.129 12.8893 48.1357C11.6485 45.9759 9.82157 44.21 7.61721 43.0397C6.73498 42.5768 5.66867 42.2101 4.76543 42.6835C3.7317 43.2229 3.51117 44.7129 4.0524 45.7387C4.59364 46.7645 5.67762 47.3921 6.76345 47.8118C8.84584 48.6048 10.9144 48.7883 13.1324 48.9798C14.1392 52.2519 15.6634 55.4172 16.914 58.5652C17.3107 59.5601 17.6759 60.5542 17.9795 61.5615C16.7482 59.1437 14.8027 57.1621 12.404 55.8826C11.5218 55.4196 10.4555 55.053 9.55452 55.5201C8.52079 56.0595 8.29598 57.5515 8.83721 58.5773C9.37844 59.6031 10.4582 60.2327 11.5483 60.6503C13.6741 61.4696 15.7851 61.6437 18.06 61.8345C18.3804 62.9127 18.6146 64.0148 18.7605 65.1306C18.9978 67.2067 19.0537 69.3003 18.9278 71.3876C18.8911 71.9223 18.8575 72.497 18.8119 73.0462C17.9111 70.7724 16.3982 68.7925 14.4391 67.3235C13.6428 66.7325 12.6275 66.2074 11.6841 66.5391C10.5793 66.915 10.1326 68.3553 10.5094 69.4527C10.8863 70.55 11.8581 71.3386 12.8656 71.9139C14.7291 72.985 16.6641 73.4845 18.7403 73.9854C18.3794 77.4487 17.7444 80.8793 16.8411 84.2451C16.5192 81.7102 15.4707 79.3245 13.8212 77.3734C13.1809 76.6371 12.303 75.8823 11.3071 75.99C10.1484 76.1167 9.36873 77.4123 9.51605 78.5753C9.66336 79.7384 10.4085 80.7105 11.2602 81.4982C12.8837 82.9919 14.7114 83.9193 16.681 84.8944L16.3028 86.2251C15.593 88.6646 14.7604 91.0674 13.808 93.4244C13.4598 90.9553 12.4192 88.637 10.8059 86.7359C10.16 85.9764 9.28768 85.2448 8.29611 85.3505C7.13544 85.473 6.35773 86.7728 6.49878 87.9336C6.63984 89.0944 7.3932 90.073 8.24916 90.8587C9.82326 92.3134 11.5943 93.231 13.5016 94.173C12.3876 96.8479 11.0778 99.4383 9.58285 101.923C9.27268 102.441 10.0943 102.885 10.4065 102.372C11.9137 99.855 13.2322 97.2311 14.3514 94.5217C16.9471 95.0918 19.6575 94.8789 22.138 93.91C23.082 93.5574 24.0708 92.9665 24.2994 91.9955Z" fill="#8EB2DB"/>
<path d="M42.1216 130.582C39.5994 130.628 35.725 130.353 29.7028 127.812C26.0108 126.237 20.887 124.083 15.81 119.211C15.5901 118.997 15.2017 118.633 14.7291 118.115C14.6997 118.095 14.6743 118.07 14.6542 118.041C14.6028 117.999 14.5607 117.952 14.5092 117.906C14.3454 117.738 14.1723 117.551 13.9804 117.374C10.4289 113.519 3.5784 104.843 5.30973 95.6728C5.39864 95.1413 6.71352 88.4794 10.2604 87.8733C14.701 87.1647 19.4973 96.3581 21.3222 95.4397C22.2581 94.9735 21.2941 92.5772 21.2005 89.477C20.9198 82.5121 24.8597 73.7056 30.9522 72.61C32.5085 72.3745 34.0995 72.5396 35.5737 73.0896C37.048 73.6395 38.3565 74.5562 39.3748 75.7522C42.8001 79.7568 39.6135 86.7638 40.2218 86.9409C41.1202 87.1927 43.137 72.3723 51.3163 69.9014C54.1894 69.0436 58.0639 69.6404 59.5987 71.7662C61.8447 74.8758 58.0358 79.9853 59.5098 81.0902C61.0726 82.251 65.0219 76.4049 72.7615 75.1322C74.7408 74.8291 79.3592 74.0832 82.368 76.8758C84.9978 79.272 85.723 83.5004 84.3614 86.6426C83.0886 89.533 80.3559 90.7591 79.5979 91.0714C74.7034 93.1833 71.5448 90.0225 62.832 90.7311C59.7905 90.9689 56.4682 91.6635 56.384 92.6798C56.384 93.4397 58.2089 93.6915 60.1274 95.6402C60.1953 95.6933 60.2566 95.7543 60.3099 95.822C60.8901 96.4234 62.949 98.5679 62.9022 101.342C62.9022 101.458 62.7993 104.465 60.7919 105.537C59.9711 105.921 59.0448 106.018 58.1621 105.813C53.291 104.992 47.0114 105.449 46.8523 106.237C46.6511 107.132 54.5123 108.381 54.9053 111.43C55.2235 113.966 50.2261 116.311 49.5757 116.61C44.1711 119.09 38.453 117.915 38.425 118.358C38.3969 118.801 43.1323 118.516 46.8851 121.514C48.6398 122.913 51.1245 125.71 50.4039 127.803C49.5616 130.376 44.3255 130.526 42.1216 130.582Z" fill="#3A67B3"/>
<path d="M43.5722 113.351C43.4178 112.274 42.3088 111.757 41.3402 111.57C40.1184 111.361 38.8684 111.378 37.6529 111.621C35.1027 112.06 32.6087 113.118 29.9789 112.987C28.6459 112.956 27.3569 112.506 26.2963 111.701C29.4105 109.067 32.3476 106.233 35.0887 103.216C36.1322 102.111 37.171 100.997 38.2285 99.8918C42.2012 98.8755 45.9914 101.537 49.9828 101.179C51.0419 101.101 52.0611 100.744 52.9354 100.144C53.0852 100.041 52.9074 99.8266 52.7623 99.9291C51.0871 101.104 48.944 101.067 47.0068 100.722C45.0696 100.377 43.2634 99.6914 41.3028 99.4583C40.3933 99.3422 39.4712 99.369 38.5701 99.5375C41.4244 96.5678 44.3958 93.6961 47.7836 91.3231C51.8873 88.456 56.6414 86.2835 61.695 85.9432C62.3314 85.9013 62.9631 85.8873 63.5948 85.9059C63.7726 85.9059 63.8054 85.6309 63.6276 85.6262C58.7237 85.505 53.9836 87.1693 49.8284 89.6681C49.1171 90.0924 48.4246 90.5492 47.7602 91.0154C47.772 90.9839 47.772 90.9491 47.7602 90.9175C46.8243 88.6192 48.4059 86.3861 49.8471 84.7125C50.6732 83.8295 51.4244 82.8798 52.0932 81.8733C52.6172 81.0155 53.0571 80.0085 52.8512 78.9876C52.8138 78.8151 52.5377 78.8524 52.5751 79.0295C52.8185 80.2277 52.1072 81.4071 51.4474 82.3442C50.7175 83.3651 49.8284 84.2556 49.047 85.2346C47.7602 86.843 46.6792 88.9642 47.5028 91.0294C47.5133 91.0563 47.5335 91.0784 47.5595 91.0913C47.5854 91.1042 47.6152 91.1071 47.6432 91.0994C43.8436 93.7567 40.5354 97.0527 37.3488 100.423C35.5847 102.288 33.8393 104.153 32.0425 106.018C30.0762 103.621 29.0948 100.571 29.2957 97.4816C29.432 95.8632 29.9104 94.2919 30.6995 92.8709C31.5371 91.2858 32.5338 89.752 32.983 87.9991C33.4322 86.2462 33.2544 84.2696 31.9442 82.9502C31.8226 82.8244 31.6026 82.9969 31.729 83.1227C33.0485 84.4607 33.1328 86.4654 32.6648 88.1856C32.1969 89.9059 31.1066 91.4816 30.2831 93.1087C29.5522 94.4846 29.1202 95.9983 29.015 97.5515C28.9332 99.0207 29.1105 100.493 29.5391 101.901C29.9994 103.484 30.785 104.954 31.846 106.218C29.6806 108.47 27.3552 110.564 24.8879 112.484C23.158 113.815 21.3116 114.988 19.371 115.99C20.2694 111.57 16.9752 107.733 16.1891 103.561C15.9341 102.346 15.9758 101.087 16.3108 99.8918C16.3622 99.7193 16.1002 99.6167 16.0487 99.7892C14.7151 104.185 17.9766 108.181 18.9592 112.279C19.2808 113.508 19.3207 114.794 19.0762 116.041C19.0703 116.054 19.0672 116.068 19.0672 116.083C19.0672 116.097 19.0703 116.112 19.0762 116.125C17.6044 116.869 16.066 117.475 14.4812 117.934C14.5326 117.98 14.5748 118.027 14.6262 118.069C14.6463 118.098 14.6717 118.123 14.7011 118.143C17.4162 117.33 19.9992 116.13 22.3704 114.582C23.6419 113.757 24.8681 112.866 26.0437 111.91C27.789 113.356 30.1801 113.486 32.3279 113.132C34.822 112.717 37.2271 111.733 39.782 111.733C40.9612 111.733 43.0575 111.943 43.2681 113.425C43.278 113.466 43.3035 113.5 43.3391 113.522C43.3746 113.543 43.4172 113.55 43.4576 113.54C43.4979 113.53 43.5326 113.504 43.5541 113.469C43.5756 113.434 43.5821 113.391 43.5722 113.351Z" fill="white"/>
<path d="M354.569 74.9115C354.072 75.021 353.555 74.9916 353.074 74.8267C352.594 74.6617 352.169 74.3676 351.846 73.9765C351.206 73.1772 350.881 72.1707 350.931 71.1455C350.986 70.1301 351.212 69.1304 351.6 68.1885C352.146 66.5862 353.039 65.1221 354.213 63.9003C351.742 63.9097 349.273 64.1086 346.83 64.4952L346.165 64.6094L347.332 69.7555C347.666 70.8824 347.78 72.0637 347.669 73.2357C347.482 74.4012 346.74 75.5534 345.603 75.8705C345.105 75.9773 344.589 75.9466 344.109 75.7819C343.63 75.6171 343.205 75.3245 342.88 74.9355C342.238 74.137 341.913 73.13 341.964 72.1045C342.021 71.0879 342.248 70.0872 342.637 69.1444C343.193 67.4888 344.126 65.983 345.362 64.7455C342.663 65.2602 340.012 65.9988 337.434 66.9538L338.416 72.2128C338.703 73.3526 338.772 74.5375 338.618 75.7049C338.378 76.8672 337.597 77.9836 336.439 78.2559C335.937 78.3488 335.421 78.3021 334.945 78.1209C334.469 77.9397 334.053 77.6311 333.743 77.2287C333.132 76.406 332.846 75.3869 332.937 74.364C333.03 73.3495 333.295 72.3575 333.721 71.4307C334.307 69.9014 335.21 68.5124 336.371 67.3559C334.522 68.0872 332.72 68.9327 330.975 69.8875C330.457 70.1681 329.948 70.466 329.442 70.7675L330.274 76.2086C330.527 77.3574 330.556 78.5451 330.362 79.7072C330.103 80.8483 329.257 81.9407 328.118 82.1839C327.613 82.2618 327.098 82.1989 326.628 82.002C326.158 81.8051 325.753 81.4819 325.457 81.0683C324.874 80.2277 324.621 79.2007 324.746 78.1825C324.873 77.1717 325.17 76.1888 325.623 75.2749C326.202 73.9325 327.016 72.7031 328.026 71.6445C326.349 72.7279 324.742 73.9179 323.217 75.2072L321.4 80.2776C321.072 81.4111 320.532 82.4731 319.808 83.407C319.026 84.2853 317.778 84.8639 316.657 84.5249C316.177 84.3525 315.756 84.0512 315.438 83.6542C315.12 83.2571 314.918 82.7796 314.855 82.2741C314.746 81.2534 315.015 80.2262 315.61 79.386C316.203 78.5547 316.931 77.8289 317.765 77.2393C319.282 76.0902 320.98 75.1463 322.826 74.9155C324.449 73.5378 326.162 72.2721 327.956 71.1273C326.45 71.4216 324.903 71.4253 323.398 71.138C322.389 71.0068 321.411 70.7053 320.505 70.2464C319.59 69.7814 318.881 68.9951 318.512 68.0378C318.337 67.5608 318.297 67.044 318.396 66.5443C318.496 66.0446 318.731 65.5812 319.076 65.2053C319.915 64.3774 321.288 64.3058 322.384 64.7238C323.455 65.2073 324.42 65.8952 325.227 66.7489L329.157 70.4017C331.393 69.0659 333.731 67.9106 336.15 66.9469C334.538 66.901 332.955 66.5202 331.501 65.829C330.557 65.4506 329.685 64.9152 328.921 64.2455C328.154 63.5665 327.663 62.6297 327.54 61.6111C327.49 61.1041 327.58 60.5925 327.801 60.1321C328.022 59.6718 328.366 59.2805 328.793 59.0011C329.812 58.4052 331.156 58.6738 332.111 59.3482C333.025 60.0877 333.789 60.995 334.362 62.0216C335.326 63.5257 336.291 65.0265 337.257 66.5241L337.484 66.4372C340.007 65.5197 342.6 64.8079 345.236 64.3088C343.457 64.0059 341.782 63.2732 340.355 62.1744C339.509 61.6112 338.766 60.9091 338.156 60.0976C337.544 59.2779 337.254 58.261 337.343 57.2392C337.395 56.7305 337.586 56.2454 337.897 55.8375C338.207 55.4296 338.623 55.1147 339.1 54.9277C340.227 54.563 341.474 55.0873 342.273 55.9434C343.019 56.8523 343.581 57.8969 343.931 59.0203C344.595 60.7298 345.259 62.4528 345.921 64.1891L346.03 64.1688L346.065 64.1374L346.09 64.1657C348.662 63.7163 351.265 63.475 353.874 63.444C352.504 62.5771 351.325 61.4422 350.406 60.1073C349.773 59.2886 349.281 58.3695 348.95 57.3879C348.624 56.3962 348.671 55.3178 349.084 54.3551C349.299 53.8822 349.639 53.4765 350.067 53.1819C350.495 52.8874 350.996 52.7152 351.514 52.6842C352.715 52.6761 353.755 53.5969 354.248 54.6793C354.671 55.7992 354.878 56.9902 354.857 58.1893L355.089 63.2858C355.095 63.3365 355.109 63.3875 355.119 63.4351C357.993 63.4765 360.856 63.7812 363.672 64.3454C363.966 64.4067 363.929 64.8806 363.628 64.8189C360.865 64.2628 358.056 63.9591 355.236 63.9115L356.364 68.777C356.697 69.9039 356.811 71.0851 356.7 72.2571C356.449 73.4422 355.706 74.5944 354.569 74.9115Z" fill="#8EB2DB"/>
<path d="M337.854 64.1334C339.008 64.7831 340.257 65.2486 341.556 65.513C341.556 65.513 346.595 67.16 351.366 67.268C353.823 67.4058 356.283 67.068 358.61 66.2732L359.552 65.8978C359.854 65.7706 360.146 65.6232 360.428 65.4567C360.645 65.3394 360.866 65.2221 361.073 65.0954C361.186 65.0368 361.296 64.9726 361.403 64.903C364.279 63.14 366.601 60.6091 368.106 57.5974C369.612 54.5858 370.239 51.2141 369.918 47.865C369.57 44.5475 368.128 40.1085 366.009 40.0475C365.589 40.1377 365.152 40.1183 364.742 39.9912C363.777 39.6017 363.64 38.3723 363.329 36.7581C362.717 33.7738 362.434 32.2769 361.591 31.5965C361.21 31.268 360.117 30.8974 357.96 30.1466C356.462 29.6257 356.359 29.6539 356.128 29.4239C355.035 28.2415 356.782 26.3504 356.396 23.7086C356.085 21.6815 354.592 19.6169 352.628 19.0679C351.465 18.7676 351.037 19.218 348.785 18.9036C347.198 18.6784 346.379 18.547 345.7 18.1059C343.077 16.3838 345.371 11.5835 343.077 10.3588C341.947 9.75352 340.185 10.2744 338.499 10.7718C336.813 11.2691 336.46 11.79 335.744 11.9261C331.656 12.7519 327.916 -0.536858 326.051 0.0168417C324.638 0.443848 323.385 9.40159 324.921 15.2061C325.175 16.1023 325.717 17.8432 324.869 19.645C323.927 21.7331 322.043 21.8082 321.713 23.3192C321.558 24.084 321.897 24.6049 325.279 29.2081C326.367 30.6721 327.125 31.681 326.692 32.4599C326.258 33.2388 325.043 33.1732 324.487 34.2665C324.288 34.6538 324.219 35.0946 324.29 35.524C324.45 37.8374 326.706 40.2493 327.841 41.4083C330.092 43.731 331.434 44.7211 331.095 45.378C330.756 46.0349 329.211 45.5 328.321 46.5183C327.69 47.2503 327.737 48.3436 327.921 49.0287C328.185 50 328.948 50.4927 331.35 51.7362C333.752 52.9797 334.237 53.1439 335.518 53.8525C337.741 55.0725 339.757 56.1986 339.507 57.2122C339.276 58.1507 337.486 58.0427 336.549 59.6194C336.302 59.9935 336.139 60.4168 336.073 60.8599C336.006 61.3029 336.037 61.7551 336.163 62.1851C336.29 62.615 336.509 63.0124 336.804 63.3496C337.1 63.6869 337.467 63.956 337.877 64.1381L337.854 64.1334Z" fill="#3A67B3"/>
<path d="M343.308 60.2857C344.415 61.5292 346.299 60.9661 347.735 60.8347C349.1 60.7042 350.474 60.6885 351.842 60.7878C354.449 60.9796 357.009 61.5781 359.43 62.5615V62.538C357.889 59.9291 356.561 57.1794 355.191 54.5047C353.841 51.7153 352.292 49.026 350.556 46.4573C349.046 44.3877 347.339 42.4676 345.46 40.7232V40.7232C342.597 40.3853 339.809 41.1924 336.94 41.1033C334.439 41.0282 331.679 39.888 330.987 37.2602C330.926 37.0256 331.298 36.9599 331.359 37.1945C332.089 39.9724 335.226 40.8077 337.76 40.7279C340.195 40.6528 342.592 40.1179 345.032 40.3103L344.377 39.6862C342.583 37.9829 340.807 36.2373 339.502 34.1304C338.605 32.671 337.799 31.1571 337.091 29.5976C334.376 29.1416 331.871 27.856 329.923 25.9187C329.758 25.7451 330.045 25.5011 330.21 25.6747C332.032 27.4839 334.36 28.7038 336.888 29.1753L336.78 28.936C335.06 25.2114 333.538 21.399 332.221 17.5147C332.108 17.1722 331.99 16.8296 331.887 16.4871C331.811 16.2619 332.15 16.1023 332.221 16.3275C333.423 20.0116 334.816 23.6311 336.394 27.1716C337.223 29.0486 338.099 30.9255 339.102 32.7133C339.333 33.1262 339.573 33.5298 339.827 33.9099C340.826 32.9057 340.769 31.4135 340.769 30.1044C340.784 28.3809 341.179 26.6817 341.926 25.1272C342.673 23.5727 343.754 22.2009 345.093 21.1091C345.281 20.9589 345.526 21.2451 345.338 21.3953C343.453 22.9418 342.108 25.0425 341.495 27.3969C341.234 28.5943 341.114 29.8178 341.137 31.0428C341.113 32.2018 340.915 33.389 340.049 34.2243C340.865 35.4502 341.797 36.5957 342.832 37.645C344.966 39.8223 347.33 41.7696 349.285 44.1252C351.148 46.4487 352.774 48.9511 354.14 51.5954L354.494 52.2758C356.001 49.4604 357.564 46.4432 357.513 43.1491C357.502 42.3857 357.391 41.6269 357.183 40.8921C356.931 40.1953 356.742 39.4777 356.618 38.7477C356.477 37.3682 357.192 36.1622 357.904 35.036C358.035 34.8343 358.346 35.036 358.219 35.2472C357.781 35.876 357.423 36.557 357.155 37.2743C356.931 38.0005 356.931 38.777 357.155 39.5032C357.353 40.2446 357.626 40.9531 357.762 41.7086C357.878 42.3919 357.919 43.0858 357.885 43.7779C357.743 46.9453 356.236 49.8076 354.776 52.548C354.767 52.5672 354.753 52.5839 354.736 52.5969C354.718 52.61 354.699 52.6189 354.677 52.6231V52.6231C356.448 56.0156 358.059 59.5209 360.037 62.7914V62.8196C360.063 62.8411 360.082 62.8709 360.089 62.904C360.499 63.5798 360.923 64.2461 361.375 64.8889C361.268 64.9586 361.158 65.0228 361.045 65.0813C360.574 64.4244 360.16 63.7487 359.745 63.0683C357.041 61.9164 354.153 61.2553 351.216 61.1163C349.721 61.0519 348.224 61.1195 346.741 61.318C345.446 61.4869 343.986 61.5902 343.035 60.5203C342.884 60.3514 343.167 60.1074 343.308 60.2857Z" fill="white"/>
<path d="M124.188 25.2561L125.321 24.1275C125.446 24.0042 125.516 23.8368 125.517 23.6619C125.517 23.487 125.448 23.319 125.325 23.1949C125.201 23.0707 125.033 23.0006 124.857 23C124.682 22.9994 124.513 23.0682 124.389 23.1915L123.256 24.3201L122.123 23.1915C121.999 23.0687 121.832 22.9999 121.657 23.0002C121.483 23.0005 121.315 23.0699 121.192 23.1932C121.069 23.3164 121 23.4833 121 23.6573C121 23.8312 121.07 23.9979 121.194 24.1207L122.326 25.2493L121.194 26.3745C121.102 26.4669 121.04 26.584 121.015 26.7114C120.99 26.8387 121.004 26.9706 121.054 27.0904C121.104 27.2102 121.188 27.3126 121.296 27.3848C121.404 27.4571 121.531 27.4959 121.662 27.4964C121.836 27.496 122.003 27.4268 122.126 27.3038L123.256 26.1752L124.389 27.3038C124.449 27.3649 124.522 27.4134 124.602 27.4464C124.681 27.4795 124.767 27.4966 124.853 27.4966C124.94 27.4966 125.025 27.4795 125.105 27.4464C125.185 27.4134 125.257 27.3649 125.318 27.3038C125.379 27.2429 125.428 27.1705 125.461 27.0907C125.495 27.011 125.512 26.9255 125.512 26.8392C125.512 26.7528 125.495 26.6673 125.461 26.5876C125.428 26.5078 125.379 26.4354 125.318 26.3745L124.188 25.2561Z" fill="#FFB86B"/>
<path d="M188.588 81.1564C188.076 81.1564 187.576 81.0052 187.15 80.7219C186.725 80.4386 186.393 80.036 186.197 79.5648C186.001 79.0937 185.95 78.5754 186.05 78.0752C186.15 77.5751 186.396 77.1157 186.758 76.7551C187.12 76.3946 187.581 76.149 188.083 76.0495C188.585 75.9501 189.105 76.0011 189.578 76.1963C190.051 76.3914 190.455 76.7218 190.739 77.1458C191.024 77.5698 191.176 78.0683 191.176 78.5782C191.174 79.2614 190.901 79.9162 190.416 80.3993C189.931 80.8824 189.274 81.1546 188.588 81.1564ZM188.588 76.8076C188.236 76.8076 187.893 76.9114 187.6 77.106C187.308 77.3005 187.08 77.5771 186.946 77.9006C186.811 78.2242 186.776 78.5802 186.845 78.9236C186.913 79.2671 187.083 79.5826 187.331 79.8302C187.58 80.0778 187.896 80.2465 188.241 80.3148C188.586 80.3831 188.943 80.3481 189.268 80.2141C189.593 80.08 189.87 79.8531 190.065 79.5619C190.261 79.2707 190.365 78.9284 190.365 78.5782C190.364 78.1089 190.177 77.659 189.843 77.3272C189.51 76.9953 189.059 76.8085 188.588 76.8076Z" fill="#2363A8"/>
<path d="M267.781 31.6348C267.845 31.7374 267.888 31.852 267.907 31.9717C267.926 32.0914 267.92 32.2136 267.889 32.3309C267.854 32.4898 267.777 32.6363 267.665 32.7552C267.553 32.874 267.412 32.9609 267.255 33.0067L264.176 33.8987C264.021 33.9435 263.857 33.947 263.701 33.9088C263.544 33.8707 263.401 33.7922 263.284 33.6814C263.168 33.5705 263.082 33.4311 263.037 33.2771C262.992 33.1231 262.988 32.9599 263.026 32.8039L263.789 29.6986C263.827 29.5423 263.905 29.3988 264.017 29.2825C264.128 29.1662 264.268 29.0813 264.423 29.0364C264.578 28.9914 264.742 28.9881 264.899 29.0266C265.055 29.0652 265.199 29.1443 265.315 29.2559L267.632 31.4658C267.689 31.5145 267.74 31.5715 267.781 31.6348ZM263.752 33.108L263.782 33.1486C263.807 33.1717 263.838 33.1879 263.871 33.1956C263.905 33.2033 263.939 33.2023 263.972 33.1925L267.052 32.2971C267.085 32.2883 267.115 32.2708 267.139 32.2464C267.162 32.222 267.179 32.1916 267.187 32.1585C267.195 32.1255 267.194 32.0911 267.184 32.0586C267.175 32.0261 267.157 31.9965 267.133 31.9727L264.813 29.7628C264.789 29.7393 264.759 29.7227 264.726 29.7144C264.694 29.7061 264.659 29.7064 264.627 29.7155C264.593 29.7249 264.563 29.743 264.539 29.768C264.515 29.7929 264.499 29.8238 264.491 29.8574L263.728 32.9627C263.717 33.0124 263.725 33.0645 263.752 33.108Z" fill="#D94559"/>
</svg>
