<svg width="310" height="83" viewBox="0 0 310 83" fill="none" xmlns="http://www.w3.org/2000/svg">
<path d="M291.597 22.8397L300.554 16.8721L294.678 14.4959L291.597 22.8397Z" fill="#2459B3"/>
<path d="M300.927 18.743L309.587 7.02924L295.281 16.8722L300.927 18.743Z" fill="#5686D6"/>
<path d="M309.587 7.0083L286.345 12.0738L291.815 14.1786L309.587 7.0083Z" fill="#5686D6"/>
<path d="M48.5026 34.6618H46.0827C45.4032 31.5804 44.2636 28.618 42.702 25.8734L44.7082 23.8746C46.1481 22.44 46.957 20.4943 46.957 18.4655C46.957 16.4367 46.1481 14.491 44.7082 13.0564C43.2683 11.6218 41.3153 10.8159 39.279 10.8159C37.2426 10.8159 35.2897 11.6218 33.8498 13.0564L32.155 14.7671C29.4873 13.0547 26.5747 11.7548 23.5163 10.9114V8.10156C23.5163 7.09702 23.3177 6.10233 22.9319 5.17426C22.546 4.24619 21.9805 3.40292 21.2675 2.69261C20.5546 1.98229 19.7082 1.41884 18.7767 1.03442C17.8452 0.650004 16.8468 0.452148 15.8385 0.452148C14.8302 0.452148 13.8319 0.650004 12.9003 1.03442C11.9688 1.41884 11.1224 1.98229 10.4095 2.69261C9.69652 3.40292 9.13098 4.24619 8.74513 5.17426C8.35929 6.10233 8.16069 7.09702 8.16069 8.10156V10.5125C5.06763 11.1888 2.0941 12.3242 -0.660339 13.8807L-2.66654 11.8819C-4.10644 10.4468 -6.05962 9.64027 -8.09637 9.63986C-10.1331 9.63944 -12.0866 10.4451 -13.5271 11.8797C-14.9676 13.3143 -15.7771 15.2603 -15.7775 17.2895C-15.778 19.3187 -14.9693 21.265 -13.5294 22.7001L-11.8167 24.4064C-13.5272 27.061 -14.8245 29.9583 -15.6646 32.9998H-18.5026C-20.5075 33.0479 -22.414 33.8751 -23.8149 35.3049C-25.2158 36.7346 -26 38.6534 -26 40.6514C-26 42.6495 -25.2158 44.5683 -23.8149 45.998C-22.414 47.4277 -20.5075 48.255 -18.5026 48.3031H-16.0827C-15.4052 51.3851 -14.2655 54.3478 -12.702 57.0915L-14.7082 59.0902C-16.1481 60.5248 -16.957 62.4705 -16.957 64.4993C-16.957 66.5281 -16.1481 68.4739 -14.7082 69.9084C-13.2683 71.343 -11.3153 72.149 -9.27897 72.149C-7.24263 72.149 -5.2897 71.343 -3.84979 69.9084L-2.14163 68.2066C0.527664 69.9058 3.43618 71.1994 6.48812 72.0446V74.8633C6.48812 76.892 7.29703 78.8377 8.7369 80.2722C10.1768 81.7068 12.1297 82.5127 14.1659 82.5127C16.2022 82.5127 18.1551 81.7068 19.595 80.2722C21.0348 78.8377 21.8438 76.892 21.8438 74.8633V72.4523C24.9368 71.7761 27.9103 70.6407 30.6648 69.0841L32.671 71.0829C34.1109 72.5175 36.0638 73.3234 38.1002 73.3234C40.1365 73.3234 42.0894 72.5175 43.5294 71.0829C44.9693 69.6483 45.7782 67.7026 45.7782 65.6738C45.7782 63.645 44.9693 61.6993 43.5294 60.2647L41.8212 58.5628C43.5249 55.9025 44.8232 53.005 45.6734 49.965H48.5026C50.5075 49.9169 52.414 49.0897 53.8149 47.66C55.2158 46.2302 56 44.3114 56 42.3134C56 40.3154 55.2158 38.3965 53.8149 36.9668C52.414 35.5371 50.5075 34.7098 48.5026 34.6618V34.6618ZM37.8622 41.4913C37.8631 45.9969 36.5228 50.4016 34.011 54.1483C31.4992 57.895 27.9285 60.8154 23.7507 62.5402C19.5728 64.2651 14.9754 64.7168 10.5399 63.8384C6.10432 62.9599 2.02986 60.7907 -1.16823 57.605C-4.36632 54.4194 -6.54438 50.3604 -7.42697 45.9415C-8.30956 41.5225 -7.85703 36.942 -6.12661 32.7793C-4.39619 28.6165 -1.4656 25.0586 2.29453 22.5553C6.05466 20.052 10.4754 18.7159 14.9978 18.7159C21.0607 18.7171 26.875 21.1168 31.1625 25.3877C35.45 29.6585 37.8598 35.4508 37.8622 41.4913V41.4913Z" fill="#FAD101"/>
<path d="M0.57178 41.4912C0.57266 44.3391 1.42115 47.1228 3.00996 49.4902C4.59876 51.8577 6.85652 53.7026 9.49773 54.7916C12.1389 55.8806 15.045 56.1649 17.8483 55.6084C20.6517 55.052 23.2265 53.6798 25.2471 51.6654C27.2677 49.651 28.6434 47.0849 29.2002 44.2916C29.757 41.4983 29.4699 38.6032 28.3752 35.9724C27.2805 33.3416 25.4274 31.0934 23.0501 29.5119C20.6729 27.9304 17.8784 27.0868 15.0199 27.0877C13.1218 27.0877 11.2423 27.4603 9.48882 28.1842C7.73531 28.9082 6.14216 29.9693 4.8004 31.3069C3.45865 32.6445 2.39459 34.2324 1.66903 35.9799C0.943463 37.7274 0.570611 39.6002 0.57178 41.4912V41.4912Z" fill="#FAD101"/>
<path d="M97.8428 31.4841C97.8025 31.4839 97.7631 31.472 97.7296 31.4497C97.6961 31.4274 97.6698 31.3958 97.6542 31.3588C97.6346 31.3083 97.6355 31.2523 97.6566 31.2024C97.6777 31.1525 97.7174 31.1128 97.7674 31.0915C97.7674 31.0915 98.2997 30.8702 99.2847 30.4818C99.3101 30.4703 99.3375 30.4639 99.3654 30.4633C99.3933 30.4626 99.421 30.4676 99.4469 30.478C99.4728 30.4883 99.4963 30.5039 99.5159 30.5236C99.5356 30.5433 99.551 30.5667 99.5613 30.5926C99.5715 30.6184 99.5764 30.6461 99.5756 30.6738C99.5748 30.7016 99.5683 30.7289 99.5565 30.7541C99.5448 30.7793 99.528 30.8019 99.5072 30.8204C99.4864 30.8389 99.4621 30.853 99.4356 30.8619C98.4548 31.2461 97.9225 31.4674 97.9225 31.4674C97.8977 31.4792 97.8703 31.485 97.8428 31.4841V31.4841Z" fill="#3A67B3"/>
<path d="M170.537 32.9416C170.086 32.9438 169.637 32.9005 169.195 32.8122C169.143 32.8001 169.096 32.7682 169.067 32.723C169.037 32.6779 169.026 32.623 169.036 32.57C169.042 32.5436 169.052 32.5186 169.067 32.4964C169.083 32.4742 169.102 32.4551 169.125 32.4404C169.147 32.4257 169.173 32.4155 169.199 32.4105C169.226 32.4055 169.253 32.4058 169.279 32.4113C169.693 32.4962 170.114 32.5381 170.537 32.5365C171.173 32.5335 171.806 32.4536 172.423 32.2985C172.476 32.2859 172.531 32.2947 172.578 32.3228C172.624 32.351 172.657 32.3963 172.67 32.4489C172.677 32.4749 172.679 32.5021 172.675 32.5287C172.671 32.5554 172.661 32.581 172.647 32.604C172.633 32.627 172.615 32.6469 172.593 32.6626C172.571 32.6783 172.546 32.6894 172.519 32.6952C171.871 32.8552 171.205 32.9379 170.537 32.9416V32.9416ZM259.569 32.737C258.492 32.737 257.39 32.6911 256.296 32.6368C256.269 32.6357 256.242 32.6293 256.218 32.618C256.193 32.6068 256.171 32.5908 256.153 32.571C256.135 32.5512 256.121 32.528 256.111 32.5028C256.102 32.4775 256.098 32.4507 256.099 32.4238C256.1 32.3967 256.106 32.3701 256.118 32.3456C256.13 32.3211 256.146 32.2993 256.167 32.2813C256.187 32.2633 256.211 32.2497 256.237 32.2412C256.262 32.2326 256.29 32.2294 256.317 32.2317C257.407 32.286 258.501 32.3194 259.574 32.3319C259.629 32.3319 259.683 32.3539 259.722 32.3931C259.761 32.4322 259.783 32.4853 259.783 32.5407C259.783 32.5961 259.761 32.6492 259.722 32.6884C259.683 32.7275 259.629 32.7495 259.574 32.7495L259.569 32.737ZM262.839 32.7036C262.783 32.7036 262.73 32.6816 262.691 32.6424C262.651 32.6033 262.629 32.5502 262.629 32.4948C262.629 32.4394 262.651 32.3863 262.691 32.3471C262.73 32.308 262.783 32.286 262.839 32.286C263.933 32.2526 265.027 32.1899 266.091 32.1106C266.119 32.1084 266.147 32.1116 266.173 32.1201C266.199 32.1286 266.224 32.1421 266.245 32.1599C266.266 32.1778 266.283 32.1996 266.295 32.2241C266.308 32.2486 266.316 32.2753 266.318 32.3027C266.32 32.3301 266.317 32.3577 266.308 32.3839C266.3 32.41 266.286 32.4343 266.268 32.4552C266.25 32.4762 266.229 32.4934 266.204 32.5059C266.179 32.5184 266.153 32.526 266.125 32.5282C265.052 32.6117 263.95 32.6702 262.851 32.7078L262.839 32.7036ZM253.047 32.4113H253.026C251.949 32.3152 250.855 32.1983 249.77 32.0647C249.716 32.0564 249.668 32.0279 249.635 31.9851C249.602 31.9423 249.588 31.8885 249.594 31.835C249.601 31.7813 249.629 31.7327 249.672 31.6998C249.716 31.6669 249.77 31.6525 249.824 31.6596C250.901 31.7932 251.991 31.9101 253.064 32.0062C253.091 32.0083 253.117 32.0157 253.141 32.028C253.165 32.0404 253.186 32.0574 253.203 32.078C253.221 32.0986 253.233 32.1225 253.241 32.1482C253.249 32.1739 253.251 32.2009 253.249 32.2275C253.246 32.2792 253.224 32.3281 253.187 32.3639C253.149 32.3997 253.099 32.4197 253.047 32.4196V32.4113ZM269.348 32.1941C269.299 32.1935 269.251 32.1749 269.214 32.1419C269.177 32.1089 269.153 32.0636 269.147 32.0145C269.144 31.9882 269.145 31.9614 269.152 31.9357C269.159 31.9101 269.171 31.8861 269.188 31.8651C269.204 31.8441 269.225 31.8265 269.248 31.8135C269.271 31.8004 269.297 31.7921 269.323 31.789C270.413 31.6512 271.499 31.4842 272.542 31.2921C272.57 31.2874 272.598 31.2882 272.625 31.2944C272.652 31.3006 272.678 31.3121 272.701 31.3281C272.724 31.3442 272.743 31.3646 272.758 31.3882C272.773 31.4117 272.783 31.438 272.788 31.4654C272.792 31.4928 272.791 31.5209 272.785 31.548C272.779 31.5751 272.767 31.6008 272.751 31.6234C272.735 31.6461 272.715 31.6654 272.691 31.6802C272.667 31.695 272.641 31.705 272.614 31.7097C271.566 31.9018 270.472 32.0688 269.378 32.2108L269.348 32.1941ZM246.563 31.6095H246.53C245.461 31.4383 244.379 31.2462 243.306 31.0373C243.253 31.0253 243.207 30.9934 243.178 30.9482C243.148 30.9031 243.137 30.8482 243.147 30.7951C243.152 30.769 243.162 30.7441 243.177 30.7219C243.192 30.6997 243.211 30.6806 243.233 30.6659C243.255 30.6511 243.28 30.6409 243.306 30.6358C243.333 30.6308 243.36 30.631 243.386 30.6364C244.451 30.8453 245.532 31.0541 246.597 31.2086C246.652 31.213 246.704 31.2392 246.74 31.2815C246.776 31.3238 246.794 31.3787 246.789 31.4341C246.785 31.4895 246.759 31.5408 246.716 31.5768C246.674 31.6129 246.619 31.6306 246.563 31.6262V31.6095ZM175.449 31.4299C175.405 31.4292 175.363 31.4144 175.328 31.3878C175.293 31.3612 175.268 31.3241 175.255 31.2821C175.243 31.24 175.245 31.1952 175.26 31.1541C175.275 31.1131 175.303 31.078 175.34 31.0541C176.242 30.495 177.03 29.7709 177.662 28.9201C177.695 28.8763 177.744 28.847 177.798 28.8384C177.852 28.8299 177.907 28.8427 177.952 28.8742C177.994 28.9066 178.023 28.9541 178.032 29.007C178.04 29.0598 178.028 29.1139 177.998 29.1581C177.334 30.0484 176.51 30.8075 175.567 31.3965C175.532 31.419 175.491 31.4306 175.449 31.4299V31.4299ZM166.442 31.2169C166.412 31.2171 166.383 31.2109 166.356 31.1986C166.329 31.1864 166.306 31.1684 166.286 31.1459C165.823 30.5861 165.469 29.9444 165.243 29.2542C165.113 28.8742 165.004 28.4941 164.916 28.1225C164.903 28.0699 164.912 28.0144 164.94 27.9683C164.969 27.9221 165.014 27.8889 165.067 27.8761C165.12 27.8635 165.175 27.8722 165.222 27.9004C165.268 27.9286 165.301 27.9739 165.314 28.0264C165.398 28.3856 165.503 28.7531 165.628 29.1247C165.837 29.7662 166.166 30.3626 166.597 30.8828C166.632 30.9239 166.65 30.9772 166.646 31.0312C166.642 31.0852 166.617 31.1355 166.576 31.171C166.537 31.2002 166.49 31.2163 166.442 31.2169V31.2169ZM275.774 31.0248C275.728 31.0259 275.684 31.011 275.648 30.9828C275.612 30.9546 275.587 30.9148 275.577 30.8703C275.57 30.8445 275.568 30.8176 275.572 30.7912C275.576 30.7648 275.585 30.7393 275.598 30.7164C275.612 30.6934 275.63 30.6734 275.652 30.6576C275.673 30.6417 275.698 30.6302 275.724 30.6239C276.801 30.3608 277.853 30.0685 278.855 29.7469C278.881 29.7385 278.908 29.7353 278.935 29.7375C278.962 29.7397 278.989 29.7472 279.013 29.7596C279.037 29.7721 279.058 29.7892 279.076 29.8099C279.093 29.8307 279.107 29.8547 279.115 29.8806C279.13 29.9321 279.125 29.9877 279.1 30.0354C279.075 30.0831 279.032 30.119 278.981 30.1353C277.97 30.4569 276.885 30.7576 275.824 31.0206L275.774 31.0248ZM240.146 30.3525H240.116C239.06 30.1103 237.991 29.8472 236.939 29.5674C236.887 29.5528 236.843 29.5182 236.816 29.4713C236.79 29.4244 236.783 29.3689 236.797 29.3168C236.804 29.2913 236.815 29.2673 236.832 29.2463C236.848 29.2254 236.868 29.2078 236.891 29.1946C236.914 29.1814 236.939 29.1728 236.965 29.1694C236.992 29.1661 237.018 29.1679 237.044 29.1748C238.092 29.4505 239.14 29.7135 240.209 29.9558C240.264 29.9618 240.315 29.9897 240.35 30.0332C240.385 30.0766 240.401 30.1321 240.395 30.1875C240.389 30.2429 240.361 30.2936 240.318 30.3284C240.274 30.3633 240.218 30.3794 240.163 30.3734L240.146 30.3525ZM102.407 29.7135C102.366 29.7133 102.325 29.7004 102.292 29.6765C102.258 29.6525 102.232 29.6188 102.219 29.5799C102.209 29.5553 102.204 29.5289 102.204 29.5024C102.205 29.4758 102.211 29.4496 102.222 29.4254C102.233 29.4012 102.248 29.3795 102.268 29.3615C102.288 29.3436 102.311 29.3298 102.336 29.321C103.246 28.9786 104.277 28.5985 105.408 28.1893C105.459 28.1717 105.515 28.1745 105.563 28.1971C105.612 28.2198 105.649 28.2604 105.668 28.3104C105.686 28.3571 105.685 28.4087 105.667 28.4551C105.648 28.5014 105.613 28.5392 105.568 28.561C104.436 28.9786 103.409 29.346 102.504 29.6885C102.474 29.7035 102.441 29.712 102.407 29.7135V29.7135ZM281.986 29.0287C281.946 29.0285 281.906 29.0166 281.873 28.9943C281.839 28.972 281.813 28.9404 281.797 28.9034C281.778 28.8529 281.779 28.7968 281.8 28.747C281.821 28.6971 281.86 28.6574 281.91 28.6361C282.912 28.229 283.891 27.7704 284.845 27.2622C284.892 27.237 284.948 27.2316 285 27.2473C285.052 27.2629 285.095 27.2983 285.121 27.3457C285.145 27.3936 285.15 27.4489 285.135 27.5002C285.119 27.5515 285.084 27.5949 285.037 27.6213C284.111 28.1141 283.109 28.586 282.061 29.0161C282.037 29.0243 282.012 29.0285 281.986 29.0287V29.0287ZM233.829 28.6862H233.77C232.731 28.3772 231.675 28.0431 230.648 27.7007C230.597 27.6835 230.555 27.6473 230.531 27.5997C230.506 27.5521 230.502 27.4969 230.518 27.446C230.526 27.4201 230.539 27.3962 230.557 27.3755C230.574 27.3549 230.596 27.3381 230.62 27.326C230.644 27.3139 230.671 27.3068 230.698 27.3052C230.725 27.3035 230.752 27.3074 230.778 27.3165C231.809 27.6548 232.873 27.9847 233.888 28.2937C233.943 28.3014 233.994 28.3309 234.027 28.3755C234.061 28.4202 234.076 28.4763 234.068 28.5317C234.06 28.5871 234.031 28.6371 233.986 28.6708C233.941 28.7045 233.885 28.719 233.829 28.7113V28.6862ZM108.56 27.4961C108.505 27.5049 108.448 27.4914 108.402 27.4585C108.357 27.4256 108.326 27.376 108.317 27.3207C108.308 27.2653 108.322 27.2087 108.355 27.1632C108.388 27.1178 108.438 27.0873 108.493 27.0785C109.474 26.7402 110.51 26.3894 111.591 26.0261C111.643 26.01 111.699 26.0145 111.747 26.0387C111.795 26.0628 111.833 26.1047 111.851 26.1556C111.86 26.181 111.864 26.2081 111.862 26.2351C111.861 26.2621 111.853 26.2884 111.841 26.3126C111.829 26.3368 111.812 26.3583 111.792 26.3758C111.771 26.3933 111.747 26.4065 111.721 26.4145C110.644 26.7736 109.625 27.1244 108.628 27.4627C108.608 27.4782 108.585 27.4895 108.56 27.4961V27.4961ZM227.638 26.6274C227.615 26.6314 227.591 26.6314 227.567 26.6274C226.548 26.2558 225.521 25.8632 224.511 25.4623C224.486 25.4522 224.463 25.4373 224.444 25.4184C224.425 25.3995 224.41 25.377 224.399 25.3521C224.388 25.3273 224.383 25.3006 224.383 25.2737C224.383 25.2467 224.388 25.22 224.398 25.1951C224.408 25.1702 224.422 25.1476 224.441 25.1284C224.46 25.1092 224.482 25.0939 224.506 25.0834C224.531 25.0729 224.557 25.0674 224.584 25.0672C224.611 25.067 224.637 25.0722 224.662 25.0823C225.668 25.4999 226.691 25.8758 227.709 26.2474C227.76 26.2662 227.8 26.3039 227.823 26.3522C227.846 26.4006 227.849 26.4559 227.831 26.5063C227.814 26.5432 227.787 26.5744 227.753 26.596C227.719 26.6175 227.679 26.6285 227.638 26.6274V26.6274ZM178.92 26.2224C178.865 26.2224 178.813 26.2008 178.775 26.1624C178.736 26.1241 178.714 26.072 178.714 26.0177C178.688 24.9691 178.302 23.9611 177.62 23.1613C177.587 23.1183 177.573 23.0643 177.579 23.0105C177.585 22.9568 177.612 22.9075 177.654 22.8732C177.675 22.8564 177.699 22.8439 177.725 22.8365C177.751 22.8291 177.779 22.8269 177.806 22.83C177.832 22.8331 177.858 22.8415 177.882 22.8546C177.906 22.8678 177.926 22.8854 177.943 22.9066C178.681 23.7793 179.098 24.8769 179.125 26.0177C179.125 26.072 179.104 26.1241 179.065 26.1624C179.027 26.2008 178.974 26.2224 178.92 26.2224V26.2224ZM287.741 25.9384C287.708 25.9381 287.676 25.9304 287.647 25.9159C287.618 25.9015 287.593 25.8806 287.573 25.8549C287.542 25.811 287.529 25.7566 287.538 25.7035C287.546 25.6503 287.576 25.6027 287.619 25.5709C288.502 24.9485 289.328 24.2498 290.088 23.4829C290.128 23.4503 290.178 23.4336 290.229 23.4359C290.28 23.4383 290.328 23.4596 290.365 23.4956C290.401 23.5317 290.422 23.5799 290.424 23.6309C290.427 23.6818 290.41 23.7318 290.377 23.771C289.602 24.5473 288.76 25.2557 287.862 25.8883C287.825 25.9222 287.775 25.9401 287.724 25.9384H287.741ZM114.764 25.4331C114.721 25.4332 114.679 25.4194 114.644 25.3938C114.609 25.3683 114.584 25.3323 114.571 25.2911C114.555 25.2402 114.56 25.185 114.584 25.1374C114.608 25.0898 114.65 25.0536 114.701 25.0364C115.715 24.7148 116.755 24.3891 117.828 24.0634C117.854 24.055 117.881 24.0518 117.907 24.054C117.934 24.0563 117.96 24.0638 117.984 24.0763C118.008 24.0888 118.029 24.1059 118.046 24.1266C118.063 24.1473 118.076 24.1713 118.084 24.197C118.098 24.249 118.092 24.3046 118.066 24.3521C118.04 24.3996 117.997 24.4353 117.945 24.4517C116.878 24.7775 115.838 25.1018 114.827 25.4247L114.764 25.4331ZM164.887 25.0489H164.861C164.808 25.0426 164.758 25.0154 164.725 24.9731C164.691 24.9309 164.675 24.8771 164.681 24.8234C164.806 23.7145 165.165 22.6445 165.733 21.683C165.745 21.6563 165.762 21.6324 165.783 21.6128C165.805 21.5931 165.83 21.5783 165.858 21.5692C165.885 21.5601 165.914 21.5569 165.943 21.5599C165.972 21.563 166 21.5721 166.026 21.5867C166.051 21.6013 166.072 21.6211 166.089 21.6447C166.106 21.6684 166.118 21.6953 166.124 21.7237C166.129 21.7522 166.129 21.7815 166.122 21.8098C166.116 21.838 166.103 21.8646 166.085 21.8876C165.546 22.8004 165.206 23.8165 165.088 24.8693C165.082 24.9184 165.058 24.9637 165.021 24.9967C164.984 25.0297 164.936 25.0483 164.887 25.0489V25.0489ZM221.56 24.2137C221.535 24.2177 221.51 24.2177 221.485 24.2137C220.471 23.7961 219.448 23.4035 218.446 23.0235C218.396 23.003 218.357 22.9643 218.335 22.9153C218.313 22.8664 218.311 22.8109 218.329 22.7604C218.348 22.7102 218.387 22.6698 218.437 22.6479C218.486 22.626 218.542 22.6244 218.593 22.6435C219.595 23.0235 220.622 23.4244 221.64 23.8337C221.665 23.8438 221.688 23.8587 221.707 23.8776C221.727 23.8965 221.742 23.919 221.752 23.9439C221.763 23.9687 221.768 23.9954 221.769 24.0223C221.769 24.0493 221.764 24.076 221.753 24.1009C221.738 24.1391 221.711 24.1717 221.677 24.1947C221.642 24.2178 221.602 24.2302 221.56 24.2304V24.2137ZM121.018 23.5497C120.974 23.5495 120.932 23.5351 120.897 23.5088C120.862 23.4824 120.837 23.4455 120.825 23.4035C120.817 23.3781 120.814 23.3511 120.816 23.3245C120.819 23.2978 120.827 23.2719 120.84 23.2485C120.853 23.225 120.87 23.2044 120.892 23.188C120.913 23.1716 120.937 23.1597 120.963 23.153C121.994 22.8523 123.059 22.5558 124.111 22.2635C124.161 22.2548 124.213 22.265 124.256 22.2922C124.299 22.3194 124.331 22.3616 124.344 22.4105C124.358 22.4595 124.353 22.5118 124.33 22.5571C124.307 22.6025 124.268 22.6378 124.22 22.656C123.155 22.9484 122.108 23.2435 121.076 23.5414C121.058 23.5485 121.038 23.5513 121.018 23.5497ZM215.458 21.9336C215.434 21.9375 215.41 21.9375 215.386 21.9336C214.355 21.5661 213.316 21.2111 212.301 20.877C212.276 20.8685 212.252 20.8551 212.232 20.8375C212.211 20.8199 212.195 20.7984 212.183 20.7744C212.17 20.7503 212.163 20.7242 212.161 20.6974C212.159 20.6705 212.163 20.6436 212.171 20.6181C212.18 20.5926 212.193 20.569 212.211 20.5487C212.229 20.5284 212.25 20.5118 212.274 20.4998C212.299 20.4877 212.325 20.4806 212.352 20.4787C212.379 20.4768 212.406 20.4802 212.431 20.4887C213.45 20.8269 214.489 21.1819 215.525 21.5494C215.576 21.5682 215.618 21.6063 215.641 21.6555C215.665 21.7046 215.668 21.7609 215.65 21.8125C215.631 21.8455 215.602 21.8724 215.568 21.8901C215.534 21.9078 215.496 21.9156 215.458 21.9127V21.9336ZM127.326 21.8208C127.27 21.8275 127.214 21.8118 127.17 21.7774C127.126 21.7429 127.098 21.6924 127.091 21.6371C127.085 21.5817 127.1 21.5259 127.135 21.4821C127.169 21.4382 127.22 21.4099 127.276 21.4032C128.319 21.1318 129.371 20.8687 130.449 20.6098C130.476 20.6035 130.505 20.6026 130.533 20.6073C130.56 20.6119 130.587 20.622 130.611 20.637C130.635 20.6519 130.656 20.6714 130.672 20.6943C130.688 20.7172 130.7 20.7431 130.707 20.7705C130.713 20.798 130.714 20.8264 130.709 20.8541C130.704 20.8819 130.694 20.9084 130.679 20.9323C130.664 20.9561 130.645 20.9768 130.622 20.9931C130.599 21.0094 130.573 21.0211 130.545 21.0274C129.48 21.2863 128.42 21.5494 127.376 21.8208H127.326ZM175.298 21.1527C175.26 21.1518 175.222 21.1402 175.189 21.1192C174.689 20.813 174.173 20.5342 173.643 20.284C173.223 20.0711 172.758 19.8664 172.301 19.6869C172.271 19.6759 172.245 19.6581 172.223 19.6347C172.201 19.6114 172.185 19.5833 172.177 19.5527C172.168 19.5221 172.167 19.4899 172.173 19.4588C172.18 19.4277 172.193 19.3985 172.213 19.3737C172.223 19.3488 172.238 19.3262 172.256 19.3071C172.275 19.2881 172.297 19.273 172.322 19.2629C172.347 19.2527 172.373 19.2477 172.4 19.2481C172.427 19.2484 172.453 19.2542 172.477 19.2651C172.943 19.453 173.404 19.6576 173.844 19.8706C174.386 20.132 174.915 20.4206 175.428 20.735C175.473 20.7656 175.504 20.812 175.516 20.8647C175.528 20.9174 175.519 20.9726 175.491 21.019C175.473 21.054 175.445 21.0832 175.411 21.1032C175.377 21.1231 175.338 21.133 175.298 21.1318V21.1527ZM133.68 20.2924C133.625 20.2979 133.569 20.2812 133.526 20.246C133.483 20.2108 133.455 20.1598 133.45 20.1045C133.444 20.0491 133.461 19.9938 133.496 19.9507C133.532 19.9076 133.583 19.8803 133.638 19.8748C134.72 19.6367 135.797 19.4071 136.837 19.1983C136.864 19.1928 136.893 19.1927 136.92 19.1982C136.948 19.2036 136.974 19.2144 136.997 19.2299C137.02 19.2454 137.041 19.2653 137.056 19.2886C137.072 19.3118 137.083 19.3379 137.088 19.3653C137.094 19.3927 137.094 19.421 137.088 19.4484C137.083 19.4758 137.072 19.5019 137.056 19.5252C137.041 19.5484 137.021 19.5684 136.997 19.584C136.974 19.5996 136.948 19.6104 136.92 19.6159C135.881 19.8288 134.804 20.0335 133.727 20.2924H133.68ZM209.254 19.8748C209.235 19.8791 209.215 19.8791 209.195 19.8748C208.143 19.5574 207.1 19.2484 206.064 18.9644C206.036 18.9578 206.01 18.9458 205.986 18.929C205.963 18.9122 205.943 18.891 205.928 18.8666C205.913 18.8422 205.903 18.815 205.898 18.7866C205.893 18.7583 205.894 18.7293 205.901 18.7013C205.907 18.6733 205.92 18.6469 205.936 18.6236C205.953 18.6003 205.975 18.5805 205.999 18.5654C206.024 18.5503 206.051 18.5401 206.079 18.5355C206.108 18.5309 206.137 18.5319 206.165 18.5384C207.196 18.8266 208.261 19.1314 209.304 19.453C209.36 19.4608 209.41 19.4902 209.444 19.5348C209.478 19.5795 209.492 19.6357 209.485 19.691C209.477 19.7464 209.447 19.7964 209.402 19.8301C209.358 19.8638 209.301 19.8784 209.246 19.8706L209.254 19.8748ZM168.051 19.5699C168.009 19.57 167.967 19.5569 167.933 19.5326C167.898 19.5083 167.872 19.4738 167.857 19.434C167.843 19.3942 167.842 19.3509 167.853 19.3102C167.864 19.2695 167.888 19.2333 167.921 19.2066C168.21 18.9769 168.516 18.7514 168.839 18.5343C167.955 18.3088 167.024 18.1167 166.06 17.9413C166.034 17.9367 166.009 17.9271 165.986 17.9128C165.964 17.8986 165.945 17.8801 165.929 17.8583C165.914 17.8366 165.904 17.812 165.898 17.7861C165.892 17.7602 165.892 17.7335 165.897 17.7074C165.9 17.6807 165.909 17.6549 165.923 17.6318C165.937 17.6087 165.956 17.5886 165.978 17.573C166 17.5573 166.025 17.5463 166.051 17.5407C166.078 17.5351 166.105 17.535 166.131 17.5404C167.238 17.7325 168.307 17.958 169.309 18.2378C169.769 17.9587 170.245 17.705 170.734 17.4777C170.782 17.4606 170.834 17.4617 170.881 17.481C170.928 17.5003 170.967 17.5364 170.989 17.5822C171.011 17.6279 171.015 17.6802 171 17.7288C170.985 17.7774 170.953 17.8189 170.91 17.8452C169.936 18.2904 169.02 18.8513 168.181 19.5156C168.144 19.5433 168.098 19.558 168.051 19.5574V19.5699ZM140.089 18.9978C140.034 19.0022 139.979 18.9845 139.936 18.9485C139.894 18.9124 139.867 18.8611 139.863 18.8057C139.859 18.7503 139.876 18.6955 139.912 18.6532C139.949 18.6109 140 18.5846 140.056 18.5802C141.15 18.3839 142.235 18.2044 143.287 18.0415C143.341 18.0353 143.395 18.0494 143.439 18.0812C143.482 18.1129 143.512 18.1599 143.522 18.2127C143.526 18.2393 143.525 18.2665 143.519 18.2926C143.512 18.3188 143.501 18.3435 143.485 18.3652C143.469 18.3869 143.449 18.4053 143.426 18.4192C143.403 18.4332 143.377 18.4425 143.35 18.4466C142.302 18.6053 141.217 18.789 140.127 18.9811L140.089 18.9978ZM202.963 18.1375H202.912C201.848 17.8745 200.779 17.6239 199.735 17.4026C199.682 17.3906 199.637 17.3585 199.608 17.3131C199.579 17.2678 199.569 17.2129 199.58 17.1604C199.585 17.1338 199.595 17.1084 199.61 17.0859C199.625 17.0634 199.645 17.0441 199.668 17.0293C199.69 17.0145 199.716 17.0044 199.742 16.9996C199.769 16.9949 199.797 16.9956 199.823 17.0017C200.871 17.2272 201.944 17.4777 203.013 17.7408C203.068 17.7475 203.119 17.7758 203.154 17.8197C203.188 17.8636 203.204 17.9193 203.197 17.9747C203.191 18.0301 203.162 18.0805 203.118 18.115C203.074 18.1494 203.018 18.1651 202.963 18.1584V18.1375ZM146.557 17.9956C146.501 17.9989 146.447 17.9801 146.405 17.9433C146.363 17.9065 146.338 17.8547 146.335 17.7993C146.331 17.7439 146.35 17.6895 146.387 17.648C146.424 17.6065 146.476 17.5813 146.532 17.578C147.634 17.436 148.728 17.3149 149.784 17.2146C149.838 17.211 149.892 17.2279 149.934 17.262C149.976 17.2961 150.003 17.3449 150.011 17.3984C150.015 17.452 149.999 17.5054 149.964 17.5468C149.93 17.5882 149.88 17.6144 149.826 17.6197C148.774 17.7199 147.68 17.841 146.582 17.9789L146.557 17.9956ZM162.858 17.5028C161.818 17.4026 160.724 17.3316 159.609 17.2898C159.554 17.2898 159.5 17.2678 159.461 17.2287C159.422 17.1895 159.4 17.1364 159.4 17.081C159.4 17.0256 159.422 16.9725 159.461 16.9334C159.5 16.8942 159.554 16.8722 159.609 16.8722C160.733 16.9098 161.835 16.9808 162.883 17.081C162.939 17.0838 162.991 17.1084 163.028 17.1495C163.065 17.1907 163.085 17.2449 163.082 17.3002C163.079 17.3556 163.055 17.4076 163.013 17.4448C162.972 17.482 162.918 17.5014 162.862 17.4986L162.858 17.5028ZM153.066 17.3859C153.014 17.386 152.964 17.3661 152.925 17.3304C152.887 17.2947 152.864 17.2458 152.861 17.1938C152.859 17.1669 152.863 17.1399 152.872 17.1144C152.88 17.089 152.894 17.0655 152.912 17.0453C152.93 17.0251 152.952 17.0087 152.976 16.9969C153 16.9851 153.027 16.9782 153.054 16.9766C154.169 16.914 155.271 16.8722 156.327 16.8555C156.354 16.8544 156.382 16.8587 156.407 16.8683C156.432 16.8779 156.456 16.8924 156.475 16.9112C156.495 16.9299 156.51 16.9524 156.521 16.9773C156.531 17.0021 156.537 17.0289 156.537 17.056C156.537 17.1099 156.516 17.1618 156.479 17.2007C156.441 17.2396 156.39 17.2626 156.336 17.2648C155.284 17.2648 154.185 17.319 153.075 17.3859H153.066ZM196.57 16.7553H196.524C195.439 16.559 194.357 16.3836 193.309 16.2374C193.282 16.2339 193.255 16.225 193.231 16.2112C193.207 16.1974 193.186 16.179 193.169 16.1571C193.152 16.1352 193.14 16.1102 193.133 16.0835C193.125 16.0568 193.124 16.0289 193.127 16.0015C193.131 15.9741 193.14 15.9476 193.153 15.9237C193.167 15.8997 193.186 15.8787 193.208 15.8618C193.23 15.8449 193.255 15.8325 193.282 15.8253C193.308 15.8181 193.336 15.8163 193.364 15.8198C194.42 15.9702 195.506 16.1456 196.6 16.3418C196.627 16.3443 196.654 16.3522 196.679 16.3649C196.703 16.3777 196.725 16.3952 196.742 16.4163C196.76 16.4374 196.774 16.4618 196.782 16.4881C196.79 16.5144 196.793 16.542 196.791 16.5694C196.788 16.5969 196.78 16.6235 196.767 16.6479C196.755 16.6723 196.737 16.6939 196.716 16.7116C196.695 16.7292 196.67 16.7425 196.644 16.7508C196.617 16.759 196.59 16.7619 196.562 16.7595L196.57 16.7553ZM173.89 16.726C173.834 16.7332 173.778 16.7181 173.734 16.6841C173.689 16.65 173.66 16.5998 173.653 16.5444C173.646 16.489 173.661 16.433 173.695 16.3888C173.729 16.3445 173.78 16.3156 173.835 16.3084C174.889 16.0156 175.958 15.7841 177.038 15.6152C177.093 15.6064 177.15 15.6199 177.196 15.6527C177.241 15.6856 177.272 15.7352 177.281 15.7906C177.29 15.846 177.276 15.9026 177.243 15.948C177.21 15.9935 177.16 16.024 177.105 16.0328C176.037 16.2047 174.981 16.4376 173.94 16.7302L173.89 16.726ZM190.111 15.8407C189.005 15.728 187.915 15.6444 186.863 15.5943C186.809 15.5901 186.758 15.565 186.722 15.5245C186.686 15.484 186.668 15.4312 186.67 15.3772C186.67 15.3503 186.676 15.3238 186.688 15.2993C186.699 15.2748 186.715 15.2529 186.735 15.2349C186.755 15.2169 186.779 15.2032 186.804 15.1946C186.83 15.186 186.857 15.1828 186.884 15.1851C187.94 15.2394 189.042 15.3229 190.153 15.4356C190.209 15.4384 190.261 15.4631 190.298 15.5042C190.336 15.5453 190.355 15.5995 190.352 15.6549C190.35 15.7103 190.325 15.7623 190.283 15.7995C190.242 15.8367 190.188 15.856 190.132 15.8533L190.111 15.8407ZM180.324 15.6444C180.268 15.6444 180.215 15.6224 180.176 15.5833C180.137 15.5441 180.114 15.491 180.114 15.4356C180.114 15.3803 180.137 15.3272 180.176 15.288C180.215 15.2488 180.268 15.2268 180.324 15.2268C181.372 15.1517 182.474 15.1057 183.602 15.1016C183.657 15.1016 183.711 15.1236 183.75 15.1627C183.789 15.2019 183.811 15.255 183.811 15.3104C183.811 15.3657 183.789 15.4189 183.75 15.458C183.711 15.4972 183.657 15.5192 183.602 15.5192C182.483 15.5192 181.389 15.5693 180.349 15.6486L180.324 15.6444Z" fill="#3A67B3"/>
<path d="M292.239 21.257C292.202 21.2567 292.166 21.2481 292.134 21.2319C292.087 21.2041 292.054 21.1591 292.04 21.1067C292.027 21.0542 292.035 20.9987 292.063 20.9521C292.335 20.4925 292.571 20.0122 292.767 19.5156C292.789 19.4679 292.828 19.4305 292.877 19.411C292.926 19.3914 292.98 19.3913 293.029 19.4105C293.078 19.4298 293.118 19.467 293.14 19.5146C293.162 19.5621 293.165 19.6162 293.148 19.6659C292.944 20.1815 292.699 20.68 292.415 21.1567C292.397 21.1878 292.372 21.2135 292.341 21.2312C292.31 21.2488 292.274 21.2577 292.239 21.257V21.257Z" fill="#3A67B3"/>
<path d="M101.431 28.0807H99.9426C99.5201 26.1769 98.8137 24.347 97.8468 22.6518L99.0833 21.4199C99.9727 20.5338 100.472 19.3321 100.472 18.079C100.472 16.826 99.9727 15.6243 99.0833 14.7382C98.194 13.8522 96.9878 13.3544 95.7301 13.3544C94.4724 13.3544 93.2662 13.8522 92.3769 14.7382L91.3206 15.7906C89.6803 14.7401 87.8898 13.9432 86.0099 13.4269V11.7148C86.0099 10.4643 85.5113 9.26511 84.6239 8.38092C83.7364 7.49673 82.5327 7 81.2776 7C80.0226 7 78.8189 7.49673 77.9314 8.38092C77.044 9.26511 76.5454 10.4643 76.5454 11.7148V13.2014C74.6342 13.6211 72.7973 14.325 71.0964 15.2894L69.8389 14.0366C68.9496 13.1506 67.7434 12.6528 66.4857 12.6528C65.228 12.6528 64.0218 13.1506 63.1324 14.0366C62.2431 14.9227 61.7435 16.1244 61.7435 17.3775C61.7435 18.6305 62.2431 19.8323 63.1324 20.7183L64.1887 21.7707C63.1343 23.4049 62.3344 25.1888 61.8163 27.0617H60.0684C59.4354 27.0429 58.805 27.1509 58.2146 27.3793C57.6243 27.6077 57.0859 27.9518 56.6315 28.3913C56.1771 28.8308 55.8158 29.3566 55.5691 29.9378C55.3224 30.5189 55.1953 31.1434 55.1953 31.7744C55.1953 32.4053 55.3224 33.0299 55.5691 33.611C55.8158 34.1921 56.1771 34.718 56.6315 35.1575C57.0859 35.5969 57.6243 35.9411 58.2146 36.1694C58.805 36.3978 59.4354 36.5058 60.0684 36.4871H61.5606C61.9801 38.3917 62.6867 40.2221 63.6564 41.9159L62.3989 43.1687C61.5096 44.0548 61.0099 45.2565 61.0099 46.5096C61.0099 47.7626 61.5096 48.9644 62.3989 49.8504C63.2882 50.7364 64.4944 51.2342 65.7521 51.2342C67.0099 51.2342 68.216 50.7364 69.1054 49.8504L70.1575 48.8022C71.8265 49.8366 73.6422 50.615 75.5436 51.1116V52.8488C75.5248 53.4795 75.6332 54.1075 75.8624 54.6957C76.0916 55.2839 76.437 55.8202 76.8781 56.273C77.3192 56.7257 77.8471 57.0856 78.4303 57.3314C79.0136 57.5772 79.6405 57.7039 80.2738 57.7039C80.9071 57.7039 81.5339 57.5772 82.1172 57.3314C82.7005 57.0856 83.2283 56.7257 83.6694 56.273C84.1105 55.8202 84.4559 55.2839 84.6851 54.6957C84.9144 54.1075 85.0228 53.4795 85.0039 52.8488V51.3621C86.9159 50.9449 88.7531 50.2409 90.4529 49.2741L91.6895 50.5269C92.5788 51.413 93.785 51.9107 95.0427 51.9107C96.3004 51.9107 97.5066 51.413 98.3959 50.5269C99.2853 49.6409 99.7849 48.4391 99.7849 47.1861C99.7849 45.933 99.2853 44.7313 98.3959 43.8452L97.3439 42.7971C98.3884 41.1597 99.1823 39.3764 99.6995 37.506H101.443C102.076 37.5248 102.707 37.4168 103.297 37.1884C103.887 36.96 104.426 36.6159 104.88 36.1764C105.334 35.7369 105.696 35.2111 105.942 34.63C106.189 34.0488 106.316 33.4243 106.316 32.7933C106.316 32.1624 106.189 31.5378 105.942 30.9567C105.696 30.3756 105.334 29.8497 104.88 29.4103C104.426 28.9708 103.887 28.6267 103.297 28.3983C102.707 28.1699 102.076 28.0619 101.443 28.0807H101.431ZM94.875 32.2818C94.875 35.0578 94.0488 37.7714 92.5008 40.0796C90.9528 42.3877 88.7526 44.1867 86.1784 45.2491C83.6042 46.3114 80.7716 46.5893 78.0388 46.0478C75.3061 45.5062 72.7959 44.1694 70.8256 42.2065C68.8554 40.2436 67.5137 37.7427 66.9701 35.02C66.4265 32.2973 66.7055 29.4752 67.7718 26.9106C68.8381 24.3459 70.6437 22.1538 72.9605 20.6115C75.2772 19.0693 78.0009 18.2461 80.7872 18.2461C82.6373 18.2461 84.4692 18.6091 86.1784 19.3145C87.8876 20.0199 89.4406 21.0537 90.7488 22.357C92.057 23.6604 93.0947 25.2077 93.8027 26.9106C94.5106 28.6134 94.875 30.4386 94.875 32.2818V32.2818Z" fill="#73B4FF"/>
<path d="M71.8845 32.2817C71.8845 34.037 72.407 35.7529 73.3859 37.2123C74.3648 38.6717 75.7561 39.8091 77.3839 40.4807C79.0117 41.1522 80.8028 41.3277 82.5308 40.985C84.2587 40.6422 85.8457 39.7966 87.0913 38.5551C88.3368 37.3137 89.1847 35.7321 89.528 34.0104C89.8712 32.2887 89.6942 30.5043 89.0194 28.8828C88.3446 27.2614 87.2023 25.8757 85.737 24.9011C84.2717 23.9265 82.5492 23.4068 80.7873 23.4076C79.6179 23.4076 78.4598 23.6372 77.3794 24.0832C76.299 24.5292 75.3174 25.1829 74.4906 26.007C73.6638 26.8311 73.0081 27.8094 72.561 28.886C72.1138 29.9627 71.8839 31.1165 71.8845 32.2817V32.2817Z" fill="#73B4FF"/>
<path d="M309.587 7.02924L295.281 16.9348L291.597 22.8397L291.769 14.116L309.587 7.02924Z" fill="#3B70C7"/>
<path d="M248.78 8.63395C248.845 8.73664 248.888 8.85127 248.906 8.97091C248.925 9.09055 248.919 9.21272 248.889 9.33003C248.854 9.48893 248.776 9.63547 248.665 9.75435C248.553 9.87322 248.411 9.96008 248.255 10.0058L245.175 10.9013C245.02 10.9452 244.856 10.948 244.7 10.9093C244.544 10.8706 244.4 10.7918 244.284 10.6808C244.168 10.5697 244.083 10.4303 244.037 10.2763C243.992 10.1223 243.988 9.95916 244.025 9.8031L244.785 6.69776C244.823 6.54156 244.903 6.39827 245.015 6.28251C245.127 6.16675 245.267 6.08267 245.423 6.03885C245.577 5.99206 245.742 5.98745 245.898 6.02549C246.055 6.06353 246.199 6.14282 246.315 6.2551L248.631 8.465C248.688 8.51454 248.738 8.57135 248.78 8.63395ZM244.751 10.1072L244.782 10.1478C244.806 10.1718 244.837 10.1887 244.87 10.1964C244.904 10.2042 244.939 10.2025 244.972 10.1917L248.051 9.29962C248.086 9.29092 248.118 9.27286 248.143 9.24741C248.169 9.22195 248.186 9.19008 248.195 9.15525C248.203 9.12042 248.202 9.08396 248.191 9.04984C248.18 9.01572 248.16 8.98524 248.133 8.96172L245.813 6.75182C245.788 6.72839 245.757 6.71197 245.724 6.70425C245.69 6.69654 245.656 6.69779 245.623 6.7079C245.59 6.71863 245.56 6.73867 245.538 6.76562C245.516 6.79257 245.501 6.8253 245.497 6.85995L244.734 9.96529C244.721 10.013 244.727 10.0638 244.751 10.1072Z" fill="#D94559"/>
<path d="M136.188 32.2503L137.321 31.1217C137.445 30.9985 137.514 30.8313 137.514 30.6571C137.514 30.4828 137.445 30.3157 137.321 30.1925C137.198 30.0692 137.03 30 136.855 30C136.68 30 136.512 30.0692 136.389 30.1925L135.256 31.3211L134.123 30.1925C133.999 30.0697 133.832 30.0009 133.657 30.0012C133.483 30.0015 133.315 30.0709 133.192 30.1941C133.069 30.3174 133 30.4843 133 30.6583C133 30.8322 133.07 30.9989 133.194 31.1217L134.326 32.2503L133.194 33.3755C133.133 33.4365 133.084 33.5089 133.051 33.5886C133.018 33.6682 133.002 33.7535 133.002 33.8396C133.002 33.9258 133.019 34.011 133.052 34.0905C133.086 34.17 133.134 34.2423 133.195 34.3031C133.257 34.3639 133.329 34.412 133.409 34.4448C133.489 34.4777 133.575 34.4945 133.661 34.4943C133.748 34.4942 133.833 34.477 133.913 34.4439C133.993 34.4108 134.065 34.3624 134.126 34.3014L135.256 33.1761L136.389 34.3014C136.514 34.414 136.678 34.4744 136.846 34.4701C137.015 34.4658 137.175 34.3972 137.295 34.2783C137.414 34.1595 137.483 33.9995 137.487 33.8315C137.491 33.6635 137.431 33.5003 137.318 33.3755L136.188 32.2503Z" fill="#FFB86B"/>
</svg>
