<svg width="882" height="690" viewBox="0 0 882 690" fill="none" xmlns="http://www.w3.org/2000/svg">
<path d="M624.35 567.404C713.231 567.898 851.882 575.949 853.077 431.817C853.527 377.178 821.3 352.727 800.696 297.102C766.831 205.65 853.085 87.6529 769.002 38.736C698.165 -2.4556 643.803 93.3748 510.66 92.4489C339.089 91.2499 331.602 -17.929 233.961 28.1421C167.945 59.2559 245.333 102.853 143.19 137.42C38.0388 172.965 41.2151 202.258 35.1825 243.123C27.9007 292.45 73.267 312.355 88.874 379.606C92.5529 395.451 83.1004 430.769 82.7271 446.25C80.8839 521.963 117.993 575.463 189.265 575.866L624.35 567.404Z" fill="#D6E9FF"/>
<path d="M261.694 45.0573C261.621 45.0571 261.549 45.0354 261.488 44.9949C261.427 44.9544 261.379 44.897 261.351 44.8297C261.315 44.738 261.317 44.6361 261.355 44.5455C261.394 44.4549 261.466 44.3826 261.557 44.344C261.557 44.344 262.524 43.9418 264.314 43.2361C264.36 43.215 264.41 43.2035 264.461 43.2023C264.511 43.2011 264.562 43.2102 264.609 43.2291C264.656 43.2479 264.698 43.2761 264.734 43.3119C264.77 43.3477 264.798 43.3903 264.817 43.4373C264.835 43.4842 264.844 43.5345 264.843 43.585C264.841 43.6354 264.829 43.6851 264.808 43.7309C264.787 43.7766 264.756 43.8176 264.718 43.8513C264.681 43.8849 264.636 43.9106 264.588 43.9266C262.806 44.6248 261.839 45.027 261.839 45.027C261.793 45.0485 261.744 45.0589 261.694 45.0573V45.0573Z" fill="#3A67B3"/>
<path d="M393.794 47.7058C392.975 47.7099 392.159 47.631 391.356 47.4706C391.26 47.4487 391.176 47.3907 391.123 47.3086C391.069 47.2265 391.049 47.1268 391.067 47.0304C391.077 46.9826 391.096 46.9372 391.124 46.8968C391.151 46.8564 391.187 46.8218 391.228 46.795C391.269 46.7682 391.315 46.7498 391.363 46.7407C391.411 46.7316 391.461 46.7321 391.509 46.7421C392.26 46.8963 393.026 46.9726 393.794 46.9697C394.95 46.9643 396.101 46.819 397.221 46.5372C397.317 46.5143 397.418 46.5302 397.503 46.5814C397.587 46.6326 397.647 46.7149 397.671 46.8104C397.683 46.8577 397.686 46.9071 397.679 46.9555C397.672 47.004 397.655 47.0505 397.629 47.0923C397.603 47.1341 397.57 47.1703 397.53 47.1988C397.49 47.2273 397.444 47.2474 397.396 47.2581C396.218 47.5488 395.008 47.6991 393.794 47.7058V47.7058ZM555.584 47.334C553.627 47.334 551.623 47.2505 549.635 47.1518C549.586 47.1499 549.538 47.1383 549.494 47.1178C549.449 47.0973 549.409 47.0682 549.376 47.0323C549.343 46.9963 549.317 46.9542 549.3 46.9083C549.283 46.8624 549.275 46.8137 549.277 46.7648C549.279 46.7156 549.291 46.6673 549.312 46.6228C549.334 46.5783 549.364 46.5385 549.401 46.5059C549.438 46.4733 549.481 46.4484 549.528 46.4329C549.575 46.4175 549.624 46.4116 549.674 46.4157C551.654 46.5144 553.642 46.5751 555.592 46.5979C555.693 46.5979 555.79 46.6378 555.861 46.709C555.933 46.7802 555.973 46.8767 555.973 46.9773C555.973 47.0779 555.933 47.1744 555.861 47.2456C555.79 47.3168 555.693 47.3567 555.592 47.3567L555.584 47.334ZM561.525 47.2733C561.424 47.2733 561.328 47.2333 561.256 47.1621C561.185 47.091 561.145 46.9945 561.145 46.8938C561.145 46.7932 561.185 46.6967 561.256 46.6255C561.328 46.5544 561.424 46.5144 561.525 46.5144C563.513 46.4537 565.501 46.3399 567.436 46.1957C567.486 46.1917 567.536 46.1975 567.584 46.2129C567.632 46.2283 567.676 46.2529 567.714 46.2853C567.753 46.3178 567.784 46.3573 567.807 46.4019C567.83 46.4464 567.843 46.4949 567.847 46.5447C567.851 46.5946 567.846 46.6447 567.83 46.6923C567.815 46.7398 567.79 46.7839 567.757 46.8219C567.725 46.86 567.685 46.8913 567.64 46.914C567.596 46.9368 567.547 46.9506 567.497 46.9545C565.547 47.1063 563.544 47.2126 561.548 47.2809L561.525 47.2733ZM543.732 46.7421H543.694C541.737 46.5675 539.749 46.355 537.776 46.1122C537.679 46.0971 537.591 46.0453 537.532 45.9676C537.472 45.8898 537.445 45.7921 537.456 45.6948C537.469 45.5973 537.521 45.5089 537.599 45.4492C537.678 45.3894 537.777 45.3631 537.875 45.3761C539.832 45.6189 541.813 45.8314 543.763 46.0059C543.812 46.0097 543.859 46.0232 543.903 46.0456C543.946 46.0681 543.985 46.0989 544.016 46.1364C544.047 46.1739 544.07 46.2173 544.084 46.264C544.099 46.3107 544.103 46.3597 544.098 46.4081C544.094 46.5021 544.054 46.5909 543.986 46.656C543.918 46.721 543.827 46.7573 543.732 46.7572V46.7421ZM573.354 46.3474C573.264 46.3463 573.177 46.3126 573.11 46.2526C573.043 46.1926 573 46.1104 572.989 46.0211C572.982 45.9732 572.986 45.9246 572.998 45.8779C573.011 45.8313 573.033 45.7876 573.063 45.7495C573.092 45.7114 573.13 45.6795 573.172 45.6558C573.214 45.6321 573.261 45.617 573.309 45.6113C575.289 45.3609 577.262 45.0574 579.159 44.7083C579.209 44.6998 579.26 44.7012 579.309 44.7125C579.359 44.7237 579.405 44.7446 579.447 44.7738C579.488 44.803 579.523 44.8401 579.55 44.8829C579.577 44.9257 579.596 44.9734 579.604 45.0232C579.613 45.073 579.611 45.124 579.6 45.1733C579.589 45.2226 579.568 45.2692 579.538 45.3104C579.509 45.3516 579.472 45.3867 579.429 45.4136C579.386 45.4405 579.338 45.4587 579.288 45.4672C577.384 45.8162 575.396 46.1198 573.408 46.3778L573.354 46.3474ZM531.949 45.285H531.888C529.946 44.9739 527.981 44.6248 526.031 44.2454C525.935 44.2235 525.851 44.1655 525.797 44.0834C525.743 44.0013 525.723 43.9016 525.741 43.8052C525.75 43.7577 525.769 43.7124 525.796 43.6721C525.822 43.6317 525.857 43.5971 525.898 43.5703C525.938 43.5434 525.983 43.5249 526.031 43.5157C526.079 43.5065 526.128 43.5069 526.175 43.5168C528.11 43.8963 530.075 44.2757 532.01 44.5565C532.111 44.5646 532.205 44.6123 532.27 44.6891C532.336 44.766 532.368 44.8657 532.36 44.9663C532.352 45.0669 532.304 45.1602 532.227 45.2257C532.15 45.2912 532.05 45.3234 531.949 45.3154V45.285ZM402.721 44.9587C402.641 44.9574 402.564 44.9306 402.5 44.8822C402.437 44.8339 402.391 44.7665 402.368 44.6901C402.346 44.6137 402.349 44.5322 402.377 44.4576C402.405 44.383 402.456 44.3193 402.523 44.2757C404.162 43.2598 405.594 41.944 406.742 40.3979C406.802 40.3184 406.89 40.2651 406.988 40.2495C407.086 40.2339 407.187 40.2572 407.268 40.3144C407.346 40.3733 407.398 40.4597 407.413 40.5558C407.429 40.6518 407.407 40.7501 407.352 40.8304C406.146 42.4482 404.648 43.8277 402.934 44.898C402.87 44.9389 402.796 44.96 402.721 44.9587V44.9587ZM386.352 44.5717C386.298 44.5721 386.245 44.5607 386.197 44.5384C386.148 44.5161 386.105 44.4834 386.07 44.4427C385.227 43.4254 384.584 42.2592 384.174 41.005C383.937 40.3144 383.739 39.6238 383.579 38.9484C383.556 38.8529 383.572 38.7521 383.624 38.6682C383.675 38.5843 383.758 38.5241 383.854 38.5007C383.95 38.4778 384.051 38.4937 384.135 38.5449C384.219 38.5961 384.28 38.6784 384.303 38.7739C384.455 39.4265 384.646 40.0943 384.874 40.7697C385.254 41.9354 385.851 43.0192 386.634 43.9646C386.698 44.0391 386.73 44.1361 386.723 44.2342C386.716 44.3324 386.67 44.4237 386.596 44.4882C386.526 44.5413 386.44 44.5706 386.352 44.5717V44.5717ZM585.031 44.2226C584.948 44.2245 584.867 44.1975 584.802 44.1463C584.736 44.095 584.691 44.0228 584.673 43.9418C584.661 43.895 584.658 43.8461 584.664 43.7981C584.671 43.75 584.687 43.7038 584.712 43.6621C584.737 43.6204 584.77 43.5841 584.809 43.5552C584.848 43.5264 584.892 43.5056 584.94 43.4941C586.897 43.016 588.809 42.4848 590.63 41.9004C590.677 41.8851 590.726 41.8793 590.775 41.8833C590.825 41.8872 590.873 41.9009 590.917 41.9235C590.961 41.9461 591 41.9771 591.031 42.0149C591.063 42.0526 591.087 42.0963 591.102 42.1433C591.131 42.2369 591.121 42.338 591.075 42.4246C591.03 42.5113 590.952 42.5765 590.858 42.6062C589.022 43.1905 587.05 43.7369 585.123 44.215L585.031 44.2226ZM520.288 43.0008H520.234C518.315 42.5607 516.372 42.0826 514.461 41.5741C514.366 41.5476 514.286 41.4848 514.237 41.3995C514.189 41.3143 514.176 41.2134 514.202 41.1188C514.214 41.0724 514.235 41.0289 514.265 40.9907C514.294 40.9526 514.331 40.9206 514.372 40.8967C514.414 40.8727 514.46 40.8572 514.508 40.851C514.556 40.8449 514.604 40.8482 514.651 40.8608C516.555 41.3617 518.459 41.8397 520.402 42.2799C520.503 42.291 520.595 42.3415 520.659 42.4205C520.722 42.4995 520.752 42.6004 520.741 42.7011C520.73 42.8017 520.679 42.8938 520.6 42.9571C520.52 43.0205 520.419 43.0498 520.318 43.0388L520.288 43.0008ZM269.989 41.8397C269.913 41.8393 269.84 41.8158 269.779 41.7723C269.717 41.7289 269.671 41.6676 269.646 41.5969C269.628 41.5522 269.619 41.5042 269.62 41.456C269.621 41.4077 269.631 41.3601 269.651 41.3162C269.671 41.2722 269.7 41.2327 269.736 41.2001C269.771 41.1674 269.813 41.1424 269.859 41.1264C271.512 40.5041 273.386 39.8136 275.442 39.0699C275.534 39.0379 275.635 39.043 275.723 39.0841C275.812 39.1252 275.88 39.1991 275.915 39.2899C275.946 39.3749 275.945 39.4686 275.912 39.5528C275.878 39.637 275.814 39.7057 275.732 39.7453C273.675 40.5041 271.809 41.1719 270.164 41.7942C270.109 41.8215 270.05 41.837 269.989 41.8397V41.8397ZM596.319 40.5952C596.246 40.5949 596.175 40.5732 596.114 40.5327C596.053 40.4923 596.005 40.4348 595.977 40.3675C595.941 40.2758 595.943 40.1739 595.981 40.0833C596.019 39.9927 596.092 39.9205 596.182 39.8819C598.002 39.142 599.781 38.3087 601.514 37.3852C601.601 37.3394 601.703 37.3296 601.797 37.358C601.891 37.3864 601.97 37.4507 602.017 37.5369C602.061 37.6239 602.07 37.7245 602.041 37.8177C602.013 37.911 601.95 37.9898 601.865 38.0378C600.181 38.9333 598.361 39.7908 596.457 40.5724C596.412 40.5872 596.366 40.5949 596.319 40.5952V40.5952ZM508.809 39.9729H508.702C506.813 39.4114 504.894 38.8043 503.028 38.182C502.935 38.1508 502.859 38.0849 502.815 37.9984C502.771 37.9119 502.762 37.8117 502.791 37.7191C502.806 37.6721 502.83 37.6286 502.862 37.5911C502.894 37.5537 502.933 37.523 502.977 37.501C503.021 37.4791 503.069 37.4662 503.119 37.4632C503.168 37.4603 503.217 37.4673 503.264 37.4838C505.137 38.0985 507.072 38.698 508.916 39.2596C509.017 39.2737 509.108 39.3272 509.169 39.4083C509.231 39.4894 509.257 39.5915 509.243 39.6921C509.229 39.7928 509.175 39.8837 509.094 39.9449C509.012 40.0061 508.91 40.0325 508.809 40.0184V39.9729ZM281.17 37.8101C281.069 37.8262 280.966 37.8017 280.883 37.7419C280.8 37.6822 280.745 37.592 280.728 37.4914C280.712 37.3908 280.737 37.2879 280.797 37.2053C280.857 37.1228 280.947 37.0674 281.048 37.0513C282.831 36.4366 284.712 35.7991 286.677 35.1389C286.771 35.1097 286.873 35.1179 286.961 35.1618C287.049 35.2056 287.117 35.2817 287.149 35.3741C287.166 35.4204 287.173 35.4696 287.17 35.5186C287.167 35.5677 287.154 35.6156 287.132 35.6596C287.11 35.7036 287.079 35.7426 287.042 35.7744C287.004 35.8062 286.96 35.8301 286.913 35.8447C284.956 36.4973 283.105 37.1347 281.292 37.7494C281.256 37.7776 281.214 37.7982 281.17 37.8101V37.8101ZM497.559 36.2317C497.516 36.2389 497.472 36.2389 497.429 36.2317C495.578 35.5563 493.712 34.8429 491.877 34.1144C491.831 34.0961 491.789 34.0689 491.754 34.0346C491.719 34.0002 491.691 33.9593 491.672 33.9142C491.653 33.869 491.643 33.8206 491.643 33.7716C491.643 33.7226 491.652 33.6741 491.671 33.6287C491.688 33.5836 491.715 33.5424 491.749 33.5076C491.782 33.4728 491.823 33.445 491.868 33.4259C491.912 33.4068 491.96 33.3968 492.009 33.3965C492.058 33.3961 492.106 33.4054 492.151 33.4238C493.979 34.1827 495.837 34.8657 497.688 35.5411C497.779 35.5753 497.853 35.6436 497.895 35.7316C497.936 35.8195 497.941 35.92 497.909 36.0116C497.879 36.0787 497.83 36.1353 497.767 36.1745C497.705 36.2137 497.632 36.2336 497.559 36.2317V36.2317ZM409.027 35.4956C408.928 35.4956 408.834 35.4564 408.764 35.3867C408.694 35.3169 408.654 35.2223 408.654 35.1237C408.606 33.2181 407.904 31.3864 406.666 29.933C406.606 29.8549 406.579 29.7566 406.591 29.659C406.602 29.5613 406.651 29.4718 406.727 29.4094C406.766 29.3789 406.81 29.3563 406.857 29.3428C406.904 29.3293 406.954 29.3253 407.003 29.331C407.051 29.3366 407.099 29.3518 407.142 29.3757C407.185 29.3996 407.222 29.4317 407.253 29.4701C408.594 31.056 409.352 33.0505 409.401 35.1237C409.401 35.2223 409.361 35.3169 409.291 35.3867C409.221 35.4564 409.126 35.4956 409.027 35.4956V35.4956ZM606.777 34.9795C606.718 34.979 606.66 34.965 606.607 34.9387C606.555 34.9124 606.509 34.8745 606.473 34.8278C606.416 34.7481 606.393 34.6492 606.408 34.5526C606.424 34.456 606.477 34.3695 606.557 34.3117C608.161 33.1807 609.662 31.911 611.043 30.5174C611.114 30.4582 611.206 30.4277 611.299 30.432C611.391 30.4363 611.479 30.475 611.545 30.5405C611.611 30.6061 611.65 30.6937 611.654 30.7863C611.658 30.8788 611.628 30.9697 611.568 31.041C610.159 32.4517 608.63 33.7389 606.998 34.8885C606.929 34.95 606.839 34.9827 606.747 34.9795H606.777ZM292.443 34.0613C292.365 34.0614 292.288 34.0364 292.225 33.99C292.162 33.9435 292.116 33.8781 292.093 33.8033C292.064 33.7107 292.072 33.6104 292.116 33.524C292.16 33.4375 292.237 33.3716 292.329 33.3404C294.172 32.756 296.061 32.1641 298.011 31.5722C298.058 31.557 298.107 31.5512 298.155 31.5553C298.204 31.5593 298.252 31.5731 298.295 31.5957C298.338 31.6184 298.377 31.6495 298.408 31.6871C298.439 31.7248 298.462 31.7683 298.476 31.815C298.502 31.9096 298.491 32.0107 298.444 32.097C298.397 32.1833 298.318 32.2482 298.224 32.278C296.285 32.8699 294.396 33.4593 292.557 34.0461L292.443 34.0613ZM383.526 33.3631H383.48C383.383 33.3517 383.293 33.3022 383.232 33.2255C383.171 33.1487 383.142 33.0509 383.153 32.9533C383.38 30.9383 384.032 28.9938 385.065 27.2466C385.086 27.1982 385.116 27.1546 385.155 27.119C385.194 27.0833 385.24 27.0563 385.291 27.0398C385.341 27.0232 385.394 27.0175 385.447 27.023C385.499 27.0285 385.55 27.0451 385.596 27.0716C385.642 27.0982 385.681 27.1341 385.712 27.1771C385.743 27.22 385.764 27.2689 385.774 27.3206C385.784 27.3724 385.783 27.4257 385.771 27.477C385.759 27.5284 385.737 27.5766 385.705 27.6185C384.724 29.2771 384.106 31.1236 383.892 33.0368C383.881 33.1261 383.838 33.2083 383.77 33.2683C383.703 33.3283 383.616 33.362 383.526 33.3631V33.3631ZM486.514 31.8454C486.469 31.8526 486.422 31.8526 486.377 31.8454C484.534 31.0865 482.675 30.3732 480.855 29.6826C480.764 29.6454 480.692 29.575 480.652 29.486C480.613 29.397 480.609 29.2963 480.642 29.2045C480.677 29.1133 480.748 29.0398 480.838 29C480.927 28.9602 481.029 28.9573 481.121 28.992C482.942 29.6826 484.808 30.4111 486.659 31.1548C486.704 31.1732 486.746 31.2003 486.781 31.2347C486.816 31.269 486.844 31.31 486.863 31.3551C486.882 31.4002 486.892 31.4487 486.892 31.4976C486.893 31.5466 486.883 31.5952 486.865 31.6405C486.836 31.7098 486.788 31.7691 486.725 31.811C486.663 31.8528 486.589 31.8754 486.514 31.8757V31.8454ZM303.808 30.6388C303.728 30.6384 303.651 30.6123 303.588 30.5644C303.525 30.5165 303.479 30.4494 303.457 30.3732C303.442 30.3269 303.437 30.278 303.441 30.2295C303.446 30.1811 303.461 30.134 303.484 30.0914C303.508 30.0487 303.54 30.0113 303.578 29.9815C303.617 29.9516 303.661 29.93 303.709 29.9179C305.582 29.3715 307.517 28.8327 309.429 28.3015C309.52 28.2857 309.614 28.3043 309.692 28.3537C309.771 28.4031 309.828 28.4797 309.852 28.5687C309.877 28.6577 309.868 28.7526 309.826 28.8351C309.784 28.9175 309.713 28.9816 309.627 29.0148C307.692 29.546 305.788 30.0823 303.914 30.6236C303.88 30.6365 303.844 30.6417 303.808 30.6388ZM475.424 27.702C475.381 27.7092 475.337 27.7092 475.294 27.702C473.421 27.0341 471.532 26.3891 469.688 25.782C469.642 25.7666 469.599 25.7421 469.562 25.7101C469.525 25.6781 469.494 25.6392 469.473 25.5955C469.451 25.5518 469.438 25.5042 469.434 25.4555C469.431 25.4068 469.437 25.3578 469.452 25.3115C469.468 25.2652 469.492 25.2223 469.524 25.1854C469.557 25.1485 469.596 25.1183 469.64 25.0964C469.683 25.0746 469.731 25.0616 469.78 25.0581C469.829 25.0546 469.878 25.0608 469.925 25.0763C471.776 25.6909 473.664 26.336 475.546 27.0038C475.639 27.0381 475.715 27.1073 475.758 27.1966C475.8 27.2859 475.806 27.3882 475.774 27.4819C475.739 27.5419 475.687 27.5907 475.625 27.6229C475.563 27.6551 475.494 27.6694 475.424 27.664V27.702ZM315.271 27.4971C315.17 27.5091 315.068 27.4807 314.988 27.4181C314.908 27.3555 314.857 27.2638 314.845 27.1632C314.832 27.0625 314.861 26.9612 314.924 26.8815C314.987 26.8018 315.079 26.7503 315.18 26.7382C317.076 26.2449 318.988 25.7668 320.946 25.2963C320.996 25.2849 321.047 25.2833 321.098 25.2918C321.149 25.3003 321.197 25.3186 321.241 25.3458C321.284 25.3729 321.322 25.4083 321.352 25.4499C321.381 25.4916 321.403 25.5387 321.414 25.5885C321.426 25.6383 321.427 25.6899 321.419 25.7403C321.41 25.7908 321.392 25.839 321.364 25.8824C321.337 25.9257 321.302 25.9633 321.26 25.9929C321.218 26.0226 321.171 26.0437 321.121 26.0552C319.186 26.5257 317.259 27.0038 315.362 27.4971H315.271ZM402.446 26.2829C402.376 26.2813 402.308 26.2602 402.248 26.2222C401.34 25.6656 400.402 25.1589 399.438 24.7044C398.676 24.3174 397.831 23.9455 397 23.6192C396.946 23.5993 396.897 23.5669 396.858 23.5245C396.818 23.4821 396.79 23.431 396.774 23.3754C396.759 23.3199 396.756 23.2614 396.768 23.2048C396.779 23.1482 396.804 23.0952 396.84 23.0501C396.858 23.0049 396.884 22.9638 396.918 22.9292C396.952 22.8946 396.993 22.8672 397.038 22.8488C397.083 22.8303 397.131 22.8212 397.179 22.8218C397.228 22.8225 397.276 22.833 397.32 22.8528C398.166 23.1943 399.004 23.5661 399.803 23.9531C400.789 24.4282 401.75 24.9525 402.683 25.524C402.764 25.5796 402.821 25.6638 402.842 25.7596C402.863 25.8554 402.847 25.9556 402.797 26.04C402.764 26.1036 402.713 26.1566 402.651 26.1929C402.589 26.2292 402.518 26.2472 402.446 26.2449V26.2829ZM326.818 24.7196C326.717 24.7296 326.616 24.6993 326.538 24.6353C326.459 24.5712 326.409 24.4787 326.399 24.3781C326.389 24.2775 326.42 24.177 326.484 24.0987C326.548 24.0204 326.641 23.9708 326.742 23.9607C328.707 23.5282 330.665 23.1108 332.554 22.7313C332.604 22.7214 332.655 22.7213 332.705 22.7312C332.755 22.741 332.803 22.7606 332.845 22.7888C332.888 22.817 332.924 22.8532 332.953 22.8955C332.981 22.9377 333.001 22.9851 333.011 23.0349C333.021 23.0847 333.021 23.136 333.011 23.1859C333.001 23.2357 332.981 23.2831 332.953 23.3254C332.925 23.3677 332.888 23.404 332.846 23.4323C332.804 23.4606 332.756 23.4802 332.706 23.4902C330.817 23.8772 328.86 24.2491 326.902 24.7196H326.818ZM464.151 23.9607C464.116 23.9686 464.079 23.9686 464.044 23.9607C462.132 23.384 460.236 22.8224 458.355 22.3064C458.304 22.2944 458.255 22.2726 458.213 22.2421C458.17 22.2116 458.134 22.173 458.107 22.1286C458.079 22.0842 458.06 22.0349 458.052 21.9833C458.044 21.9318 458.045 21.8791 458.057 21.8283C458.069 21.7775 458.091 21.7295 458.122 21.6871C458.153 21.6447 458.191 21.6088 458.236 21.5813C458.28 21.5538 458.33 21.5353 458.382 21.5269C458.433 21.5185 458.486 21.5204 458.537 21.5323C460.411 22.0559 462.346 22.6099 464.242 23.1943C464.343 23.2083 464.435 23.2618 464.496 23.3429C464.557 23.4241 464.584 23.5262 464.57 23.6268C464.556 23.7274 464.502 23.8184 464.421 23.8796C464.339 23.9407 464.237 23.9672 464.136 23.9531L464.151 23.9607ZM389.277 23.4067C389.2 23.4068 389.124 23.3831 389.061 23.3389C388.998 23.2947 388.951 23.2321 388.925 23.1597C388.899 23.0873 388.896 23.0088 388.917 22.9348C388.938 22.8608 388.981 22.795 389.041 22.7465C389.566 22.3291 390.122 21.9193 390.709 21.5247C389.102 21.1149 387.411 20.7659 385.659 20.4471C385.611 20.4389 385.566 20.4213 385.525 20.3955C385.484 20.3696 385.449 20.3359 385.421 20.2964C385.394 20.2569 385.374 20.2123 385.364 20.1652C385.354 20.1182 385.353 20.0695 385.362 20.0222C385.368 19.9736 385.384 19.9268 385.41 19.8848C385.435 19.8427 385.469 19.8063 385.509 19.7779C385.549 19.7494 385.594 19.7294 385.642 19.7192C385.69 19.709 385.74 19.7088 385.788 19.7186C387.799 20.0677 389.741 20.4775 391.562 20.9859C392.399 20.4788 393.264 20.0177 394.152 19.6048C394.239 19.5736 394.334 19.5757 394.42 19.6108C394.505 19.6459 394.575 19.7113 394.615 19.7945C394.655 19.8777 394.662 19.9727 394.636 20.061C394.609 20.1494 394.551 20.2248 394.472 20.2726C392.702 21.0815 391.037 22.1008 389.513 23.3081C389.445 23.3584 389.362 23.3851 389.277 23.384V23.4067ZM338.465 22.3671C338.363 22.3751 338.263 22.3429 338.186 22.2774C338.109 22.2119 338.061 22.1186 338.053 22.018C338.045 21.9174 338.078 21.8177 338.143 21.7408C338.209 21.664 338.303 21.6163 338.404 21.6082C340.392 21.2515 342.364 20.9252 344.276 20.6293C344.374 20.6179 344.472 20.6437 344.551 20.7014C344.63 20.7591 344.684 20.8445 344.703 20.9404C344.71 20.9887 344.708 21.0381 344.697 21.0856C344.685 21.1332 344.664 21.178 344.635 21.2175C344.606 21.2569 344.57 21.2903 344.528 21.3157C344.486 21.3411 344.439 21.358 344.39 21.3654C342.486 21.6537 340.513 21.9876 338.533 22.3367L338.465 22.3671ZM452.718 20.8038H452.627C450.692 20.3257 448.75 19.8704 446.853 19.4682C446.757 19.4464 446.674 19.388 446.622 19.3057C446.569 19.2233 446.551 19.1236 446.571 19.028C446.58 18.9797 446.599 18.9337 446.626 18.8928C446.654 18.8518 446.689 18.8168 446.73 18.7899C446.772 18.7629 446.818 18.7446 446.866 18.736C446.915 18.7273 446.965 18.7286 447.013 18.7397C448.917 19.1495 450.867 19.6048 452.809 20.0829C452.91 20.095 453.002 20.1465 453.065 20.2262C453.128 20.3059 453.157 20.4072 453.145 20.5078C453.132 20.6085 453.081 20.7002 453.001 20.7628C452.921 20.8254 452.819 20.8538 452.718 20.8417V20.8038ZM350.217 20.5458C350.116 20.5518 350.017 20.5176 349.941 20.4508C349.866 20.3839 349.82 20.2898 349.814 20.1891C349.808 20.0885 349.842 19.9896 349.909 19.9141C349.976 19.8387 350.071 19.793 350.172 19.7869C352.175 19.5289 354.163 19.3088 356.082 19.1267C356.181 19.12 356.278 19.1508 356.354 19.2128C356.431 19.2748 356.48 19.3634 356.494 19.4606C356.502 19.5581 356.472 19.655 356.409 19.7303C356.346 19.8056 356.256 19.8532 356.159 19.8628C354.247 20.0449 352.259 20.265 350.263 20.5154L350.217 20.5458ZM379.84 19.6503C377.951 19.4682 375.963 19.3392 373.936 19.2633C373.835 19.2633 373.739 19.2233 373.667 19.1522C373.596 19.081 373.556 18.9845 373.556 18.8839C373.556 18.7832 373.596 18.6867 373.667 18.6156C373.739 18.5444 373.835 18.5044 373.936 18.5044C375.978 18.5727 377.981 18.7017 379.885 18.8839C379.986 18.8889 380.081 18.9337 380.149 19.0084C380.217 19.0831 380.252 19.1816 380.247 19.2823C380.242 19.3829 380.197 19.4774 380.122 19.545C380.047 19.6126 379.948 19.6478 379.847 19.6427L379.84 19.6503ZM362.046 19.4378C361.951 19.438 361.86 19.402 361.79 19.3371C361.721 19.2722 361.679 19.1834 361.673 19.0888C361.67 19.0399 361.677 18.9909 361.693 18.9446C361.709 18.8983 361.734 18.8556 361.766 18.819C361.799 18.7823 361.838 18.7524 361.882 18.731C361.927 18.7096 361.975 18.697 362.024 18.6941C364.05 18.5803 366.053 18.5044 367.972 18.4741C368.022 18.472 368.071 18.4799 368.117 18.4973C368.163 18.5147 368.205 18.5412 368.241 18.5752C368.276 18.6093 368.305 18.6501 368.324 18.6953C368.343 18.7405 368.353 18.7892 368.353 18.8383C368.353 18.9364 368.315 19.0307 368.247 19.1014C368.179 19.1721 368.086 19.2138 367.988 19.2178C366.076 19.2178 364.08 19.3164 362.062 19.4378H362.046ZM441.102 18.2919H441.018C439.046 17.9353 437.081 17.6165 435.176 17.3509C435.126 17.3445 435.078 17.3282 435.034 17.3032C434.991 17.2781 434.952 17.2447 434.921 17.2049C434.891 17.1651 434.868 17.1196 434.855 17.0711C434.842 17.0226 434.838 16.972 434.845 16.9222C434.851 16.8723 434.868 16.8243 434.893 16.7807C434.918 16.7372 434.952 16.699 434.992 16.6683C435.031 16.6377 435.077 16.6152 435.126 16.6021C435.175 16.589 435.225 16.5856 435.275 16.5921C437.195 16.8653 439.168 17.184 441.156 17.5407C441.206 17.5451 441.254 17.5594 441.299 17.5826C441.343 17.6058 441.383 17.6375 441.415 17.6759C441.447 17.7143 441.471 17.7587 441.486 17.8064C441.501 17.8542 441.507 17.9044 441.502 17.9542C441.498 18.0041 441.483 18.0525 441.46 18.0968C441.437 18.1412 441.405 18.1805 441.366 18.2125C441.328 18.2446 441.283 18.2688 441.235 18.2837C441.187 18.2986 441.137 18.304 441.087 18.2995L441.102 18.2919ZM399.887 18.2388C399.786 18.2519 399.684 18.2245 399.603 18.1626C399.523 18.1007 399.47 18.0093 399.457 17.9087C399.444 17.8081 399.471 17.7064 399.533 17.626C399.595 17.5455 399.687 17.493 399.788 17.4799C401.702 16.9478 403.645 16.5272 405.607 16.2202C405.708 16.2041 405.812 16.2286 405.895 16.2884C405.977 16.3482 406.033 16.4383 406.049 16.5389C406.065 16.6396 406.041 16.7425 405.981 16.825C405.921 16.9076 405.83 16.963 405.729 16.9791C403.79 17.2915 401.87 17.7146 399.979 18.2464L399.887 18.2388ZM429.365 16.63C427.354 16.4251 425.373 16.2733 423.462 16.1823C423.363 16.1745 423.272 16.129 423.206 16.0554C423.141 15.9818 423.107 15.8858 423.111 15.7877C423.112 15.7388 423.123 15.6906 423.143 15.6461C423.164 15.6017 423.193 15.5618 423.229 15.5291C423.266 15.4964 423.309 15.4714 423.355 15.4559C423.401 15.4403 423.451 15.4344 423.5 15.4386C425.419 15.5372 427.422 15.689 429.441 15.8939C429.542 15.8989 429.637 15.9437 429.704 16.0185C429.772 16.0932 429.808 16.1917 429.803 16.2923C429.798 16.3929 429.753 16.4875 429.678 16.5551C429.603 16.6227 429.504 16.6578 429.403 16.6528L429.365 16.63ZM411.579 16.2733C411.478 16.2733 411.381 16.2334 411.31 16.1622C411.238 16.091 411.198 15.9945 411.198 15.8939C411.198 15.7933 411.238 15.6968 411.31 15.6256C411.381 15.5544 411.478 15.5145 411.579 15.5145C413.483 15.3779 415.487 15.2944 417.536 15.2868C417.637 15.2868 417.733 15.3268 417.805 15.3979C417.876 15.4691 417.916 15.5656 417.916 15.6662C417.916 15.7669 417.876 15.8634 417.805 15.9345C417.733 16.0057 417.637 16.0457 417.536 16.0457C415.502 16.0457 413.514 16.1367 411.625 16.2809L411.579 16.2733Z" fill="#3A67B3"/>
<path d="M614.95 26.4726C614.884 26.472 614.819 26.4565 614.76 26.427C614.675 26.3765 614.614 26.2947 614.59 26.1994C614.566 26.1042 614.58 26.0032 614.63 25.9186C615.125 25.0834 615.553 24.2105 615.91 23.3081C615.95 23.2215 616.021 23.1535 616.11 23.118C616.199 23.0825 616.298 23.0822 616.387 23.1172C616.475 23.1523 616.547 23.2199 616.588 23.3062C616.628 23.3926 616.634 23.491 616.603 23.5813C616.232 24.5181 615.786 25.4241 615.27 26.2904C615.238 26.3468 615.192 26.3936 615.136 26.4257C615.079 26.4577 615.015 26.474 614.95 26.4726V26.4726Z" fill="#3A67B3"/>
<path d="M773.611 666.411C774.326 666.014 774.918 665.429 775.321 664.719C775.724 664.01 775.923 663.204 775.896 662.389C775.818 660.745 775.141 659.185 773.992 658.002C772.847 656.837 771.513 655.872 770.047 655.149C767.687 653.799 765.058 652.983 762.346 652.759C765.332 650.142 768.515 647.757 771.867 645.625L772.789 645.056L776.849 652.501C777.644 654.214 778.761 655.759 780.139 657.054C781.601 658.26 783.719 658.86 785.425 658.033C786.137 657.633 786.726 657.047 787.129 656.338C787.531 655.63 787.732 654.825 787.71 654.011C787.635 652.366 786.957 650.806 785.806 649.625C784.658 648.459 783.322 647.494 781.853 646.771C779.425 645.367 776.703 644.544 773.901 644.366C777.696 642.117 781.673 640.188 785.791 638.598L790.193 645.982C791.058 647.661 792.234 649.162 793.659 650.406C795.182 651.552 797.307 652.068 798.991 651.165C799.694 650.744 800.266 650.138 800.647 649.413C801.027 648.689 801.2 647.875 801.146 647.06C801.008 645.419 800.271 643.886 799.075 642.749C797.885 641.625 796.513 640.711 795.015 640.048C792.686 638.826 790.124 638.112 787.497 637.953C790.5 636.868 793.568 635.971 796.683 635.267C797.605 635.054 798.534 634.872 799.463 634.698L804.239 642.142C805.155 643.795 806.38 645.259 807.849 646.452C809.373 647.553 811.551 647.97 813.181 647.052C813.871 646.609 814.425 645.985 814.781 645.249C815.138 644.512 815.282 643.692 815.2 642.878C815.009 641.245 814.223 639.738 812.991 638.644C811.764 637.56 810.364 636.69 808.847 636.071C806.724 635.068 804.439 634.452 802.099 634.25C805.269 633.772 808.467 633.498 811.673 633.43L819.244 637.612C820.843 638.629 822.621 639.335 824.485 639.691C826.358 639.919 828.476 639.289 829.466 637.687C829.86 636.97 830.048 636.159 830.009 635.342C829.97 634.525 829.705 633.735 829.245 633.058C828.292 631.712 826.878 630.759 825.269 630.38C823.673 630.008 822.024 629.908 820.394 630.084C817.348 630.311 814.301 630.979 811.833 632.664C808.417 632.728 805.009 633.024 801.634 633.552C803.76 632.305 805.627 630.664 807.133 628.718C808.208 627.487 809.066 626.083 809.67 624.567C810.277 623.034 810.296 621.332 809.723 619.786C809.428 619.024 808.927 618.358 808.277 617.862C807.627 617.365 806.851 617.056 806.036 616.97C804.147 616.864 802.418 618.238 801.542 619.907C800.767 621.629 800.335 623.485 800.27 625.371L799.417 633.954C795.307 634.721 791.265 635.815 787.329 637.225C789.222 635.455 790.723 633.313 791.74 630.933C792.474 629.474 792.955 627.901 793.164 626.282C793.366 624.647 792.963 622.996 792.029 621.637C791.551 620.973 790.899 620.452 790.144 620.132C789.389 619.812 788.56 619.706 787.748 619.824C785.89 620.188 784.557 621.941 784.123 623.77C783.808 625.633 783.852 627.539 784.252 629.385C784.689 632.224 785.12 635.059 785.547 637.892L785.181 638.029C781.169 639.606 777.292 641.504 773.588 643.705C775.408 641.449 776.648 638.784 777.199 635.942C777.618 634.364 777.768 632.728 777.641 631.1C777.507 629.461 776.776 627.928 775.584 626.79C774.981 626.232 774.235 625.851 773.429 625.689C772.622 625.527 771.787 625.59 771.014 625.872C769.27 626.631 768.325 628.589 768.272 630.471C768.34 632.359 768.771 634.216 769.544 635.942C770.559 638.709 771.59 641.492 772.636 644.29L772.484 644.381H772.408V644.441C768.834 646.635 765.444 649.111 762.27 651.848C762.998 649.346 763.213 646.724 762.902 644.138C762.795 642.477 762.411 640.846 761.767 639.311C761.107 637.769 759.904 636.52 758.385 635.798C757.624 635.456 756.784 635.329 755.956 635.429C755.127 635.529 754.342 635.854 753.686 636.367C752.231 637.634 751.956 639.85 752.513 641.679C753.192 643.479 754.208 645.135 755.506 646.559L760.64 652.948C760.685 653.017 760.724 653.093 760.762 653.161C757.345 656.267 754.222 659.678 751.431 663.353C751.141 663.74 751.69 664.271 751.987 663.876C754.723 660.268 757.782 656.915 761.127 653.859L764.936 660.924C765.731 662.637 766.848 664.183 768.226 665.477C769.788 666.638 771.905 667.238 773.611 666.411Z" fill="#8EB2DB"/>
<path d="M799.454 589.727C797.588 590.778 795.568 591.531 793.468 591.958C793.468 591.958 785.318 594.622 777.602 594.797C773.629 595.02 769.651 594.473 765.887 593.188L764.363 592.581C763.876 592.375 763.402 592.137 762.947 591.867C762.596 591.678 762.238 591.488 761.903 591.283C761.72 591.188 761.542 591.085 761.37 590.972C756.719 588.121 752.963 584.028 750.529 579.157C748.094 574.286 747.079 568.834 747.599 563.417C748.162 558.052 750.493 550.873 753.921 550.774C754.6 550.92 755.306 550.889 755.97 550.683C757.531 550.054 757.752 548.065 758.255 545.455C759.245 540.628 759.702 538.208 761.065 537.107C761.682 536.576 763.449 535.976 766.938 534.762C769.36 533.92 769.528 533.965 769.901 533.594C771.668 531.681 768.842 528.623 769.467 524.351C769.97 521.072 772.384 517.733 775.56 516.845C777.442 516.36 778.135 517.088 781.776 516.58C784.343 516.215 785.668 516.003 786.765 515.29C791.007 512.505 787.298 504.741 791.007 502.761C792.835 501.782 795.684 502.624 798.411 503.428C801.138 504.233 801.709 505.075 802.867 505.295C809.478 506.631 815.526 485.14 818.542 486.035C820.828 486.726 822.854 501.213 820.371 510.6C819.959 512.049 819.083 514.865 820.454 517.779C821.978 521.156 825.024 521.277 825.558 523.721C825.809 524.958 825.261 525.8 819.792 533.245C818.032 535.612 816.806 537.244 817.507 538.504C818.207 539.763 820.172 539.657 821.071 541.425C821.393 542.052 821.505 542.764 821.391 543.459C821.132 547.2 817.484 551.101 815.648 552.975C812.007 556.732 809.836 558.333 810.385 559.395C810.933 560.458 813.431 559.593 814.871 561.239C815.892 562.423 815.816 564.191 815.519 565.299C815.092 566.87 813.858 567.667 809.973 569.678C806.089 571.689 805.304 571.955 803.233 573.101C799.637 575.074 796.377 576.895 796.781 578.534C797.154 580.052 800.049 579.877 801.564 582.427C801.964 583.032 802.227 583.717 802.335 584.433C802.443 585.15 802.393 585.881 802.188 586.576C801.984 587.272 801.63 587.914 801.152 588.46C800.673 589.005 800.081 589.44 799.416 589.735L799.454 589.727Z" fill="#3A67B3"/>
<path d="M790.634 583.505C788.844 585.516 785.797 584.605 783.474 584.393C781.266 584.181 779.044 584.156 776.832 584.317C772.617 584.627 768.476 585.595 764.561 587.185V587.147C767.052 582.928 769.2 578.481 771.417 574.155C773.6 569.644 776.104 565.295 778.912 561.141C781.354 557.794 784.114 554.688 787.153 551.867V551.867C791.784 551.321 796.293 552.626 800.932 552.482C804.977 552.361 809.44 550.516 810.56 546.267C810.659 545.887 810.057 545.781 809.958 546.161C808.778 550.653 803.705 552.004 799.607 551.875C795.669 551.753 791.792 550.888 787.846 551.199L788.905 550.19C791.807 547.435 794.679 544.612 796.789 541.205C798.241 538.845 799.543 536.397 800.688 533.874C805.078 533.137 809.13 531.058 812.281 527.925C812.548 527.644 812.083 527.249 811.817 527.53C808.87 530.456 805.106 532.429 801.016 533.191L801.191 532.804C803.973 526.781 806.434 520.615 808.564 514.333C808.747 513.779 808.938 513.225 809.105 512.672C809.227 512.307 808.679 512.049 808.564 512.413C806.62 518.371 804.368 524.225 801.816 529.951C800.475 532.987 799.058 536.022 797.436 538.913C797.063 539.581 796.674 540.234 796.263 540.848C794.648 539.224 794.74 536.811 794.74 534.694C794.716 531.907 794.077 529.159 792.869 526.645C791.661 524.131 789.912 521.912 787.747 520.146C787.443 519.904 787.047 520.366 787.351 520.609C790.399 523.11 792.574 526.508 793.567 530.315C793.987 532.252 794.182 534.231 794.146 536.212C794.184 538.086 794.504 540.006 795.905 541.357C794.585 543.34 793.077 545.192 791.403 546.889C787.953 550.41 784.129 553.56 780.968 557.369C777.955 561.127 775.324 565.174 773.115 569.45L772.544 570.551C770.107 565.997 767.578 561.118 767.662 555.791C767.679 554.556 767.858 553.329 768.195 552.14C768.602 551.014 768.907 549.853 769.109 548.672C769.337 546.441 768.18 544.491 767.029 542.67C766.816 542.343 766.313 542.67 766.519 543.011C767.228 544.028 767.806 545.129 768.24 546.29C768.602 547.464 768.602 548.72 768.24 549.894C767.921 551.093 767.479 552.239 767.258 553.461C767.07 554.566 767.004 555.688 767.06 556.808C767.288 561.93 769.726 566.559 772.087 570.991C772.103 571.022 772.125 571.049 772.153 571.07C772.181 571.091 772.213 571.105 772.247 571.112V571.112C769.383 576.599 766.778 582.268 763.579 587.557V587.603C763.536 587.637 763.507 587.685 763.495 587.739C762.832 588.832 762.147 589.91 761.416 590.949C761.588 591.062 761.766 591.166 761.949 591.26C762.711 590.198 763.381 589.105 764.051 588.005C768.424 586.142 773.095 585.073 777.845 584.848C780.262 584.744 782.684 584.853 785.081 585.174C787.176 585.447 789.537 585.614 791.076 583.884C791.32 583.611 790.863 583.216 790.634 583.505Z" fill="white"/>
<path d="M89.688 533.484C88.515 532.004 89.1853 529.689 90.6782 528.513C92.1711 527.337 94.1972 527.147 96.0862 527.253C99.0454 527.497 101.956 528.153 104.731 529.204C102.66 527.261 100.664 525.242 98.7369 523.171C97.4573 521.797 96.2157 520.401 94.997 518.974C91.6087 521.591 87.5141 523.142 83.2365 523.429C81.6217 523.527 79.7861 523.345 78.7882 522.086C77.6229 520.568 78.2932 518.291 79.7784 517.115C81.2637 515.939 83.2822 515.741 85.1712 515.848C88.224 516.103 91.2247 516.791 94.083 517.889C90.3763 513.46 87.0247 508.749 84.0591 503.797C80.3251 505.784 76.0877 506.637 71.8721 506.248C70.2649 506.096 68.4826 505.626 67.698 504.214C66.784 502.575 67.8199 500.367 69.4728 499.464C71.1257 498.561 73.1441 498.667 74.9874 499.069C77.8601 499.77 80.6192 500.871 83.1832 502.34C80.1364 497.066 77.501 491.321 76.6327 485.288L76.587 484.908C72.58 486.389 68.2224 486.653 64.0648 485.667C62.4957 485.288 60.7971 484.567 60.2563 483.064C59.5861 481.304 60.9266 479.27 62.6937 478.61C64.4609 477.95 66.4413 478.344 68.2084 479.004C71.1875 480.218 73.9739 481.857 76.4803 483.869C75.6653 476.88 76.1376 469.701 75.0864 462.749C71.0265 464.295 66.5922 464.581 62.3662 463.569C60.7971 463.197 59.091 462.476 58.5578 460.966C57.8875 459.213 59.2281 457.172 60.9952 456.519C62.7623 455.866 64.7503 456.253 66.5098 456.914C69.7089 458.097 72.2987 459.949 75.0027 461.937C74.7116 460.193 74.2967 458.471 73.7611 456.785C72.6202 453.344 70.8342 450.151 68.4978 447.375C64.9297 450.019 60.6272 451.499 56.1813 451.609C54.5665 451.609 52.7385 451.389 51.794 450.091C50.6971 448.574 51.4664 446.297 52.9974 445.166C54.5284 444.036 56.5545 443.944 58.4283 444.127C61.8711 444.461 64.8798 445.591 68.056 446.859C64.1671 442.419 59.2782 438.96 53.7896 436.766C50.2872 438.757 46.2946 439.729 42.2652 439.573C40.6581 439.505 38.8452 439.133 37.9845 437.767C36.9867 436.174 37.9007 433.92 39.5079 432.933C41.1151 431.947 43.1412 431.939 44.9997 432.243C47.8607 432.778 50.6323 433.711 53.2336 435.013C53.3523 435 53.4723 435.016 53.5839 435.058C58.1746 436.811 62.392 439.411 66.0147 442.723C66.7764 443.444 67.5914 444.202 68.2998 444.999C66.8667 441.353 66.4611 437.385 67.1268 433.525C67.401 431.939 68.0103 430.201 69.4804 429.533C71.1942 428.775 73.2889 429.951 74.0962 431.666C74.9036 433.381 74.6066 435.377 74.0962 437.175C73.0832 440.53 71.3465 443.292 69.4423 446.206C70.9539 447.906 72.2579 449.778 73.3269 451.784C74.8508 454.8 75.8966 458.033 76.427 461.368C76.7677 457.352 78.2352 453.513 80.662 450.289C81.637 449.006 82.9471 447.739 84.5923 447.815C86.4737 447.898 87.8143 449.932 87.7229 451.806C87.6315 453.681 86.4737 455.343 85.1712 456.701C82.6653 459.289 79.7632 460.974 76.6479 462.772C77.4096 468.259 77.341 473.943 77.661 479.414C77.76 481.144 77.9047 482.852 78.1484 484.537C78.2989 480.149 79.7926 475.912 82.4291 472.395C83.4041 471.112 84.7142 469.845 86.3518 469.913C88.2332 469.997 89.5814 472.03 89.49 473.905C89.3986 475.779 88.2484 477.441 86.9383 478.799C84.3867 481.456 81.4161 483.155 78.217 484.992C78.4846 486.792 78.8947 488.568 79.4433 490.304C80.5143 493.51 81.8625 496.618 83.4726 499.593C83.8916 500.351 84.3334 501.171 84.7751 501.945C84.5403 497.995 85.4021 494.056 87.2659 490.562C88.0276 489.15 89.1549 487.686 90.762 487.527C92.6358 487.322 94.2734 489.128 94.4714 490.995C94.6695 492.861 93.7859 494.683 92.7043 496.216C90.7087 499.061 88.218 501.118 85.5216 503.273C88.4154 508.104 91.6882 512.699 95.3093 517.016C94.0489 513.079 93.9537 508.864 95.0351 504.874C95.4693 503.357 96.2386 501.649 97.7696 501.125C99.5519 500.518 101.578 501.884 102.157 503.69C102.736 505.497 102.309 507.432 101.601 509.17C100.245 512.471 98.2037 515.081 95.9872 517.859L97.4497 519.551C100.155 522.642 103.015 525.595 106.019 528.399C104.842 524.541 104.781 520.43 105.843 516.538C106.27 514.983 107.047 513.313 108.57 512.789C110.353 512.175 112.379 513.548 112.965 515.347C113.552 517.145 113.118 519.096 112.402 520.833C111.092 524.043 109.126 526.601 106.978 529.287C110.436 532.447 114.122 535.349 118.008 537.969C118.815 538.515 117.916 539.729 117.109 539.191C113.184 536.532 109.462 533.587 105.973 530.38C102.564 532.992 98.4512 534.535 94.1592 534.812C92.5368 534.941 90.6859 534.751 89.688 533.484Z" fill="#8EB2DB"/>
<path d="M69.8546 689.494C73.9601 689.57 80.2669 689.123 90.0698 684.987C96.0796 682.422 104.42 678.916 112.684 670.986C113.042 670.636 113.675 670.045 114.444 669.202C114.492 669.17 114.533 669.128 114.566 669.081C114.65 669.012 114.718 668.937 114.802 668.861C115.069 668.588 115.35 668.284 115.663 667.996C121.444 661.72 132.595 647.597 129.777 632.67C129.632 631.805 127.492 620.961 121.718 619.974C114.49 618.821 106.682 633.786 103.712 632.291C102.188 631.532 103.757 627.631 103.91 622.585C104.367 611.247 97.9533 596.912 88.0361 595.129C85.5027 594.745 82.9129 595.014 80.5131 595.909C78.1133 596.804 75.9833 598.297 74.3257 600.243C68.7501 606.762 73.9372 618.168 72.947 618.456C71.4846 618.866 68.2017 594.742 54.8874 590.72C50.2106 589.323 43.9038 590.295 41.4055 593.755C37.7494 598.817 43.9495 607.134 41.5502 608.933C39.0061 610.822 32.5775 601.306 19.9791 599.234C16.7572 598.741 9.23931 597.527 4.34164 602.072C0.0609432 605.973 -1.11968 612.856 1.09684 617.971C3.16864 622.676 7.61691 624.672 8.85084 625.18C16.8181 628.618 21.9595 623.473 36.1422 624.626C41.0932 625.013 46.5012 626.144 46.6383 627.798C46.6383 629.035 43.6677 629.445 40.5448 632.617C40.4342 632.703 40.3345 632.803 40.2477 632.913C39.3032 633.892 35.9518 637.383 36.0279 641.898C36.0279 642.088 36.1955 646.982 39.4632 648.728C40.7992 649.351 42.307 649.509 43.7439 649.176C51.6731 647.84 61.8949 648.584 62.1539 649.866C62.4814 651.323 49.685 653.357 49.0452 658.32C48.5273 662.448 56.6621 666.265 57.7209 666.751C66.5184 670.788 75.8262 668.876 75.8719 669.597C75.9176 670.318 68.2093 669.855 62.1006 674.734C59.2442 677.011 55.1997 681.564 56.3727 684.972C57.7437 689.161 66.267 689.403 69.8546 689.494Z" fill="#3A67B3"/>
<path d="M67.4933 661.446C67.7447 659.694 69.5499 658.851 71.1266 658.548C73.1154 658.207 75.1502 658.236 77.1287 658.631C81.2799 659.344 85.3397 661.067 89.6204 660.855C91.7903 660.804 93.8885 660.071 95.6149 658.76C90.5458 654.474 85.7647 649.86 81.3028 644.949C79.6042 643.15 77.9133 641.336 76.1918 639.538C69.7251 637.884 63.5554 642.217 57.0582 641.632C55.3342 641.507 53.6751 640.925 52.2519 639.948C52.0082 639.781 52.2976 639.432 52.5338 639.599C55.2606 641.511 58.7491 641.45 61.9025 640.889C65.0559 640.327 67.9961 639.212 71.1875 638.832C72.668 638.643 74.1689 638.687 75.6358 638.961C70.9895 634.127 66.1528 629.452 60.6381 625.59C53.9581 620.923 46.2193 617.386 37.9931 616.832C36.9572 616.764 35.9289 616.741 34.9006 616.772C34.6112 616.772 34.5579 616.324 34.8473 616.316C42.8298 616.119 50.5457 618.828 57.3095 622.896C58.4673 623.586 59.5946 624.33 60.6762 625.089C60.6569 625.038 60.6569 624.981 60.6762 624.93C62.1996 621.188 59.6251 617.553 57.2791 614.829C55.9344 613.392 54.7116 611.846 53.623 610.207C52.7699 608.811 52.0539 607.172 52.389 605.51C52.45 605.229 52.8994 605.29 52.8384 605.578C52.4424 607.529 53.6001 609.449 54.6741 610.974C55.8623 612.636 57.3096 614.085 58.5816 615.679C60.6762 618.297 62.4357 621.75 61.0951 625.112C61.078 625.156 61.0451 625.191 61.0029 625.212C60.9607 625.233 60.9121 625.238 60.8666 625.226C67.0516 629.551 72.4367 634.916 77.6238 640.403C80.4954 643.438 83.3365 646.474 86.2614 649.509C89.462 645.608 91.0597 640.643 90.7325 635.615C90.5108 632.98 89.732 630.422 88.4474 628.109C87.084 625.529 85.4616 623.032 84.7304 620.179C83.9992 617.326 84.2886 614.108 86.4213 611.96C86.6194 611.756 86.9774 612.036 86.7717 612.241C84.6237 614.419 84.4866 617.682 85.2483 620.483C86.01 623.283 87.7848 625.848 89.1253 628.496C90.315 630.736 91.0183 633.2 91.1895 635.728C91.3227 638.12 91.034 640.516 90.3364 642.809C89.5871 645.385 88.3083 647.778 86.5813 649.836C90.106 653.502 93.8913 656.911 97.9076 660.035C100.724 662.201 103.729 664.111 106.888 665.742C105.426 658.548 110.788 652.302 112.067 645.51C112.483 643.532 112.415 641.484 111.869 639.538C111.786 639.257 112.212 639.09 112.296 639.371C114.467 646.527 109.158 653.031 107.558 659.701C107.035 661.702 106.97 663.795 107.368 665.825C107.377 665.847 107.382 665.87 107.382 665.893C107.382 665.917 107.377 665.94 107.368 665.962C109.764 667.173 112.268 668.159 114.848 668.906C114.764 668.982 114.695 669.058 114.611 669.126C114.579 669.174 114.537 669.215 114.49 669.248C110.07 667.923 105.865 665.971 102.006 663.45C99.9358 662.108 97.9398 660.657 96.0262 659.102C93.1851 661.454 89.2929 661.667 85.7967 661.09C81.7369 660.414 77.8219 658.813 73.663 658.813C71.7436 658.813 68.3312 659.155 67.9884 661.568C67.9723 661.633 67.9307 661.69 67.8728 661.725C67.815 661.759 67.7456 661.77 67.68 661.754C67.6143 661.738 67.5578 661.696 67.5228 661.639C67.4878 661.581 67.4772 661.512 67.4933 661.446Z" fill="white"/>
<path d="M159.003 88.0019H154.859C153.696 82.7256 151.744 77.6531 149.07 72.9535L152.506 69.531C154.971 67.0745 156.356 63.7429 156.356 60.2689C156.356 56.795 154.971 53.4634 152.506 51.0069C150.04 48.5505 146.696 47.1705 143.209 47.1705C139.722 47.1705 136.378 48.5505 133.913 51.0069L131.011 53.9362C126.443 51.0041 121.456 48.7781 116.219 47.334V42.5227C116.219 40.8027 115.879 39.0994 115.218 37.5103C114.557 35.9211 113.589 34.4772 112.368 33.2609C111.147 32.0447 109.698 31.0799 108.103 30.4216C106.508 29.7634 104.798 29.4246 103.072 29.4246C101.345 29.4246 99.6359 29.7634 98.0408 30.4216C96.4458 31.0799 94.9965 32.0447 93.7757 33.2609C92.5549 34.4772 91.5865 35.9211 90.9259 37.5103C90.2652 39.0994 89.9251 40.8027 89.9251 42.5227V46.651C84.6288 47.8089 79.5372 49.7531 74.8208 52.4184L71.3856 48.9959C68.92 46.5385 65.5756 45.1575 62.088 45.1568C58.6005 45.156 55.2555 46.5357 52.7889 48.9921C50.3223 51.4485 48.9362 54.7806 48.9355 58.2553C48.9348 61.7299 50.3196 65.0625 52.7851 67.52L55.7176 70.4416C52.7887 74.9871 50.5674 79.9482 49.129 85.1562H44.2694C40.8365 85.2385 37.5719 86.655 35.1731 89.1031C32.7744 91.5512 31.4315 94.8368 31.4315 98.2581C31.4315 101.679 32.7744 104.965 35.1731 107.413C37.5719 109.861 40.8365 111.278 44.2694 111.36H48.413C49.5732 116.637 51.5247 121.71 54.2019 126.408L50.7666 129.831C48.3011 132.287 46.9159 135.619 46.9159 139.093C46.9159 142.567 48.3011 145.899 50.7666 148.355C53.2322 150.811 56.5762 152.191 60.0631 152.191C63.5499 152.191 66.8939 150.811 69.3595 148.355L72.2844 145.441C76.855 148.351 81.8353 150.566 87.0612 152.013V156.839C87.0612 160.313 88.4463 163.645 90.9118 166.101C93.3773 168.557 96.7212 169.937 100.208 169.937C103.695 169.937 107.039 168.557 109.504 166.101C111.97 163.645 113.355 160.313 113.355 156.839V152.711C118.651 151.553 123.743 149.609 128.459 146.944L131.894 150.366C134.36 152.822 137.704 154.202 141.191 154.202C144.677 154.202 148.022 152.822 150.487 150.366C152.953 147.91 154.338 144.578 154.338 141.104C154.338 137.63 152.953 134.298 150.487 131.842L147.562 128.928C150.48 124.372 152.702 119.411 154.158 114.206H159.003C162.436 114.123 165.7 112.707 168.099 110.259C170.498 107.811 171.841 104.525 171.841 101.104C171.841 97.6826 170.498 94.397 168.099 91.9489C165.7 89.5008 162.436 88.0842 159.003 88.0019V88.0019ZM140.783 99.6961C140.785 107.411 138.49 114.953 134.189 121.369C129.888 127.784 123.774 132.785 116.62 135.738C109.466 138.692 101.594 139.465 93.999 137.961C86.404 136.457 79.4273 132.743 73.9511 127.288C68.475 121.833 64.7455 114.883 63.2343 107.316C61.723 99.7496 62.4979 91.9064 65.4609 84.7785C68.4239 77.6507 73.442 71.5583 79.8804 67.2719C86.3189 62.9856 93.8886 60.6977 101.632 60.6977C112.014 60.6997 121.97 64.8089 129.311 72.1218C136.653 79.4348 140.779 89.353 140.783 99.6961V99.6961Z" fill="#FAD101"/>
<path d="M76.9307 99.6962C76.9322 104.573 78.3851 109.339 81.1056 113.393C83.8261 117.447 87.6921 120.606 92.2146 122.47C96.7372 124.335 101.713 124.822 106.513 123.869C111.314 122.916 115.722 120.567 119.182 117.117C122.642 113.668 124.998 109.274 125.951 104.491C126.905 99.7082 126.413 94.7509 124.539 90.2462C122.664 85.7415 119.491 81.8918 115.421 79.1838C111.35 76.4759 106.565 75.0313 101.67 75.0328C98.4202 75.0328 95.2019 75.6709 92.1994 76.9105C89.1968 78.1501 86.4689 79.9671 84.1714 82.2575C81.8739 84.5479 80.0519 87.2668 78.8095 90.259C77.5671 93.2513 76.9287 96.458 76.9307 99.6962V99.6962Z" fill="#FAD101"/>
<path d="M268.214 38.8726H265.51C264.742 35.4131 263.458 32.0877 261.701 29.0072L263.948 26.7686C265.565 25.1584 266.472 22.9746 266.472 20.6976C266.472 18.4205 265.565 16.2367 263.948 14.6266C262.332 13.0165 260.14 12.1119 257.855 12.1119C255.569 12.1119 253.377 13.0165 251.761 14.6266L249.842 16.539C246.861 14.63 243.607 13.1818 240.191 12.2437V9.13236C240.191 6.86008 239.285 4.68086 237.673 3.07411C236.06 1.46736 233.873 0.564697 231.592 0.564697C229.311 0.564697 227.124 1.46736 225.511 3.07411C223.898 4.68086 222.992 6.86008 222.992 9.13236V11.834C219.519 12.5966 216.181 13.8757 213.09 15.6283L210.805 13.3517C209.189 11.7416 206.997 10.837 204.712 10.837C202.426 10.837 200.234 11.7416 198.618 13.3517C197.002 14.9618 196.094 17.1456 196.094 19.4227C196.094 21.6997 197.002 23.8835 198.618 25.4936L200.538 27.406C198.622 30.3757 197.168 33.6175 196.227 37.0209H193.05C191.9 36.9868 190.754 37.1831 189.682 37.5981C188.609 38.0131 187.631 38.6384 186.805 39.4371C185.979 40.2357 185.323 41.1913 184.874 42.2473C184.426 43.3033 184.195 44.4382 184.195 45.5848C184.195 46.7314 184.426 47.8663 184.874 48.9223C185.323 49.9783 185.979 50.9339 186.805 51.7325C187.631 52.5311 188.609 53.1565 189.682 53.5715C190.754 53.9865 191.9 54.1828 193.05 54.1487H195.762C196.524 57.6098 197.808 60.9359 199.57 64.014L197.285 66.2906C195.669 67.9007 194.761 70.0845 194.761 72.3616C194.761 74.6387 195.669 76.8224 197.285 78.4326C198.901 80.0427 201.093 80.9472 203.379 80.9472C205.664 80.9472 207.856 80.0427 209.472 78.4326L211.384 76.5278C214.417 78.4074 217.717 79.8221 221.172 80.7244V83.8813C221.138 85.0274 221.335 86.1686 221.751 87.2374C222.168 88.3063 222.795 89.2809 223.597 90.1037C224.399 90.9264 225.358 91.5805 226.418 92.0271C227.478 92.4738 228.617 92.7039 229.768 92.7039C230.918 92.7039 232.058 92.4738 233.117 92.0271C234.177 91.5805 235.137 90.9264 235.938 90.1037C236.74 89.2809 237.367 88.3063 237.784 87.2374C238.201 86.1686 238.398 85.0274 238.363 83.8813V81.1797C241.838 80.4215 245.176 79.1421 248.265 77.3853L250.512 79.6619C252.128 81.2721 254.32 82.1766 256.606 82.1766C258.891 82.1766 261.083 81.2721 262.699 79.6619C264.315 78.0518 265.223 75.868 265.223 73.591C265.223 71.3139 264.315 69.1301 262.699 67.52L260.787 65.6152C262.686 62.6398 264.128 59.3992 265.068 56.0003H268.237C269.387 56.0344 270.533 55.8382 271.605 55.4231C272.678 55.0081 273.656 54.3828 274.482 53.5842C275.308 52.7856 275.965 51.83 276.413 50.774C276.861 49.7179 277.092 48.583 277.092 47.4364C277.092 46.2899 276.861 45.1549 276.413 44.0989C275.965 43.0429 275.308 42.0873 274.482 41.2887C273.656 40.4901 272.678 39.8648 271.605 39.4497C270.533 39.0347 269.387 38.8384 268.237 38.8726H268.214ZM256.301 46.5068C256.301 51.5514 254.8 56.4826 251.987 60.677C249.174 64.8714 245.175 68.1405 240.498 70.071C235.82 72.0015 230.672 72.5066 225.706 71.5224C220.74 70.5383 216.179 68.1091 212.598 64.5421C209.018 60.975 206.58 56.4304 205.592 51.4827C204.604 46.5351 205.111 41.4068 207.049 36.7462C208.987 32.0857 212.268 28.1022 216.478 25.2996C220.688 22.497 225.637 21.0011 230.701 21.0011C234.063 21.0011 237.392 21.6609 240.498 22.9426C243.603 24.2244 246.426 26.1031 248.803 28.4716C251.18 30.84 253.066 33.6517 254.352 36.7462C255.639 39.8407 256.301 43.1574 256.301 46.5068V46.5068Z" fill="#73B4FF"/>
<path d="M214.522 46.5068C214.522 49.6966 215.472 52.8147 217.251 55.4668C219.03 58.1188 221.558 60.1858 224.516 61.4061C227.474 62.6264 230.729 62.9453 233.869 62.3225C237.009 61.6996 239.893 60.163 242.156 57.907C244.419 55.6509 245.96 52.7769 246.584 49.6482C247.208 46.5196 246.886 43.2769 245.66 40.3304C244.434 37.3839 242.358 34.8659 239.695 33.0948C237.032 31.3238 233.902 30.3793 230.701 30.3808C228.575 30.3808 226.471 30.798 224.508 31.6085C222.544 32.419 220.761 33.6069 219.258 35.1045C217.756 36.602 216.564 38.3798 215.752 40.3362C214.939 42.2927 214.521 44.3895 214.522 46.5068V46.5068Z" fill="#73B4FF"/>
<path d="M613.785 29.3487L630.062 18.5044L619.383 14.1864L613.785 29.3487Z" fill="#2459B3"/>
<path d="M630.74 21.9042L646.477 0.617798L620.48 18.5044L630.74 21.9042Z" fill="#5686D6"/>
<path d="M646.477 0.579865L604.241 9.78498L614.181 13.6097L646.477 0.579865Z" fill="#5686D6"/>
<path d="M646.477 0.617798L620.48 18.6182L613.785 29.3487L614.097 13.4959L646.477 0.617798Z" fill="#3B70C7"/>
<path d="M22.607 165.908C22.7516 166.138 22.8477 166.396 22.8896 166.664C22.9315 166.933 22.9183 167.208 22.8507 167.471C22.7714 167.828 22.5974 168.157 22.3468 168.424C22.0963 168.691 21.7784 168.886 21.4263 168.989L14.5102 171C14.1623 171.098 13.7945 171.105 13.4434 171.018C13.0923 170.931 12.7702 170.754 12.509 170.505C12.2479 170.255 12.0569 169.942 11.9549 169.596C11.853 169.25 11.8437 168.884 11.9281 168.533L13.6343 161.559C13.7202 161.209 13.8981 160.887 14.1497 160.627C14.4012 160.367 14.7175 160.178 15.0662 160.08C15.4132 159.975 15.7821 159.964 16.1345 160.05C16.4869 160.135 16.8098 160.313 17.0695 160.565L22.2718 165.528C22.3998 165.64 22.5124 165.767 22.607 165.908V165.908ZM13.5581 169.216L13.6266 169.307C13.6817 169.362 13.7507 169.399 13.8259 169.417C13.9012 169.434 13.9799 169.43 14.0532 169.406L20.9693 167.403C21.0477 167.383 21.1191 167.343 21.1759 167.285C21.2327 167.228 21.2727 167.157 21.2916 167.078C21.3104 167 21.3074 166.918 21.2828 166.842C21.2582 166.765 21.213 166.697 21.1521 166.644L15.9422 161.681C15.8862 161.628 15.8172 161.591 15.7423 161.574C15.6673 161.557 15.5891 161.559 15.5156 161.582C15.4408 161.606 15.3745 161.651 15.3245 161.712C15.2746 161.772 15.2431 161.846 15.2338 161.924L13.52 168.898C13.4912 169.005 13.5048 169.119 13.5581 169.216V169.216Z" fill="#D94559"/>
<path d="M880.695 332.156C880.84 332.386 880.937 332.644 880.979 332.912C881.02 333.181 881.007 333.455 880.939 333.719C880.86 334.076 880.686 334.405 880.435 334.672C880.185 334.939 879.867 335.134 879.515 335.237L872.599 337.24C872.251 337.341 871.883 337.348 871.532 337.263C871.181 337.177 870.858 337.001 870.596 336.752C870.335 336.503 870.144 336.19 870.042 335.844C869.94 335.498 869.931 335.132 870.016 334.781L871.73 327.807C871.815 327.456 871.992 327.134 872.242 326.873C872.492 326.612 872.807 326.421 873.155 326.32C873.503 326.219 873.871 326.212 874.223 326.298C874.575 326.385 874.897 326.562 875.158 326.813L880.36 331.776C880.49 331.886 880.603 332.013 880.695 332.156ZM871.646 335.464L871.715 335.555C871.771 335.607 871.84 335.644 871.915 335.661C871.99 335.678 872.068 335.676 872.142 335.654L879.058 333.643C879.132 333.623 879.199 333.584 879.253 333.529C879.307 333.474 879.344 333.406 879.362 333.332C879.379 333.258 879.377 333.18 879.356 333.107C879.334 333.034 879.295 332.968 879.24 332.915L874.03 327.951C873.976 327.899 873.909 327.861 873.835 327.843C873.762 327.824 873.685 327.825 873.612 327.845C873.537 327.866 873.469 327.907 873.416 327.963C873.362 328.019 873.324 328.089 873.307 328.164L871.593 335.138C871.568 335.25 871.587 335.367 871.646 335.464V335.464Z" fill="#D94559"/>
<path d="M458.301 60.6901C458.466 60.9588 458.566 61.2618 458.594 61.5754C458.623 61.889 458.578 62.2049 458.464 62.4985C458.349 62.7921 458.169 63.0556 457.936 63.2684C457.703 63.4812 457.424 63.6377 457.121 63.7256L450.204 65.7366C449.856 65.8415 449.486 65.8518 449.133 65.7664C448.779 65.681 448.455 65.5031 448.193 65.2509C447.932 65.0016 447.74 64.688 447.639 64.3416C447.537 63.9953 447.529 63.6284 447.615 63.2779L449.328 56.3038C449.415 55.9529 449.592 55.6307 449.843 55.3698C450.094 55.1089 450.409 54.9185 450.758 54.8177C451.106 54.7169 451.475 54.7093 451.827 54.7957C452.179 54.8821 452.502 55.0594 452.764 55.3097L457.966 60.2727C458.097 60.3957 458.209 60.5362 458.301 60.6901ZM449.252 64.0292L449.321 64.1202C449.377 64.1728 449.446 64.2097 449.521 64.227C449.596 64.2444 449.674 64.2416 449.747 64.2189L456.663 62.2079C456.737 62.1885 456.804 62.1491 456.856 62.0942C456.909 62.0392 456.945 61.9709 456.961 61.8967C456.982 61.8228 456.981 61.7444 456.96 61.6706C456.938 61.5968 456.896 61.5305 456.839 61.4793L451.636 56.5163C451.583 56.4526 451.512 56.4057 451.432 56.3811C451.352 56.3566 451.267 56.3555 451.187 56.3779C451.106 56.4003 451.034 56.4453 450.979 56.5076C450.923 56.5698 450.887 56.6466 450.875 56.7288L449.161 63.6953C449.15 63.7542 449.152 63.8149 449.168 63.8727C449.184 63.9306 449.213 63.9841 449.252 64.0292V64.0292Z" fill="#D94559"/>
<path d="M24.5493 318.335L27.0933 315.8C27.3731 315.523 27.5311 315.147 27.5325 314.755C27.5339 314.362 27.3787 313.984 27.1009 313.706C26.8232 313.427 26.4456 313.27 26.0514 313.268C25.6571 313.267 25.2785 313.421 24.9987 313.698L22.4546 316.233L19.9106 313.698C19.6328 313.422 19.2565 313.268 18.8644 313.269C18.4723 313.269 18.0965 313.425 17.8197 313.702C17.543 313.979 17.3879 314.354 17.3886 314.744C17.3893 315.135 17.5458 315.509 17.8235 315.785L20.3676 318.32L17.8235 320.847C17.6181 321.054 17.4786 321.317 17.4226 321.603C17.3667 321.889 17.3967 322.185 17.509 322.454C17.6212 322.723 17.8107 322.953 18.0537 323.116C18.2966 323.278 18.5822 323.365 18.8747 323.366C19.2663 323.365 19.6416 323.21 19.9182 322.934L22.4546 320.399L24.9987 322.934C25.1353 323.071 25.2979 323.18 25.477 323.254C25.6561 323.328 25.8482 323.367 26.0422 323.367C26.2362 323.367 26.4283 323.328 26.6074 323.254C26.7865 323.18 26.949 323.071 27.0857 322.934C27.2236 322.797 27.3331 322.634 27.4078 322.455C27.4825 322.276 27.5209 322.084 27.5209 321.89C27.5209 321.696 27.4825 321.504 27.4078 321.325C27.3331 321.146 27.2236 320.984 27.0857 320.847L24.5493 318.335Z" fill="#FFB86B"/>
<path d="M821.939 175.583L824.483 173.049C824.761 172.772 824.917 172.397 824.917 172.005C824.917 171.614 824.761 171.239 824.483 170.962C824.206 170.685 823.829 170.53 823.436 170.53C823.043 170.53 822.667 170.685 822.389 170.962L819.845 173.496L817.301 170.962C817.023 170.686 816.647 170.532 816.255 170.532C815.862 170.533 815.487 170.689 815.21 170.966C814.933 171.242 814.778 171.617 814.779 172.008C814.78 172.399 814.936 172.773 815.214 173.049L817.758 175.583L815.214 178.11C815.077 178.247 814.968 178.41 814.894 178.589C814.82 178.768 814.782 178.959 814.783 179.153C814.783 179.346 814.822 179.538 814.896 179.716C814.971 179.895 815.08 180.057 815.218 180.194C815.355 180.33 815.518 180.438 815.698 180.512C815.877 180.586 816.07 180.623 816.264 180.623C816.458 180.623 816.65 180.584 816.829 180.51C817.009 180.436 817.171 180.327 817.308 180.19L819.845 177.663L822.389 180.19C822.67 180.443 823.038 180.578 823.417 180.569C823.796 180.559 824.156 180.405 824.424 180.138C824.692 179.871 824.847 179.512 824.856 179.134C824.866 178.757 824.73 178.391 824.476 178.11L821.939 175.583Z" fill="#FFB86B"/>
<path d="M159.909 31.2383C158.759 31.2398 157.635 30.9015 156.678 30.2662C155.722 29.6309 154.975 28.7271 154.534 27.6692C154.093 26.6113 153.977 25.4469 154.201 24.3232C154.424 23.1995 154.977 22.1671 155.789 21.3565C156.602 20.546 157.637 19.9938 158.765 19.7697C159.893 19.5457 161.061 19.6599 162.124 20.098C163.186 20.536 164.094 21.2781 164.733 22.2305C165.372 23.1828 165.713 24.3026 165.713 25.4481C165.711 26.9818 165.099 28.4523 164.012 29.5375C162.924 30.6227 161.449 31.2343 159.909 31.2383ZM159.909 21.4716C159.12 21.4716 158.348 21.7048 157.692 22.1418C157.035 22.5787 156.524 23.1998 156.222 23.9264C155.92 24.653 155.841 25.4525 155.995 26.2239C156.149 26.9953 156.529 27.7038 157.087 28.2599C157.645 28.816 158.356 29.1948 159.131 29.3482C159.905 29.5016 160.707 29.4229 161.437 29.1219C162.166 28.8209 162.789 28.3113 163.228 27.6573C163.666 27.0034 163.9 26.2346 163.9 25.4481C163.898 24.3941 163.477 23.3838 162.729 22.6385C161.981 21.8932 160.967 21.4736 159.909 21.4716V21.4716Z" fill="#2363A8"/>
<path d="M805.672 443.547C804.522 443.547 803.399 443.207 802.443 442.571C801.487 441.935 800.742 441.031 800.302 439.973C799.863 438.915 799.747 437.75 799.972 436.627C800.196 435.504 800.749 434.472 801.562 433.662C802.375 432.853 803.411 432.301 804.538 432.078C805.665 431.854 806.834 431.969 807.896 432.407C808.958 432.846 809.865 433.588 810.504 434.54C811.143 435.492 811.483 436.612 811.483 437.757C811.479 439.291 810.866 440.762 809.777 441.847C808.688 442.932 807.212 443.543 805.672 443.547V443.547ZM805.672 433.78C804.882 433.78 804.111 434.013 803.454 434.45C802.798 434.887 802.286 435.508 801.984 436.235C801.682 436.962 801.603 437.761 801.757 438.532C801.911 439.304 802.291 440.012 802.85 440.568C803.408 441.125 804.119 441.503 804.893 441.657C805.667 441.81 806.47 441.731 807.199 441.431C807.928 441.13 808.552 440.62 808.99 439.966C809.429 439.312 809.663 438.543 809.663 437.757C809.661 436.703 809.24 435.692 808.492 434.947C807.744 434.202 806.73 433.782 805.672 433.78V433.78Z" fill="#2363A8"/>
</svg>
