<svg width="360" height="563" viewBox="0 0 360 563" fill="none" xmlns="http://www.w3.org/2000/svg">
  <path d="M24.2994 544.995C24.5707 543.86 23.5896 542.739 22.4446 542.471C21.2995 542.203 20.1132 542.628 19.0811 543.182C17.4845 544.093 16.0233 545.223 14.7405 546.538C15.3951 544.907 15.9871 543.254 16.5268 541.589C16.8857 540.485 17.2173 539.378 17.5281 538.26C20.1132 538.838 22.8159 538.634 25.2908 537.675C26.2225 537.307 27.2048 536.725 27.4354 535.758C27.6925 534.603 26.7214 533.503 25.5806 533.233C24.4398 532.964 23.2557 533.382 22.2237 533.936C20.5777 534.878 19.0739 536.049 17.7573 537.413C18.6794 533.962 19.3282 530.445 19.6976 526.896C22.3122 527.031 24.9124 526.399 27.1759 525.077C28.038 524.571 28.915 523.841 28.9862 522.845C29.0706 521.688 27.9121 520.722 26.7487 520.649C25.5853 520.576 24.4806 521.164 23.5516 521.872C22.123 523.017 20.8628 524.356 19.8082 525.85C20.139 522.099 20.1161 518.191 19.0263 514.585L18.9527 514.361C21.5879 514.141 24.1018 513.148 26.1767 511.507C26.9579 510.883 27.7224 510.035 27.6331 509.052C27.549 507.89 26.2652 507.102 25.1012 507.195C23.9372 507.288 22.9292 508.028 22.1103 508.86C20.7562 510.32 19.6212 511.968 18.7408 513.751C17.3712 509.623 15.2297 505.726 14.0025 501.558C16.6843 501.36 19.2469 500.359 21.3534 498.686C22.1366 498.067 22.9054 497.216 22.8098 496.231C22.7277 495.074 21.4419 494.282 20.2799 494.379C19.1179 494.476 18.1037 495.213 17.289 496.044C15.8036 497.545 14.8346 499.26 13.8373 501.081C13.5445 500.028 13.3272 498.955 13.187 497.871C12.9278 495.645 13.0952 493.389 13.6803 491.222C16.3735 491.769 19.1741 491.471 21.6974 490.369C22.6033 489.946 23.5715 489.344 23.7622 488.37C23.9808 487.233 22.9541 486.159 21.7996 485.927C20.6451 485.694 19.4845 486.174 18.4808 486.767C16.6365 487.855 15.244 489.276 13.7933 490.818C14.8147 487.313 16.6536 484.096 19.1593 481.429C21.6448 481.627 24.1391 481.127 26.359 479.984C27.2429 479.525 28.1628 478.842 28.2886 477.852C28.4319 476.698 27.33 475.675 26.1704 475.543C25.0108 475.412 23.8721 475.938 22.9087 476.595C21.4435 477.644 20.1322 478.892 19.0131 480.302C18.9432 480.326 18.8799 480.366 18.8284 480.419C16.711 482.603 15.0245 485.164 13.8575 487.967C13.6186 488.57 13.3597 489.209 13.1705 489.84C13.0213 487.423 12.2118 485.095 10.8294 483.107C10.261 482.291 9.46488 481.477 8.46554 481.488C7.30564 481.512 6.43789 482.719 6.43319 483.891C6.4285 485.063 7.11685 486.103 7.87329 486.977C9.31842 488.59 11.0148 489.682 12.8449 490.815C12.4411 492.163 12.1989 493.553 12.1234 494.956C12.0568 497.044 12.3152 499.129 12.8893 501.136C11.6485 498.976 9.82157 497.21 7.61721 496.04C6.73498 495.577 5.66867 495.21 4.76543 495.683C3.7317 496.223 3.51117 497.713 4.0524 498.739C4.59364 499.765 5.67762 500.392 6.76345 500.812C8.84584 501.605 10.9144 501.788 13.1324 501.98C14.1392 505.252 15.6634 508.417 16.914 511.565C17.3107 512.56 17.6759 513.554 17.9795 514.562C16.7482 512.144 14.8027 510.162 12.404 508.883C11.5218 508.42 10.4555 508.053 9.55452 508.52C8.52079 509.059 8.29598 510.552 8.83721 511.577C9.37844 512.603 10.4582 513.233 11.5483 513.65C13.6741 514.47 15.7851 514.644 18.06 514.834C18.3804 515.913 18.6146 517.015 18.7605 518.131C18.9978 520.207 19.0537 522.3 18.9278 524.388C18.8911 524.922 18.8575 525.497 18.8119 526.046C17.9111 523.772 16.3982 521.792 14.4391 520.324C13.6428 519.732 12.6275 519.207 11.6841 519.539C10.5793 519.915 10.1326 521.355 10.5094 522.453C10.8863 523.55 11.8581 524.339 12.8656 524.914C14.7291 525.985 16.6641 526.485 18.7403 526.985C18.3794 530.449 17.7444 533.879 16.8411 537.245C16.5192 534.71 15.4707 532.324 13.8212 530.373C13.1809 529.637 12.303 528.882 11.3071 528.99C10.1484 529.117 9.36873 530.412 9.51604 531.575C9.66336 532.738 10.4085 533.71 11.2602 534.498C12.8837 535.992 14.7114 536.919 16.681 537.894L16.3028 539.225C15.593 541.665 14.7604 544.067 13.808 546.424C13.4598 543.955 12.4192 541.637 10.8059 539.736C10.16 538.976 9.28768 538.245 8.29611 538.35C7.13544 538.473 6.35773 539.773 6.49878 540.934C6.63984 542.094 7.39321 543.073 8.24916 543.859C9.82326 545.313 11.5943 546.231 13.5016 547.173C12.3876 549.848 11.0778 552.438 9.58285 554.923C9.27268 555.441 10.0943 555.885 10.4065 555.372C11.9137 552.855 13.2322 550.231 14.3514 547.522C16.9471 548.092 19.6575 547.879 22.138 546.91C23.082 546.557 24.0708 545.967 24.2994 544.995Z" fill="#8EB2DB"/>
  <path d="M42.1216 583.582C39.5994 583.628 35.725 583.353 29.7028 580.812C26.0108 579.237 20.887 577.083 15.81 572.211C15.5901 571.997 15.2017 571.633 14.7291 571.115C14.6997 571.095 14.6743 571.07 14.6542 571.041C14.6028 570.999 14.5607 570.952 14.5092 570.906C14.3454 570.738 14.1723 570.551 13.9804 570.374C10.4289 566.519 3.5784 557.843 5.30973 548.673C5.39864 548.141 6.71352 541.479 10.2604 540.873C14.701 540.165 19.4973 549.358 21.3222 548.44C22.2581 547.973 21.2941 545.577 21.2005 542.477C20.9198 535.512 24.8597 526.706 30.9522 525.61C32.5085 525.375 34.0995 525.54 35.5737 526.09C37.048 526.64 38.3565 527.556 39.3748 528.752C42.8001 532.757 39.6135 539.764 40.2218 539.941C41.1202 540.193 43.137 525.372 51.3163 522.901C54.1894 522.044 58.0639 522.64 59.5987 524.766C61.8447 527.876 58.0358 532.985 59.5098 534.09C61.0726 535.251 65.0219 529.405 72.7615 528.132C74.7408 527.829 79.3592 527.083 82.368 529.876C84.9978 532.272 85.723 536.5 84.3614 539.643C83.0886 542.533 80.3559 543.759 79.5979 544.071C74.7034 546.183 71.5448 543.022 62.832 543.731C59.7905 543.969 56.4682 544.663 56.384 545.68C56.384 546.44 58.2089 546.691 60.1274 548.64C60.1953 548.693 60.2566 548.754 60.3099 548.822C60.8901 549.423 62.949 551.568 62.9022 554.342C62.9022 554.458 62.7993 557.465 60.7919 558.537C59.9711 558.921 59.0448 559.018 58.1621 558.813C53.291 557.992 47.0114 558.449 46.8523 559.237C46.6511 560.132 54.5123 561.381 54.9053 564.43C55.2235 566.966 50.2261 569.311 49.5757 569.61C44.1711 572.09 38.453 570.915 38.425 571.358C38.3969 571.801 43.1323 571.516 46.8851 574.514C48.6398 575.913 51.1245 578.71 50.4039 580.803C49.5616 583.376 44.3255 583.526 42.1216 583.582Z" fill="#3A67B3"/>
  <path d="M43.5722 566.351C43.4178 565.274 42.3088 564.757 41.3402 564.57C40.1184 564.361 38.8684 564.378 37.6529 564.621C35.1027 565.06 32.6087 566.118 29.9789 565.987C28.6459 565.956 27.3569 565.506 26.2963 564.701C29.4105 562.067 32.3476 559.233 35.0887 556.216C36.1322 555.111 37.171 553.997 38.2285 552.892C42.2012 551.876 45.9914 554.537 49.9828 554.179C51.0419 554.101 52.0611 553.744 52.9354 553.144C53.0852 553.041 52.9074 552.827 52.7623 552.929C51.0871 554.104 48.944 554.067 47.0068 553.722C45.0696 553.377 43.2634 552.691 41.3028 552.458C40.3933 552.342 39.4712 552.369 38.5701 552.537C41.4244 549.568 44.3958 546.696 47.7836 544.323C51.8873 541.456 56.6414 539.284 61.695 538.943C62.3314 538.901 62.9631 538.887 63.5948 538.906C63.7726 538.906 63.8054 538.631 63.6276 538.626C58.7237 538.505 53.9836 540.169 49.8284 542.668C49.1171 543.092 48.4246 543.549 47.7602 544.015C47.772 543.984 47.772 543.949 47.7602 543.918C46.8243 541.619 48.4059 539.386 49.8471 537.712C50.6732 536.829 51.4244 535.88 52.0932 534.873C52.6172 534.016 53.0571 533.009 52.8512 531.988C52.8138 531.815 52.5377 531.852 52.5751 532.03C52.8185 533.228 52.1072 534.407 51.4474 535.344C50.7175 536.365 49.8284 537.256 49.047 538.235C47.7602 539.843 46.6792 541.964 47.5028 544.029C47.5133 544.056 47.5335 544.078 47.5595 544.091C47.5854 544.104 47.6152 544.107 47.6432 544.099C43.8436 546.757 40.5354 550.053 37.3488 553.423C35.5847 555.288 33.8393 557.153 32.0425 559.018C30.0762 556.621 29.0948 553.571 29.2957 550.482C29.432 548.863 29.9104 547.292 30.6995 545.871C31.5371 544.286 32.5338 542.752 32.983 540.999C33.4322 539.246 33.2544 537.27 31.9442 535.95C31.8226 535.824 31.6026 535.997 31.729 536.123C33.0485 537.461 33.1328 539.465 32.6648 541.186C32.1969 542.906 31.1066 544.482 30.2831 546.109C29.5522 547.485 29.1202 548.998 29.015 550.551C28.9332 552.021 29.1105 553.493 29.5391 554.901C29.9994 556.484 30.785 557.954 31.846 559.218C29.6806 561.47 27.3552 563.564 24.8879 565.484C23.158 566.815 21.3116 567.988 19.371 568.99C20.2694 564.57 16.9752 560.733 16.1891 556.561C15.9341 555.346 15.9758 554.087 16.3108 552.892C16.3622 552.719 16.1002 552.617 16.0487 552.789C14.7151 557.185 17.9766 561.181 18.9592 565.279C19.2808 566.508 19.3207 567.794 19.0762 569.041C19.0703 569.054 19.0672 569.068 19.0672 569.083C19.0672 569.097 19.0703 569.112 19.0762 569.125C17.6044 569.869 16.066 570.475 14.4812 570.934C14.5326 570.98 14.5748 571.027 14.6262 571.069C14.6463 571.098 14.6717 571.123 14.7011 571.143C17.4162 570.33 19.9992 569.13 22.3704 567.582C23.6419 566.757 24.8681 565.866 26.0437 564.91C27.789 566.356 30.1801 566.486 32.3279 566.132C34.822 565.717 37.2271 564.733 39.782 564.733C40.9612 564.733 43.0575 564.943 43.2681 566.425C43.278 566.466 43.3035 566.5 43.3391 566.522C43.3746 566.543 43.4172 566.55 43.4576 566.54C43.4979 566.53 43.5326 566.504 43.5541 566.469C43.5756 566.434 43.5821 566.391 43.5722 566.351Z" fill="white"/>
  <path d="M48.5026 34.6618H46.0827C45.4032 31.5804 44.2636 28.618 42.702 25.8734L44.7082 23.8746C46.1481 22.44 46.957 20.4943 46.957 18.4655C46.957 16.4367 46.1481 14.491 44.7082 13.0564C43.2683 11.6218 41.3153 10.8159 39.279 10.8159C37.2426 10.8159 35.2897 11.6218 33.8498 13.0564L32.155 14.7671C29.4873 13.0547 26.5747 11.7548 23.5163 10.9114V8.10156C23.5163 7.09702 23.3177 6.10233 22.9319 5.17426C22.546 4.24619 21.9805 3.40292 21.2675 2.69261C20.5546 1.98229 19.7082 1.41884 18.7767 1.03442C17.8452 0.650004 16.8468 0.452148 15.8385 0.452148C14.8302 0.452148 13.8319 0.650004 12.9003 1.03442C11.9688 1.41884 11.1224 1.98229 10.4095 2.69261C9.69652 3.40292 9.13098 4.24619 8.74513 5.17426C8.35929 6.10233 8.16069 7.09702 8.16069 8.10156V10.5125C5.06763 11.1888 2.0941 12.3242 -0.660339 13.8807L-2.66654 11.8819C-4.10644 10.4468 -6.05962 9.64027 -8.09637 9.63986C-10.1331 9.63944 -12.0866 10.4451 -13.5271 11.8797C-14.9676 13.3143 -15.7771 15.2603 -15.7775 17.2895C-15.778 19.3187 -14.9693 21.265 -13.5294 22.7001L-11.8167 24.4064C-13.5272 27.061 -14.8245 29.9583 -15.6646 32.9998H-18.5026C-20.5075 33.0479 -22.414 33.8751 -23.8149 35.3049C-25.2158 36.7346 -26 38.6534 -26 40.6514C-26 42.6495 -25.2158 44.5683 -23.8149 45.998C-22.414 47.4277 -20.5075 48.255 -18.5026 48.3031H-16.0827C-15.4052 51.3851 -14.2655 54.3478 -12.702 57.0915L-14.7082 59.0902C-16.1481 60.5248 -16.957 62.4705 -16.957 64.4993C-16.957 66.5281 -16.1481 68.4739 -14.7082 69.9084C-13.2683 71.343 -11.3153 72.149 -9.27897 72.149C-7.24263 72.149 -5.2897 71.343 -3.84979 69.9084L-2.14163 68.2066C0.527664 69.9058 3.43618 71.1994 6.48812 72.0446V74.8633C6.48812 76.892 7.29703 78.8377 8.7369 80.2722C10.1768 81.7068 12.1297 82.5127 14.1659 82.5127C16.2022 82.5127 18.1551 81.7068 19.595 80.2722C21.0348 78.8377 21.8438 76.892 21.8438 74.8633V72.4523C24.9368 71.7761 27.9103 70.6407 30.6648 69.0841L32.671 71.0829C34.1109 72.5175 36.0638 73.3234 38.1002 73.3234C40.1365 73.3234 42.0894 72.5175 43.5294 71.0829C44.9693 69.6483 45.7782 67.7026 45.7782 65.6738C45.7782 63.645 44.9693 61.6993 43.5294 60.2647L41.8212 58.5628C43.5249 55.9025 44.8232 53.005 45.6734 49.965H48.5026C50.5075 49.9169 52.414 49.0897 53.8149 47.66C55.2158 46.2302 56 44.3114 56 42.3134C56 40.3154 55.2158 38.3965 53.8149 36.9668C52.414 35.5371 50.5075 34.7098 48.5026 34.6618V34.6618ZM37.8622 41.4913C37.8631 45.9969 36.5228 50.4016 34.011 54.1483C31.4992 57.895 27.9285 60.8154 23.7507 62.5402C19.5728 64.2651 14.9754 64.7168 10.5399 63.8384C6.10432 62.9599 2.02986 60.7907 -1.16823 57.605C-4.36632 54.4194 -6.54438 50.3604 -7.42697 45.9415C-8.30956 41.5225 -7.85703 36.942 -6.12661 32.7793C-4.39619 28.6165 -1.4656 25.0586 2.29453 22.5553C6.05466 20.052 10.4754 18.7159 14.9978 18.7159C21.0607 18.7171 26.875 21.1168 31.1625 25.3877C35.45 29.6585 37.8598 35.4508 37.8622 41.4913V41.4913Z" fill="#FAD101"/>
  <path d="M0.57178 41.4912C0.57266 44.3391 1.42115 47.1228 3.00996 49.4902C4.59876 51.8577 6.85652 53.7026 9.49773 54.7916C12.1389 55.8806 15.045 56.1649 17.8483 55.6084C20.6517 55.052 23.2265 53.6798 25.2471 51.6654C27.2677 49.651 28.6434 47.0849 29.2002 44.2916C29.757 41.4983 29.4699 38.6032 28.3752 35.9724C27.2805 33.3416 25.4274 31.0934 23.0501 29.5119C20.6729 27.9304 17.8784 27.0868 15.0199 27.0877C13.1218 27.0877 11.2423 27.4603 9.48882 28.1842C7.73531 28.9082 6.14216 29.9693 4.8004 31.3069C3.45865 32.6445 2.39459 34.2324 1.66903 35.9799C0.943463 37.7274 0.570611 39.6002 0.57178 41.4912V41.4912Z" fill="#FAD101"/>
  <path d="M97.8428 31.4841C97.8025 31.4839 97.7631 31.472 97.7296 31.4497C97.6961 31.4274 97.6698 31.3958 97.6542 31.3588C97.6346 31.3083 97.6355 31.2523 97.6566 31.2024C97.6777 31.1525 97.7174 31.1128 97.7674 31.0915C97.7674 31.0915 98.2997 30.8702 99.2847 30.4818C99.3101 30.4703 99.3375 30.4639 99.3654 30.4633C99.3933 30.4626 99.421 30.4676 99.4469 30.478C99.4728 30.4883 99.4963 30.5039 99.5159 30.5236C99.5356 30.5433 99.551 30.5667 99.5613 30.5926C99.5715 30.6184 99.5764 30.6461 99.5756 30.6738C99.5748 30.7016 99.5683 30.7289 99.5565 30.7541C99.5448 30.7793 99.528 30.8019 99.5072 30.8204C99.4864 30.8389 99.4621 30.853 99.4356 30.8619C98.4548 31.2461 97.9225 31.4674 97.9225 31.4674C97.8977 31.4792 97.8703 31.485 97.8428 31.4841V31.4841Z" fill="#3A67B3"/>
  <path d="M292.239 21.257C292.202 21.2567 292.166 21.2481 292.134 21.2319C292.087 21.2041 292.054 21.1591 292.04 21.1067C292.027 21.0542 292.035 20.9987 292.063 20.9521C292.335 20.4925 292.571 20.0122 292.767 19.5156C292.789 19.4679 292.828 19.4305 292.877 19.411C292.926 19.3914 292.98 19.3913 293.029 19.4105C293.078 19.4298 293.118 19.467 293.14 19.5146C293.162 19.5621 293.165 19.6162 293.148 19.6659C292.944 20.1815 292.699 20.68 292.415 21.1567C292.397 21.1878 292.372 21.2135 292.341 21.2312C292.31 21.2488 292.274 21.2577 292.239 21.257V21.257Z" fill="#3A67B3"/>
  <path d="M101.431 28.0807H99.9426C99.5201 26.1769 98.8137 24.347 97.8468 22.6518L99.0833 21.4199C99.9727 20.5338 100.472 19.3321 100.472 18.079C100.472 16.826 99.9727 15.6243 99.0833 14.7382C98.194 13.8522 96.9878 13.3544 95.7301 13.3544C94.4724 13.3544 93.2662 13.8522 92.3769 14.7382L91.3206 15.7906C89.6803 14.7401 87.8898 13.9432 86.0099 13.4269V11.7148C86.0099 10.4643 85.5113 9.26511 84.6239 8.38092C83.7364 7.49673 82.5327 7 81.2776 7C80.0226 7 78.8189 7.49673 77.9314 8.38092C77.044 9.26511 76.5454 10.4643 76.5454 11.7148V13.2014C74.6342 13.6211 72.7973 14.325 71.0964 15.2894L69.8389 14.0366C68.9496 13.1506 67.7434 12.6528 66.4857 12.6528C65.228 12.6528 64.0218 13.1506 63.1324 14.0366C62.2431 14.9227 61.7435 16.1244 61.7435 17.3775C61.7435 18.6305 62.2431 19.8323 63.1324 20.7183L64.1887 21.7707C63.1343 23.4049 62.3344 25.1888 61.8163 27.0617H60.0684C59.4354 27.0429 58.805 27.1509 58.2146 27.3793C57.6243 27.6077 57.0859 27.9518 56.6315 28.3913C56.1771 28.8308 55.8158 29.3566 55.5691 29.9378C55.3224 30.5189 55.1953 31.1434 55.1953 31.7744C55.1953 32.4053 55.3224 33.0299 55.5691 33.611C55.8158 34.1921 56.1771 34.718 56.6315 35.1575C57.0859 35.5969 57.6243 35.9411 58.2146 36.1694C58.805 36.3978 59.4354 36.5058 60.0684 36.4871H61.5606C61.9801 38.3917 62.6867 40.2221 63.6564 41.9159L62.3989 43.1687C61.5096 44.0548 61.0099 45.2565 61.0099 46.5096C61.0099 47.7626 61.5096 48.9644 62.3989 49.8504C63.2882 50.7364 64.4944 51.2342 65.7521 51.2342C67.0099 51.2342 68.216 50.7364 69.1054 49.8504L70.1575 48.8022C71.8265 49.8366 73.6422 50.615 75.5436 51.1116V52.8488C75.5248 53.4795 75.6332 54.1075 75.8624 54.6957C76.0916 55.2839 76.437 55.8202 76.8781 56.273C77.3192 56.7257 77.8471 57.0856 78.4303 57.3314C79.0136 57.5772 79.6405 57.7039 80.2738 57.7039C80.9071 57.7039 81.5339 57.5772 82.1172 57.3314C82.7005 57.0856 83.2283 56.7257 83.6694 56.273C84.1105 55.8202 84.4559 55.2839 84.6851 54.6957C84.9144 54.1075 85.0228 53.4795 85.0039 52.8488V51.3621C86.9159 50.9449 88.7531 50.2409 90.4529 49.2741L91.6895 50.5269C92.5788 51.413 93.785 51.9107 95.0427 51.9107C96.3004 51.9107 97.5066 51.413 98.3959 50.5269C99.2853 49.6409 99.7849 48.4391 99.7849 47.1861C99.7849 45.933 99.2853 44.7313 98.3959 43.8452L97.3439 42.7971C98.3884 41.1597 99.1823 39.3764 99.6995 37.506H101.443C102.076 37.5248 102.707 37.4168 103.297 37.1884C103.887 36.96 104.426 36.6159 104.88 36.1764C105.334 35.7369 105.696 35.2111 105.942 34.63C106.189 34.0488 106.316 33.4243 106.316 32.7933C106.316 32.1624 106.189 31.5378 105.942 30.9567C105.696 30.3756 105.334 29.8497 104.88 29.4103C104.426 28.9708 103.887 28.6267 103.297 28.3983C102.707 28.1699 102.076 28.0619 101.443 28.0807H101.431ZM94.875 32.2818C94.875 35.0578 94.0488 37.7714 92.5008 40.0796C90.9528 42.3877 88.7526 44.1867 86.1784 45.2491C83.6042 46.3114 80.7716 46.5893 78.0388 46.0478C75.3061 45.5062 72.7959 44.1694 70.8256 42.2065C68.8554 40.2436 67.5137 37.7427 66.9701 35.02C66.4265 32.2973 66.7055 29.4752 67.7718 26.9106C68.8381 24.3459 70.6437 22.1538 72.9605 20.6115C75.2772 19.0693 78.0009 18.2461 80.7872 18.2461C82.6373 18.2461 84.4692 18.6091 86.1784 19.3145C87.8876 20.0199 89.4406 21.0537 90.7488 22.357C92.057 23.6604 93.0947 25.2077 93.8027 26.9106C94.5106 28.6134 94.875 30.4386 94.875 32.2818V32.2818Z" fill="#73B4FF"/>
  <path d="M71.8845 32.2817C71.8845 34.037 72.407 35.7529 73.3859 37.2123C74.3648 38.6717 75.7561 39.8091 77.3839 40.4807C79.0117 41.1522 80.8028 41.3277 82.5308 40.985C84.2587 40.6422 85.8457 39.7966 87.0913 38.5551C88.3368 37.3137 89.1847 35.7321 89.528 34.0104C89.8712 32.2887 89.6942 30.5043 89.0194 28.8828C88.3446 27.2614 87.2023 25.8757 85.737 24.9011C84.2717 23.9265 82.5492 23.4068 80.7873 23.4076C79.6179 23.4076 78.4598 23.6372 77.3794 24.0832C76.299 24.5292 75.3174 25.1829 74.4906 26.007C73.6638 26.8311 73.0081 27.8094 72.561 28.886C72.1138 29.9627 71.8839 31.1165 71.8845 32.2817V32.2817Z" fill="#73B4FF"/>
  <path d="M291.597 22.8397L300.554 16.8721L294.678 14.4959L291.597 22.8397Z" fill="#2459B3"/>
  <path d="M300.927 18.743L309.587 7.02924L295.281 16.8722L300.927 18.743Z" fill="#5686D6"/>
  <path d="M309.587 7.0083L286.345 12.0738L291.815 14.1786L309.587 7.0083Z" fill="#5686D6"/>
  <path d="M309.587 7.02924L295.281 16.9348L291.597 22.8397L291.769 14.116L309.587 7.02924Z" fill="#3B70C7"/>
  <path d="M354.569 527.912C354.072 528.021 353.555 527.992 353.074 527.827C352.594 527.662 352.169 527.368 351.846 526.977C351.206 526.177 350.881 525.171 350.931 524.146C350.986 523.13 351.212 522.13 351.6 521.189C352.146 519.586 353.039 518.122 354.213 516.9C351.742 516.91 349.273 517.109 346.83 517.495L346.165 517.609L347.332 522.756C347.666 523.882 347.78 525.064 347.669 526.236C347.482 527.401 346.74 528.553 345.603 528.87C345.105 528.977 344.589 528.947 344.109 528.782C343.63 528.617 343.205 528.325 342.88 527.936C342.238 527.137 341.913 526.13 341.964 525.105C342.021 524.088 342.248 523.087 342.637 522.144C343.193 520.489 344.126 518.983 345.362 517.745C342.663 518.26 340.012 518.999 337.434 519.954L338.416 525.213C338.703 526.353 338.772 527.537 338.618 528.705C338.378 529.867 337.597 530.984 336.439 531.256C335.937 531.349 335.421 531.302 334.945 531.121C334.469 530.94 334.053 530.631 333.743 530.229C333.132 529.406 332.846 528.387 332.937 527.364C333.03 526.35 333.295 525.358 333.721 524.431C334.307 522.901 335.21 521.512 336.371 520.356C334.522 521.087 332.72 521.933 330.975 522.887C330.457 523.168 329.948 523.466 329.442 523.767L330.274 529.209C330.527 530.357 330.556 531.545 330.362 532.707C330.103 533.848 329.257 534.941 328.118 535.184C327.613 535.262 327.098 535.199 326.628 535.002C326.158 534.805 325.753 534.482 325.457 534.068C324.874 533.228 324.621 532.201 324.746 531.182C324.873 530.172 325.17 529.189 325.623 528.275C326.202 526.933 327.016 525.703 328.026 524.645C326.349 525.728 324.742 526.918 323.217 528.207L321.4 533.278C321.072 534.411 320.532 535.473 319.808 536.407C319.026 537.285 317.778 537.864 316.657 537.525C316.177 537.353 315.756 537.051 315.438 536.654C315.12 536.257 314.918 535.78 314.855 535.274C314.746 534.253 315.015 533.226 315.61 532.386C316.203 531.555 316.931 530.829 317.765 530.239C319.282 529.09 320.98 528.146 322.826 527.915C324.449 526.538 326.162 525.272 327.956 524.127C326.45 524.422 324.903 524.425 323.398 524.138C322.389 524.007 321.411 523.705 320.505 523.246C319.59 522.781 318.881 521.995 318.512 521.038C318.337 520.561 318.297 520.044 318.396 519.544C318.496 519.045 318.731 518.581 319.076 518.205C319.915 517.377 321.288 517.306 322.384 517.724C323.455 518.207 324.42 518.895 325.227 519.749L329.157 523.402C331.393 522.066 333.731 520.911 336.15 519.947C334.538 519.901 332.955 519.52 331.501 518.829C330.557 518.451 329.685 517.915 328.921 517.246C328.154 516.567 327.663 515.63 327.54 514.611C327.49 514.104 327.58 513.592 327.801 513.132C328.022 512.672 328.366 512.28 328.793 512.001C329.812 511.405 331.156 511.674 332.111 512.348C333.025 513.088 333.789 513.995 334.362 515.022C335.326 516.526 336.291 518.027 337.257 519.524L337.484 519.437C340.007 518.52 342.6 517.808 345.236 517.309C343.457 517.006 341.782 516.273 340.355 515.174C339.509 514.611 338.766 513.909 338.156 513.098C337.544 512.278 337.254 511.261 337.343 510.239C337.395 509.731 337.586 509.245 337.897 508.838C338.207 508.43 338.623 508.115 339.1 507.928C340.227 507.563 341.474 508.087 342.273 508.943C343.019 509.852 343.581 510.897 343.931 512.02C344.595 513.73 345.259 515.453 345.921 517.189L346.03 517.169L346.065 517.137L346.09 517.166C348.662 516.716 351.265 516.475 353.874 516.444C352.504 515.577 351.325 514.442 350.406 513.107C349.773 512.289 349.281 511.37 348.95 510.388C348.624 509.396 348.671 508.318 349.084 507.355C349.299 506.882 349.639 506.476 350.067 506.182C350.495 505.887 350.996 505.715 351.514 505.684C352.715 505.676 353.755 506.597 354.248 507.679C354.671 508.799 354.878 509.99 354.857 511.189L355.089 516.286C355.095 516.336 355.109 516.388 355.119 516.435C357.993 516.476 360.856 516.781 363.672 517.345C363.966 517.407 363.929 517.881 363.628 517.819C360.865 517.263 358.056 516.959 355.236 516.911L356.364 521.777C356.697 522.904 356.811 524.085 356.7 525.257C356.449 526.442 355.706 527.594 354.569 527.912Z" fill="#8EB2DB"/>
  <path d="M337.854 517.133C339.008 517.783 340.257 518.249 341.556 518.513C341.556 518.513 346.595 520.16 351.366 520.268C353.823 520.406 356.283 520.068 358.61 519.273L359.552 518.898C359.854 518.771 360.146 518.623 360.428 518.457C360.645 518.339 360.866 518.222 361.073 518.095C361.186 518.037 361.296 517.973 361.403 517.903C364.279 516.14 366.601 513.609 368.106 510.597C369.612 507.586 370.239 504.214 369.918 500.865C369.57 497.547 368.128 493.108 366.009 493.047C365.589 493.138 365.152 493.118 364.742 492.991C363.777 492.602 363.64 491.372 363.329 489.758C362.717 486.774 362.434 485.277 361.591 484.597C361.21 484.268 360.117 483.897 357.96 483.147C356.462 482.626 356.359 482.654 356.128 482.424C355.035 481.241 356.782 479.35 356.396 476.709C356.085 474.682 354.592 472.617 352.628 472.068C351.465 471.768 351.037 472.218 348.785 471.904C347.198 471.678 346.379 471.547 345.7 471.106C343.077 469.384 345.371 464.584 343.077 463.359C341.947 462.754 340.185 463.274 338.499 463.772C336.813 464.269 336.46 464.79 335.744 464.926C331.656 465.752 327.916 452.463 326.051 453.017C324.638 453.444 323.385 462.402 324.921 468.206C325.175 469.102 325.717 470.843 324.869 472.645C323.927 474.733 322.043 474.808 321.713 476.319C321.558 477.084 321.897 477.605 325.279 482.208C326.367 483.672 327.125 484.681 326.692 485.46C326.258 486.239 325.043 486.173 324.487 487.266C324.288 487.654 324.219 488.095 324.29 488.524C324.45 490.837 326.706 493.249 327.841 494.408C330.092 496.731 331.434 497.721 331.095 498.378C330.756 499.035 329.211 498.5 328.321 499.518C327.69 500.25 327.737 501.344 327.921 502.029C328.185 503 328.948 503.493 331.35 504.736C333.752 505.98 334.237 506.144 335.518 506.852C337.741 508.072 339.757 509.199 339.507 510.212C339.276 511.151 337.486 511.043 336.549 512.619C336.302 512.994 336.139 513.417 336.073 513.86C336.006 514.303 336.037 514.755 336.163 515.185C336.29 515.615 336.509 516.012 336.804 516.35C337.1 516.687 337.467 516.956 337.877 517.138L337.854 517.133Z" fill="#3A67B3"/>
  <path d="M343.308 513.286C344.415 514.529 346.299 513.966 347.735 513.835C349.1 513.704 350.474 513.688 351.842 513.788C354.449 513.98 357.009 514.578 359.43 515.562V515.538C357.889 512.929 356.561 510.179 355.191 507.505C353.841 504.715 352.292 502.026 350.556 499.457C349.046 497.388 347.339 495.468 345.46 493.723V493.723C342.597 493.385 339.809 494.192 336.94 494.103C334.439 494.028 331.679 492.888 330.987 490.26C330.926 490.026 331.298 489.96 331.359 490.195C332.089 492.972 335.226 493.808 337.76 493.728C340.195 493.653 342.592 493.118 345.032 493.31L344.377 492.686C342.583 490.983 340.807 489.237 339.502 487.13C338.605 485.671 337.799 484.157 337.091 482.598C334.376 482.142 331.871 480.856 329.923 478.919C329.758 478.745 330.045 478.501 330.21 478.675C332.032 480.484 334.36 481.704 336.888 482.175L336.78 481.936C335.06 478.211 333.538 474.399 332.221 470.515C332.108 470.172 331.99 469.83 331.887 469.487C331.811 469.262 332.15 469.102 332.221 469.328C333.423 473.012 334.816 476.631 336.394 480.172C337.223 482.049 338.099 483.926 339.102 485.713C339.333 486.126 339.573 486.53 339.827 486.91C340.826 485.906 340.769 484.414 340.769 483.104C340.784 481.381 341.179 479.682 341.926 478.127C342.673 476.573 343.754 475.201 345.093 474.109C345.281 473.959 345.526 474.245 345.338 474.395C343.453 475.942 342.108 478.043 341.495 480.397C341.234 481.594 341.114 482.818 341.137 484.043C341.113 485.202 340.915 486.389 340.049 487.224C340.865 488.45 341.797 489.596 342.832 490.645C344.966 492.822 347.33 494.77 349.285 497.125C351.148 499.449 352.774 501.951 354.14 504.595L354.494 505.276C356.001 502.46 357.564 499.443 357.513 496.149C357.502 495.386 357.391 494.627 357.183 493.892C356.931 493.195 356.742 492.478 356.618 491.748C356.477 490.368 357.192 489.162 357.904 488.036C358.035 487.834 358.346 488.036 358.219 488.247C357.781 488.876 357.423 489.557 357.155 490.274C356.931 491.001 356.931 491.777 357.155 492.503C357.353 493.245 357.626 493.953 357.762 494.709C357.878 495.392 357.919 496.086 357.885 496.778C357.743 499.945 356.236 502.808 354.776 505.548C354.767 505.567 354.753 505.584 354.736 505.597C354.718 505.61 354.699 505.619 354.677 505.623V505.623C356.448 509.016 358.059 512.521 360.037 515.791V515.82C360.063 515.841 360.082 515.871 360.089 515.904C360.499 516.58 360.923 517.246 361.375 517.889C361.268 517.959 361.158 518.023 361.045 518.081C360.574 517.424 360.16 516.749 359.745 516.068C357.041 514.916 354.153 514.255 351.216 514.116C349.721 514.052 348.224 514.119 346.741 514.318C345.446 514.487 343.986 514.59 343.035 513.52C342.884 513.351 343.167 513.107 343.308 513.286Z" fill="white"/>
  <path d="M248.78 8.63395C248.845 8.73664 248.888 8.85127 248.906 8.97091C248.925 9.09055 248.919 9.21272 248.889 9.33003C248.854 9.48893 248.776 9.63547 248.665 9.75435C248.553 9.87322 248.411 9.96008 248.255 10.0058L245.175 10.9013C245.02 10.9452 244.856 10.948 244.7 10.9093C244.544 10.8706 244.4 10.7918 244.284 10.6808C244.168 10.5697 244.083 10.4303 244.037 10.2763C243.992 10.1223 243.988 9.95916 244.025 9.8031L244.785 6.69776C244.823 6.54156 244.903 6.39827 245.015 6.28251C245.127 6.16675 245.267 6.08267 245.423 6.03885C245.577 5.99206 245.742 5.98745 245.898 6.02549C246.055 6.06353 246.199 6.14282 246.315 6.2551L248.631 8.465C248.688 8.51454 248.738 8.57135 248.78 8.63395V8.63395ZM244.751 10.1072L244.782 10.1478C244.806 10.1718 244.837 10.1887 244.87 10.1964C244.904 10.2042 244.939 10.2025 244.972 10.1917L248.051 9.29962C248.086 9.29092 248.118 9.27286 248.143 9.24741C248.169 9.22195 248.186 9.19008 248.195 9.15525C248.203 9.12042 248.202 9.08396 248.191 9.04984C248.18 9.01572 248.16 8.98524 248.133 8.96172L245.813 6.75182C245.788 6.72839 245.757 6.71197 245.724 6.70425C245.69 6.69654 245.656 6.69779 245.623 6.7079C245.59 6.71863 245.56 6.73867 245.538 6.76562C245.516 6.79257 245.501 6.8253 245.497 6.85995L244.734 9.96529C244.721 10.013 244.727 10.0638 244.751 10.1072V10.1072Z" fill="#D94559"/>
  <path d="M124.188 478.256L125.321 477.127C125.446 477.004 125.516 476.837 125.517 476.662C125.517 476.487 125.448 476.319 125.325 476.195C125.201 476.071 125.033 476.001 124.857 476C124.682 475.999 124.513 476.068 124.389 476.191L123.256 477.32L122.123 476.191C121.999 476.069 121.832 476 121.657 476C121.483 476.001 121.315 476.07 121.192 476.193C121.069 476.316 121 476.483 121 476.657C121 476.831 121.07 476.998 121.194 477.121L122.326 478.249L121.194 479.375C121.102 479.467 121.04 479.584 121.015 479.711C120.99 479.839 121.004 479.971 121.054 480.09C121.104 480.21 121.188 480.313 121.296 480.385C121.404 480.457 121.531 480.496 121.662 480.496C121.836 480.496 122.003 480.427 122.126 480.304L123.256 479.175L124.389 480.304C124.449 480.365 124.522 480.413 124.602 480.446C124.681 480.48 124.767 480.497 124.853 480.497C124.94 480.497 125.025 480.48 125.105 480.446C125.185 480.413 125.257 480.365 125.318 480.304C125.379 480.243 125.428 480.17 125.461 480.091C125.495 480.011 125.512 479.925 125.512 479.839C125.512 479.753 125.495 479.667 125.461 479.588C125.428 479.508 125.379 479.435 125.318 479.375L124.188 478.256Z" fill="#FFB86B"/>
  <path d="M188.588 534.156C188.076 534.156 187.576 534.005 187.15 533.722C186.725 533.439 186.393 533.036 186.197 532.565C186.001 532.094 185.95 531.575 186.05 531.075C186.15 530.575 186.396 530.116 186.758 529.755C187.12 529.395 187.581 529.149 188.083 529.05C188.585 528.95 189.105 529.001 189.578 529.196C190.051 529.391 190.455 529.722 190.739 530.146C191.024 530.57 191.176 531.068 191.176 531.578C191.174 532.261 190.901 532.916 190.416 533.399C189.931 533.882 189.274 534.155 188.588 534.156V534.156ZM188.588 529.808C188.236 529.808 187.893 529.911 187.6 530.106C187.308 530.301 187.08 530.577 186.946 530.901C186.811 531.224 186.776 531.58 186.845 531.924C186.913 532.267 187.083 532.583 187.331 532.83C187.58 533.078 187.896 533.246 188.241 533.315C188.586 533.383 188.943 533.348 189.268 533.214C189.593 533.08 189.87 532.853 190.065 532.562C190.261 532.271 190.365 531.928 190.365 531.578C190.364 531.109 190.177 530.659 189.843 530.327C189.51 529.995 189.059 529.808 188.588 529.808V529.808Z" fill="#2363A8"/>
  <path d="M267.781 484.635C267.845 484.737 267.888 484.852 267.907 484.972C267.926 485.091 267.92 485.214 267.889 485.331C267.854 485.49 267.777 485.636 267.665 485.755C267.553 485.874 267.412 485.961 267.255 486.007L264.176 486.899C264.021 486.944 263.857 486.947 263.701 486.909C263.544 486.871 263.401 486.792 263.284 486.681C263.168 486.57 263.082 486.431 263.037 486.277C262.992 486.123 262.988 485.96 263.026 485.804L263.789 482.699C263.827 482.542 263.905 482.399 264.017 482.282C264.128 482.166 264.268 482.081 264.423 482.036C264.578 481.991 264.742 481.988 264.899 482.027C265.055 482.065 265.199 482.144 265.315 482.256L267.632 484.466C267.689 484.515 267.74 484.571 267.781 484.635ZM263.752 486.108L263.782 486.149C263.807 486.172 263.838 486.188 263.871 486.196C263.905 486.203 263.939 486.202 263.972 486.193L267.052 485.297C267.085 485.288 267.115 485.271 267.139 485.246C267.162 485.222 267.179 485.192 267.187 485.159C267.195 485.126 267.194 485.091 267.184 485.059C267.175 485.026 267.157 484.997 267.133 484.973L264.813 482.763C264.789 482.739 264.759 482.723 264.726 482.714C264.694 482.706 264.659 482.706 264.627 482.715C264.593 482.725 264.563 482.743 264.539 482.768C264.515 482.793 264.499 482.824 264.491 482.857L263.728 485.963C263.717 486.012 263.725 486.065 263.752 486.108V486.108Z" fill="#D94559"/>
  <path d="M136.188 32.2503L137.321 31.1217C137.445 30.9985 137.514 30.8313 137.514 30.6571C137.514 30.4828 137.445 30.3157 137.321 30.1925C137.198 30.0692 137.03 30 136.855 30C136.68 30 136.512 30.0692 136.389 30.1925L135.256 31.3211L134.123 30.1925C133.999 30.0697 133.832 30.0009 133.657 30.0012C133.483 30.0015 133.315 30.0709 133.192 30.1941C133.069 30.3174 133 30.4843 133 30.6583C133 30.8322 133.07 30.9989 133.194 31.1217L134.326 32.2503L133.194 33.3755C133.133 33.4365 133.084 33.5089 133.051 33.5886C133.018 33.6682 133.002 33.7535 133.002 33.8396C133.002 33.9258 133.019 34.011 133.052 34.0905C133.086 34.17 133.134 34.2423 133.195 34.3031C133.257 34.3639 133.329 34.412 133.409 34.4448C133.489 34.4777 133.575 34.4945 133.661 34.4943C133.748 34.4942 133.833 34.477 133.913 34.4439C133.993 34.4108 134.065 34.3624 134.126 34.3014L135.256 33.1761L136.389 34.3014C136.514 34.414 136.678 34.4744 136.846 34.4701C137.015 34.4658 137.175 34.3972 137.295 34.2783C137.414 34.1595 137.483 33.9995 137.487 33.8315C137.491 33.6635 137.431 33.5003 137.318 33.3755L136.188 32.2503Z" fill="#FFB86B"/>
</svg>