<svg width="2642" height="1448" viewBox="0 0 2642 1448" fill="none" xmlns="http://www.w3.org/2000/svg">
<g filter="url(#filter0_f_17_1386)">
<rect x="315" y="315" width="2011.98" height="818" fill="url(#paint0_linear_17_1386)" fill-opacity="0.4"/>
</g>
<path d="M1841.77 582.024C1841.77 582.024 1850.88 579.254 1851.84 583.333C1852.8 587.413 1826.36 641.25 1742 663.157C1657.64 685.064 1609.14 697.554 1609.14 697.554L1619.31 659.682C1630.24 636.012 1649.43 591.24 1783.9 524.763C1880.3 477.07 1948.99 441.162 1954.33 448.515C1959.67 455.868 1918.67 500.639 1874.1 522.093C1874.1 522.093 1896.97 511.87 1900.64 517.158C1904.32 522.446 1864.38 566.059 1843.18 580.11L1841.72 581.974L1841.77 582.024Z" fill="url(#paint1_linear_17_1386)"/>
<mask id="mask0_17_1386" style="mask-type:luminance" maskUnits="userSpaceOnUse" x="1609" y="447" width="346" height="251">
<path d="M1841.77 582.024C1841.77 582.024 1850.88 579.254 1851.84 583.333C1852.8 587.413 1826.36 641.25 1742 663.157C1657.64 685.064 1609.14 697.554 1609.14 697.554L1619.31 659.682C1630.24 636.012 1649.43 591.24 1783.9 524.763C1880.3 477.07 1948.99 441.162 1954.33 448.515C1959.67 455.868 1918.67 500.639 1874.1 522.093C1874.1 522.093 1896.97 511.87 1900.64 517.158C1904.32 522.446 1864.38 566.059 1843.18 580.11L1841.72 581.974L1841.77 582.024Z" fill="white"/>
</mask>
<g mask="url(#mask0_17_1386)">
<path d="M1806.71 587.362C1806.71 587.362 1815.83 584.592 1816.79 588.672C1817.74 592.751 1791.3 646.588 1706.94 668.495C1622.58 690.403 1563.81 701.23 1563.81 701.23L1581.74 656.408C1581.74 656.408 1640.51 592.247 1748.65 524.662C1839.85 467.652 1913.99 446.5 1919.33 453.803C1924.67 461.105 1883.67 505.927 1839.1 527.381C1839.1 527.381 1861.96 517.158 1865.64 522.446C1869.32 527.734 1829.38 571.347 1808.18 585.398L1806.71 587.261V587.362Z" fill="url(#paint2_linear_17_1386)"/>
<path style="mix-blend-mode:screen" d="M1557.51 577.468C1515.79 529.702 1551.66 430.127 1637.63 355.062C1723.59 279.996 1827.09 257.866 1868.8 305.632C1910.52 353.399 1874.65 452.973 1788.69 528.039C1702.73 603.104 1599.22 625.235 1557.51 577.468Z" fill="url(#paint3_radial_17_1386)"/>
</g>
<mask id="mask1_17_1386" style="mask-type:luminance" maskUnits="userSpaceOnUse" x="1467" y="581" width="416" height="484">
<path d="M1468.47 612.191C1473.51 589.981 1503.68 569.282 1541.3 590.283C1599.22 622.565 1669.67 697.252 1713.29 747.765C1713.29 747.765 1721.3 757.182 1721.35 757.182C1728.55 765.694 1734.54 772.996 1737.77 777.025C1737.77 777.025 1730.36 812.48 1759.78 826.48C1789.19 840.481 1869.22 885.907 1865.99 895.829C1847.21 902.376 1817.74 884.598 1817.74 884.598C1817.74 884.598 1885.99 930.276 1882.26 940.902C1878.58 951.579 1813.31 915.319 1813.31 915.319C1847.96 937.73 1887.8 978.271 1882.21 992.07C1876.62 1005.87 1809.03 964.17 1809.03 964.17C1809.03 964.17 1872.94 1023.75 1865.74 1035.63C1858.54 1047.57 1794.63 997.962 1794.63 997.962C1794.63 997.962 1826.21 1051.55 1813.97 1063.13C1801.73 1074.71 1752.37 1009.39 1752.37 1009.39C1752.37 1009.39 1765.67 1034.42 1761.89 1037.65C1758.11 1040.87 1729.46 1024.2 1713.44 984.012C1713.44 984.012 1709.16 987.689 1704.73 980.386C1684.38 946.493 1684.58 897.843 1672.44 878.403C1610.5 864.655 1542 817.919 1521.4 783.421C1501.06 749.376 1510.88 705.713 1509.87 694.331C1508.86 682.949 1502.27 673.582 1487.56 660.588C1472.85 647.595 1464.79 628.206 1468.42 612.14L1468.47 612.191Z" fill="white"/>
</mask>
<g mask="url(#mask1_17_1386)">
<path d="M1468.47 612.191C1473.51 589.981 1503.68 569.283 1541.3 590.283C1599.42 622.716 1670.08 697.705 1713.29 747.765C1720.69 756.377 1730.67 768.162 1737.77 777.025C1737.77 777.025 1730.36 812.48 1759.78 826.48C1789.19 840.481 1869.22 885.907 1865.99 895.829C1847.21 902.376 1817.74 884.598 1817.74 884.598C1817.74 884.598 1885.99 930.276 1882.26 940.903C1878.58 951.579 1813.31 915.319 1813.31 915.319C1847.96 937.73 1887.8 978.271 1882.21 992.07C1876.62 1005.87 1809.03 964.17 1809.03 964.17C1809.03 964.17 1872.94 1023.75 1865.74 1035.63C1858.54 1047.57 1794.63 997.963 1794.63 997.963C1794.63 997.963 1826.21 1051.55 1813.97 1063.13C1801.73 1074.71 1752.37 1009.39 1752.37 1009.39C1752.37 1009.39 1765.67 1034.42 1761.89 1037.65C1758.11 1040.87 1729.46 1024.2 1713.44 984.012C1713.44 984.012 1709.16 987.689 1704.73 980.386C1684.38 946.493 1684.58 897.843 1672.44 878.404C1610.45 864.655 1542 817.869 1521.4 783.421C1501.06 749.377 1510.88 705.713 1509.87 694.331C1508.86 682.949 1502.27 673.582 1487.56 660.589C1472.85 647.595 1464.79 628.206 1468.42 612.14L1468.47 612.191Z" fill="#D2E2F8"/>
<path style="mix-blend-mode:multiply" d="M1618.56 648.955C1681.71 706.72 1737.77 777.025 1737.77 777.025C1737.77 777.025 1730.36 812.48 1759.78 826.48C1789.19 840.481 1869.22 885.907 1865.99 895.829C1847.21 902.376 1817.74 884.598 1817.74 884.598C1817.74 884.598 1885.99 930.276 1882.26 940.903C1878.58 951.579 1813.31 915.319 1813.31 915.319C1847.96 937.73 1887.8 978.271 1882.21 992.07C1876.62 1005.87 1809.03 964.17 1809.03 964.17C1809.03 964.17 1872.94 1023.75 1865.74 1035.63C1858.54 1047.57 1794.63 997.963 1794.63 997.963C1794.63 997.963 1826.21 1051.55 1813.97 1063.13C1801.73 1074.71 1752.37 1009.39 1752.37 1009.39C1752.37 1009.39 1765.67 1034.42 1761.89 1037.65C1758.11 1040.87 1729.46 1024.2 1713.44 984.012C1713.44 984.012 1709.16 987.689 1704.73 980.386C1684.38 946.493 1684.58 897.843 1672.44 878.403C1683.37 880.821 1694.15 882.231 1704.32 882.332C1718.88 882.483 1729.51 879.36 1736.81 874.223C1741.19 871.101 1743.76 866.417 1744.31 861.532C1744.87 856.546 1743.41 851.359 1739.83 847.28C1723.66 828.948 1699.54 827.337 1663.78 805.026C1646.56 794.299 1626.87 771.082 1617.6 753.204C1616.29 758.139 1614.63 763.025 1612.71 767.859C1609.69 775.414 1606.22 781.809 1602.34 786.342C1594.68 795.306 1589.39 782.061 1589.39 782.061C1587.43 795.81 1582.19 818.926 1568.59 823.559C1566.08 824.416 1563.16 824.365 1559.98 823.509C1549 814.948 1537.37 804.523 1528.56 793.594L1618.51 648.905L1618.56 648.955Z" fill="url(#paint4_linear_17_1386)"/>
<path d="M1468.47 612.191C1473.51 589.981 1503.68 569.283 1541.3 590.283C1576.75 610.076 1616.34 645.732 1650.59 680.784C1640.06 684.813 1631.2 691.712 1624.65 700.374C1618.66 708.281 1614.63 717.749 1613.07 727.973C1611.61 737.743 1608.99 747.463 1605.11 756.981C1602.09 764.535 1598.61 770.931 1594.73 775.464C1587.08 784.428 1582.9 760.859 1582.9 760.859C1582.9 760.859 1580.63 805.983 1561.04 812.732C1554.79 814.897 1546.03 811.473 1537.17 803.364C1531.28 797.271 1526.34 791.278 1522.66 785.536C1510.07 765.089 1507.5 742.477 1508.56 718.706C1509.06 707.727 1510.22 699.015 1509.87 694.432C1508.86 683.1 1502.27 673.683 1487.56 660.689C1472.85 647.696 1464.79 628.307 1468.42 612.241L1468.47 612.191Z" fill="url(#paint5_linear_17_1386)"/>
<g style="mix-blend-mode:multiply">
<path d="M1647.49 876.543C1545.33 825.658 1485.45 738.392 1513.72 681.629C1542 624.866 1647.74 620.1 1749.89 670.985C1852.04 721.87 1911.93 809.136 1883.65 865.899C1855.37 922.663 1749.64 927.428 1647.49 876.543Z" fill="url(#paint6_radial_17_1386)"/>
</g>
<g style="mix-blend-mode:multiply">
<path d="M1707.32 882.733C1605.16 831.848 1545.28 744.582 1573.55 687.819C1601.83 631.056 1707.57 626.29 1809.72 677.175C1911.87 728.06 1971.76 815.326 1943.48 872.09C1915.2 928.853 1809.47 933.618 1707.32 882.733Z" fill="url(#paint7_radial_17_1386)"/>
</g>
<g style="mix-blend-mode:multiply">
<path d="M1707.35 934.456C1757.46 928.463 1795.68 903.836 1792.76 879.511C1789.84 855.136 1746.88 840.28 1696.77 846.273C1646.66 852.266 1608.43 876.893 1611.35 901.217C1614.27 925.542 1657.23 940.449 1707.35 934.456Z" fill="url(#paint8_radial_17_1386)"/>
</g>
<g style="mix-blend-mode:multiply">
<path d="M1535.09 664.602C1530.07 550.591 1577.37 455.907 1640.73 453.118C1704.08 450.33 1759.51 540.494 1764.53 654.505C1769.55 768.515 1722.25 863.2 1658.9 865.988C1595.54 868.776 1540.11 778.613 1535.09 664.602Z" fill="url(#paint9_radial_17_1386)"/>
</g>
<g style="mix-blend-mode:multiply">
<path d="M1596.91 700.505C1520.68 615.576 1485.38 522.947 1518.06 493.611C1550.75 464.275 1639.04 509.342 1715.27 594.27C1791.5 679.199 1826.81 771.828 1794.12 801.164C1761.44 830.5 1673.14 785.433 1596.91 700.505Z" fill="url(#paint10_radial_17_1386)"/>
</g>
<path style="mix-blend-mode:screen" d="M1446.58 900.198C1350.81 838.127 1301.14 744.668 1335.63 691.453C1370.12 638.238 1475.72 645.417 1571.49 707.488C1667.26 769.559 1716.93 863.018 1682.44 916.233C1647.94 969.448 1542.34 962.269 1446.58 900.198Z" fill="url(#paint11_radial_17_1386)"/>
<path style="mix-blend-mode:screen" d="M1593.2 1247.88C1497.43 1185.81 1467.05 1062.59 1525.34 972.658C1583.64 882.728 1708.53 860.145 1804.29 922.216C1900.06 984.288 1930.44 1107.51 1872.15 1197.44C1813.86 1287.37 1688.97 1309.95 1593.2 1247.88Z" fill="url(#paint12_radial_17_1386)"/>
</g>
<path d="M1660.31 625.537C1718.63 580.211 2113.63 457.026 2120.53 469.717C2127.43 482.408 2054.5 530.353 2015.88 543.799C2015.88 543.799 2074 517.007 2079.03 525.014C2084.07 533.022 2054.45 565.757 2008.32 583.484C2017.24 579.808 2034.11 579.607 2036.37 586.808C2038.64 594.01 2018.54 625.939 1947.28 645.027C1958.86 646.135 1987.82 649.559 1990.39 660.891C1992.91 672.222 1956.85 696.446 1913.03 695.59C1926.33 695.892 1939.17 704.857 1937.46 712.109C1935.75 719.361 1903.72 740.211 1837.23 730.843C1837.23 730.843 1861.96 740.059 1858.24 752.247C1852.14 772.19 1765.77 759.348 1765.77 759.348C1765.77 759.348 1776.4 766.399 1776.14 772.392C1775.94 776.622 1768.94 785.838 1723.66 788.357C1688.26 790.321 1647.87 769.823 1631.35 736.685C1609.84 693.575 1623.84 653.89 1660.36 625.537H1660.31Z" fill="url(#paint13_linear_17_1386)"/>
<mask id="mask2_17_1386" style="mask-type:luminance" maskUnits="userSpaceOnUse" x="1621" y="468" width="500" height="321">
<path d="M1660.31 625.537C1718.63 580.211 2113.63 457.026 2120.53 469.717C2127.43 482.408 2054.5 530.353 2015.88 543.799C2015.88 543.799 2074 517.007 2079.03 525.014C2084.07 533.022 2054.45 565.757 2008.32 583.484C2017.24 579.808 2034.11 579.607 2036.37 586.808C2038.64 594.01 2018.54 625.939 1947.28 645.027C1958.86 646.135 1987.82 649.559 1990.39 660.891C1992.91 672.222 1956.85 696.446 1913.03 695.59C1926.33 695.892 1939.17 704.857 1937.46 712.109C1935.75 719.361 1903.72 740.211 1837.23 730.843C1837.23 730.843 1861.96 740.059 1858.24 752.247C1852.14 772.19 1765.77 759.348 1765.77 759.348C1765.77 759.348 1776.4 766.399 1776.14 772.392C1775.94 776.622 1768.94 785.838 1723.66 788.357C1688.26 790.321 1647.87 769.823 1631.35 736.685C1609.84 693.575 1623.84 653.89 1660.36 625.537H1660.31Z" fill="white"/>
</mask>
<g mask="url(#mask2_17_1386)">
<path d="M1679.04 592.298C1710.92 558.757 1875.01 449.623 1924.62 483.164C1968.18 456.27 2114.79 391.304 2121.64 403.995C2128.49 416.686 2055.61 464.63 2016.98 478.077C2016.98 478.077 2075.1 451.285 2080.14 459.292C2085.18 467.35 2055.56 500.035 2009.43 517.762C2018.34 514.086 2035.21 513.884 2037.48 521.086C2039.75 528.288 2019.65 560.217 1948.39 579.304C1959.97 580.412 1989.53 586.154 1989.59 598.895C1989.64 611.687 1945.21 636.868 1901.4 636.012C1914.69 636.314 1930.06 652.077 1928.34 659.329C1926.63 666.581 1894.6 687.431 1828.12 678.064C1828.12 678.064 1852.85 687.28 1849.12 699.468C1843.03 719.411 1765.62 697.453 1765.62 697.453C1765.62 697.453 1795.43 719.26 1791.71 730.088C1786.22 745.952 1761.79 742.225 1737.46 739.606C1737.46 739.606 1752.17 750.938 1741.14 757.938C1724.42 768.564 1654.87 770.277 1628.58 730.994C1601.78 690.957 1620.82 653.387 1678.99 592.247L1679.04 592.298Z" fill="url(#paint14_linear_17_1386)"/>
</g>
<path d="M1657.84 1158.72L1800.92 1085.94L1944.01 1013.17C1946.12 1012.06 1947.63 1010.2 1948.34 1008.09C1949.04 1005.97 1948.89 1003.55 1947.83 1001.44L1902.71 912.8L1857.58 824.164C1856.47 822.048 1854.61 820.538 1852.5 819.833C1850.38 819.127 1847.96 819.279 1845.85 820.336L1702.76 893.109L1559.68 965.882C1557.56 966.99 1556.05 968.853 1555.35 970.968C1554.64 973.084 1554.79 975.501 1555.85 977.616L1600.98 1066.25L1646.1 1154.89C1647.21 1157.01 1649.08 1158.52 1651.19 1159.22C1653.31 1159.93 1655.72 1159.78 1657.84 1158.72Z" fill="white"/>
<path d="M1754.79 995.293C1749.2 998.164 1742.9 999.423 1736.66 999.07L1561.39 988.444L1555.9 977.616C1554.8 975.501 1554.69 973.084 1555.4 970.968C1556.1 968.853 1557.62 966.99 1559.73 965.882L1702.81 893.109L1845.9 820.336C1848.01 819.228 1850.43 819.128 1852.55 819.833C1854.66 820.538 1856.52 822.049 1857.63 824.164L1863.12 834.991L1768.54 982.904C1765.16 988.192 1760.43 992.523 1754.79 995.344V995.293Z" fill="#F7F7F7"/>
<path d="M1735.9 969.155L1741.39 966.385L1746.88 963.616C1748.75 962.659 1750.86 962.256 1752.88 962.357C1754.94 962.457 1756.95 963.112 1758.72 964.27L1763.85 967.594L1768.99 970.918C1770.75 972.076 1772.16 973.638 1773.07 975.501C1773.98 977.314 1774.43 979.379 1774.33 981.494L1774.03 987.638L1773.73 993.782C1773.63 995.898 1772.92 997.912 1771.81 999.624C1770.7 1001.34 1769.14 1002.75 1767.23 1003.7L1761.74 1006.47L1756.25 1009.24C1754.39 1010.2 1752.27 1010.6 1750.26 1010.5C1748.19 1010.4 1746.18 1009.75 1744.41 1008.59L1739.28 1005.26L1734.14 1001.94C1732.38 1000.78 1730.97 999.221 1730.06 997.358C1729.15 995.545 1728.7 993.48 1728.8 991.365L1729.1 985.221L1729.41 979.077C1729.51 976.962 1730.21 974.947 1731.32 973.235C1732.43 971.522 1733.99 970.112 1735.9 969.155Z" fill="#F7F7F7"/>
<path d="M1737.26 988.595C1741.75 988.847 1746.13 987.89 1750 985.926C1753.88 983.962 1757.26 980.99 1759.67 977.163L1857.58 824.063C1856.47 821.948 1854.61 820.437 1852.5 819.732C1850.38 819.027 1847.96 819.178 1845.85 820.235L1702.76 893.008L1559.68 965.781C1557.56 966.889 1556.05 968.753 1555.35 970.868C1554.64 972.983 1554.79 975.4 1555.85 977.516L1737.26 988.545V988.595Z" fill="white"/>
<path d="M1735.15 969.558L1740.33 966.889L1745.52 964.22C1747.34 963.313 1749.3 962.91 1751.21 963.011C1753.18 963.112 1755.09 963.716 1756.75 964.824L1761.64 967.997L1766.52 971.17C1768.24 972.278 1769.55 973.789 1770.4 975.501C1771.31 977.213 1771.71 979.177 1771.61 981.192L1771.31 987.034L1771.01 992.876C1770.91 994.89 1770.25 996.804 1769.19 998.416C1768.14 1000.03 1766.62 1001.39 1764.86 1002.29L1759.67 1004.96L1754.49 1007.63C1752.67 1008.54 1750.71 1008.94 1748.8 1008.84C1746.83 1008.74 1744.92 1008.14 1743.26 1007.03L1738.37 1003.85L1733.49 1000.68C1731.77 999.574 1730.46 998.063 1729.61 996.351C1728.7 994.638 1728.3 992.674 1728.4 990.66L1728.7 984.818L1729 978.976C1729.1 976.961 1729.76 975.048 1730.82 973.436C1731.87 971.825 1733.38 970.465 1735.15 969.558Z" fill="#FFE356"/>
<path d="M1763.75 1000.03C1765.11 999.322 1766.27 998.315 1767.08 997.056C1767.88 995.797 1768.39 994.336 1768.49 992.775L1769.09 981.091C1769.19 979.58 1768.84 978.07 1768.19 976.71C1767.53 975.35 1766.47 974.192 1765.21 973.386L1755.44 967.04C1754.18 966.234 1752.67 965.731 1751.16 965.63C1749.65 965.529 1748.14 965.882 1746.78 966.537L1736.36 971.825C1735 972.53 1733.84 973.537 1733.03 974.846C1732.23 976.105 1731.72 977.566 1731.62 979.127L1731.02 990.811C1730.92 992.322 1731.27 993.833 1731.97 995.193C1732.68 996.552 1733.69 997.711 1734.95 998.516L1744.72 1004.86C1745.98 1005.67 1747.49 1006.17 1749 1006.27C1750.51 1006.37 1752.02 1006.02 1753.38 1005.37L1763.8 1000.08L1763.75 1000.03Z" fill="#FAD101"/>
<path d="M1711.68 897.339C1715.81 899.001 1719.03 898.397 1718.98 893.915C1721.2 895.174 1722.41 897.138 1722.61 899.404C1720.49 899.858 1717.12 899.555 1711.68 897.39V897.339Z" fill="#FF5C6B"/>
<path d="M1694.45 868.684C1694.45 868.684 1696.77 886.109 1703.72 892.152C1706.34 894.469 1709.21 896.282 1711.73 897.289C1717.17 899.505 1720.54 899.807 1722.66 899.304C1722.76 900.361 1722.61 901.52 1722.2 902.678C1720.99 906.254 1718.73 908.218 1715.25 907.513C1715.25 907.513 1715.1 912.498 1711.68 913.858C1708.25 915.218 1704.32 912.851 1704.32 912.851C1704.32 912.851 1703.67 915.168 1702.16 916.024C1700.65 916.88 1697.32 918.038 1694.35 915.822C1691.38 913.606 1686.7 907.059 1685.04 900.311C1682.62 890.541 1684.98 868.432 1685.24 862.539C1687.91 866.669 1691.28 868.935 1694.45 868.633V868.684Z" fill="url(#paint15_linear_17_1386)"/>
<path style="mix-blend-mode:multiply" d="M1701.35 897.037C1694.76 886.461 1692.94 872.31 1692.54 868.532C1693.19 868.684 1693.8 868.734 1694.45 868.633C1694.45 868.633 1696.77 886.058 1703.72 892.102C1706.34 894.418 1709.21 896.231 1711.73 897.239C1717.17 899.455 1720.54 899.757 1722.66 899.253C1722.76 900.311 1722.61 901.469 1722.2 902.627C1721 906.203 1718.73 908.167 1715.25 907.462C1715.25 907.462 1706.94 905.951 1701.35 896.937V897.037Z" fill="url(#paint16_linear_17_1386)"/>
<path style="mix-blend-mode:screen" d="M1689.57 901.57C1695.21 916.124 1704.63 926.046 1710.62 923.729C1716.61 921.412 1716.92 907.714 1711.33 893.159C1705.68 878.605 1696.27 868.684 1690.27 871C1684.28 873.317 1683.98 887.015 1689.57 901.57Z" fill="url(#paint17_radial_17_1386)"/>
<path style="mix-blend-mode:multiply" d="M1714.35 906.707C1731.72 915.722 1748.14 918.592 1751.01 913.103C1753.88 907.613 1742.05 895.829 1724.67 886.814C1707.3 877.799 1690.88 874.928 1688.01 880.418C1685.14 885.907 1696.97 897.692 1714.35 906.707Z" fill="url(#paint18_radial_17_1386)"/>
<path style="mix-blend-mode:multiply" d="M1689.52 867.223C1689.67 872.36 1690.58 890.742 1694.6 900.966C1697.88 909.275 1704.27 912.901 1704.27 912.901C1704.27 912.901 1703.62 915.218 1702.11 916.074C1700.6 916.93 1697.27 918.088 1694.3 915.873C1691.33 913.657 1686.65 907.11 1684.99 900.361C1682.57 890.591 1684.93 868.482 1685.19 862.59C1686.5 864.604 1687.96 866.165 1689.47 867.223H1689.52Z" fill="url(#paint19_linear_17_1386)"/>
<path style="mix-blend-mode:multiply" d="M1693.95 917.887C1705.03 934.053 1718.18 944.277 1723.26 940.802C1728.35 937.276 1723.51 921.362 1712.43 905.196C1701.35 889.03 1688.21 878.806 1683.12 882.281C1678.04 885.756 1682.87 901.721 1693.95 917.887Z" fill="url(#paint20_radial_17_1386)"/>
<path style="mix-blend-mode:multiply" d="M1694.66 900.965C1690.58 890.742 1689.72 872.36 1689.57 867.223C1690.53 867.878 1691.58 868.331 1692.59 868.583C1692.99 872.36 1694.86 886.461 1701.4 897.088C1706.99 906.102 1715.3 907.613 1715.3 907.613C1715.3 907.613 1715.15 912.599 1711.73 913.959C1708.3 915.319 1704.38 912.952 1704.38 912.952C1704.38 912.952 1697.98 909.275 1694.71 901.016L1694.66 900.965Z" fill="url(#paint21_linear_17_1386)"/>
<path style="mix-blend-mode:multiply" d="M1703.92 915.016C1715 931.183 1728.15 941.406 1733.23 937.931C1738.32 934.406 1733.49 918.491 1722.41 902.325C1711.33 886.159 1698.18 875.936 1693.09 879.411C1688.01 882.936 1692.84 898.85 1703.92 915.016Z" fill="url(#paint22_radial_17_1386)"/>
<path d="M1731.12 883.339C1735.55 883.44 1738.37 881.727 1736.71 877.497C1739.23 877.9 1741.09 879.31 1742.05 881.324C1740.23 882.533 1736.96 883.44 1731.12 883.339Z" fill="#FF5C6B"/>
<path d="M1704.78 862.741C1704.78 862.741 1713.14 878.202 1721.8 881.375C1725.07 882.584 1728.4 883.289 1731.12 883.339C1736.96 883.44 1740.23 882.533 1742.05 881.324C1742.5 882.281 1742.8 883.44 1742.85 884.648C1743 888.425 1741.59 891.044 1738.12 891.598C1738.12 891.598 1739.78 896.332 1737.06 898.8C1734.34 901.268 1729.86 900.462 1729.86 900.462C1729.86 900.462 1730.06 902.879 1729 904.189C1727.95 905.498 1725.23 907.764 1721.65 906.757C1718.07 905.75 1711.38 901.318 1707.4 895.627C1701.66 887.318 1695.96 865.863 1694.1 860.273C1698.08 863.194 1702.01 864.101 1704.88 862.691L1704.78 862.741Z" fill="url(#paint23_linear_17_1386)"/>
<path style="mix-blend-mode:multiply" d="M1721.35 886.764C1711.43 879.209 1704.63 866.669 1702.96 863.295C1703.62 863.194 1704.22 862.993 1704.78 862.741C1704.78 862.741 1713.14 878.202 1721.8 881.375C1725.07 882.584 1728.4 883.289 1731.12 883.339C1736.96 883.44 1740.23 882.533 1742.05 881.324C1742.5 882.281 1742.8 883.44 1742.85 884.648C1743 888.425 1741.59 891.044 1738.12 891.598C1738.12 891.598 1729.81 893.159 1721.4 886.713L1721.35 886.764Z" fill="url(#paint24_linear_17_1386)"/>
<path style="mix-blend-mode:multiply" d="M1736.96 891.095C1756.45 893.31 1772.77 890.138 1773.47 883.993C1774.18 877.849 1758.97 871.05 1739.48 868.835C1719.99 866.619 1703.67 869.791 1702.97 875.936C1702.26 882.08 1717.47 888.879 1736.96 891.095Z" fill="url(#paint25_radial_17_1386)"/>
<path style="mix-blend-mode:multiply" d="M1699.69 863.093C1701.71 867.827 1709.06 884.699 1716.51 892.807C1722.56 899.404 1729.81 900.512 1729.81 900.512C1729.81 900.512 1730.01 902.93 1728.95 904.239C1727.89 905.548 1725.18 907.815 1721.6 906.808C1718.02 905.8 1711.33 901.368 1707.35 895.678C1701.6 887.368 1695.91 865.914 1694.05 860.323C1696.01 861.734 1697.93 862.691 1699.74 863.093H1699.69Z" fill="url(#paint26_linear_17_1386)"/>
<path style="mix-blend-mode:multiply" d="M1721.85 908.872C1737.97 920.002 1753.88 924.887 1757.41 919.801C1760.93 914.714 1750.71 901.57 1734.59 890.44C1718.48 879.31 1702.56 874.425 1699.04 879.511C1695.51 884.598 1705.73 897.742 1721.85 908.872Z" fill="url(#paint27_radial_17_1386)"/>
<path style="mix-blend-mode:multiply" d="M1716.51 892.807C1709.06 884.699 1701.71 867.878 1699.69 863.093C1700.85 863.345 1701.96 863.446 1702.96 863.295C1704.68 866.669 1711.43 879.209 1721.35 886.763C1729.76 893.159 1738.07 891.649 1738.07 891.649C1738.07 891.649 1739.73 896.383 1737.01 898.85C1734.29 901.318 1729.81 900.512 1729.81 900.512C1729.81 900.512 1722.56 899.354 1716.51 892.807Z" fill="url(#paint28_linear_17_1386)"/>
<path style="mix-blend-mode:multiply" d="M1730.16 902.577C1746.28 913.707 1762.19 918.592 1765.72 913.506C1769.24 908.419 1759.02 895.275 1742.9 884.145C1726.79 873.015 1710.87 868.13 1707.35 873.216C1703.82 878.303 1714.05 891.447 1730.16 902.577Z" fill="url(#paint29_radial_17_1386)"/>
<path d="M1472.1 619.695C1470.54 622.515 1467.36 623.17 1464.9 622.767L1446.31 619.795C1455.33 617.831 1466.66 618.335 1472.05 619.695H1472.1Z" fill="url(#paint30_linear_17_1386)"/>
<path d="M1471.29 606.047C1471.85 606.047 1472.35 606.298 1472.75 606.601C1473.21 606.953 1473.56 607.457 1473.66 608.011C1474.26 611.989 1473.76 615.766 1472.3 619.292C1472.1 619.745 1471.8 620.047 1471.39 620.299C1470.84 620.601 1470.18 620.752 1469.48 620.601C1466.66 620.148 1457.59 619.241 1452 619.443C1447.22 619.594 1443.99 620.047 1442.13 620.349C1441.78 620.4 1441.43 620.299 1441.22 620.047C1440.97 619.795 1440.92 619.443 1441.07 619.141C1442.74 616.27 1446.66 611.586 1455.43 608.313C1461.22 606.198 1468.62 605.845 1471.19 606.047H1471.29Z" fill="url(#paint31_linear_17_1386)"/>
<path style="mix-blend-mode:multiply" d="M1460.77 608.464C1449.28 618.335 1445.56 631.379 1452.41 637.523C1459.25 643.717 1474.16 640.696 1485.6 630.825C1497.08 620.954 1500.81 607.91 1493.96 601.766C1487.11 595.571 1472.2 598.593 1460.77 608.464Z" fill="url(#paint32_radial_17_1386)"/>
<path d="M1472.4 613.45C1468.27 615.112 1463.89 614.709 1462.68 612.594C1461.47 610.478 1463.89 607.457 1468.02 605.795C1472.15 604.133 1475.27 604.989 1476.48 607.104C1477.69 609.219 1476.48 611.737 1472.35 613.399L1472.4 613.45Z" fill="#FFD5E8"/>
<path d="M1508.76 606.651C1509.72 612.04 1506.34 617.126 1501.26 618.033C1496.17 618.939 1491.29 615.313 1490.33 609.924C1489.37 604.536 1492.75 599.449 1497.83 598.543C1502.92 597.636 1507.81 601.262 1508.76 606.651Z" fill="url(#paint33_linear_17_1386)"/>
<path d="M1506.95 607.003C1507.7 611.334 1504.99 615.464 1500.91 616.169C1496.78 616.925 1492.85 614.004 1492.09 609.673C1491.34 605.341 1494.06 601.212 1498.14 600.507C1502.22 599.802 1506.19 602.672 1506.95 607.003Z" fill="white"/>
<path d="M1498.54 602.622C1498.54 602.622 1498.14 602.723 1497.93 602.773C1498.29 603.176 1498.54 603.679 1498.64 604.233C1498.94 605.996 1497.78 607.708 1496.02 608.061C1495.37 608.162 1494.71 608.061 1494.11 607.809C1494.11 608.262 1494.11 608.766 1494.16 609.27C1494.71 612.392 1497.58 614.507 1500.55 614.004C1503.52 613.45 1505.49 610.478 1504.93 607.356C1504.38 604.233 1501.51 602.118 1498.54 602.622Z" fill="#000A55"/>
<defs>
<filter id="filter0_f_17_1386" x="0" y="0" width="2641.98" height="1448" filterUnits="userSpaceOnUse" color-interpolation-filters="sRGB">
<feFlood flood-opacity="0" result="BackgroundImageFix"/>
<feBlend mode="normal" in="SourceGraphic" in2="BackgroundImageFix" result="shape"/>
<feGaussianBlur stdDeviation="157.5" result="effect1_foregroundBlur_17_1386"/>
</filter>
<linearGradient id="paint0_linear_17_1386" x1="315" y1="724" x2="2326.98" y2="724" gradientUnits="userSpaceOnUse">
<stop stop-color="white"/>
<stop offset="1" stop-color="#3E9AF6"/>
</linearGradient>
<linearGradient id="paint1_linear_17_1386" x1="1758.12" y1="507.59" x2="1834.31" y2="718.485" gradientUnits="userSpaceOnUse">
<stop stop-color="#F0F7FE"/>
<stop offset="0.47" stop-color="#D9E7F9"/>
<stop offset="1" stop-color="#BBD2F4"/>
</linearGradient>
<linearGradient id="paint2_linear_17_1386" x1="1924.4" y1="464.532" x2="1602.77" y2="693" gradientUnits="userSpaceOnUse">
<stop stop-color="white"/>
<stop offset="0.34" stop-color="#FCFDFE"/>
<stop offset="0.59" stop-color="#F2F7FD"/>
<stop offset="0.8" stop-color="#E3EEFB"/>
<stop offset="0.99" stop-color="#CDE1F9"/>
<stop offset="1" stop-color="#CCE0F9"/>
</linearGradient>
<radialGradient id="paint3_radial_17_1386" cx="0" cy="0" r="1" gradientUnits="userSpaceOnUse" gradientTransform="translate(1715.92 448.072) rotate(-131.131) scale(115.06 206.197)">
<stop stop-color="#D5E5F9"/>
<stop offset="0.27" stop-color="#949FAD"/>
<stop offset="0.63" stop-color="#454A51"/>
<stop offset="0.88" stop-color="#131416"/>
<stop offset="1"/>
</radialGradient>
<linearGradient id="paint4_linear_17_1386" x1="1862.58" y1="830.011" x2="1545.69" y2="887.546" gradientUnits="userSpaceOnUse">
<stop stop-color="#D5E5F9"/>
<stop offset="0.43" stop-color="#E8F1FB"/>
<stop offset="1" stop-color="white"/>
</linearGradient>
<linearGradient id="paint5_linear_17_1386" x1="1622.15" y1="749.026" x2="1445.74" y2="638.699" gradientUnits="userSpaceOnUse">
<stop stop-color="#DEECFE"/>
<stop offset="0.5" stop-color="#EFF5FE"/>
<stop offset="1" stop-color="white"/>
</linearGradient>
<radialGradient id="paint6_radial_17_1386" cx="0" cy="0" r="1" gradientUnits="userSpaceOnUse" gradientTransform="translate(1709.16 783.651) rotate(116.481) scale(115.059 206.199)">
<stop stop-color="#B6D8FC"/>
<stop offset="0.04" stop-color="#BCDBFC"/>
<stop offset="0.23" stop-color="#D9EBFD"/>
<stop offset="0.43" stop-color="#EEF6FE"/>
<stop offset="0.62" stop-color="#FAFCFE"/>
<stop offset="0.8" stop-color="white"/>
</radialGradient>
<radialGradient id="paint7_radial_17_1386" cx="0" cy="0" r="1" gradientUnits="userSpaceOnUse" gradientTransform="translate(1768.86 789.766) rotate(116.481) scale(115.059 206.199)">
<stop stop-color="#B6D8FC"/>
<stop offset="0.04" stop-color="#BCDBFC"/>
<stop offset="0.23" stop-color="#D9EBFD"/>
<stop offset="0.43" stop-color="#EEF6FE"/>
<stop offset="0.62" stop-color="#FAFCFE"/>
<stop offset="0.8" stop-color="white"/>
</radialGradient>
<radialGradient id="paint8_radial_17_1386" cx="0" cy="0" r="1" gradientUnits="userSpaceOnUse" gradientTransform="translate(1723.52 890.62) rotate(83.1697) scale(44.2746 91.2158)">
<stop stop-color="#B6D8FC"/>
<stop offset="0.04" stop-color="#BCDBFC"/>
<stop offset="0.23" stop-color="#D9EBFD"/>
<stop offset="0.43" stop-color="#EEF6FE"/>
<stop offset="0.62" stop-color="#FAFCFE"/>
<stop offset="0.8" stop-color="white"/>
</radialGradient>
<radialGradient id="paint9_radial_17_1386" cx="0" cy="0" r="1" gradientUnits="userSpaceOnUse" gradientTransform="translate(1631.89 638.32) rotate(-2.5199) scale(115.062 206.193)">
<stop stop-color="#B6D8FC"/>
<stop offset="0.04" stop-color="#BCDBFC"/>
<stop offset="0.23" stop-color="#D9EBFD"/>
<stop offset="0.43" stop-color="#EEF6FE"/>
<stop offset="0.62" stop-color="#FAFCFE"/>
<stop offset="0.8" stop-color="white"/>
</radialGradient>
<radialGradient id="paint10_radial_17_1386" cx="0" cy="0" r="1" gradientUnits="userSpaceOnUse" gradientTransform="translate(1625.52 652.214) rotate(-41.9089) scale(79.7447 206.196)">
<stop stop-color="#B6D8FC"/>
<stop offset="0.04" stop-color="#BCDBFC"/>
<stop offset="0.23" stop-color="#D9EBFD"/>
<stop offset="0.43" stop-color="#EEF6FE"/>
<stop offset="0.62" stop-color="#FAFCFE"/>
<stop offset="0.8" stop-color="white"/>
</radialGradient>
<radialGradient id="paint11_radial_17_1386" cx="0" cy="0" r="1" gradientUnits="userSpaceOnUse" gradientTransform="translate(1517.58 813.597) rotate(122.951) scale(115.059 206.198)">
<stop stop-color="#D5E5F9"/>
<stop offset="0.27" stop-color="#949FAD"/>
<stop offset="0.63" stop-color="#454A51"/>
<stop offset="0.88" stop-color="#131416"/>
<stop offset="1"/>
</radialGradient>
<radialGradient id="paint12_radial_17_1386" cx="0" cy="0" r="1" gradientUnits="userSpaceOnUse" gradientTransform="translate(1708.36 1092.12) rotate(122.951) scale(193.664 206.198)">
<stop stop-color="#D5E5F9"/>
<stop offset="0.27" stop-color="#949FAD"/>
<stop offset="0.63" stop-color="#454A51"/>
<stop offset="0.88" stop-color="#131416"/>
<stop offset="1"/>
</radialGradient>
<linearGradient id="paint13_linear_17_1386" x1="1874.44" y1="566.893" x2="1805.23" y2="800.025" gradientUnits="userSpaceOnUse">
<stop stop-color="#F0F7FE"/>
<stop offset="0.47" stop-color="#D9E7F9"/>
<stop offset="1" stop-color="#BBD2F4"/>
</linearGradient>
<linearGradient id="paint14_linear_17_1386" x1="1877.22" y1="519.606" x2="1800.56" y2="777.887" gradientUnits="userSpaceOnUse">
<stop stop-color="white"/>
<stop offset="0.34" stop-color="#FCFDFE"/>
<stop offset="0.59" stop-color="#F2F7FD"/>
<stop offset="0.8" stop-color="#E3EEFB"/>
<stop offset="0.99" stop-color="#CDE1F9"/>
<stop offset="1" stop-color="#CCE0F9"/>
</linearGradient>
<linearGradient id="paint15_linear_17_1386" x1="1706.79" y1="916.083" x2="1697.51" y2="864.995" gradientUnits="userSpaceOnUse">
<stop stop-color="#FF8293"/>
<stop offset="0.76" stop-color="#FFB6CE"/>
<stop offset="1" stop-color="#C2CAFA"/>
</linearGradient>
<linearGradient id="paint16_linear_17_1386" x1="1723.84" y1="890.481" x2="1690.35" y2="886.327" gradientUnits="userSpaceOnUse">
<stop stop-color="#FFDDEF"/>
<stop offset="0.7" stop-color="white"/>
</linearGradient>
<radialGradient id="paint17_radial_17_1386" cx="0" cy="0" r="1" gradientUnits="userSpaceOnUse" gradientTransform="translate(1703.4 904.115) rotate(158.871) scale(11.6843 28.2753)">
<stop stop-color="#741C2C"/>
<stop offset="1"/>
</radialGradient>
<radialGradient id="paint18_radial_17_1386" cx="0" cy="0" r="1" gradientUnits="userSpaceOnUse" gradientTransform="translate(1691.06 951.646) rotate(117.401) scale(11.3456 35.4558)">
<stop stop-color="#FFDDEF"/>
<stop offset="0.7" stop-color="white"/>
</radialGradient>
<linearGradient id="paint19_linear_17_1386" x1="1706.93" y1="891.784" x2="1681.99" y2="888.691" gradientUnits="userSpaceOnUse">
<stop stop-color="#FFDDEF"/>
<stop offset="0.7" stop-color="white"/>
</linearGradient>
<radialGradient id="paint20_radial_17_1386" cx="0" cy="0" r="1" gradientUnits="userSpaceOnUse" gradientTransform="translate(1661.64 939.646) rotate(145.531) scale(11.3458 35.4552)">
<stop stop-color="#FFDDEF"/>
<stop offset="0.7" stop-color="white"/>
</radialGradient>
<linearGradient id="paint21_linear_17_1386" x1="1717.08" y1="892.992" x2="1686.8" y2="889.236" gradientUnits="userSpaceOnUse">
<stop stop-color="#FFDDEF"/>
<stop offset="0.7" stop-color="white"/>
</linearGradient>
<radialGradient id="paint22_radial_17_1386" cx="0" cy="0" r="1" gradientUnits="userSpaceOnUse" gradientTransform="translate(1671.76 936.671) rotate(145.531) scale(11.3458 35.4552)">
<stop stop-color="#FFDDEF"/>
<stop offset="0.7" stop-color="white"/>
</radialGradient>
<linearGradient id="paint23_linear_17_1386" x1="1733.14" y1="903.365" x2="1707.6" y2="858.813" gradientUnits="userSpaceOnUse">
<stop stop-color="#FF8293"/>
<stop offset="0.76" stop-color="#FFB6CE"/>
<stop offset="1" stop-color="#BDC8FA"/>
</linearGradient>
<linearGradient id="paint24_linear_17_1386" x1="1739.96" y1="872.53" x2="1707.15" y2="880.609" gradientUnits="userSpaceOnUse">
<stop stop-color="#FFDDEF"/>
<stop offset="0.7" stop-color="white"/>
</linearGradient>
<radialGradient id="paint25_radial_17_1386" cx="0" cy="0" r="1" gradientUnits="userSpaceOnUse" gradientTransform="translate(1731.18 941.281) rotate(96.4903) scale(11.3455 35.4561)">
<stop stop-color="#FFDDEF"/>
<stop offset="0.7" stop-color="white"/>
</radialGradient>
<linearGradient id="paint26_linear_17_1386" x1="1724.63" y1="879.779" x2="1700.23" y2="885.787" gradientUnits="userSpaceOnUse">
<stop stop-color="#FFDDEF"/>
<stop offset="0.7" stop-color="white"/>
</linearGradient>
<radialGradient id="paint27_radial_17_1386" cx="0" cy="0" r="1" gradientUnits="userSpaceOnUse" gradientTransform="translate(1693.56 949.983) rotate(124.621) scale(11.3457 35.4557)">
<stop stop-color="#FFDDEF"/>
<stop offset="0.7" stop-color="white"/>
</radialGradient>
<linearGradient id="paint28_linear_17_1386" x1="1734.5" y1="877.299" x2="1704.91" y2="884.582" gradientUnits="userSpaceOnUse">
<stop stop-color="#FFDDEF"/>
<stop offset="0.7" stop-color="white"/>
</linearGradient>
<radialGradient id="paint29_radial_17_1386" cx="0" cy="0" r="1" gradientUnits="userSpaceOnUse" gradientTransform="translate(1701.95 943.594) rotate(124.621) scale(11.3457 35.4557)">
<stop stop-color="#FFDDEF"/>
<stop offset="0.7" stop-color="white"/>
</radialGradient>
<linearGradient id="paint30_linear_17_1386" x1="1470.17" y1="624.023" x2="1448.1" y2="615.045" gradientUnits="userSpaceOnUse">
<stop stop-color="#FF8798"/>
<stop offset="1" stop-color="#FFB6CE"/>
</linearGradient>
<linearGradient id="paint31_linear_17_1386" x1="1473.13" y1="610.33" x2="1442.32" y2="622.316" gradientUnits="userSpaceOnUse">
<stop stop-color="#FFC9E0"/>
<stop offset="1" stop-color="#FFE5F3"/>
</linearGradient>
<radialGradient id="paint32_radial_17_1386" cx="0" cy="0" r="1" gradientUnits="userSpaceOnUse" gradientTransform="translate(1696.44 805.082) rotate(-138.031) scale(16.7306 27.073)">
<stop stop-color="#FFC7DD"/>
<stop offset="0.06" stop-color="#FFD0E2"/>
<stop offset="0.23" stop-color="#FFE5EF"/>
<stop offset="0.42" stop-color="#FFF3F8"/>
<stop offset="0.64" stop-color="#FFFCFD"/>
<stop offset="1" stop-color="white"/>
</radialGradient>
<linearGradient id="paint33_linear_17_1386" x1="1507.81" y1="604.465" x2="1490.46" y2="611.804" gradientUnits="userSpaceOnUse">
<stop stop-color="#FF8798"/>
<stop offset="1" stop-color="#FFB6CE"/>
</linearGradient>
</defs>
</svg>
