<svg width="705" height="599" viewBox="0 0 705 599" fill="none" xmlns="http://www.w3.org/2000/svg">
<g filter="url(#filter0_f_47_557)">
<ellipse cx="352.707" cy="299.569" rx="126.974" ry="73.9385" fill="#1778F2" fill-opacity="0.5"/>
</g>
<path d="M383.688 232.829C383.688 232.829 387.575 231.647 387.983 233.388C388.391 235.128 377.117 258.103 341.147 267.452C305.177 276.801 284.497 282.131 284.497 282.131L288.835 265.969C293.495 255.868 301.677 236.762 359.014 208.393C400.116 188.04 429.407 172.716 431.683 175.854C433.959 178.992 416.479 198.098 397.474 207.254C397.474 207.254 407.224 202.891 408.791 205.147C410.359 207.404 393.33 226.016 384.289 232.012L383.666 232.807L383.688 232.829Z" fill="url(#paint0_linear_47_557)"/>
<mask id="mask0_47_557" style="mask-type:luminance" maskUnits="userSpaceOnUse" x="284" y="175" width="148" height="108">
<path d="M383.688 232.829C383.688 232.829 387.575 231.647 387.983 233.388C388.391 235.128 377.117 258.103 341.147 267.452C305.177 276.801 284.497 282.131 284.497 282.131L288.835 265.969C293.495 255.868 301.677 236.762 359.014 208.393C400.116 188.04 429.407 172.716 431.683 175.854C433.959 178.992 416.479 198.098 397.474 207.254C397.474 207.254 407.224 202.891 408.791 205.147C410.359 207.404 393.33 226.016 384.289 232.012L383.666 232.807L383.688 232.829Z" fill="white"/>
</mask>
<g mask="url(#mask0_47_557)">
<path d="M368.741 235.107C368.741 235.107 372.628 233.925 373.036 235.666C373.444 237.407 362.17 260.381 326.2 269.73C290.231 279.079 265.17 283.7 265.17 283.7L272.815 264.572C272.815 264.572 297.876 237.192 343.981 208.35C382.871 184.021 414.482 174.995 416.758 178.111C419.034 181.227 401.554 200.355 382.549 209.51C382.549 209.51 392.299 205.148 393.866 207.404C395.434 209.661 378.405 228.273 369.364 234.269L368.741 235.064V235.107Z" fill="url(#paint1_linear_47_557)"/>
<path style="mix-blend-mode:screen" d="M262.484 230.885C244.697 210.501 259.991 168.007 296.644 135.973C333.297 103.94 377.429 94.4954 395.215 114.88C413.002 135.264 397.708 177.757 361.055 209.791C324.402 241.825 280.27 251.269 262.484 230.885Z" fill="url(#paint2_radial_47_557)"/>
</g>
<mask id="mask1_47_557" style="mask-type:luminance" maskUnits="userSpaceOnUse" x="224" y="232" width="178" height="207">
<path d="M224.519 245.702C226.667 236.224 239.53 227.391 255.571 236.353C280.267 250.129 310.31 282.001 328.907 303.558C328.907 303.558 332.321 307.577 332.343 307.577C335.413 311.209 337.969 314.325 339.343 316.044C339.343 316.044 336.186 331.175 348.728 337.149C361.269 343.124 395.392 362.51 394.017 366.743C386.007 369.537 373.445 361.951 373.445 361.951C373.445 361.951 402.543 381.444 400.953 385.979C399.386 390.535 371.555 375.061 371.555 375.061C386.329 384.625 403.316 401.926 400.932 407.814C398.548 413.703 369.73 395.908 369.73 395.908C369.73 395.908 396.981 421.333 393.91 426.405C390.839 431.498 363.588 410.329 363.588 410.329C363.588 410.329 377.052 433.196 371.834 438.139C366.616 443.082 345.571 415.207 345.571 415.207C345.571 415.207 351.24 425.889 349.629 427.264C348.019 428.64 335.8 421.526 328.971 404.376C328.971 404.376 327.146 405.944 325.256 402.828C316.58 388.364 316.666 367.603 311.491 359.307C285.077 353.44 255.872 333.496 247.089 318.774C238.413 304.245 242.601 285.612 242.171 280.755C241.742 275.898 238.929 271.9 232.658 266.355C226.388 260.811 222.952 252.536 224.498 245.68L224.519 245.702Z" fill="white"/>
</mask>
<g mask="url(#mask1_47_557)">
<path d="M224.519 245.702C226.667 236.224 239.53 227.391 255.571 236.353C280.353 250.194 310.482 282.195 328.907 303.558C332.063 307.233 336.315 312.262 339.343 316.044C339.343 316.044 336.186 331.175 348.728 337.149C361.269 343.124 395.392 362.51 394.017 366.743C386.007 369.537 373.445 361.951 373.445 361.951C373.445 361.951 402.543 381.444 400.953 385.979C399.386 390.535 371.555 375.061 371.555 375.061C386.329 384.625 403.316 401.926 400.932 407.814C398.548 413.703 369.73 395.908 369.73 395.908C369.73 395.908 396.981 421.333 393.91 426.405C390.839 431.498 363.588 410.329 363.588 410.329C363.588 410.329 377.052 433.196 371.834 438.139C366.616 443.082 345.571 415.207 345.571 415.207C345.571 415.207 351.24 425.889 349.629 427.264C348.019 428.64 335.8 421.526 328.971 404.376C328.971 404.376 327.146 405.944 325.256 402.828C316.58 388.364 316.666 367.603 311.491 359.307C285.056 353.44 255.872 333.474 247.089 318.774C238.413 304.245 242.601 285.612 242.171 280.755C241.742 275.898 238.929 271.9 232.658 266.355C226.388 260.811 222.952 252.536 224.498 245.68L224.519 245.702Z" fill="#D2E2F8"/>
<path style="mix-blend-mode:multiply" d="M288.513 261.391C315.442 286.042 339.343 316.044 339.343 316.044C339.343 316.044 336.186 331.174 348.728 337.149C361.269 343.124 395.392 362.509 394.017 366.743C386.007 369.537 373.445 361.951 373.445 361.951C373.445 361.951 402.543 381.444 400.953 385.978C399.386 390.535 371.555 375.061 371.555 375.061C386.329 384.624 403.316 401.925 400.932 407.814C398.548 413.703 369.73 395.908 369.73 395.908C369.73 395.908 396.981 421.332 393.91 426.404C390.839 431.498 363.588 410.329 363.588 410.329C363.588 410.329 377.052 433.196 371.834 438.139C366.616 443.082 345.571 415.207 345.571 415.207C345.571 415.207 351.24 425.889 349.629 427.264C348.019 428.64 335.8 421.526 328.971 404.375C328.971 404.375 327.146 405.944 325.256 402.828C316.58 388.364 316.666 367.603 311.491 359.307C316.151 360.339 320.746 360.941 325.084 360.984C331.29 361.048 335.821 359.716 338.935 357.523C340.803 356.191 341.899 354.192 342.135 352.107C342.371 349.98 341.748 347.766 340.224 346.025C333.33 338.202 323.044 337.515 307.797 327.994C300.453 323.416 292.056 313.508 288.105 305.879C287.547 307.985 286.838 310.07 286.022 312.133C284.734 315.356 283.252 318.086 281.598 320.02C278.334 323.846 276.08 318.193 276.08 318.193C275.242 324.061 273.009 333.925 267.211 335.903C266.137 336.268 264.891 336.246 263.538 335.881C258.857 332.228 253.896 327.779 250.138 323.115L288.492 261.369L288.513 261.391Z" fill="url(#paint3_linear_47_557)"/>
<path d="M224.519 245.702C226.667 236.224 239.53 227.391 255.571 236.353C270.689 244.799 287.568 260.015 302.171 274.974C297.683 276.693 293.903 279.637 291.112 283.334C288.556 286.708 286.838 290.749 286.172 295.111C285.55 299.281 284.433 303.429 282.779 307.491C281.491 310.714 280.009 313.444 278.356 315.378C275.092 319.204 273.309 309.146 273.309 309.146C273.309 309.146 272.343 328.402 263.989 331.282C261.327 332.206 257.59 330.745 253.81 327.285C251.298 324.684 249.193 322.127 247.626 319.677C242.257 310.951 241.162 301.301 241.613 291.157C241.828 286.472 242.322 282.754 242.171 280.798C241.742 275.962 238.929 271.943 232.658 266.398C226.388 260.854 222.952 252.579 224.498 245.723L224.519 245.702Z" fill="url(#paint4_linear_47_557)"/>
<g style="mix-blend-mode:multiply">
<path d="M300.849 358.512C257.292 336.797 231.757 299.557 243.814 275.333C255.871 251.11 300.955 249.076 344.511 270.791C388.068 292.506 413.603 329.747 401.546 353.97C389.489 378.194 344.405 380.227 300.849 358.512Z" fill="url(#paint5_radial_47_557)"/>
</g>
<g style="mix-blend-mode:multiply">
<path d="M326.36 361.155C282.803 339.44 257.268 302.199 269.325 277.976C281.382 253.752 326.466 251.719 370.022 273.434C413.579 295.149 439.114 332.389 427.057 356.613C415 380.836 369.916 382.87 326.36 361.155Z" fill="url(#paint6_radial_47_557)"/>
</g>
<g style="mix-blend-mode:multiply">
<path d="M326.373 383.228C347.74 380.67 364.039 370.161 362.793 359.78C361.548 349.378 343.23 343.038 321.863 345.596C300.496 348.153 284.197 358.663 285.442 369.043C286.688 379.424 305.006 385.786 326.373 383.228Z" fill="url(#paint7_radial_47_557)"/>
</g>
<g style="mix-blend-mode:multiply">
<path d="M252.926 268.071C250.786 219.417 270.952 179.011 297.966 177.821C324.981 176.631 348.615 215.108 350.755 263.762C352.894 312.416 332.729 352.822 305.714 354.012C278.7 355.202 255.065 316.725 252.926 268.071Z" fill="url(#paint8_radial_47_557)"/>
</g>
<g style="mix-blend-mode:multiply">
<path d="M279.284 283.388C246.779 247.145 231.727 207.616 245.664 195.097C259.6 182.578 297.248 201.81 329.752 238.053C362.256 274.296 377.308 313.825 363.372 326.344C349.435 338.863 311.788 319.631 279.284 283.388Z" fill="url(#paint9_radial_47_557)"/>
</g>
<path style="mix-blend-mode:screen" d="M215.184 368.608C174.35 342.12 153.17 302.236 167.878 279.527C182.585 256.817 227.611 259.881 268.445 286.37C309.279 312.859 330.459 352.742 315.751 375.451C301.044 398.161 256.018 395.097 215.184 368.608Z" fill="url(#paint10_radial_47_557)"/>
<path style="mix-blend-mode:screen" d="M277.703 516.98C236.868 490.492 223.915 437.907 248.769 399.53C273.624 361.153 326.875 351.516 367.709 378.005C408.544 404.493 421.498 457.078 396.643 495.455C371.788 533.832 318.537 543.469 277.703 516.98Z" fill="url(#paint11_radial_47_557)"/>
</g>
<path d="M306.315 251.397C331.183 232.055 499.607 179.486 502.549 184.902C505.491 190.318 474.396 210.778 457.925 216.516C457.925 216.516 482.706 205.083 484.854 208.5C487.001 211.917 474.374 225.887 454.704 233.452C458.505 231.883 465.699 231.797 466.665 234.87C467.631 237.944 459.063 251.569 428.677 259.715C433.616 260.188 445.964 261.649 447.059 266.485C448.133 271.32 432.757 281.658 414.074 281.293C419.743 281.421 425.219 285.247 424.489 288.342C423.759 291.437 410.101 300.334 381.755 296.337C381.755 296.337 392.299 300.27 390.71 305.471C388.112 313.982 351.283 308.501 351.283 308.501C351.283 308.501 355.814 311.51 355.707 314.067C355.621 315.873 352.636 319.806 333.33 320.88C318.234 321.719 301.011 312.971 293.968 298.83C284.798 280.433 290.768 263.497 306.337 251.397H306.315Z" fill="url(#paint12_linear_47_557)"/>
<mask id="mask2_47_557" style="mask-type:luminance" maskUnits="userSpaceOnUse" x="289" y="184" width="214" height="137">
<path d="M306.315 251.397C331.183 232.055 499.607 179.486 502.549 184.902C505.491 190.318 474.396 210.778 457.925 216.516C457.925 216.516 482.706 205.083 484.854 208.5C487.001 211.917 474.374 225.887 454.704 233.452C458.505 231.883 465.699 231.797 466.665 234.87C467.631 237.944 459.063 251.569 428.677 259.715C433.616 260.188 445.964 261.649 447.059 266.485C448.133 271.32 432.757 281.658 414.074 281.293C419.743 281.421 425.219 285.247 424.489 288.342C423.759 291.437 410.101 300.334 381.755 296.337C381.755 296.337 392.299 300.27 390.71 305.471C388.112 313.982 351.283 308.501 351.283 308.501C351.283 308.501 355.814 311.51 355.707 314.067C355.621 315.873 352.636 319.806 333.33 320.88C318.234 321.719 301.011 312.971 293.968 298.83C284.798 280.433 290.768 263.497 306.337 251.397H306.315Z" fill="white"/>
</mask>
<g mask="url(#mask2_47_557)">
<path d="M314.304 237.213C327.897 222.9 397.861 176.327 419.013 190.641C437.589 179.164 500.101 151.44 503.021 156.856C505.942 162.272 474.868 182.732 458.397 188.47C458.397 188.47 483.179 177.036 485.326 180.454C487.474 183.892 474.847 197.84 455.176 205.406C458.977 203.837 466.171 203.751 467.137 206.824C468.104 209.897 459.535 223.523 429.149 231.669C434.088 232.141 446.694 234.591 446.715 240.029C446.737 245.488 427.796 256.234 409.113 255.868C414.783 255.997 421.332 262.724 420.602 265.819C419.872 268.914 406.214 277.811 377.868 273.814C377.868 273.814 388.412 277.747 386.823 282.948C384.225 291.459 351.218 282.088 351.218 282.088C351.218 282.088 363.931 291.394 362.342 296.015C360.001 302.785 349.586 301.194 339.214 300.077C339.214 300.077 345.485 304.913 340.782 307.9C333.652 312.435 303.996 313.165 292.786 296.402C281.362 279.316 289.479 263.283 314.282 237.192L314.304 237.213Z" fill="url(#paint13_linear_47_557)"/>
<path style="mix-blend-mode:screen" d="M207.901 311.979C186.308 282.301 212.057 226.722 265.412 187.84C318.767 148.958 379.525 141.498 401.117 171.176C422.71 200.855 396.962 256.434 343.606 295.315C290.251 334.197 229.494 341.658 207.901 311.979Z" fill="url(#paint14_radial_47_557)"/>
</g>
<path d="M305.263 478.932L366.272 447.876L427.281 416.82C428.183 416.348 428.827 415.552 429.128 414.65C429.428 413.747 429.364 412.715 428.913 411.813L409.672 373.987L390.431 336.162C389.958 335.259 389.164 334.614 388.262 334.313C387.36 334.013 386.329 334.077 385.427 334.528L324.418 365.584L263.409 396.64C262.507 397.112 261.863 397.908 261.562 398.81C261.262 399.713 261.326 400.744 261.777 401.647L281.018 439.473L300.259 477.298C300.732 478.201 301.526 478.846 302.428 479.146C303.33 479.447 304.361 479.383 305.263 478.932Z" fill="white"/>
<path d="M346.601 409.191C344.218 410.416 341.533 410.954 338.871 410.803L264.14 406.269L261.799 401.648C261.326 400.745 261.284 399.714 261.584 398.811C261.885 397.908 262.529 397.113 263.431 396.64L324.44 365.585L385.449 334.529C386.351 334.056 387.381 334.013 388.283 334.314C389.185 334.615 389.98 335.26 390.452 336.162L392.793 340.783L352.464 403.904C351.025 406.161 349.007 408.009 346.601 409.213V409.191Z" fill="#F7F7F7"/>
<path d="M338.548 398.037L340.889 396.855L343.23 395.673C344.024 395.265 344.926 395.093 345.785 395.136C346.666 395.179 347.525 395.458 348.276 395.952L350.467 397.371L352.657 398.789C353.409 399.284 354.01 399.95 354.396 400.745C354.783 401.519 354.976 402.4 354.933 403.303L354.804 405.925L354.676 408.547C354.633 409.449 354.332 410.309 353.86 411.04C353.387 411.77 352.721 412.372 351.905 412.781L349.565 413.963L347.224 415.145C346.429 415.553 345.528 415.725 344.669 415.682C343.788 415.639 342.929 415.36 342.177 414.865L339.987 413.447L337.797 412.028C337.045 411.534 336.444 410.868 336.057 410.073C335.671 409.299 335.477 408.418 335.52 407.515L335.649 404.893L335.778 402.271C335.821 401.368 336.122 400.509 336.594 399.778C337.067 399.047 337.732 398.446 338.548 398.037Z" fill="#F7F7F7"/>
<path d="M339.128 406.332C341.039 406.44 342.908 406.031 344.561 405.193C346.215 404.355 347.653 403.087 348.684 401.454L390.431 336.119C389.958 335.216 389.164 334.571 388.262 334.27C387.36 333.969 386.329 334.034 385.427 334.485L324.418 365.541L263.409 396.596C262.507 397.069 261.863 397.864 261.562 398.767C261.262 399.67 261.326 400.701 261.777 401.604L339.128 406.311V406.332Z" fill="white"/>
<path d="M338.226 398.209L340.438 397.07L342.65 395.93C343.423 395.544 344.261 395.372 345.077 395.415C345.914 395.458 346.73 395.716 347.439 396.188L349.522 397.542L351.605 398.896C352.335 399.369 352.893 400.014 353.258 400.745C353.645 401.475 353.817 402.314 353.774 403.173L353.645 405.666L353.516 408.159C353.473 409.019 353.194 409.836 352.743 410.523C352.292 411.211 351.648 411.791 350.896 412.178L348.684 413.317L346.473 414.456C345.699 414.843 344.862 415.015 344.046 414.972C343.208 414.929 342.392 414.671 341.684 414.198L339.601 412.844L337.518 411.491C336.788 411.018 336.229 410.373 335.864 409.642C335.478 408.912 335.306 408.073 335.349 407.214L335.478 404.721L335.606 402.228C335.649 401.368 335.929 400.551 336.38 399.863C336.831 399.176 337.475 398.595 338.226 398.209Z" fill="#FFE356"/>
<path d="M350.423 411.212C351.003 410.911 351.497 410.481 351.841 409.944C352.184 409.406 352.399 408.783 352.442 408.117L352.7 403.131C352.743 402.486 352.592 401.841 352.313 401.261C352.034 400.681 351.583 400.186 351.046 399.842L346.88 397.134C346.343 396.791 345.699 396.576 345.055 396.533C344.411 396.49 343.766 396.64 343.187 396.919L338.741 399.176C338.162 399.477 337.668 399.907 337.324 400.466C336.981 401.003 336.766 401.626 336.723 402.292L336.465 407.279C336.422 407.923 336.572 408.568 336.873 409.148C337.174 409.729 337.603 410.223 338.14 410.567L342.306 413.275C342.843 413.619 343.487 413.834 344.131 413.877C344.776 413.92 345.42 413.769 346 413.49L350.445 411.233L350.423 411.212Z" fill="#FAD101"/>
<mask id="mask3_47_557" style="mask-type:luminance" maskUnits="userSpaceOnUse" x="304" y="349" width="45" height="36">
<path d="M325.47 356.514C332.364 355.268 338.527 352.71 343.402 349.4C345.592 352.13 347.138 355.44 347.825 359.115C349.973 370.978 342.113 382.347 330.238 384.518C318.384 386.667 307.024 378.801 304.855 366.916C304.168 363.134 304.511 359.394 305.671 355.998C311.512 357.503 318.362 357.782 325.47 356.493V356.514Z" fill="white"/>
</mask>
<g mask="url(#mask3_47_557)">
<path d="M328.219 367.39C329.98 368.1 331.355 367.842 331.333 365.929C332.278 366.466 332.793 367.304 332.879 368.271C331.977 368.465 330.539 368.336 328.219 367.412V367.39Z" fill="#FF5C6B"/>
<path d="M320.875 355.161C320.875 355.161 321.863 362.597 324.826 365.176C325.943 366.165 327.167 366.939 328.241 367.368C330.56 368.314 331.999 368.443 332.901 368.228C332.944 368.68 332.879 369.174 332.707 369.668C332.192 371.194 331.226 372.032 329.744 371.731C329.744 371.731 329.68 373.859 328.219 374.439C326.759 375.02 325.084 374.009 325.084 374.009C325.084 374.009 324.805 374.998 324.161 375.363C323.516 375.729 322.099 376.223 320.832 375.277C319.565 374.332 317.568 371.538 316.859 368.658C315.829 364.489 316.838 355.054 316.945 352.539C318.083 354.302 319.522 355.269 320.875 355.14V355.161Z" fill="url(#paint15_linear_47_557)"/>
<path style="mix-blend-mode:multiply" d="M323.817 367.261C321.004 362.748 320.231 356.709 320.059 355.097C320.338 355.161 320.596 355.183 320.875 355.14C320.875 355.14 321.863 362.576 324.826 365.155C325.943 366.144 327.167 366.917 328.241 367.347C330.56 368.293 331.999 368.422 332.901 368.207C332.944 368.658 332.879 369.153 332.707 369.647C332.192 371.173 331.226 372.011 329.744 371.71C329.744 371.71 326.201 371.065 323.817 367.218V367.261Z" fill="url(#paint16_linear_47_557)"/>
<mask id="mask4_47_557" style="mask-type:luminance" maskUnits="userSpaceOnUse" x="320" y="355" width="13" height="17">
<path d="M323.817 367.261C321.004 362.748 320.231 356.709 320.059 355.097C320.338 355.162 320.596 355.183 320.875 355.14C320.875 355.14 321.863 362.576 324.826 365.155C325.943 366.144 327.167 366.918 328.241 367.347C330.56 368.293 331.999 368.422 332.901 368.207C332.944 368.658 332.879 369.153 332.707 369.647C332.192 371.173 331.226 372.011 329.744 371.71C329.744 371.71 326.201 371.065 323.817 367.218V367.261Z" fill="white"/>
</mask>
<g mask="url(#mask4_47_557)">
<path style="mix-blend-mode:screen" d="M318.792 369.196C321.197 375.407 325.213 379.641 327.769 378.652C330.324 377.663 330.453 371.818 328.069 365.607C325.664 359.395 321.648 355.162 319.093 356.15C316.538 357.139 316.409 362.985 318.792 369.196Z" fill="url(#paint17_radial_47_557)"/>
<path style="mix-blend-mode:multiply" d="M329.358 371.388C336.767 375.235 343.767 376.46 344.991 374.117C346.215 371.775 341.169 366.746 333.76 362.899C326.351 359.052 319.351 357.827 318.127 360.169C316.903 362.512 321.949 367.541 329.358 371.388Z" fill="url(#paint18_radial_47_557)"/>
</g>
<path style="mix-blend-mode:multiply" d="M318.771 354.538C318.835 356.73 319.222 364.575 320.94 368.937C322.335 372.484 325.063 374.031 325.063 374.031C325.063 374.031 324.784 375.02 324.139 375.385C323.495 375.75 322.078 376.245 320.811 375.299C319.544 374.353 317.547 371.559 316.838 368.679C315.807 364.51 316.817 355.075 316.924 352.561C317.482 353.42 318.105 354.087 318.749 354.538H318.771Z" fill="url(#paint19_linear_47_557)"/>
<mask id="mask5_47_557" style="mask-type:luminance" maskUnits="userSpaceOnUse" x="316" y="352" width="10" height="24">
<path d="M318.771 354.538C318.835 356.73 319.222 364.575 320.94 368.937C322.335 372.484 325.063 374.031 325.063 374.031C325.063 374.031 324.784 375.02 324.139 375.385C323.495 375.75 322.078 376.245 320.811 375.299C319.544 374.353 317.547 371.559 316.838 368.679C315.807 364.51 316.817 355.075 316.924 352.561C317.482 353.42 318.105 354.087 318.749 354.538H318.771Z" fill="white"/>
</mask>
<g mask="url(#mask5_47_557)">
<path style="mix-blend-mode:screen" d="M311.964 367.262C312.243 375.622 314.584 382.328 317.225 382.242C319.866 382.156 321.778 375.321 321.52 366.961C321.241 358.601 318.9 351.895 316.259 351.981C313.617 352.067 311.706 358.902 311.964 367.262Z" fill="url(#paint20_radial_47_557)"/>
<path style="mix-blend-mode:multiply" d="M320.661 376.16C325.385 383.059 330.99 387.422 333.159 385.939C335.328 384.434 333.266 377.643 328.542 370.744C323.818 363.845 318.213 359.482 316.044 360.965C313.875 362.448 315.937 369.261 320.661 376.16Z" fill="url(#paint21_radial_47_557)"/>
</g>
<path style="mix-blend-mode:multiply" d="M320.961 368.937C319.222 364.575 318.857 356.73 318.792 354.538C319.2 354.817 319.651 355.011 320.081 355.118C320.252 356.73 321.047 362.748 323.839 367.283C326.222 371.13 329.766 371.774 329.766 371.774C329.766 371.774 329.701 373.902 328.241 374.482C326.781 375.063 325.106 374.052 325.106 374.052C325.106 374.052 322.378 372.484 320.983 368.959L320.961 368.937Z" fill="url(#paint22_linear_47_557)"/>
<mask id="mask6_47_557" style="mask-type:luminance" maskUnits="userSpaceOnUse" x="318" y="354" width="12" height="21">
<path d="M320.961 368.938C319.222 364.575 318.857 356.73 318.792 354.538C319.2 354.817 319.651 355.011 320.081 355.118C320.252 356.73 321.047 362.748 323.839 367.283C326.222 371.13 329.766 371.774 329.766 371.774C329.766 371.774 329.701 373.902 328.241 374.482C326.781 375.063 325.106 374.053 325.106 374.053C325.106 374.053 322.378 372.484 320.983 368.959L320.961 368.938Z" fill="white"/>
</mask>
<g mask="url(#mask6_47_557)">
<path style="mix-blend-mode:screen" d="M316.172 369.669C317.611 376.46 320.789 381.554 323.302 381.016C325.814 380.479 326.695 374.547 325.256 367.756C323.817 360.965 320.639 355.871 318.126 356.408C315.614 356.946 314.733 362.877 316.172 369.669Z" fill="url(#paint23_radial_47_557)"/>
<path style="mix-blend-mode:multiply" d="M324.912 374.934C329.636 381.833 335.241 386.196 337.41 384.713C339.579 383.209 337.518 376.417 332.793 369.518C328.069 362.619 322.464 358.257 320.295 359.74C318.126 361.244 320.188 368.035 324.912 374.934Z" fill="url(#paint24_radial_47_557)"/>
</g>
<path d="M336.509 361.414C338.398 361.457 339.601 360.726 338.892 358.921C339.966 359.093 340.76 359.695 341.168 360.555C340.395 361.07 339 361.457 336.509 361.414Z" fill="#FF5C6B"/>
<path d="M325.277 352.625C325.277 352.625 328.842 359.223 332.536 360.577C333.931 361.092 335.349 361.393 336.508 361.415C338.999 361.458 340.395 361.071 341.168 360.555C341.362 360.963 341.49 361.458 341.512 361.974C341.576 363.585 340.975 364.703 339.493 364.939C339.493 364.939 340.202 366.96 339.042 368.013C337.883 369.066 335.972 368.722 335.972 368.722C335.972 368.722 336.057 369.754 335.606 370.312C335.156 370.871 333.996 371.838 332.471 371.408C330.947 370.979 328.09 369.087 326.394 366.659C323.946 363.113 321.519 353.957 320.725 351.572C322.421 352.818 324.096 353.205 325.32 352.603L325.277 352.625Z" fill="url(#paint25_linear_47_557)"/>
<path style="mix-blend-mode:multiply" d="M332.342 362.876C328.112 359.652 325.213 354.301 324.504 352.861C324.783 352.818 325.041 352.732 325.277 352.624C325.277 352.624 328.842 359.222 332.536 360.576C333.931 361.092 335.349 361.393 336.508 361.414C338.999 361.457 340.395 361.071 341.168 360.555C341.362 360.963 341.49 361.457 341.512 361.973C341.576 363.585 340.975 364.703 339.493 364.939C339.493 364.939 335.95 365.605 332.364 362.854L332.342 362.876Z" fill="url(#paint26_linear_47_557)"/>
<mask id="mask7_47_557" style="mask-type:luminance" maskUnits="userSpaceOnUse" x="324" y="352" width="18" height="14">
<path d="M332.342 362.876C328.112 359.652 325.213 354.3 324.504 352.86C324.783 352.817 325.041 352.731 325.277 352.624C325.277 352.624 328.842 359.222 332.536 360.576C333.931 361.092 335.349 361.393 336.508 361.414C338.999 361.457 340.395 361.07 341.168 360.554C341.362 360.963 341.49 361.457 341.512 361.973C341.576 363.585 340.975 364.702 339.493 364.939C339.493 364.939 335.95 365.605 332.364 362.854L332.342 362.876Z" fill="white"/>
</mask>
<g mask="url(#mask7_47_557)">
<path style="mix-blend-mode:screen" d="M328.348 366.464C332.793 371.407 338.076 373.922 340.116 372.095C342.156 370.268 340.202 364.745 335.735 359.802C331.29 354.858 326.008 352.344 323.967 354.171C321.927 356.019 323.882 361.521 328.348 366.464Z" fill="url(#paint27_radial_47_557)"/>
<path style="mix-blend-mode:multiply" d="M339 364.723C347.31 365.669 354.268 364.315 354.569 361.693C354.869 359.071 348.384 356.17 340.073 355.224C331.763 354.278 324.805 355.632 324.504 358.254C324.204 360.876 330.689 363.778 339 364.723Z" fill="url(#paint28_radial_47_557)"/>
</g>
<path style="mix-blend-mode:multiply" d="M323.108 352.775C323.967 354.795 327.102 361.995 330.281 365.455C332.858 368.271 335.95 368.743 335.95 368.743C335.95 368.743 336.036 369.775 335.585 370.334C335.134 370.893 333.974 371.86 332.45 371.43C330.925 371 328.069 369.109 326.372 366.68C323.924 363.134 321.498 353.978 320.703 351.593C321.541 352.195 322.357 352.603 323.13 352.775H323.108Z" fill="url(#paint29_linear_47_557)"/>
<mask id="mask8_47_557" style="mask-type:luminance" maskUnits="userSpaceOnUse" x="320" y="351" width="16" height="21">
<path d="M323.108 352.774C323.967 354.794 327.102 361.994 330.281 365.454C332.857 368.27 335.95 368.742 335.95 368.742C335.95 368.742 336.036 369.774 335.585 370.333C335.134 370.892 333.974 371.859 332.449 371.429C330.925 370.999 328.069 369.108 326.372 366.679C323.924 363.133 321.497 353.978 320.703 351.592C321.54 352.194 322.356 352.602 323.13 352.774H323.108Z" fill="white"/>
</mask>
<g mask="url(#mask8_47_557)">
<path style="mix-blend-mode:screen" d="M321.283 367.089C324.526 374.804 329.1 380.22 331.548 379.188C333.974 378.157 333.33 371.086 330.109 363.371C326.866 355.655 322.292 350.239 319.844 351.271C317.418 352.302 318.062 359.373 321.283 367.089Z" fill="url(#paint30_radial_47_557)"/>
<path style="mix-blend-mode:multiply" d="M332.557 372.311C339.429 377.061 346.215 379.145 347.718 376.975C349.221 374.804 344.862 369.195 337.99 364.445C331.118 359.695 324.332 357.61 322.829 359.781C321.326 361.952 325.685 367.561 332.557 372.311Z" fill="url(#paint31_radial_47_557)"/>
</g>
<path style="mix-blend-mode:multiply" d="M330.281 365.455C327.103 361.995 323.967 354.816 323.108 352.775C323.602 352.882 324.075 352.925 324.504 352.861C325.234 354.301 328.112 359.652 332.342 362.876C335.929 365.605 339.472 364.96 339.472 364.96C339.472 364.96 340.181 366.981 339.021 368.034C337.861 369.087 335.95 368.743 335.95 368.743C335.95 368.743 332.858 368.249 330.281 365.455Z" fill="url(#paint32_linear_47_557)"/>
<mask id="mask9_47_557" style="mask-type:luminance" maskUnits="userSpaceOnUse" x="323" y="352" width="17" height="17">
<path d="M330.281 365.455C327.103 361.995 323.967 354.816 323.109 352.775C323.602 352.882 324.075 352.925 324.504 352.861C325.234 354.301 328.112 359.652 332.343 362.876C335.929 365.605 339.472 364.961 339.472 364.961C339.472 364.961 340.181 366.981 339.021 368.034C337.861 369.087 335.95 368.743 335.95 368.743C335.95 368.743 332.858 368.249 330.281 365.455Z" fill="white"/>
</mask>
<g mask="url(#mask9_47_557)">
<path style="mix-blend-mode:screen" d="M326.072 367.84C329.83 373.686 334.619 377.275 336.788 375.899C338.957 374.502 337.647 368.657 333.889 362.811C330.131 356.965 325.342 353.376 323.173 354.751C321.004 356.148 322.314 361.994 326.072 367.84Z" fill="url(#paint33_radial_47_557)"/>
<path style="mix-blend-mode:multiply" d="M336.101 369.623C342.973 374.373 349.758 376.458 351.262 374.287C352.765 372.116 348.406 366.507 341.534 361.757C334.662 357.008 327.876 354.923 326.373 357.094C324.87 359.264 329.229 364.874 336.101 369.623Z" fill="url(#paint34_radial_47_557)"/>
</g>
</g>
<path d="M226.066 248.904C225.4 250.108 224.047 250.387 222.995 250.215L215.071 248.947C218.915 248.109 223.746 248.324 226.044 248.904H226.066Z" fill="url(#paint35_linear_47_557)"/>
<path d="M225.722 243.08C225.958 243.08 226.173 243.187 226.344 243.316C226.538 243.467 226.688 243.682 226.731 243.918C226.989 245.616 226.774 247.228 226.151 248.732C226.065 248.926 225.936 249.055 225.765 249.162C225.528 249.291 225.249 249.355 224.949 249.291C223.746 249.098 219.881 248.711 217.497 248.797C215.457 248.861 214.083 249.055 213.288 249.184C213.138 249.205 212.987 249.162 212.901 249.055C212.794 248.947 212.773 248.797 212.837 248.668C213.546 247.443 215.221 245.444 218.957 244.047C221.427 243.144 224.584 242.994 225.679 243.08H225.722Z" fill="url(#paint36_linear_47_557)"/>
<mask id="mask10_47_557" style="mask-type:luminance" maskUnits="userSpaceOnUse" x="212" y="243" width="15" height="7">
<path d="M225.722 243.08C225.958 243.08 226.173 243.187 226.345 243.316C226.538 243.467 226.688 243.682 226.731 243.918C226.989 245.616 226.774 247.228 226.151 248.732C226.066 248.926 225.937 249.055 225.765 249.162C225.529 249.291 225.25 249.355 224.949 249.291C223.746 249.098 219.881 248.711 217.497 248.797C215.457 248.861 214.083 249.055 213.288 249.184C213.138 249.205 212.988 249.162 212.902 249.055C212.794 248.947 212.773 248.797 212.837 248.668C213.546 247.443 215.221 245.444 218.958 244.047C221.427 243.144 224.584 242.994 225.679 243.08H225.722Z" fill="white"/>
</mask>
<g mask="url(#mask10_47_557)">
<path style="mix-blend-mode:multiply" d="M221.234 244.111C216.338 248.324 214.749 253.89 217.669 256.512C220.59 259.155 226.946 257.866 231.821 253.654C236.717 249.441 238.306 243.875 235.386 241.253C232.465 238.609 226.109 239.899 221.234 244.111Z" fill="url(#paint37_radial_47_557)"/>
</g>
<path d="M226.194 246.24C224.434 246.949 222.565 246.777 222.05 245.875C221.534 244.972 222.565 243.682 224.326 242.973C226.087 242.264 227.418 242.629 227.934 243.532C228.449 244.435 227.934 245.509 226.173 246.218L226.194 246.24Z" fill="#FFD5E8"/>
<mask id="mask11_47_557" style="mask-type:luminance" maskUnits="userSpaceOnUse" x="221" y="242" width="8" height="5">
<path d="M226.194 246.239C224.434 246.948 222.565 246.776 222.05 245.874C221.534 244.971 222.565 243.681 224.326 242.972C226.087 242.263 227.418 242.628 227.934 243.531C228.449 244.434 227.934 245.508 226.173 246.217L226.194 246.239Z" fill="white"/>
</mask>
<g mask="url(#mask11_47_557)">
<path style="mix-blend-mode:screen" d="M221.255 240.178C217.046 243.187 214.748 246.819 216.144 248.281C217.54 249.742 222.071 248.517 226.302 245.508C230.532 242.499 232.808 238.867 231.413 237.406C230.017 235.923 225.486 237.169 221.255 240.178Z" fill="url(#paint38_radial_47_557)"/>
</g>
<path d="M241.699 243.339C242.107 245.638 240.668 247.809 238.499 248.196C236.33 248.583 234.247 247.035 233.839 244.736C233.431 242.436 234.87 240.265 237.039 239.879C239.208 239.492 241.291 241.039 241.699 243.339Z" fill="url(#paint39_linear_47_557)"/>
<path d="M240.926 243.489C241.248 245.337 240.088 247.099 238.349 247.4C236.588 247.723 234.913 246.476 234.591 244.628C234.269 242.78 235.428 241.017 237.168 240.716C238.907 240.415 240.604 241.64 240.926 243.489Z" fill="white"/>
<path d="M237.339 241.62C237.339 241.62 237.168 241.663 237.082 241.684C237.232 241.856 237.339 242.071 237.382 242.307C237.511 243.059 237.017 243.79 236.266 243.941C235.986 243.984 235.707 243.941 235.45 243.833C235.45 244.027 235.45 244.242 235.471 244.456C235.707 245.789 236.931 246.692 238.198 246.477C239.465 246.24 240.303 244.972 240.067 243.64C239.83 242.307 238.606 241.405 237.339 241.62Z" fill="#000A55"/>
<path d="M383.688 232.829C383.688 232.829 387.575 231.647 387.983 233.388C388.391 235.128 377.117 258.103 341.147 267.452C305.177 276.801 284.497 282.131 284.497 282.131L288.835 265.969C293.495 255.868 301.677 236.762 359.014 208.393C400.116 188.04 429.407 172.716 431.683 175.854C433.959 178.992 416.479 198.098 397.474 207.254C397.474 207.254 407.224 202.891 408.791 205.147C410.359 207.404 393.33 226.016 384.289 232.012L383.666 232.807L383.688 232.829Z" fill="url(#paint40_linear_47_557)"/>
<mask id="mask12_47_557" style="mask-type:luminance" maskUnits="userSpaceOnUse" x="284" y="175" width="148" height="108">
<path d="M383.688 232.829C383.688 232.829 387.575 231.647 387.983 233.388C388.391 235.128 377.117 258.103 341.147 267.452C305.177 276.801 284.497 282.131 284.497 282.131L288.835 265.969C293.495 255.868 301.677 236.762 359.014 208.393C400.116 188.04 429.407 172.716 431.683 175.854C433.959 178.992 416.479 198.098 397.474 207.254C397.474 207.254 407.224 202.891 408.791 205.147C410.359 207.404 393.33 226.016 384.289 232.012L383.666 232.807L383.688 232.829Z" fill="white"/>
</mask>
<g mask="url(#mask12_47_557)">
<path d="M368.741 235.107C368.741 235.107 372.628 233.925 373.036 235.666C373.444 237.407 362.17 260.381 326.2 269.73C290.231 279.079 265.17 283.7 265.17 283.7L272.815 264.572C272.815 264.572 297.876 237.192 343.981 208.35C382.871 184.021 414.482 174.995 416.758 178.111C419.034 181.227 401.554 200.355 382.549 209.51C382.549 209.51 392.299 205.148 393.866 207.404C395.434 209.661 378.405 228.273 369.364 234.269L368.741 235.064V235.107Z" fill="url(#paint41_linear_47_557)"/>
</g>
<mask id="mask13_47_557" style="mask-type:luminance" maskUnits="userSpaceOnUse" x="224" y="232" width="178" height="207">
<path d="M224.519 245.702C226.667 236.224 239.53 227.391 255.571 236.353C280.267 250.129 310.31 282.001 328.907 303.558C328.907 303.558 332.321 307.577 332.343 307.577C335.413 311.209 337.969 314.325 339.343 316.044C339.343 316.044 336.186 331.175 348.728 337.149C361.269 343.124 395.392 362.51 394.017 366.743C386.007 369.537 373.445 361.951 373.445 361.951C373.445 361.951 402.543 381.444 400.953 385.979C399.386 390.535 371.555 375.061 371.555 375.061C386.329 384.625 403.316 401.926 400.932 407.814C398.548 413.703 369.73 395.908 369.73 395.908C369.73 395.908 396.981 421.333 393.91 426.405C390.839 431.498 363.588 410.329 363.588 410.329C363.588 410.329 377.052 433.196 371.834 438.139C366.616 443.082 345.571 415.207 345.571 415.207C345.571 415.207 351.24 425.889 349.629 427.264C348.019 428.64 335.8 421.526 328.971 404.376C328.971 404.376 327.146 405.944 325.256 402.828C316.58 388.364 316.666 367.603 311.491 359.307C285.077 353.44 255.872 333.496 247.089 318.774C238.413 304.245 242.601 285.612 242.171 280.755C241.742 275.898 238.929 271.9 232.658 266.355C226.388 260.811 222.952 252.536 224.498 245.68L224.519 245.702Z" fill="white"/>
</mask>
<g mask="url(#mask13_47_557)">
<path d="M224.519 245.702C226.667 236.224 239.53 227.391 255.571 236.353C280.353 250.194 310.482 282.195 328.907 303.558C332.063 307.233 336.315 312.262 339.343 316.044C339.343 316.044 336.186 331.175 348.728 337.149C361.269 343.124 395.392 362.51 394.017 366.743C386.007 369.537 373.445 361.951 373.445 361.951C373.445 361.951 402.543 381.444 400.953 385.979C399.386 390.535 371.555 375.061 371.555 375.061C386.329 384.625 403.316 401.926 400.932 407.814C398.548 413.703 369.73 395.908 369.73 395.908C369.73 395.908 396.981 421.333 393.91 426.405C390.839 431.498 363.588 410.329 363.588 410.329C363.588 410.329 377.052 433.196 371.834 438.139C366.616 443.082 345.571 415.207 345.571 415.207C345.571 415.207 351.24 425.889 349.629 427.264C348.019 428.64 335.8 421.526 328.971 404.376C328.971 404.376 327.146 405.944 325.256 402.828C316.58 388.364 316.666 367.603 311.491 359.307C285.056 353.44 255.872 333.474 247.089 318.774C238.413 304.245 242.601 285.612 242.171 280.755C241.742 275.898 238.929 271.9 232.658 266.355C226.388 260.811 222.952 252.536 224.498 245.68L224.519 245.702Z" fill="#D2E2F8"/>
<path style="mix-blend-mode:multiply" d="M288.513 261.391C315.442 286.042 339.343 316.044 339.343 316.044C339.343 316.044 336.186 331.174 348.728 337.149C361.269 343.124 395.392 362.509 394.017 366.743C386.007 369.537 373.445 361.951 373.445 361.951C373.445 361.951 402.543 381.444 400.953 385.978C399.386 390.535 371.555 375.061 371.555 375.061C386.329 384.624 403.316 401.925 400.932 407.814C398.548 413.703 369.73 395.908 369.73 395.908C369.73 395.908 396.981 421.332 393.91 426.404C390.839 431.498 363.588 410.329 363.588 410.329C363.588 410.329 377.052 433.196 371.834 438.139C366.616 443.082 345.571 415.207 345.571 415.207C345.571 415.207 351.24 425.889 349.629 427.264C348.019 428.64 335.8 421.526 328.971 404.375C328.971 404.375 327.146 405.944 325.256 402.828C316.58 388.364 316.666 367.603 311.491 359.307C316.151 360.339 320.746 360.941 325.084 360.984C331.29 361.048 335.821 359.716 338.935 357.523C340.803 356.191 341.899 354.192 342.135 352.107C342.371 349.98 341.748 347.766 340.224 346.025C333.33 338.202 323.044 337.515 307.797 327.994C300.453 323.416 292.056 313.508 288.105 305.879C287.547 307.985 286.838 310.07 286.022 312.133C284.734 315.356 283.252 318.086 281.598 320.02C278.334 323.846 276.08 318.193 276.08 318.193C275.242 324.061 273.009 333.925 267.211 335.903C266.137 336.268 264.891 336.246 263.538 335.881C258.857 332.228 253.896 327.779 250.138 323.115L288.492 261.369L288.513 261.391Z" fill="url(#paint42_linear_47_557)"/>
<path d="M224.519 245.702C226.667 236.224 239.53 227.391 255.571 236.353C270.689 244.799 287.568 260.015 302.171 274.974C297.683 276.693 293.903 279.637 291.112 283.334C288.556 286.708 286.838 290.749 286.172 295.111C285.55 299.281 284.433 303.429 282.779 307.491C281.491 310.714 280.009 313.444 278.356 315.378C275.092 319.204 273.309 309.146 273.309 309.146C273.309 309.146 272.343 328.402 263.989 331.282C261.327 332.206 257.59 330.745 253.81 327.285C251.298 324.684 249.193 322.127 247.626 319.677C242.257 310.951 241.162 301.301 241.613 291.157C241.828 286.472 242.322 282.754 242.171 280.798C241.742 275.962 238.929 271.943 232.658 266.398C226.388 260.854 222.952 252.579 224.498 245.723L224.519 245.702Z" fill="url(#paint43_linear_47_557)"/>
<g style="mix-blend-mode:multiply">
<path d="M300.849 358.512C257.292 336.797 231.757 299.557 243.814 275.333C255.871 251.11 300.955 249.076 344.511 270.791C388.068 292.506 413.603 329.747 401.546 353.97C389.489 378.194 344.405 380.227 300.849 358.512Z" fill="url(#paint44_radial_47_557)"/>
</g>
<g style="mix-blend-mode:multiply">
<path d="M326.36 361.155C282.803 339.44 257.268 302.199 269.325 277.976C281.382 253.752 326.466 251.719 370.022 273.434C413.579 295.149 439.114 332.389 427.057 356.613C415 380.836 369.916 382.87 326.36 361.155Z" fill="url(#paint45_radial_47_557)"/>
</g>
<g style="mix-blend-mode:multiply">
<path d="M326.373 383.228C347.74 380.67 364.039 370.161 362.793 359.78C361.548 349.378 343.23 343.038 321.863 345.596C300.496 348.153 284.197 358.663 285.442 369.043C286.688 379.424 305.006 385.786 326.373 383.228Z" fill="url(#paint46_radial_47_557)"/>
</g>
<g style="mix-blend-mode:multiply">
<path d="M252.926 268.071C250.786 219.417 270.952 179.011 297.966 177.821C324.981 176.631 348.615 215.108 350.755 263.762C352.894 312.416 332.729 352.822 305.714 354.012C278.7 355.202 255.065 316.725 252.926 268.071Z" fill="url(#paint47_radial_47_557)"/>
</g>
<g style="mix-blend-mode:multiply">
<path d="M279.284 283.388C246.779 247.145 231.727 207.616 245.664 195.097C259.6 182.578 297.248 201.81 329.752 238.053C362.256 274.296 377.308 313.825 363.372 326.344C349.435 338.863 311.788 319.631 279.284 283.388Z" fill="url(#paint48_radial_47_557)"/>
</g>
<path style="mix-blend-mode:screen" d="M277.703 516.98C236.868 490.492 223.915 437.907 248.769 399.53C273.624 361.153 326.875 351.516 367.709 378.005C408.544 404.493 421.498 457.078 396.643 495.455C371.788 533.832 318.537 543.469 277.703 516.98Z" fill="url(#paint49_radial_47_557)"/>
</g>
<path d="M306.315 251.397C331.183 232.055 499.607 179.486 502.549 184.902C505.491 190.318 474.396 210.778 457.925 216.516C457.925 216.516 482.706 205.083 484.854 208.5C487.001 211.917 474.374 225.887 454.704 233.452C458.505 231.883 465.699 231.797 466.665 234.87C467.631 237.944 459.063 251.569 428.677 259.715C433.616 260.188 445.964 261.649 447.059 266.485C448.133 271.32 432.757 281.658 414.074 281.293C419.743 281.421 425.219 285.247 424.489 288.342C423.759 291.437 410.101 300.334 381.755 296.337C381.755 296.337 392.299 300.27 390.71 305.471C388.112 313.982 351.283 308.501 351.283 308.501C351.283 308.501 355.814 311.51 355.707 314.067C355.621 315.873 352.636 319.806 333.33 320.88C318.234 321.719 301.011 312.971 293.968 298.83C284.798 280.433 290.768 263.497 306.337 251.397H306.315Z" fill="url(#paint50_linear_47_557)"/>
<mask id="mask14_47_557" style="mask-type:luminance" maskUnits="userSpaceOnUse" x="289" y="184" width="214" height="137">
<path d="M306.315 251.397C331.183 232.055 499.607 179.486 502.549 184.902C505.491 190.318 474.396 210.778 457.925 216.516C457.925 216.516 482.706 205.083 484.854 208.5C487.001 211.917 474.374 225.887 454.704 233.452C458.505 231.883 465.699 231.797 466.665 234.87C467.631 237.944 459.063 251.569 428.677 259.715C433.616 260.188 445.964 261.649 447.059 266.485C448.133 271.32 432.757 281.658 414.074 281.293C419.743 281.421 425.219 285.247 424.489 288.342C423.759 291.437 410.101 300.334 381.755 296.337C381.755 296.337 392.299 300.27 390.71 305.471C388.112 313.982 351.283 308.501 351.283 308.501C351.283 308.501 355.814 311.51 355.707 314.067C355.621 315.873 352.636 319.806 333.33 320.88C318.234 321.719 301.011 312.971 293.968 298.83C284.798 280.433 290.768 263.497 306.337 251.397H306.315Z" fill="white"/>
</mask>
<g mask="url(#mask14_47_557)">
<path d="M314.304 237.213C327.897 222.9 397.861 176.327 419.013 190.641C437.589 179.164 500.101 151.44 503.021 156.856C505.942 162.272 474.868 182.732 458.397 188.47C458.397 188.47 483.179 177.036 485.326 180.454C487.474 183.892 474.847 197.84 455.176 205.406C458.977 203.837 466.171 203.751 467.137 206.824C468.104 209.897 459.535 223.523 429.149 231.669C434.088 232.141 446.694 234.591 446.715 240.029C446.737 245.488 427.796 256.234 409.113 255.868C414.783 255.997 421.332 262.724 420.602 265.819C419.872 268.914 406.214 277.811 377.868 273.814C377.868 273.814 388.412 277.747 386.823 282.948C384.225 291.459 351.218 282.088 351.218 282.088C351.218 282.088 363.931 291.394 362.342 296.015C360.001 302.785 349.586 301.194 339.214 300.077C339.214 300.077 345.485 304.913 340.782 307.9C333.652 312.435 303.996 313.165 292.786 296.402C281.362 279.316 289.479 263.283 314.282 237.192L314.304 237.213Z" fill="url(#paint51_linear_47_557)"/>
</g>
<path d="M305.263 478.932L366.272 447.876L427.281 416.82C428.183 416.348 428.827 415.552 429.128 414.65C429.428 413.747 429.364 412.715 428.913 411.813L409.672 373.987L390.431 336.162C389.958 335.259 389.164 334.614 388.262 334.313C387.36 334.013 386.329 334.077 385.427 334.528L324.418 365.584L263.409 396.64C262.507 397.112 261.863 397.908 261.562 398.81C261.262 399.713 261.326 400.744 261.777 401.647L281.018 439.473L300.259 477.298C300.732 478.201 301.526 478.846 302.428 479.146C303.33 479.447 304.361 479.383 305.263 478.932Z" fill="white"/>
<path d="M346.601 409.191C344.218 410.416 341.533 410.954 338.871 410.803L264.14 406.269L261.799 401.648C261.326 400.745 261.284 399.714 261.584 398.811C261.885 397.908 262.529 397.113 263.431 396.64L324.44 365.585L385.449 334.529C386.351 334.056 387.381 334.013 388.283 334.314C389.185 334.615 389.98 335.26 390.452 336.162L392.793 340.783L352.464 403.904C351.025 406.161 349.007 408.009 346.601 409.213V409.191Z" fill="#F7F7F7"/>
<path d="M338.548 398.037L340.889 396.855L343.23 395.673C344.024 395.265 344.926 395.093 345.785 395.136C346.666 395.179 347.525 395.458 348.276 395.952L350.467 397.371L352.657 398.789C353.409 399.284 354.01 399.95 354.396 400.745C354.783 401.519 354.976 402.4 354.933 403.303L354.804 405.925L354.676 408.547C354.633 409.449 354.332 410.309 353.86 411.04C353.387 411.77 352.721 412.372 351.905 412.781L349.565 413.963L347.224 415.145C346.429 415.553 345.528 415.725 344.669 415.682C343.788 415.639 342.929 415.36 342.177 414.865L339.987 413.447L337.797 412.028C337.045 411.534 336.444 410.868 336.057 410.073C335.671 409.299 335.477 408.418 335.52 407.515L335.649 404.893L335.778 402.271C335.821 401.368 336.122 400.509 336.594 399.778C337.067 399.047 337.732 398.446 338.548 398.037Z" fill="#F7F7F7"/>
<path d="M339.128 406.332C341.039 406.44 342.908 406.031 344.561 405.193C346.215 404.355 347.653 403.087 348.684 401.454L390.431 336.119C389.958 335.216 389.164 334.571 388.262 334.27C387.36 333.969 386.329 334.034 385.427 334.485L324.418 365.541L263.409 396.596C262.507 397.069 261.863 397.864 261.562 398.767C261.262 399.67 261.326 400.701 261.777 401.604L339.128 406.311V406.332Z" fill="white"/>
<path d="M338.226 398.209L340.438 397.07L342.65 395.93C343.423 395.544 344.261 395.372 345.077 395.415C345.914 395.458 346.73 395.716 347.439 396.188L349.522 397.542L351.605 398.896C352.335 399.369 352.893 400.014 353.258 400.745C353.645 401.475 353.817 402.314 353.774 403.173L353.645 405.666L353.516 408.159C353.473 409.019 353.194 409.836 352.743 410.523C352.292 411.211 351.648 411.791 350.896 412.178L348.684 413.317L346.473 414.456C345.699 414.843 344.862 415.015 344.046 414.972C343.208 414.929 342.392 414.671 341.684 414.198L339.601 412.844L337.518 411.491C336.788 411.018 336.229 410.373 335.864 409.642C335.478 408.912 335.306 408.073 335.349 407.214L335.478 404.721L335.606 402.228C335.649 401.368 335.929 400.551 336.38 399.863C336.831 399.176 337.475 398.595 338.226 398.209Z" fill="#FFE356"/>
<path d="M350.423 411.212C351.003 410.911 351.497 410.481 351.841 409.944C352.184 409.406 352.399 408.783 352.442 408.117L352.7 403.131C352.743 402.486 352.592 401.841 352.313 401.261C352.034 400.681 351.583 400.186 351.046 399.842L346.88 397.134C346.343 396.791 345.699 396.576 345.055 396.533C344.411 396.49 343.766 396.64 343.187 396.919L338.741 399.176C338.162 399.477 337.668 399.907 337.324 400.466C336.981 401.003 336.766 401.626 336.723 402.292L336.465 407.279C336.422 407.923 336.572 408.568 336.873 409.148C337.174 409.729 337.603 410.223 338.14 410.567L342.306 413.275C342.843 413.619 343.487 413.834 344.131 413.877C344.776 413.92 345.42 413.769 346 413.49L350.445 411.233L350.423 411.212Z" fill="#FAD101"/>
<path d="M328.219 367.39C329.98 368.1 331.355 367.842 331.333 365.929C332.278 366.466 332.793 367.304 332.879 368.271C331.977 368.465 330.539 368.336 328.219 367.412V367.39Z" fill="#FF5C6B"/>
<path d="M320.875 355.161C320.875 355.161 321.863 362.597 324.826 365.176C325.943 366.165 327.167 366.939 328.241 367.368C330.56 368.314 331.999 368.443 332.901 368.228C332.944 368.68 332.879 369.174 332.707 369.668C332.192 371.194 331.226 372.032 329.744 371.731C329.744 371.731 329.68 373.859 328.219 374.439C326.759 375.02 325.084 374.009 325.084 374.009C325.084 374.009 324.805 374.998 324.161 375.363C323.516 375.729 322.099 376.223 320.832 375.277C319.565 374.332 317.568 371.538 316.859 368.658C315.829 364.489 316.838 355.054 316.945 352.539C318.083 354.302 319.522 355.269 320.875 355.14V355.161Z" fill="url(#paint52_linear_47_557)"/>
<path style="mix-blend-mode:multiply" d="M323.817 367.261C321.004 362.748 320.231 356.709 320.059 355.097C320.338 355.161 320.596 355.183 320.875 355.14C320.875 355.14 321.863 362.576 324.826 365.155C325.943 366.144 327.167 366.917 328.241 367.347C330.56 368.293 331.999 368.422 332.901 368.207C332.944 368.658 332.879 369.153 332.707 369.647C332.192 371.173 331.226 372.011 329.744 371.71C329.744 371.71 326.201 371.065 323.817 367.218V367.261Z" fill="url(#paint53_linear_47_557)"/>
<path style="mix-blend-mode:multiply" d="M329.358 371.388C336.767 375.235 343.767 376.46 344.991 374.117C346.215 371.775 341.169 366.746 333.76 362.898C326.351 359.051 319.351 357.826 318.127 360.169C316.903 362.512 321.949 367.541 329.358 371.388Z" fill="url(#paint54_radial_47_557)"/>
<path style="mix-blend-mode:multiply" d="M318.771 354.538C318.835 356.73 319.222 364.575 320.94 368.937C322.335 372.484 325.063 374.031 325.063 374.031C325.063 374.031 324.783 375.02 324.139 375.385C323.495 375.75 322.078 376.245 320.811 375.299C319.544 374.353 317.547 371.559 316.838 368.679C315.807 364.51 316.816 355.075 316.924 352.561C317.482 353.42 318.105 354.087 318.749 354.538H318.771Z" fill="url(#paint55_linear_47_557)"/>
<path style="mix-blend-mode:multiply" d="M320.661 376.16C325.385 383.059 330.99 387.422 333.159 385.939C335.328 384.434 333.266 377.643 328.542 370.744C323.818 363.845 318.213 359.482 316.044 360.965C313.875 362.448 315.936 369.261 320.661 376.16Z" fill="url(#paint56_radial_47_557)"/>
<path style="mix-blend-mode:multiply" d="M320.961 368.937C319.222 364.575 318.857 356.73 318.792 354.538C319.2 354.817 319.651 355.011 320.081 355.118C320.252 356.73 321.047 362.748 323.839 367.283C326.222 371.13 329.766 371.774 329.766 371.774C329.766 371.774 329.701 373.902 328.241 374.482C326.781 375.063 325.106 374.052 325.106 374.052C325.106 374.052 322.378 372.484 320.983 368.959L320.961 368.937Z" fill="url(#paint57_linear_47_557)"/>
<path style="mix-blend-mode:multiply" d="M324.912 374.934C329.637 381.833 335.241 386.196 337.41 384.713C339.579 383.209 337.518 376.417 332.793 369.518C328.069 362.619 322.464 358.257 320.295 359.74C318.126 361.244 320.188 368.035 324.912 374.934Z" fill="url(#paint58_radial_47_557)"/>
<path d="M336.509 361.414C338.398 361.457 339.601 360.726 338.892 358.921C339.966 359.093 340.76 359.695 341.168 360.555C340.395 361.07 339 361.457 336.509 361.414Z" fill="#FF5C6B"/>
<path d="M325.277 352.625C325.277 352.625 328.842 359.223 332.536 360.577C333.931 361.092 335.349 361.393 336.508 361.415C338.999 361.458 340.395 361.071 341.168 360.555C341.362 360.963 341.49 361.458 341.512 361.974C341.576 363.585 340.975 364.703 339.493 364.939C339.493 364.939 340.202 366.96 339.042 368.013C337.883 369.066 335.972 368.722 335.972 368.722C335.972 368.722 336.057 369.754 335.606 370.312C335.156 370.871 333.996 371.838 332.471 371.408C330.947 370.979 328.09 369.087 326.394 366.659C323.946 363.113 321.519 353.957 320.725 351.572C322.421 352.818 324.096 353.205 325.32 352.603L325.277 352.625Z" fill="url(#paint59_linear_47_557)"/>
<path style="mix-blend-mode:multiply" d="M332.342 362.876C328.112 359.652 325.213 354.301 324.504 352.861C324.783 352.818 325.041 352.732 325.277 352.624C325.277 352.624 328.842 359.222 332.536 360.576C333.931 361.092 335.349 361.393 336.508 361.414C338.999 361.457 340.395 361.071 341.168 360.555C341.362 360.963 341.49 361.457 341.512 361.973C341.576 363.585 340.975 364.703 339.493 364.939C339.493 364.939 335.95 365.605 332.364 362.854L332.342 362.876Z" fill="url(#paint60_linear_47_557)"/>
<path style="mix-blend-mode:screen" d="M328.348 366.464C332.793 371.407 338.076 373.922 340.116 372.095C342.156 370.268 340.202 364.745 335.735 359.802C331.29 354.858 326.008 352.344 323.967 354.171C321.927 356.019 323.882 361.521 328.348 366.464Z" fill="url(#paint61_radial_47_557)"/>
<path style="mix-blend-mode:multiply" d="M339 364.723C347.31 365.669 354.268 364.315 354.569 361.693C354.869 359.071 348.384 356.17 340.073 355.224C331.763 354.278 324.805 355.632 324.504 358.254C324.204 360.876 330.689 363.778 339 364.723Z" fill="url(#paint62_radial_47_557)"/>
<path style="mix-blend-mode:multiply" d="M323.108 352.775C323.967 354.795 327.102 361.995 330.281 365.455C332.858 368.271 335.95 368.743 335.95 368.743C335.95 368.743 336.036 369.775 335.585 370.334C335.134 370.893 333.974 371.86 332.45 371.43C330.925 371 328.069 369.109 326.372 366.68C323.924 363.134 321.498 353.978 320.703 351.593C321.541 352.195 322.357 352.603 323.13 352.775H323.108Z" fill="url(#paint63_linear_47_557)"/>
<path style="mix-blend-mode:multiply" d="M332.557 372.311C339.429 377.061 346.215 379.145 347.718 376.975C349.221 374.804 344.862 369.195 337.99 364.445C331.118 359.695 324.332 357.61 322.829 359.781C321.326 361.952 325.685 367.561 332.557 372.311Z" fill="url(#paint64_radial_47_557)"/>
<path style="mix-blend-mode:multiply" d="M330.281 365.455C327.103 361.995 323.967 354.816 323.108 352.775C323.602 352.882 324.075 352.925 324.504 352.861C325.234 354.301 328.112 359.652 332.342 362.876C335.929 365.605 339.472 364.96 339.472 364.96C339.472 364.96 340.181 366.981 339.021 368.034C337.861 369.087 335.95 368.743 335.95 368.743C335.95 368.743 332.858 368.249 330.281 365.455Z" fill="url(#paint65_linear_47_557)"/>
<path style="mix-blend-mode:multiply" d="M336.101 369.623C342.973 374.373 349.758 376.458 351.262 374.287C352.765 372.116 348.406 366.507 341.534 361.757C334.662 357.008 327.876 354.923 326.373 357.094C324.87 359.264 329.229 364.874 336.101 369.623Z" fill="url(#paint66_radial_47_557)"/>
<path d="M226.066 248.904C225.4 250.108 224.047 250.387 222.995 250.215L215.071 248.947C218.915 248.109 223.746 248.324 226.044 248.904H226.066Z" fill="url(#paint67_linear_47_557)"/>
<path d="M225.722 243.08C225.958 243.08 226.173 243.187 226.345 243.316C226.538 243.467 226.688 243.682 226.731 243.918C226.989 245.616 226.774 247.228 226.151 248.732C226.065 248.926 225.937 249.055 225.765 249.162C225.529 249.291 225.249 249.355 224.949 249.291C223.746 249.098 219.881 248.711 217.497 248.797C215.457 248.861 214.083 249.055 213.288 249.184C213.138 249.205 212.987 249.162 212.902 249.055C212.794 248.947 212.773 248.797 212.837 248.668C213.546 247.443 215.221 245.444 218.957 244.047C221.427 243.144 224.584 242.994 225.679 243.08H225.722Z" fill="url(#paint68_linear_47_557)"/>
<path style="mix-blend-mode:multiply" d="M221.234 244.111C216.338 248.324 214.749 253.89 217.669 256.512C220.59 259.155 226.946 257.866 231.821 253.654C236.717 249.441 238.306 243.875 235.386 241.253C232.465 238.609 226.109 239.899 221.234 244.111Z" fill="url(#paint69_radial_47_557)"/>
<path d="M226.194 246.24C224.434 246.949 222.565 246.777 222.05 245.875C221.534 244.972 222.565 243.682 224.326 242.973C226.087 242.264 227.418 242.629 227.934 243.532C228.449 244.435 227.934 245.509 226.173 246.218L226.194 246.24Z" fill="#FFD5E8"/>
<path d="M241.699 243.339C242.107 245.638 240.668 247.809 238.499 248.196C236.33 248.583 234.247 247.035 233.839 244.736C233.431 242.436 234.87 240.265 237.039 239.879C239.208 239.492 241.291 241.039 241.699 243.339Z" fill="url(#paint70_linear_47_557)"/>
<path d="M240.926 243.489C241.248 245.337 240.088 247.099 238.349 247.4C236.588 247.723 234.913 246.476 234.591 244.628C234.269 242.78 235.428 241.017 237.168 240.716C238.907 240.415 240.604 241.64 240.926 243.489Z" fill="white"/>
<path d="M237.339 241.62C237.339 241.62 237.168 241.663 237.082 241.684C237.232 241.856 237.339 242.071 237.382 242.307C237.511 243.059 237.017 243.79 236.266 243.941C235.986 243.984 235.707 243.941 235.45 243.833C235.45 244.027 235.45 244.242 235.471 244.456C235.707 245.789 236.931 246.692 238.198 246.477C239.465 246.24 240.303 244.972 240.067 243.64C239.83 242.307 238.606 241.405 237.339 241.62Z" fill="#000A55"/>
<defs>
<filter id="filter0_f_47_557" x="0.733398" y="0.630859" width="703.947" height="597.877" filterUnits="userSpaceOnUse" color-interpolation-filters="sRGB">
<feFlood flood-opacity="0" result="BackgroundImageFix"/>
<feBlend mode="normal" in="SourceGraphic" in2="BackgroundImageFix" result="shape"/>
<feGaussianBlur stdDeviation="112.5" result="effect1_foregroundBlur_47_557"/>
</filter>
<linearGradient id="paint0_linear_47_557" x1="348.021" y1="201.064" x2="380.557" y2="291.045" gradientUnits="userSpaceOnUse">
<stop stop-color="#F0F7FE"/>
<stop offset="0.47" stop-color="#D9E7F9"/>
<stop offset="1" stop-color="#BBD2F4"/>
</linearGradient>
<linearGradient id="paint1_linear_47_557" x1="418.922" y1="182.69" x2="281.705" y2="280.078" gradientUnits="userSpaceOnUse">
<stop stop-color="white"/>
<stop offset="0.34" stop-color="#FCFDFE"/>
<stop offset="0.59" stop-color="#F2F7FD"/>
<stop offset="0.8" stop-color="#E3EEFB"/>
<stop offset="0.99" stop-color="#CDE1F9"/>
<stop offset="1" stop-color="#CCE0F9"/>
</linearGradient>
<radialGradient id="paint2_radial_47_557" cx="0" cy="0" r="1" gradientUnits="userSpaceOnUse" gradientTransform="translate(330.028 175.665) rotate(-131.107) scale(49.0834 87.9518)">
<stop stop-color="#D5E5F9"/>
<stop offset="0.27" stop-color="#949FAD"/>
<stop offset="0.63" stop-color="#454A51"/>
<stop offset="0.88" stop-color="#131416"/>
<stop offset="1"/>
</radialGradient>
<linearGradient id="paint3_linear_47_557" x1="392.564" y1="338.656" x2="257.437" y2="363.169" gradientUnits="userSpaceOnUse">
<stop stop-color="#D5E5F9"/>
<stop offset="0.43" stop-color="#E8F1FB"/>
<stop offset="1" stop-color="white"/>
</linearGradient>
<linearGradient id="paint4_linear_47_557" x1="290.044" y1="304.096" x2="214.793" y2="257.071" gradientUnits="userSpaceOnUse">
<stop stop-color="#DEECFE"/>
<stop offset="0.5" stop-color="#EFF5FE"/>
<stop offset="1" stop-color="white"/>
</linearGradient>
<radialGradient id="paint5_radial_47_557" cx="0" cy="0" r="1" gradientUnits="userSpaceOnUse" gradientTransform="translate(327.147 318.871) rotate(116.462) scale(49.0927 87.9352)">
<stop stop-color="#B6D8FC"/>
<stop offset="0.04" stop-color="#BCDBFC"/>
<stop offset="0.23" stop-color="#D9EBFD"/>
<stop offset="0.43" stop-color="#EEF6FE"/>
<stop offset="0.62" stop-color="#FAFCFE"/>
<stop offset="0.8" stop-color="white"/>
</radialGradient>
<radialGradient id="paint6_radial_47_557" cx="0" cy="0" r="1" gradientUnits="userSpaceOnUse" gradientTransform="translate(352.601 321.481) rotate(116.462) scale(49.0927 87.9352)">
<stop stop-color="#B6D8FC"/>
<stop offset="0.04" stop-color="#BCDBFC"/>
<stop offset="0.23" stop-color="#D9EBFD"/>
<stop offset="0.43" stop-color="#EEF6FE"/>
<stop offset="0.62" stop-color="#FAFCFE"/>
<stop offset="0.8" stop-color="white"/>
</radialGradient>
<radialGradient id="paint7_radial_47_557" cx="0" cy="0" r="1" gradientUnits="userSpaceOnUse" gradientTransform="translate(333.269 364.521) rotate(83.1755) scale(18.8938 38.8937)">
<stop stop-color="#B6D8FC"/>
<stop offset="0.04" stop-color="#BCDBFC"/>
<stop offset="0.23" stop-color="#D9EBFD"/>
<stop offset="0.43" stop-color="#EEF6FE"/>
<stop offset="0.62" stop-color="#FAFCFE"/>
<stop offset="0.8" stop-color="white"/>
</radialGradient>
<radialGradient id="paint8_radial_47_557" cx="0" cy="0" r="1" gradientUnits="userSpaceOnUse" gradientTransform="translate(294.197 256.855) rotate(-2.52203) scale(49.061 87.9919)">
<stop stop-color="#B6D8FC"/>
<stop offset="0.04" stop-color="#BCDBFC"/>
<stop offset="0.23" stop-color="#D9EBFD"/>
<stop offset="0.43" stop-color="#EEF6FE"/>
<stop offset="0.62" stop-color="#FAFCFE"/>
<stop offset="0.8" stop-color="white"/>
</radialGradient>
<radialGradient id="paint9_radial_47_557" cx="0" cy="0" r="1" gradientUnits="userSpaceOnUse" gradientTransform="translate(291.481 262.781) rotate(-41.933) scale(34.0149 87.9604)">
<stop stop-color="#B6D8FC"/>
<stop offset="0.04" stop-color="#BCDBFC"/>
<stop offset="0.23" stop-color="#D9EBFD"/>
<stop offset="0.43" stop-color="#EEF6FE"/>
<stop offset="0.62" stop-color="#FAFCFE"/>
<stop offset="0.8" stop-color="white"/>
</radialGradient>
<radialGradient id="paint10_radial_47_557" cx="0" cy="0" r="1" gradientUnits="userSpaceOnUse" gradientTransform="translate(245.457 331.651) rotate(122.929) scale(49.0888 87.9421)">
<stop stop-color="#D5E5F9"/>
<stop offset="0.27" stop-color="#949FAD"/>
<stop offset="0.63" stop-color="#454A51"/>
<stop offset="0.88" stop-color="#131416"/>
<stop offset="1"/>
</radialGradient>
<radialGradient id="paint11_radial_47_557" cx="0" cy="0" r="1" gradientUnits="userSpaceOnUse" gradientTransform="translate(326.806 450.511) rotate(122.929) scale(82.6248 87.9421)">
<stop stop-color="#D5E5F9"/>
<stop offset="0.27" stop-color="#949FAD"/>
<stop offset="0.63" stop-color="#454A51"/>
<stop offset="0.88" stop-color="#131416"/>
<stop offset="1"/>
</radialGradient>
<linearGradient id="paint12_linear_47_557" x1="397.619" y1="226.371" x2="368.063" y2="325.846" gradientUnits="userSpaceOnUse">
<stop stop-color="#F0F7FE"/>
<stop offset="0.47" stop-color="#D9E7F9"/>
<stop offset="1" stop-color="#BBD2F4"/>
</linearGradient>
<linearGradient id="paint13_linear_47_557" x1="398.802" y1="206.192" x2="366.065" y2="316.398" gradientUnits="userSpaceOnUse">
<stop stop-color="white"/>
<stop offset="0.34" stop-color="#FCFDFE"/>
<stop offset="0.59" stop-color="#F2F7FD"/>
<stop offset="0.8" stop-color="#E3EEFB"/>
<stop offset="0.99" stop-color="#CDE1F9"/>
<stop offset="1" stop-color="#CCE0F9"/>
</linearGradient>
<radialGradient id="paint14_radial_47_557" cx="0" cy="0" r="1" gradientUnits="userSpaceOnUse" gradientTransform="translate(305.273 244.37) rotate(-126.038) scale(66.5775 119.283)">
<stop stop-color="#D5E5F9"/>
<stop offset="0.27" stop-color="#949FAD"/>
<stop offset="0.63" stop-color="#454A51"/>
<stop offset="0.88" stop-color="#131416"/>
<stop offset="1"/>
</radialGradient>
<linearGradient id="paint15_linear_47_557" x1="326.133" y1="375.389" x2="322.172" y2="353.588" gradientUnits="userSpaceOnUse">
<stop stop-color="#FF8293"/>
<stop offset="0.76" stop-color="#FFB6CE"/>
<stop offset="1" stop-color="#C2CAFA"/>
</linearGradient>
<linearGradient id="paint16_linear_47_557" x1="333.405" y1="364.463" x2="319.127" y2="362.694" gradientUnits="userSpaceOnUse">
<stop stop-color="#FFDDEF"/>
<stop offset="0.7" stop-color="white"/>
</linearGradient>
<radialGradient id="paint17_radial_47_557" cx="0" cy="0" r="1" gradientUnits="userSpaceOnUse" gradientTransform="translate(324.688 370.282) rotate(158.854) scale(4.98259 12.0651)">
<stop stop-color="#741C2C"/>
<stop offset="1"/>
</radialGradient>
<radialGradient id="paint18_radial_47_557" cx="0" cy="0" r="1" gradientUnits="userSpaceOnUse" gradientTransform="translate(319.427 390.565) rotate(117.381) scale(4.84084 15.1206)">
<stop stop-color="#FFDDEF"/>
<stop offset="0.7" stop-color="white"/>
</radialGradient>
<linearGradient id="paint19_linear_47_557" x1="326.196" y1="365.019" x2="315.562" y2="363.701" gradientUnits="userSpaceOnUse">
<stop stop-color="#FFDDEF"/>
<stop offset="0.7" stop-color="white"/>
</linearGradient>
<radialGradient id="paint20_radial_47_557" cx="0" cy="0" r="1" gradientUnits="userSpaceOnUse" gradientTransform="translate(309.269 367.35) rotate(178.128) scale(4.83777 15.1302)">
<stop stop-color="#741C2C"/>
<stop offset="1"/>
</radialGradient>
<radialGradient id="paint21_radial_47_557" cx="0" cy="0" r="1" gradientUnits="userSpaceOnUse" gradientTransform="translate(306.886 385.445) rotate(145.508) scale(4.83901 15.1263)">
<stop stop-color="#FFDDEF"/>
<stop offset="0.7" stop-color="white"/>
</radialGradient>
<linearGradient id="paint22_linear_47_557" x1="330.525" y1="365.535" x2="317.61" y2="363.934" gradientUnits="userSpaceOnUse">
<stop stop-color="#FFDDEF"/>
<stop offset="0.7" stop-color="white"/>
</linearGradient>
<radialGradient id="paint23_radial_47_557" cx="0" cy="0" r="1" gradientUnits="userSpaceOnUse" gradientTransform="translate(321.15 370.947) rotate(168.111) scale(4.66011 12.5916)">
<stop stop-color="#741C2C"/>
<stop offset="1"/>
</radialGradient>
<radialGradient id="paint24_radial_47_557" cx="0" cy="0" r="1" gradientUnits="userSpaceOnUse" gradientTransform="translate(311.199 384.175) rotate(145.508) scale(4.83901 15.1263)">
<stop stop-color="#FFDDEF"/>
<stop offset="0.7" stop-color="white"/>
</radialGradient>
<linearGradient id="paint25_linear_47_557" x1="337.371" y1="369.961" x2="326.466" y2="350.956" gradientUnits="userSpaceOnUse">
<stop stop-color="#FF8293"/>
<stop offset="0.76" stop-color="#FFB6CE"/>
<stop offset="1" stop-color="#BDC8FA"/>
</linearGradient>
<linearGradient id="paint26_linear_47_557" x1="340.279" y1="356.802" x2="326.286" y2="360.244" gradientUnits="userSpaceOnUse">
<stop stop-color="#FFDDEF"/>
<stop offset="0.7" stop-color="white"/>
</linearGradient>
<radialGradient id="paint27_radial_47_557" cx="0" cy="0" r="1" gradientUnits="userSpaceOnUse" gradientTransform="translate(334.683 366.238) rotate(137.937) scale(4.96239 12.01)">
<stop stop-color="#741C2C"/>
<stop offset="1"/>
</radialGradient>
<radialGradient id="paint28_radial_47_557" cx="0" cy="0" r="1" gradientUnits="userSpaceOnUse" gradientTransform="translate(336.535 386.141) rotate(96.4848) scale(4.84161 15.1182)">
<stop stop-color="#FFDDEF"/>
<stop offset="0.7" stop-color="white"/>
</radialGradient>
<linearGradient id="paint29_linear_47_557" x1="333.741" y1="359.896" x2="323.335" y2="362.455" gradientUnits="userSpaceOnUse">
<stop stop-color="#FFDDEF"/>
<stop offset="0.7" stop-color="white"/>
</linearGradient>
<radialGradient id="paint30_radial_47_557" cx="0" cy="0" r="1" gradientUnits="userSpaceOnUse" gradientTransform="translate(309.872 371.76) rotate(157.214) scale(4.83835 15.1284)">
<stop stop-color="#741C2C"/>
<stop offset="1"/>
</radialGradient>
<radialGradient id="paint31_radial_47_557" cx="0" cy="0" r="1" gradientUnits="userSpaceOnUse" gradientTransform="translate(320.494 389.855) rotate(124.598) scale(4.84041 15.1219)">
<stop stop-color="#FFDDEF"/>
<stop offset="0.7" stop-color="white"/>
</radialGradient>
<linearGradient id="paint32_linear_47_557" x1="337.948" y1="358.837" x2="325.332" y2="361.94" gradientUnits="userSpaceOnUse">
<stop stop-color="#FFDDEF"/>
<stop offset="0.7" stop-color="white"/>
</linearGradient>
<radialGradient id="paint33_radial_47_557" cx="0" cy="0" r="1" gradientUnits="userSpaceOnUse" gradientTransform="translate(331.356 367.76) rotate(147.189) scale(4.66106 12.589)">
<stop stop-color="#741C2C"/>
<stop offset="1"/>
</radialGradient>
<radialGradient id="paint34_radial_47_557" cx="0" cy="0" r="1" gradientUnits="userSpaceOnUse" gradientTransform="translate(324.071 387.127) rotate(124.598) scale(4.84041 15.1219)">
<stop stop-color="#FFDDEF"/>
<stop offset="0.7" stop-color="white"/>
</radialGradient>
<linearGradient id="paint35_linear_47_557" x1="225.242" y1="250.751" x2="215.831" y2="246.925" gradientUnits="userSpaceOnUse">
<stop stop-color="#FF8798"/>
<stop offset="1" stop-color="#FFB6CE"/>
</linearGradient>
<linearGradient id="paint36_linear_47_557" x1="226.505" y1="244.908" x2="213.364" y2="250.015" gradientUnits="userSpaceOnUse">
<stop stop-color="#FFC9E0"/>
<stop offset="1" stop-color="#FFE5F3"/>
</linearGradient>
<radialGradient id="paint37_radial_47_557" cx="0" cy="0" r="1" gradientUnits="userSpaceOnUse" gradientTransform="translate(321.721 328.017) rotate(-138.007) scale(7.13638 11.5489)">
<stop stop-color="#FFC7DD"/>
<stop offset="0.06" stop-color="#FFD0E2"/>
<stop offset="0.23" stop-color="#FFE5EF"/>
<stop offset="0.42" stop-color="#FFF3F8"/>
<stop offset="0.64" stop-color="#FFFCFD"/>
<stop offset="1" stop-color="white"/>
</radialGradient>
<radialGradient id="paint38_radial_47_557" cx="0" cy="0" r="1" gradientUnits="userSpaceOnUse" gradientTransform="translate(110.587 120.496) rotate(-133.327) scale(3.68143 9.3054)">
<stop stop-color="#FFC7DD"/>
<stop offset="0.11" stop-color="#CB9EB0"/>
<stop offset="0.24" stop-color="#957581"/>
<stop offset="0.37" stop-color="#68515A"/>
<stop offset="0.5" stop-color="#423339"/>
<stop offset="0.63" stop-color="#251D20"/>
<stop offset="0.75" stop-color="#100C0E"/>
<stop offset="0.88" stop-color="#040303"/>
<stop offset="1"/>
</radialGradient>
<linearGradient id="paint39_linear_47_557" x1="241.293" y1="242.406" x2="233.895" y2="245.533" gradientUnits="userSpaceOnUse">
<stop stop-color="#FF8798"/>
<stop offset="1" stop-color="#FFB6CE"/>
</linearGradient>
<linearGradient id="paint40_linear_47_557" x1="348.021" y1="201.064" x2="380.557" y2="291.045" gradientUnits="userSpaceOnUse">
<stop stop-color="#F0F7FE"/>
<stop offset="0.47" stop-color="#D9E7F9"/>
<stop offset="1" stop-color="#BBD2F4"/>
</linearGradient>
<linearGradient id="paint41_linear_47_557" x1="418.922" y1="182.69" x2="281.705" y2="280.078" gradientUnits="userSpaceOnUse">
<stop stop-color="white"/>
<stop offset="0.34" stop-color="#FCFDFE"/>
<stop offset="0.59" stop-color="#F2F7FD"/>
<stop offset="0.8" stop-color="#E3EEFB"/>
<stop offset="0.99" stop-color="#CDE1F9"/>
<stop offset="1" stop-color="#CCE0F9"/>
</linearGradient>
<linearGradient id="paint42_linear_47_557" x1="392.564" y1="338.656" x2="257.437" y2="363.169" gradientUnits="userSpaceOnUse">
<stop stop-color="#D5E5F9"/>
<stop offset="0.43" stop-color="#E8F1FB"/>
<stop offset="1" stop-color="white"/>
</linearGradient>
<linearGradient id="paint43_linear_47_557" x1="290.044" y1="304.096" x2="214.793" y2="257.071" gradientUnits="userSpaceOnUse">
<stop stop-color="#DEECFE"/>
<stop offset="0.5" stop-color="#EFF5FE"/>
<stop offset="1" stop-color="white"/>
</linearGradient>
<radialGradient id="paint44_radial_47_557" cx="0" cy="0" r="1" gradientUnits="userSpaceOnUse" gradientTransform="translate(327.147 318.871) rotate(116.462) scale(49.0927 87.9352)">
<stop stop-color="#B6D8FC"/>
<stop offset="0.04" stop-color="#BCDBFC"/>
<stop offset="0.23" stop-color="#D9EBFD"/>
<stop offset="0.43" stop-color="#EEF6FE"/>
<stop offset="0.62" stop-color="#FAFCFE"/>
<stop offset="0.8" stop-color="white"/>
</radialGradient>
<radialGradient id="paint45_radial_47_557" cx="0" cy="0" r="1" gradientUnits="userSpaceOnUse" gradientTransform="translate(352.601 321.481) rotate(116.462) scale(49.0927 87.9352)">
<stop stop-color="#B6D8FC"/>
<stop offset="0.04" stop-color="#BCDBFC"/>
<stop offset="0.23" stop-color="#D9EBFD"/>
<stop offset="0.43" stop-color="#EEF6FE"/>
<stop offset="0.62" stop-color="#FAFCFE"/>
<stop offset="0.8" stop-color="white"/>
</radialGradient>
<radialGradient id="paint46_radial_47_557" cx="0" cy="0" r="1" gradientUnits="userSpaceOnUse" gradientTransform="translate(333.269 364.521) rotate(83.1755) scale(18.8938 38.8937)">
<stop stop-color="#B6D8FC"/>
<stop offset="0.04" stop-color="#BCDBFC"/>
<stop offset="0.23" stop-color="#D9EBFD"/>
<stop offset="0.43" stop-color="#EEF6FE"/>
<stop offset="0.62" stop-color="#FAFCFE"/>
<stop offset="0.8" stop-color="white"/>
</radialGradient>
<radialGradient id="paint47_radial_47_557" cx="0" cy="0" r="1" gradientUnits="userSpaceOnUse" gradientTransform="translate(294.197 256.855) rotate(-2.52203) scale(49.061 87.9919)">
<stop stop-color="#B6D8FC"/>
<stop offset="0.04" stop-color="#BCDBFC"/>
<stop offset="0.23" stop-color="#D9EBFD"/>
<stop offset="0.43" stop-color="#EEF6FE"/>
<stop offset="0.62" stop-color="#FAFCFE"/>
<stop offset="0.8" stop-color="white"/>
</radialGradient>
<radialGradient id="paint48_radial_47_557" cx="0" cy="0" r="1" gradientUnits="userSpaceOnUse" gradientTransform="translate(291.481 262.781) rotate(-41.933) scale(34.0149 87.9604)">
<stop stop-color="#B6D8FC"/>
<stop offset="0.04" stop-color="#BCDBFC"/>
<stop offset="0.23" stop-color="#D9EBFD"/>
<stop offset="0.43" stop-color="#EEF6FE"/>
<stop offset="0.62" stop-color="#FAFCFE"/>
<stop offset="0.8" stop-color="white"/>
</radialGradient>
<radialGradient id="paint49_radial_47_557" cx="0" cy="0" r="1" gradientUnits="userSpaceOnUse" gradientTransform="translate(326.806 450.511) rotate(122.929) scale(82.6248 87.9421)">
<stop stop-color="#D5E5F9"/>
<stop offset="0.27" stop-color="#949FAD"/>
<stop offset="0.63" stop-color="#454A51"/>
<stop offset="0.88" stop-color="#131416"/>
<stop offset="1"/>
</radialGradient>
<linearGradient id="paint50_linear_47_557" x1="397.619" y1="226.371" x2="368.063" y2="325.846" gradientUnits="userSpaceOnUse">
<stop stop-color="#F0F7FE"/>
<stop offset="0.47" stop-color="#D9E7F9"/>
<stop offset="1" stop-color="#BBD2F4"/>
</linearGradient>
<linearGradient id="paint51_linear_47_557" x1="398.802" y1="206.192" x2="366.065" y2="316.398" gradientUnits="userSpaceOnUse">
<stop stop-color="white"/>
<stop offset="0.34" stop-color="#FCFDFE"/>
<stop offset="0.59" stop-color="#F2F7FD"/>
<stop offset="0.8" stop-color="#E3EEFB"/>
<stop offset="0.99" stop-color="#CDE1F9"/>
<stop offset="1" stop-color="#CCE0F9"/>
</linearGradient>
<linearGradient id="paint52_linear_47_557" x1="326.133" y1="375.389" x2="322.172" y2="353.588" gradientUnits="userSpaceOnUse">
<stop stop-color="#FF8293"/>
<stop offset="0.76" stop-color="#FFB6CE"/>
<stop offset="1" stop-color="#C2CAFA"/>
</linearGradient>
<linearGradient id="paint53_linear_47_557" x1="333.405" y1="364.463" x2="319.127" y2="362.694" gradientUnits="userSpaceOnUse">
<stop stop-color="#FFDDEF"/>
<stop offset="0.7" stop-color="white"/>
</linearGradient>
<radialGradient id="paint54_radial_47_557" cx="0" cy="0" r="1" gradientUnits="userSpaceOnUse" gradientTransform="translate(319.427 390.565) rotate(117.381) scale(4.84084 15.1206)">
<stop stop-color="#FFDDEF"/>
<stop offset="0.7" stop-color="white"/>
</radialGradient>
<linearGradient id="paint55_linear_47_557" x1="326.196" y1="365.019" x2="315.561" y2="363.701" gradientUnits="userSpaceOnUse">
<stop stop-color="#FFDDEF"/>
<stop offset="0.7" stop-color="white"/>
</linearGradient>
<radialGradient id="paint56_radial_47_557" cx="0" cy="0" r="1" gradientUnits="userSpaceOnUse" gradientTransform="translate(306.886 385.445) rotate(145.508) scale(4.83901 15.1263)">
<stop stop-color="#FFDDEF"/>
<stop offset="0.7" stop-color="white"/>
</radialGradient>
<linearGradient id="paint57_linear_47_557" x1="330.525" y1="365.535" x2="317.61" y2="363.934" gradientUnits="userSpaceOnUse">
<stop stop-color="#FFDDEF"/>
<stop offset="0.7" stop-color="white"/>
</linearGradient>
<radialGradient id="paint58_radial_47_557" cx="0" cy="0" r="1" gradientUnits="userSpaceOnUse" gradientTransform="translate(311.199 384.175) rotate(145.508) scale(4.83901 15.1263)">
<stop stop-color="#FFDDEF"/>
<stop offset="0.7" stop-color="white"/>
</radialGradient>
<linearGradient id="paint59_linear_47_557" x1="337.371" y1="369.961" x2="326.466" y2="350.956" gradientUnits="userSpaceOnUse">
<stop stop-color="#FF8293"/>
<stop offset="0.76" stop-color="#FFB6CE"/>
<stop offset="1" stop-color="#BDC8FA"/>
</linearGradient>
<linearGradient id="paint60_linear_47_557" x1="340.279" y1="356.802" x2="326.286" y2="360.244" gradientUnits="userSpaceOnUse">
<stop stop-color="#FFDDEF"/>
<stop offset="0.7" stop-color="white"/>
</linearGradient>
<radialGradient id="paint61_radial_47_557" cx="0" cy="0" r="1" gradientUnits="userSpaceOnUse" gradientTransform="translate(334.683 366.238) rotate(137.937) scale(4.96239 12.01)">
<stop stop-color="#741C2C"/>
<stop offset="1"/>
</radialGradient>
<radialGradient id="paint62_radial_47_557" cx="0" cy="0" r="1" gradientUnits="userSpaceOnUse" gradientTransform="translate(336.535 386.141) rotate(96.4848) scale(4.84161 15.1182)">
<stop stop-color="#FFDDEF"/>
<stop offset="0.7" stop-color="white"/>
</radialGradient>
<linearGradient id="paint63_linear_47_557" x1="333.741" y1="359.896" x2="323.335" y2="362.455" gradientUnits="userSpaceOnUse">
<stop stop-color="#FFDDEF"/>
<stop offset="0.7" stop-color="white"/>
</linearGradient>
<radialGradient id="paint64_radial_47_557" cx="0" cy="0" r="1" gradientUnits="userSpaceOnUse" gradientTransform="translate(320.494 389.855) rotate(124.598) scale(4.84041 15.1219)">
<stop stop-color="#FFDDEF"/>
<stop offset="0.7" stop-color="white"/>
</radialGradient>
<linearGradient id="paint65_linear_47_557" x1="337.948" y1="358.837" x2="325.332" y2="361.94" gradientUnits="userSpaceOnUse">
<stop stop-color="#FFDDEF"/>
<stop offset="0.7" stop-color="white"/>
</linearGradient>
<radialGradient id="paint66_radial_47_557" cx="0" cy="0" r="1" gradientUnits="userSpaceOnUse" gradientTransform="translate(324.071 387.127) rotate(124.598) scale(4.84041 15.1219)">
<stop stop-color="#FFDDEF"/>
<stop offset="0.7" stop-color="white"/>
</radialGradient>
<linearGradient id="paint67_linear_47_557" x1="225.242" y1="250.751" x2="215.831" y2="246.925" gradientUnits="userSpaceOnUse">
<stop stop-color="#FF8798"/>
<stop offset="1" stop-color="#FFB6CE"/>
</linearGradient>
<linearGradient id="paint68_linear_47_557" x1="226.505" y1="244.908" x2="213.364" y2="250.015" gradientUnits="userSpaceOnUse">
<stop stop-color="#FFC9E0"/>
<stop offset="1" stop-color="#FFE5F3"/>
</linearGradient>
<radialGradient id="paint69_radial_47_557" cx="0" cy="0" r="1" gradientUnits="userSpaceOnUse" gradientTransform="translate(321.721 328.017) rotate(-138.007) scale(7.13638 11.5489)">
<stop stop-color="#FFC7DD"/>
<stop offset="0.06" stop-color="#FFD0E2"/>
<stop offset="0.23" stop-color="#FFE5EF"/>
<stop offset="0.42" stop-color="#FFF3F8"/>
<stop offset="0.64" stop-color="#FFFCFD"/>
<stop offset="1" stop-color="white"/>
</radialGradient>
<linearGradient id="paint70_linear_47_557" x1="241.293" y1="242.406" x2="233.895" y2="245.533" gradientUnits="userSpaceOnUse">
<stop stop-color="#FF8798"/>
<stop offset="1" stop-color="#FFB6CE"/>
</linearGradient>
</defs>
</svg>
