<?xml version="1.0" standalone="no"?>
<!DOCTYPE svg PUBLIC "-//W3C//DTD SVG 20010904//EN"
 "http://www.w3.org/TR/2001/REC-SVG-20010904/DTD/svg10.dtd">
<svg version="1.0" xmlns="http://www.w3.org/2000/svg"
 width="300.000000pt" height="300.000000pt" viewBox="0 0 300.000000 300.000000"
 preserveAspectRatio="xMidYMid meet">
<metadata>
Created by potrace 1.14, written by Peter Selinger 2001-2017
</metadata>
<g transform="translate(0.000000,300.000000) scale(0.100000,-0.100000)"
fill="#000000" stroke="none">
<path d="M1365 2745 c-165 -51 -294 -192 -323 -351 -8 -47 -8 -178 1 -214 2
-8 7 -31 11 -50 12 -51 72 -174 104 -212 27 -32 21 -31 -31 4 -35 25 -136 66
-184 76 -78 15 -225 8 -298 -15 -160 -50 -288 -171 -347 -327 -25 -66 -32
-213 -14 -283 42 -157 163 -293 317 -354 154 -60 342 -56 519 12 77 30 214
116 361 226 85 64 185 136 222 161 151 98 289 142 422 135 82 -4 73 7 -31 35
-136 36 -305 10 -480 -76 -44 -22 -150 -82 -235 -132 -174 -104 -242 -140
-314 -165 -255 -89 -492 -19 -586 172 -20 39 -24 64 -24 133 0 76 4 92 33 152
51 104 148 182 287 229 26 9 85 14 165 13 107 0 135 -4 198 -26 73 -25 73 -25
67 -4 -40 128 -51 284 -28 393 35 169 149 277 294 278 83 0 135 -31 169 -100
57 -117 29 -269 -91 -508 l-39 -78 42 30 c83 57 176 168 227 268 114 223 45
468 -158 561 -65 30 -189 38 -256 17z"/>
<path d="M2045 2315 c-50 -49 -15 -135 55 -135 19 0 40 9 55 25 16 15 25 36
25 55 0 19 -9 40 -25 55 -15 16 -36 25 -55 25 -19 0 -40 -9 -55 -25z"/>
<path d="M2058 2019 c-176 -28 -300 -93 -592 -312 -186 -141 -313 -214 -421
-242 -61 -16 -204 -23 -224 -11 -6 4 -11 3 -11 -3 0 -6 28 -19 62 -30 78 -24
223 -26 305 -4 32 8 63 16 68 18 52 12 185 80 356 181 298 175 400 214 557
209 155 -4 270 -65 343 -182 33 -52 48 -136 37 -206 -24 -159 -165 -292 -349
-331 -161 -33 -376 15 -490 111 -27 23 -32 25 -25 8 15 -36 46 -137 50 -163
36 -215 37 -346 5 -439 -69 -194 -265 -246 -404 -108 -123 124 -117 330 16
469 21 22 36 42 34 44 -7 8 -111 -45 -144 -74 -73 -62 -129 -178 -134 -281 -9
-189 131 -379 312 -423 237 -57 448 88 495 340 25 134 -8 304 -89 458 l-33 62
35 -21 c341 -211 758 -90 885 256 30 85 31 246 1 327 -76 204 -281 345 -512
352 -47 1 -107 -1 -133 -5z"/>
<path d="M835 845 c-51 -50 -15 -135 58 -135 45 0 77 34 77 82 0 70 -86 103
-135 53z"/>
</g>
</svg>
