<svg width="524" height="555" viewBox="0 0 524 555" fill="none" xmlns="http://www.w3.org/2000/svg">
<g clip-path="url(#clip0_24_22)">
<path d="M518.285 201.026C520.274 179.95 516.982 172.714 508.423 154.274C499.865 135.834 447.238 59.438 447.91 39.0347C448.064 34.0005 454.522 17.6639 462.73 0.5H302.748C298.714 10.9049 295.114 19.9637 293.335 23.217C282.143 43.6342 274.915 62.7333 269.004 100.932C263.975 133.282 265.572 181.212 267.785 200.325C268.177 203.789 268.612 206.313 269.004 207.617C269.676 209.819 270.138 212.89 270.306 216.185C270.811 225.707 268.934 237.065 263.078 234.611C255.654 231.512 252.867 208.543 253.679 200.942C253.721 200.466 253.791 200.073 253.875 199.722C254.086 198.811 254.548 196.609 255.136 193.272C258.33 174.874 265.068 122.148 250.584 64.7246C246.311 47.7569 239.433 22.642 233.256 0.514023H78.485C82.183 13.0645 85.2087 24.0023 85.4748 26.5264C86.7916 39.0488 68.3715 69.3381 40.0899 107.522C11.7803 145.706 7.18582 163.487 8.48853 178.632C9.80526 193.777 11.7803 215.498 11.7803 215.498C11.7803 215.498 -6.62577 250.401 2.57728 274.113C10.4496 294.39 19.7507 310.769 23.0986 320.038C23.2526 319.996 23.4347 320.01 23.5608 320.207C24.6534 322.001 25.1157 324.077 25.6199 326.096C26.1943 328.368 26.9367 330.569 27.7071 332.785C29.0658 336.669 30.5647 340.47 32.1335 344.27C33.2541 346.976 31.8814 349.893 33.2682 352.473C34.6549 355.067 37.4284 361.041 39.8518 362.794C41.0424 363.663 45.1187 367.618 49.1669 366.412C49.6432 368.347 51.0299 370.366 51.5202 371.67C53.1451 375.47 55.6104 380.981 58.7201 387.362C67.0827 404.456 80.0819 427.523 94.0055 438.741C114.919 455.625 160.528 484.316 170.838 490.766C172.183 491.608 172.939 492.07 172.939 492.07C172.939 492.07 174.354 494.314 176.791 497.876C184.019 508.463 200.268 530.605 215.06 539.496C232.276 549.844 239.476 545.147 241.03 543.758C241.254 543.562 241.367 543.436 241.367 543.436C241.367 543.436 242.809 545.988 245.373 548.638C248.749 552.158 254.058 555.846 260.445 553.967C267.085 552.004 270.475 546.086 272.127 541.613C273.276 538.556 273.584 536.186 273.584 536.186C273.584 536.186 273.626 536.158 273.71 536.102C274.271 535.709 276.792 534.055 280.812 532.891C280.91 532.863 281.008 532.849 281.078 532.807C284.692 531.713 285.743 530.227 285.995 529.75C286.065 529.652 286.079 529.595 286.079 529.595C286.079 529.595 292.663 541.445 305.83 531.573C315.453 524.351 334.252 501.956 343.637 490.472C345.78 487.849 347.433 485.788 348.371 484.61C348.946 483.895 349.24 483.516 349.24 483.516C349.24 483.516 426.198 440.06 441.985 420.287C450.894 409.153 462.926 384.403 471.723 364.939C474.427 358.952 476.836 353.469 478.755 349.023C480.058 345.995 481.136 343.47 481.921 341.591C481.921 341.577 481.935 341.577 481.935 341.577C482.887 339.292 483.434 337.987 483.434 337.987C483.434 337.987 488.35 329.966 494.752 319.141C506.028 300.112 521.885 272.445 523.552 264.886C526.185 253.037 516.324 222.075 518.285 201.012V201.026Z" fill="#F7B092"/>
<path d="M51.5764 317.738C48.9009 314.513 45.1048 312.887 40.9586 312.648C35.7197 312.354 30.789 314.163 27.3151 318.173C26.0264 319.66 25.0038 321.384 24.2474 323.193C24.3314 323.404 24.4155 323.614 24.4995 323.838C25.326 326.264 26.0123 328.76 26.6007 331.256C27.8333 336.445 28.8839 341.689 30.3687 346.808C31.2512 349.865 32.2878 353.02 33.7586 355.895C34.7952 356.792 35.9298 357.549 37.1905 358.068C41.9811 360.031 47.4161 357.044 50.2317 353.104C53.1733 348.967 54.49 343.723 55.1904 338.773C55.9048 333.668 55.8347 328.34 54.7281 323.306C53.9577 321.3 52.9492 319.393 51.5764 317.738Z" fill="#FBCFCF"/>
<path d="M489.359 305.076C478.503 297.504 468.628 302.762 464.691 308.694C462.94 311.344 460.335 316.995 457.926 323.348C457.758 324.764 457.463 326.194 457.365 327.569C457.211 329.7 457.239 331.874 457.688 333.977C459.2 341.044 466.12 345.321 473.124 344.592C476.584 344.228 479.47 342.545 481.767 339.965C482.733 338.871 483.574 337.679 484.386 336.459C486.109 333.626 490.017 327.176 494.766 319.169C495.242 314.065 494.318 308.54 489.373 305.09L489.359 305.076Z" fill="#FBCFCF"/>
<path d="M255.122 193.258C254.534 196.581 254.072 198.797 253.862 199.708C253.778 200.059 253.722 200.452 253.665 200.928L180.839 161.735C180.839 161.735 189.314 149.184 193.558 137.152C196.122 129.875 205.787 100.483 206.263 99.0244C205.899 100.763 198.265 136.984 202.986 147.684C207.804 158.664 233.032 167.877 247.054 182.811C251.074 187.074 253.567 190.523 255.108 193.272L255.122 193.258Z" fill="#DD9D83"/>
<g style="mix-blend-mode:multiply">
<path d="M470.281 251.396C477.186 246.46 490.662 246.797 490.662 246.797C490.662 246.797 486.726 244.483 479.147 244.483C471.569 244.483 465.994 250.078 465.994 250.078C465.994 250.078 466.316 245.465 465.014 237.233C463.697 228.988 452.505 199.035 448.555 192.781C444.618 186.513 442.965 183.554 437.04 178.955C431.129 174.341 409.081 155.242 395.928 151.61C382.76 147.992 365.013 153.924 356.118 144.697C347.251 135.484 333.747 110.116 333.747 110.116C333.747 110.116 335.737 118.362 339.337 128.22C342.965 138.106 354.143 152.914 354.143 152.914C354.143 152.914 350.529 154.569 341.984 159.168C333.425 163.782 318.955 179.249 296.599 193.412C281.947 202.695 272.506 201.924 267.743 200.283C268.135 203.747 268.57 206.271 268.962 207.575C269.634 209.777 270.096 212.848 270.265 216.143C272.842 221.963 276.162 227.95 280.14 231.947C290.324 242.141 382.76 213.843 393.28 245.773C403.8 277.717 374.874 359.681 362.365 382.075C352.196 400.305 291.416 441.027 269.2 455.527C254.38 450.731 228.592 441.742 211.404 432.123C186.078 417.96 107.131 338.282 98.264 311.933C89.5653 286.173 118.673 177.174 136.253 163.543C130.678 167.372 105.828 185.012 93.3193 203.929C79.1856 225.328 68.988 256.936 68.988 256.936C68.988 256.936 63.7211 251.018 58.146 250.022C52.5569 249.041 48.6068 250.345 48.6068 250.345C48.6068 250.345 74.2548 256.276 75.9078 284.252C77.5467 312.242 73.5965 328.143 66.5646 343.863C63.5109 350.678 58.6923 361.742 49.4052 366.594C50.1056 368.347 53.5094 376.662 58.7063 387.292C65.1218 373.535 76.356 349.08 78.205 341.872C80.8245 331.677 81.3848 321.889 81.3848 321.889C81.3848 321.889 96.289 345.504 102.536 355.053C107.565 362.724 114.065 367.632 116.418 369.244C114.933 368.389 111.711 367.029 107.467 368.207C101.556 369.861 100.239 370.843 100.239 370.843C100.239 370.843 111.095 370.506 116.026 371.825C120.957 373.143 124.907 377.097 124.907 377.097C124.907 377.097 137.065 391.246 144.307 400.137C151.535 409.027 157.475 414.959 157.475 414.959C157.475 414.959 151.549 413.318 144.307 417.918C137.079 422.531 134.446 427.145 134.446 427.145C134.446 427.145 147.263 420.554 155.5 419.881C163.722 419.222 165.361 421.199 165.361 421.199C165.361 421.199 172.925 426.472 183.781 431.73C194.637 437.003 202.86 447.211 209.751 455.443C216.671 463.674 219.627 477.164 218.31 486.391C217.007 495.604 214.374 498.24 209.107 499.881C203.84 501.522 193.769 499.306 189.16 497.343C186.372 496.151 172.925 491.972 172.925 491.972C172.925 491.972 174.34 494.216 176.777 497.778C187.311 504.102 201.767 510.679 212.063 507.117C230.147 500.863 220.943 464.319 219.291 461.024C218.534 459.495 218.128 458.682 217.918 458.233C219.473 460.94 227.009 474.331 233.761 486.686C241.325 500.512 242.641 509.739 243.622 518.307C244.602 526.875 245.261 531.152 240.988 543.646C241.213 543.45 241.325 543.324 241.325 543.324C241.325 543.324 242.767 545.876 245.331 548.526C247.208 542.945 249.995 534.405 250.192 532.456C250.528 529.497 252.825 537.07 263.695 540.028C267.323 541.01 270.054 541.417 272.086 541.515C273.234 538.458 273.542 536.088 273.542 536.088C273.542 536.088 273.584 536.06 273.668 536.004C269.41 536.425 262.434 536.312 257.097 532.456C251.872 528.698 250.654 523.79 249.533 518.966C247.838 511.73 249.617 505.448 252.741 499.376C254.618 495.744 256.523 492.112 258.736 488.677C261.44 484.47 266.244 477.963 270.685 472.102L300.843 454.77C300.843 454.77 280.448 489.981 277.493 504.158C274.789 517.031 277.535 526.651 281.037 532.723C284.651 531.629 285.701 530.142 285.953 529.666C283.488 525.613 282.998 520.312 282.759 514.044C282.423 505.476 286.037 494.945 291.963 481.764C297.874 468.596 310.705 451.474 310.705 451.474L323.172 443.93C322.569 444.715 312.96 457.252 311.377 463.001C309.724 468.919 306.432 488.018 321.897 493.613C328.537 496.011 336.563 493.739 343.581 490.36C345.724 487.737 347.377 485.676 348.315 484.498C342.488 486.643 335.695 488.663 330.764 488.663C320.244 488.663 316.294 482.395 316.952 470.223C317.625 458.037 324.18 450.142 335.709 439.274C347.223 428.407 368.599 414.258 368.599 414.258C368.599 414.258 376.485 413.276 382.41 415.239C388.321 417.216 395.563 424.789 395.563 424.789C395.563 424.789 394.905 419.194 390.955 415.562C387.019 411.944 376.149 411.299 376.149 411.299C376.149 411.299 389.316 403.39 398.855 394.822C408.395 386.254 415.314 375.723 415.314 375.723C415.314 375.723 418.27 376.382 424.517 380C430.765 383.632 434.393 390.868 434.393 390.868C434.393 390.868 433.72 383.632 430.429 378.682C427.137 373.746 418.914 371.109 418.914 371.109C418.914 371.109 424.237 364.294 427.865 358.04C431.493 351.786 443.582 329.63 443.582 329.63C443.582 329.63 443.918 360.915 462.324 357.619C469.398 356.357 474.777 352.81 478.699 348.911C480.002 345.882 481.08 343.358 481.865 341.479C478.937 348.07 471.499 351.59 465.952 352.515C456.077 354.156 448.849 340.498 448.19 326.349C447.532 312.185 454.116 297.041 456.749 288.15C459.383 279.26 463.333 256.206 470.252 251.256L470.281 251.396ZM253.525 489.126C251.606 492.267 248.273 500.33 246.886 505.574C244.659 496.628 238.593 480.866 236.114 475.622C232.864 468.821 227.079 456.593 226.911 456.2C227.905 456.677 259.521 471.99 262.084 472.326C264.718 472.663 256.173 484.835 253.525 489.112V489.126Z" fill="#E4E4E4"/>
</g>
<g style="mix-blend-mode:multiply">
<path d="M107.173 191.154C107.173 191.154 76.9163 222.762 77.5747 267.537C78.233 312.312 92.5069 364.645 182.829 424.27C263.303 477.388 270.755 468.61 270.755 468.61C270.755 468.61 375.56 424.27 408.451 380.154C441.341 336.038 459.761 299.158 461.736 260.301C463.711 221.444 387.411 184.578 365.041 189.177C342.67 193.791 227.555 245.815 186.12 219.466C144.686 193.132 107.187 191.154 107.187 191.154" fill="#DD544C"/>
</g>
<path d="M365.335 411.299C381.262 400.01 393.546 388.666 404.767 374.98C393.028 374.685 375.546 374.223 367.758 373.521C368.571 380.547 367.338 398.342 365.335 411.299Z" fill="#FF6854"/>
<path d="M367.758 373.507C365.671 373.325 364.27 373.115 363.878 372.89H358.611C358.611 372.89 327.696 372.231 326.702 369.931C325.707 367.632 337.221 361.378 331.632 347.874C326.043 334.37 316.938 334.706 308.716 341.283C300.493 347.86 298.63 356.54 301.264 361.476C303.897 366.412 316.826 371.25 308.94 374.531C301.53 377.63 272.646 382.748 266.16 378.443C266.118 378.443 266.076 378.471 266.034 378.485C266.034 378.485 266.034 378.485 266.02 378.499C266.398 378.668 266.749 378.836 267.057 379.018C270.124 380.771 267.939 417.876 264.858 419.194C261.776 420.512 252.797 406.461 240.512 409.097C228.227 411.734 226.476 432.81 237.01 438.952C247.53 445.094 260.473 430.833 262.882 435.881C264.605 439.499 264.423 454.181 263.205 463.324C272.044 460.926 305.55 448.291 344.001 425.125C351.817 420.414 358.849 415.856 365.307 411.271C367.31 398.314 368.543 380.519 367.73 373.493L367.758 373.507Z" fill="#FF9C8E"/>
<path d="M439.52 265.237C434.589 265.56 442.265 272.585 443.134 281.588C443.68 287.239 440.178 303.435 421.099 298.163C402.021 292.89 419.783 269.191 419.461 266.555C419.138 263.919 413.325 266.008 403.016 268.196C394.429 270.019 385.828 273.258 379.917 272.501C380.561 273.342 380.911 274.52 380.869 276.091C380.547 288.599 381.64 311.975 377.69 315.607C373.739 319.225 373.571 312.312 361.903 305.398C350.445 298.611 340.807 303.898 337.894 312.648C333.944 324.498 340.527 334.384 352.7 333.388C364.873 332.406 370.125 321.861 372.759 326.138C375.392 330.415 372.437 353.469 370.125 361.364C367.828 369.272 367.828 372.89 363.878 372.89C364.27 373.115 365.671 373.325 367.758 373.507C375.546 374.208 393.042 374.657 404.766 374.966C413.998 363.705 422.514 350.86 431.731 335.141C445.613 311.484 454.354 288.908 458.024 266.149C452.463 267.172 443.414 264.971 439.506 265.237H439.52Z" fill="#F13F3F"/>
<path d="M378.46 272.066C376.527 273.777 373.543 275.095 368.809 276.091C356.314 278.727 342.95 282.401 341.298 278.461C339.645 274.52 347.993 262.769 344.701 252.462C341.704 243.067 329.377 238.972 322.135 247.204C314.893 255.435 317.863 259.46 319.516 267.691C321.155 275.922 322.751 278.068 311.895 280.382C302.16 282.443 284.132 286.131 277.997 284.252C277.703 284.547 277.408 284.827 277.086 285.079C277.394 285.935 277.296 287.071 277.352 288.627C277.535 293.802 277.366 299.397 277.128 304.431C276.806 311.456 276.736 327.709 272.254 323.039C265.432 315.93 254.142 302.636 244.883 316.364C240.386 322.001 240.344 333.192 246.213 337.146C254.114 342.475 266.566 330.373 270.124 335.716C272.884 339.867 271.077 376.564 266.398 378.415C266.328 378.443 266.244 378.471 266.16 378.485C272.646 382.776 301.516 377.658 308.94 374.573C316.84 371.278 303.897 366.454 301.264 361.518C298.63 356.582 300.493 347.902 308.716 341.325C316.938 334.748 326.043 334.412 331.632 347.916C337.221 361.42 325.707 367.674 326.702 369.974C327.696 372.273 358.611 372.932 358.611 372.932H363.878C367.828 372.932 367.828 369.315 370.125 361.406C372.423 353.497 375.392 330.457 372.759 326.18C370.125 321.903 364.859 332.434 352.7 333.43C340.527 334.412 333.958 324.54 337.894 312.69C340.807 303.94 350.445 298.653 361.903 305.441C373.585 312.354 373.739 319.267 377.69 315.649C381.64 312.031 380.533 288.655 380.869 276.133C380.911 274.562 380.561 273.384 379.917 272.543C379.833 272.543 379.749 272.543 379.665 272.515C379.23 272.445 378.824 272.291 378.46 272.108V272.066Z" fill="#BF4134"/>
<path d="M375.714 212.217C372.759 212.539 361.245 198.39 348.413 209.58C335.582 220.771 345.122 239.211 357.953 237.57C370.784 235.929 373.417 224.066 377.031 227.039C380.645 229.998 383.615 252.056 382.62 260.287C382.004 265.405 381.64 269.248 378.446 272.066C378.824 272.262 379.216 272.403 379.651 272.473C379.735 272.473 379.819 272.487 379.903 272.501C385.814 273.258 394.415 270.019 403.002 268.196C413.311 265.994 419.124 263.919 419.447 266.555C419.769 269.191 402.021 292.89 421.085 298.163C440.15 303.435 443.68 287.253 443.12 281.588C442.237 272.585 434.575 265.56 439.506 265.237C443.414 264.971 452.449 267.172 458.024 266.149C460.965 247.933 460.671 229.591 457.155 210.464C449.255 167.442 408.913 151.203 372.521 153.391C370.644 153.503 368.781 153.742 366.932 154.064C368.445 162.253 369.607 175.295 370.77 183.905C372.409 196.09 378.67 211.894 375.7 212.217H375.714Z" fill="#FF6854"/>
<path d="M250.402 217.826C237.571 217.167 236.254 237.247 251.718 242.52C267.183 247.793 272.436 236.588 279.019 238.243C285.603 239.898 284.188 265.237 281.765 276.553C281.051 279.891 279.79 282.457 278.011 284.266C284.146 286.145 302.174 282.471 311.91 280.396C322.765 278.096 321.169 275.936 319.53 267.705C317.891 259.474 314.921 255.449 322.149 247.218C329.377 238.986 341.718 243.067 344.716 252.476C348.007 262.797 339.659 274.52 341.312 278.475C342.965 282.429 356.314 278.741 368.823 276.105C373.543 275.109 376.527 273.777 378.474 272.08C381.668 269.276 382.032 265.419 382.648 260.301C383.629 252.07 380.673 230.012 377.059 227.053C373.445 224.094 370.812 235.943 357.981 237.584C345.15 239.225 335.611 220.799 348.442 209.594C361.273 198.39 372.787 212.553 375.743 212.231C378.698 211.908 372.451 196.09 370.812 183.919C369.649 175.309 368.487 162.267 366.974 154.078C333.033 159.813 304.513 197.324 287.046 205.654C283.614 207.295 280.112 207.828 276.61 207.547C276.232 216.143 274.971 224.669 273.458 227.712C270.503 233.644 263.261 218.499 250.43 217.84L250.402 217.826Z" fill="#FF9C8E"/>
<path d="M262.896 435.895C260.487 430.847 247.544 445.108 237.024 438.966C226.505 432.824 228.255 411.748 240.526 409.111C252.811 406.475 261.79 420.526 264.872 419.208C267.953 417.89 270.138 380.799 267.071 379.032C266.763 378.85 266.412 378.682 266.034 378.514C266.034 378.514 266.034 378.514 266.02 378.514C261.412 380.042 249.785 379.481 245.261 379.481C241.269 379.481 232.682 379.86 230.104 375.975C227.331 371.811 232.78 365.248 233.62 361.027C235.609 351.085 227.345 341.325 216.671 345.223C211.824 346.99 208.575 352.866 207.594 357.535C206.291 363.747 210.2 369.174 209.331 375.05C206.992 377.728 187.255 374.391 182.871 372.666C181.386 372.091 178.486 371.488 175.881 370.703C174.844 375.148 172.883 384.389 172.575 391.779C172.183 400.684 170.782 411.621 171.65 415.295C172.169 415.66 172.687 416.025 173.219 416.389C177.562 415.113 192.55 403.741 201.949 411.986C208.505 417.735 207.916 427.734 203.574 435.404C232.682 452.119 259.339 463.786 261.16 463.786C261.482 463.786 262.196 463.632 263.247 463.352C264.465 454.195 264.647 439.527 262.925 435.909L262.896 435.895Z" fill="#BF4134"/>
<path d="M184.846 186.765C184.411 201.251 183.095 212.665 183.095 212.665C183.095 212.665 173.443 195.544 156.34 201.251C139.237 206.958 143.187 228.034 156.34 230.671C169.493 233.307 178.262 228.469 178.262 228.469C178.262 228.469 178.262 241.202 176.945 252.182C176.091 259.361 174.844 264.269 172.491 267.677C175.615 269.374 178.808 271.028 182.394 271.898C185.322 272.599 188.334 273.595 191.331 274.394C192.746 274.716 194.203 275.039 195.716 275.348C195.828 275.362 195.954 275.39 196.08 275.418C200.66 276.105 205.955 276.596 210.62 276.343C218.114 275.922 214.416 272.697 211.152 268.168C204.456 258.871 205.605 247.035 218.044 243.964C226.14 241.959 239.392 243.67 243.776 251.957C248.399 260.694 242.025 274.099 233.943 278.517L233.06 278.951C242.291 283.383 255.837 283.284 266.398 283.242C269.564 283.242 272.842 282.836 274.719 283.341C276.162 283.733 276.792 284.28 277.072 285.065C277.395 284.813 277.689 284.532 277.983 284.238C279.762 282.429 281.009 279.863 281.737 276.525C284.16 265.223 285.575 239.87 278.991 238.215C272.408 236.56 267.155 247.765 251.69 242.492C236.226 237.219 237.543 217.139 250.374 217.798C263.205 218.457 270.433 233.602 273.402 227.67C274.929 224.627 276.176 216.101 276.554 207.505C261.258 206.299 246.087 189.598 237.879 181.03C230.805 173.64 209.933 157.43 182.983 154.134C183.949 164.104 185.084 178.127 184.818 186.737L184.846 186.765Z" fill="#F13F3F"/>
<path d="M270.138 335.688C266.581 330.345 254.142 342.447 246.227 337.118C240.358 333.164 240.4 321.959 244.897 316.336C254.17 302.608 265.446 315.902 272.268 323.011C276.75 327.681 276.82 311.428 277.142 304.403C277.38 299.369 277.549 293.774 277.366 288.599C277.31 287.043 277.408 285.907 277.1 285.051C276.82 284.266 276.19 283.719 274.747 283.327C272.87 282.822 269.592 283.214 266.426 283.228C255.865 283.27 242.319 283.369 233.088 278.937L233.971 278.503C242.039 274.085 248.427 260.68 243.804 251.943C239.42 243.656 226.168 241.945 218.072 243.95C205.633 247.021 204.484 258.857 211.18 268.154C214.444 272.683 218.142 275.908 210.648 276.329C205.983 276.582 200.688 276.091 196.108 275.404C195.996 275.39 195.87 275.362 195.744 275.334C194.287 275.095 192.83 274.759 191.359 274.38C188.348 273.581 185.336 272.585 182.422 271.884C178.836 271.028 175.657 269.36 172.519 267.663C172.267 268.028 172.001 268.378 171.734 268.701C173.233 269.556 174.816 271.561 175.432 276.091C176.749 285.64 180.349 312.017 178.388 312.312C174.662 312.859 173.037 302.846 159.534 305.721C148.243 308.133 146.156 319.225 149.448 327.779C152.74 336.333 163.596 336.333 168.19 333.374C172.799 330.415 174.116 325.465 177.393 329.756C180.685 334.033 182.66 355.109 178.71 364.981C177.996 366.762 177.141 368.291 176.133 369.637C176.063 369.946 175.979 370.296 175.881 370.689C178.486 371.474 181.386 372.077 182.871 372.652C187.269 374.377 206.992 377.714 209.331 375.036C210.2 369.16 206.291 363.733 207.594 357.521C208.575 352.852 211.824 346.976 216.671 345.209C227.345 341.311 235.609 351.085 233.62 361.013C232.78 365.234 227.331 371.797 230.104 375.961C232.696 379.846 241.269 379.467 245.261 379.467C249.785 379.467 261.412 380.028 266.02 378.499C266.02 378.499 266.048 378.499 266.062 378.499C266.104 378.499 266.146 378.471 266.188 378.457C266.258 378.429 266.356 378.415 266.426 378.387C271.119 376.55 272.912 339.839 270.152 335.688H270.138Z" fill="#FF6854"/>
<path d="M172.561 391.779C172.883 384.389 174.844 375.148 175.867 370.703C175.951 370.31 176.035 369.96 176.119 369.651C171.496 375.751 163.456 377.63 149.434 378.163C140.553 378.499 132.219 376.985 126.251 375.442C132.863 382.187 139.881 388.89 147.137 395.72C154.197 402.366 162.615 408.957 171.65 415.281C170.782 411.607 172.183 400.67 172.575 391.765L172.561 391.779Z" fill="#F13F3F"/>
<path d="M201.949 411.972C192.55 403.741 177.562 415.113 173.219 416.375C182.997 423.134 193.432 429.571 203.574 435.39C207.916 427.706 208.505 417.707 201.949 411.972Z" fill="#F13F3F"/>
<path d="M149.434 378.163C163.456 377.616 171.51 375.751 176.119 369.651C177.127 368.305 177.996 366.776 178.696 364.995C182.646 355.123 180.671 334.047 177.38 329.77C174.088 325.493 172.771 330.429 168.176 333.388C163.568 336.347 152.712 336.347 149.434 327.793C146.142 319.239 148.229 308.147 159.52 305.735C173.023 302.846 174.648 312.873 178.374 312.326C180.321 312.045 176.735 285.654 175.418 276.105C174.788 271.575 173.205 269.584 171.72 268.715C170.628 270.019 169.325 271.085 167.756 271.926C162.055 274.997 143.635 274.997 139.685 273.679C135.735 272.361 151.521 256.122 138.802 245.577C126.083 235.046 116.432 238.986 115.115 246.895C113.799 254.804 115.115 261.381 118.183 265.335C121.251 269.29 127.834 274.548 122.567 275.432C117.3 276.315 104.581 277.184 92.3107 275.432C84.9847 274.38 79.5497 272.711 76.342 271.533C76.2579 274.913 76.2999 278.278 76.5241 281.574C78.9894 319.996 99.2726 347.958 126.251 375.428C132.233 376.971 140.553 378.499 149.434 378.149V378.163Z" fill="#FF9C8E"/>
<path d="M122.567 275.446C127.834 274.562 121.251 269.304 118.183 265.349C115.115 261.395 113.799 254.818 115.115 246.909C116.432 239 126.083 235.06 138.802 245.591C151.521 256.122 135.735 272.375 139.685 273.693C143.635 275.011 162.055 275.011 167.756 271.94C169.325 271.085 170.628 270.033 171.72 268.729C172.001 268.406 172.253 268.056 172.505 267.691C174.858 264.283 176.091 259.361 176.959 252.196C178.276 241.216 178.276 228.483 178.276 228.483C178.276 228.483 169.507 233.307 156.354 230.685C143.201 228.049 139.251 206.972 156.354 201.265C173.457 195.558 183.109 212.679 183.109 212.679C183.109 212.679 184.425 201.265 184.86 186.779C185.126 178.169 183.991 164.146 183.025 154.176C171.524 152.774 158.945 153.699 145.834 158.678C105.002 174.215 77.4906 225.889 76.37 271.561C79.5778 272.739 85.0127 274.408 92.3388 275.46C104.624 277.213 117.329 276.343 122.595 275.46L122.567 275.446Z" fill="#BF4134"/>
<g style="mix-blend-mode:multiply">
<path d="M457.169 210.464C452.855 186.962 438.847 171.466 421.099 162.576C424.419 173.275 426.254 184.466 426.913 195.642C428.103 215.905 425.596 236.364 420.427 255.954C415.51 274.632 408.156 292.862 397.959 309.283C387.299 326.461 373.459 341.437 357.533 353.847C341.059 366.678 322.527 376.845 302.917 383.996C283.446 391.106 262.784 395.271 242.025 395.481C220.453 395.705 198.895 391.05 178.976 382.818C158.847 374.489 140.805 362.065 125.243 346.864C110.353 332.322 95.3784 317.753 82.9676 300.967C81.2727 298.681 79.6058 296.312 77.9949 293.9C83.5559 326.152 102.256 350.987 126.251 375.442C132.863 382.187 139.881 388.89 147.137 395.719C154.197 402.366 162.615 408.957 171.65 415.281C172.169 415.646 172.687 416.011 173.219 416.375C182.997 423.134 193.432 429.571 203.574 435.39C232.682 452.105 259.339 463.772 261.16 463.772C261.482 463.772 262.196 463.618 263.247 463.338C272.086 460.94 305.592 448.305 344.043 425.139C351.859 420.428 358.891 415.87 365.349 411.285C381.276 399.996 393.56 388.652 404.781 374.966C414.012 363.705 422.528 350.86 431.745 335.141C445.627 311.484 454.368 288.908 458.038 266.149C460.979 247.933 460.685 229.591 457.169 210.464Z" fill="#DDCFE8"/>
</g>
<g style="mix-blend-mode:soft-light">
<path d="M213.785 174.033C192.704 162.674 169.269 158.607 147.137 168.662C126.293 178.127 107.117 196.175 99.6648 217.924C96.1068 228.343 87.0438 256.557 107.201 256.122C114.457 255.968 119.822 251.004 125.075 246.489C131.756 240.739 137.822 234.779 145.148 229.787C161.509 218.611 178.766 215.933 198.097 218.681C210.648 220.476 232.234 229.493 237.052 211.544C238.929 204.574 236.072 197.226 231.939 191.505C226.967 184.62 221.518 181.535 213.8 174.033H213.785Z" fill="white"/>
</g>
<g style="mix-blend-mode:soft-light">
<path d="M433.286 199.442C428.972 192.122 423.831 188.56 416.841 180.357C396.894 167.091 373.95 160.879 350.977 168.83C327.612 176.921 308.38 194.155 297.538 216.381C296.053 219.424 295.1 222.902 295.913 226.183C297.173 231.288 302.272 234.233 306.895 235.887C321.841 241.258 336.381 233.125 349.814 227.291C366.792 219.915 385.618 219.621 403.17 225.048C414.264 228.483 431.017 234.723 436.536 219.859C439.043 213.086 436.886 205.514 433.3 199.428L433.286 199.442Z" fill="white"/>
</g>
</g>
<defs>
<clipPath id="clip0_24_22">
<rect width="524" height="554" fill="white" transform="translate(0 0.5)"/>
</clipPath>
</defs>
</svg>
