<svg display="none" xmlns="http://www.w3.org/2000/svg">

  <symbol id="phone" width="100%" viewBox="0 0 20 20">
    <g>
      <path fill-rule="evenodd" clip-rule="evenodd" d="M3.73687 2.04407C2.82911 3.03522 1.98465 4.27319 2.00022 5.95184C2.01635 7.69211 2.9615 10.1817 6.38991 13.6101C9.81831 17.0385 12.3079 17.9837 14.0482 17.9998C15.7268 18.0154 16.9648 17.1709 17.9559 16.2632L14.815 13.1222L13.5652 14.3721C13.2678 14.6694 12.8162 14.749 12.4352 14.5712C10.7898 13.8034 9.33789 12.8528 8.24065 11.7663C6.62927 10.1706 5.76518 8.446 5.40169 7.50095C5.25983 7.1321 5.34849 6.7143 5.62793 6.43486L6.8778 5.185L3.73687 2.04407ZM2.35108 0.59682C3.10565 -0.212928 4.34721 -0.17403 5.08531 0.564071L8.34682 3.82559C9.0976 4.57637 9.0976 5.79362 8.34682 6.5444L7.52269 7.36853C7.90516 8.16634 8.58215 9.28973 9.64793 10.3451C10.415 11.1048 11.4391 11.8235 12.6566 12.4523L13.4556 11.6532C14.2064 10.9024 15.4236 10.9024 16.1744 11.6532L19.4359 14.9147C20.174 15.6528 20.2129 16.8944 19.4032 17.649C18.2746 18.7006 16.5313 20.0229 14.0296 19.9997C11.5419 19.9766 8.57898 18.6276 4.9757 15.0243C1.3724 11.421 0.0233667 8.45811 0.000300954 5.97038C-0.0228945 3.46866 1.29938 1.72542 2.35108 0.59682Z"/>
      <path fill-rule="evenodd" clip-rule="evenodd" d="M3.73687 2.04407C2.82911 3.03522 1.98465 4.27319 2.00022 5.95184C2.01635 7.69211 2.9615 10.1817 6.38991 13.6101C9.81831 17.0385 12.3079 17.9837 14.0482 17.9998C15.7268 18.0154 16.9648 17.1709 17.9559 16.2632L14.815 13.1222L13.5652 14.3721C13.2678 14.6694 12.8162 14.749 12.4352 14.5712C10.7898 13.8034 9.33789 12.8528 8.24065 11.7663C6.62927 10.1706 5.76518 8.446 5.40169 7.50095C5.25983 7.1321 5.34849 6.7143 5.62793 6.43486L6.8778 5.185L3.73687 2.04407ZM2.35108 0.59682C3.10565 -0.212928 4.34721 -0.17403 5.08531 0.564071L8.34682 3.82559C9.0976 4.57637 9.0976 5.79362 8.34682 6.5444L7.52269 7.36853C7.90516 8.16634 8.58215 9.28973 9.64793 10.3451C10.415 11.1048 11.4391 11.8235 12.6566 12.4523L13.4556 11.6532C14.2064 10.9024 15.4236 10.9024 16.1744 11.6532L19.4359 14.9147C20.174 15.6528 20.2129 16.8944 19.4032 17.649C18.2746 18.7006 16.5313 20.0229 14.0296 19.9997C11.5419 19.9766 8.57898 18.6276 4.9757 15.0243C1.3724 11.421 0.0233667 8.45811 0.000300954 5.97038C-0.0228945 3.46866 1.29938 1.72542 2.35108 0.59682Z"/>
      <path fill-rule="evenodd" clip-rule="evenodd" d="M3.73687 2.04407C2.82911 3.03522 1.98465 4.27319 2.00022 5.95184C2.01635 7.69211 2.9615 10.1817 6.38991 13.6101C9.81831 17.0385 12.3079 17.9837 14.0482 17.9998C15.7268 18.0154 16.9648 17.1709 17.9559 16.2632L14.815 13.1222L13.5652 14.3721C13.2678 14.6694 12.8162 14.749 12.4352 14.5712C10.7898 13.8034 9.33789 12.8528 8.24065 11.7663C6.62927 10.1706 5.76518 8.446 5.40169 7.50095C5.25983 7.1321 5.34849 6.7143 5.62793 6.43486L6.8778 5.185L3.73687 2.04407ZM2.35108 0.59682C3.10565 -0.212928 4.34721 -0.17403 5.08531 0.564071L8.34682 3.82559C9.0976 4.57637 9.0976 5.79362 8.34682 6.5444L7.52269 7.36853C7.90516 8.16634 8.58215 9.28973 9.64793 10.3451C10.415 11.1048 11.4391 11.8235 12.6566 12.4523L13.4556 11.6532C14.2064 10.9024 15.4236 10.9024 16.1744 11.6532L19.4359 14.9147C20.174 15.6528 20.2129 16.8944 19.4032 17.649C18.2746 18.7006 16.5313 20.0229 14.0296 19.9997C11.5419 19.9766 8.57898 18.6276 4.9757 15.0243C1.3724 11.421 0.0233667 8.45811 0.000300954 5.97038C-0.0228945 3.46866 1.29938 1.72542 2.35108 0.59682Z"/>
    </g>
  </symbol>

  <!-- next sprite - copy symbol -->
  
</svg>



