<svg width="882" height="690" fill="none" xmlns="http://www.w3.org/2000/svg"><path d="M624.35 567.404c88.881.494 227.532 8.545 228.727-135.587.45-54.639-31.777-79.09-52.381-134.715-33.865-91.452 52.389-209.45-31.694-258.366C698.165-2.456 643.803 93.375 510.66 92.449c-171.571-1.2-179.058-110.378-276.699-64.307-66.016 31.114 11.372 74.711-90.771 109.278C38.039 172.965 41.215 202.258 35.183 243.123 27.9 292.45 73.267 312.355 88.874 379.606c3.679 15.845-5.774 51.163-6.147 66.644-1.843 75.713 35.266 129.213 106.538 129.616l435.085-8.462z" fill="#D6E9FF"/><path d="M261.694 45.057a.375.375 0 01-.343-.227.378.378 0 01.206-.486s.967-.402 2.757-1.108a.374.374 0 01.494.495.366.366 0 01-.22.196c-1.782.698-2.749 1.1-2.749 1.1a.317.317 0 01-.145.03zm132.1 2.649a12.13 12.13 0 01-2.438-.235.38.38 0 01-.289-.44.365.365 0 01.161-.236.374.374 0 01.281-.053c.751.154 1.517.23 2.285.228a14.32 14.32 0 003.427-.433.377.377 0 01.45.273.355.355 0 01-.042.282.369.369 0 01-.233.166c-1.178.29-2.388.441-3.602.448zm161.79-.372c-1.957 0-3.961-.084-5.949-.182a.368.368 0 01-.259-.12.378.378 0 01-.099-.267.368.368 0 01.251-.332.37.37 0 01.146-.017c1.98.098 3.968.16 5.918.182a.38.38 0 110 .759l-.008-.023zm5.941-.06a.382.382 0 01-.38-.38.38.38 0 01.38-.38c1.988-.06 3.976-.174 5.911-.318a.383.383 0 01.411.349.37.37 0 01-.09.277.375.375 0 01-.26.133c-1.95.151-3.953.258-5.949.326l-.023-.008zm-17.793-.532h-.038a178.563 178.563 0 01-5.918-.63.38.38 0 01-.32-.417.372.372 0 01.419-.319c1.957.243 3.938.455 5.888.63a.37.37 0 01.253.13.364.364 0 01.082.272.364.364 0 01-.366.35v-.016zm29.622-.395a.373.373 0 01-.291-.598.359.359 0 01.246-.138c1.98-.25 3.953-.554 5.85-.903a.382.382 0 01.391.175.376.376 0 01.05.29.38.38 0 01-.312.294c-1.904.35-3.892.653-5.88.91l-.054-.03zm-41.405-1.062h-.061a179.13 179.13 0 01-5.857-1.04.382.382 0 01-.29-.44.36.36 0 01.157-.235.359.359 0 01.277-.053c1.935.38 3.9.759 5.835 1.04a.38.38 0 11-.061.758v-.03zm-129.228-.326a.376.376 0 01-.353-.269.37.37 0 01.155-.414 15.283 15.283 0 004.219-3.878.384.384 0 01.526-.084.38.38 0 01.145.242.376.376 0 01-.061.274 16.236 16.236 0 01-4.418 4.068.383.383 0 01-.213.06zm-16.369-.387a.362.362 0 01-.282-.13 10.502 10.502 0 01-1.896-3.437 21.917 21.917 0 01-.595-2.057.372.372 0 01.724-.175c.152.654.343 1.321.571 1.997a9.743 9.743 0 001.76 3.195.373.373 0 01-.038.523.413.413 0 01-.244.084zm198.679-.35a.357.357 0 01-.358-.28.367.367 0 01.267-.448 83.719 83.719 0 005.69-1.594.37.37 0 01.401.115.368.368 0 01.044.41.37.37 0 01-.217.181 93.262 93.262 0 01-5.735 1.609l-.092.008zm-64.743-1.221h-.054c-1.919-.44-3.862-.918-5.773-1.427a.372.372 0 01-.089-.677.369.369 0 01.279-.036c1.904.5 3.808.979 5.751 1.419a.384.384 0 01.339.421.382.382 0 01-.423.338l-.03-.038zM269.989 41.84a.364.364 0 01-.343-.243.358.358 0 01.213-.47 463.654 463.654 0 015.583-2.057.374.374 0 01.473.22.366.366 0 01-.183.455c-2.057.76-3.923 1.427-5.568 2.05a.435.435 0 01-.175.045zm326.33-1.245a.373.373 0 01-.342-.227.378.378 0 01.205-.486 56.91 56.91 0 005.332-2.497.375.375 0 01.503.152.377.377 0 01-.152.5 60.526 60.526 0 01-5.408 2.535.448.448 0 01-.138.023zm-87.51-.622h-.107a181.83 181.83 0 01-5.674-1.791.37.37 0 01-.051-.681.367.367 0 01.287-.017c1.873.614 3.808 1.214 5.652 1.776a.383.383 0 11-.107.758v-.045zM281.17 37.81a.386.386 0 01-.442-.319.384.384 0 01.32-.44 761.378 761.378 0 015.629-1.912.383.383 0 01.472.235.356.356 0 01-.017.286.37.37 0 01-.219.185c-1.957.652-3.808 1.29-5.621 1.904a.344.344 0 01-.122.061zm216.389-1.578a.394.394 0 01-.13 0 212.774 212.774 0 01-5.552-2.118.373.373 0 01-.234-.342.37.37 0 01.028-.143.356.356 0 01.338-.232c.049 0 .097.008.142.027 1.828.759 3.686 1.442 5.537 2.117a.372.372 0 01.221.47.373.373 0 01-.35.22zm-88.532-.736a.372.372 0 01-.373-.372 8.329 8.329 0 00-1.988-5.191.378.378 0 01.061-.524.382.382 0 01.276-.078.379.379 0 01.25.14 9.089 9.089 0 012.148 5.653.372.372 0 01-.374.372zm197.75-.517a.39.39 0 01-.304-.151.371.371 0 01.084-.516 33.466 33.466 0 004.486-3.795.374.374 0 01.611.27.37.37 0 01-.086.254 34.71 34.71 0 01-4.57 3.848.359.359 0 01-.251.09h.03zm-314.334-.918a.368.368 0 01-.327-.537.374.374 0 01.213-.184 479.121 479.121 0 015.682-1.768.367.367 0 01.465.243.38.38 0 01-.252.463 471.41 471.41 0 00-5.667 1.768l-.114.015zm91.083-.698h-.046a.374.374 0 01-.327-.41c.227-2.015.879-3.96 1.912-5.706a.372.372 0 11.64.372 13.616 13.616 0 00-1.813 5.418.373.373 0 01-.366.326zm102.988-1.518a.437.437 0 01-.137 0 212.353 212.353 0 00-5.522-2.162.38.38 0 01-.213-.479.372.372 0 01.479-.212c1.821.69 3.687 1.42 5.538 2.163a.38.38 0 01.204.2.367.367 0 01.002.285.38.38 0 01-.351.236v-.03zM303.808 30.64a.366.366 0 01-.351-.266.368.368 0 01-.016-.143.37.37 0 01.137-.248.358.358 0 01.131-.064 466.733 466.733 0 015.72-1.616.373.373 0 01.397.533.375.375 0 01-.199.18 447.192 447.192 0 00-5.713 1.609.243.243 0 01-.106.015zm171.616-2.937a.394.394 0 01-.13 0 243.219 243.219 0 00-5.606-1.92.375.375 0 01-.236-.47.382.382 0 01.072-.127.387.387 0 01.256-.127.376.376 0 01.145.018c1.851.615 3.739 1.26 5.621 1.928a.381.381 0 01.228.478.37.37 0 01-.35.182v.038zm-160.153-.205a.38.38 0 01-.347-.616.385.385 0 01.256-.143c1.896-.493 3.808-.971 5.766-1.442a.39.39 0 01.314.697.393.393 0 01-.139.062c-1.935.47-3.862.949-5.759 1.442h-.091zm87.175-1.214a.386.386 0 01-.198-.06 29.22 29.22 0 00-2.81-1.519A28.437 28.437 0 00397 23.62a.364.364 0 01-.16-.569.363.363 0 01.198-.201.36.36 0 01.282.004 40.25 40.25 0 012.483 1.1c.986.475 1.947 1 2.88 1.571a.386.386 0 01.114.516.382.382 0 01-.351.205v.038zm-75.628-1.563a.382.382 0 01-.334-.621.382.382 0 01.258-.138c1.965-.433 3.923-.85 5.812-1.23a.388.388 0 01.152.76c-1.889.386-3.846.758-5.804 1.229h-.084zm137.333-.76a.245.245 0 01-.107 0 235.756 235.756 0 00-5.689-1.654.398.398 0 11.182-.774c1.874.524 3.809 1.078 5.705 1.662a.384.384 0 01.179.686.387.387 0 01-.285.073l.015.008zm-74.874-.553a.376.376 0 01-.352-.247.368.368 0 01.116-.413 25.9 25.9 0 011.668-1.222 74.527 74.527 0 00-5.05-1.078.366.366 0 01-.297-.425.352.352 0 01.28-.303.359.359 0 01.146 0c2.011.349 3.953.758 5.774 1.267a26.83 26.83 0 012.59-1.381.374.374 0 01.484.456.374.374 0 01-.164.212 24.154 24.154 0 00-4.959 3.035.389.389 0 01-.236.076v.023zm-50.812-1.04a.383.383 0 01-.412-.349.383.383 0 01.351-.41c1.988-.357 3.96-.683 5.872-.979a.39.39 0 01.427.311.38.38 0 01-.175.375.375.375 0 01-.138.05c-1.904.289-3.877.623-5.857.972l-.068.03zm114.253-1.563h-.091a179.064 179.064 0 00-5.774-1.336.372.372 0 01-.282-.44.369.369 0 01.295-.292.367.367 0 01.147.004c1.904.41 3.854.865 5.796 1.343a.385.385 0 01.336.425.385.385 0 01-.427.334v-.038zm-102.501-.258a.382.382 0 01-.045-.759 178.31 178.31 0 015.91-.66.388.388 0 01.412.334.372.372 0 01-.335.402c-1.912.182-3.9.402-5.896.652l-.046.03zm29.623-.896a101.464 101.464 0 00-5.904-.387.382.382 0 01-.38-.38.38.38 0 01.38-.379c2.042.069 4.045.198 5.949.38a.383.383 0 01.362.398.38.38 0 01-.4.36l-.007.008zm-17.794-.212a.375.375 0 01-.373-.35.372.372 0 01.351-.394 148.55 148.55 0 015.948-.22.365.365 0 01.381.364.38.38 0 01-.365.38c-1.912 0-3.908.098-5.926.22h-.016zm79.056-1.146h-.084a147.39 147.39 0 00-5.842-.941.386.386 0 01-.321-.28.374.374 0 01.038-.29.383.383 0 01.382-.189c1.92.273 3.893.592 5.881.949a.384.384 0 01.33.265.37.37 0 01-.026.29.376.376 0 01-.373.203l.015-.007zm-41.215-.053a.386.386 0 01-.43-.33.382.382 0 01.331-.43 51.38 51.38 0 015.819-1.259.386.386 0 01.374.605.387.387 0 01-.252.154 51.497 51.497 0 00-5.75 1.267l-.092-.007zm29.478-1.609a110.194 110.194 0 00-5.903-.448.381.381 0 01-.233-.653.369.369 0 01.271-.09c1.919.098 3.922.25 5.941.455a.38.38 0 11-.038.759l-.038-.023zm-17.786-.357a.38.38 0 110-.758 88.108 88.108 0 015.957-.228.382.382 0 01.38.38.38.38 0 01-.38.379c-2.034 0-4.022.09-5.911.235l-.046-.008zM614.95 26.473a.434.434 0 01-.19-.046.37.37 0 01-.13-.508c.495-.836.923-1.709 1.28-2.61a.372.372 0 01.477-.192c.088.035.16.103.201.19a.37.37 0 01.015.274 18.877 18.877 0 01-1.333 2.71.36.36 0 01-.32.182z" fill="#3A67B3"/><path d="M773.611 666.411a4.448 4.448 0 001.71-1.692 4.418 4.418 0 00.575-2.33 6.757 6.757 0 00-1.904-4.387 14.566 14.566 0 00-3.945-2.853 18.592 18.592 0 00-7.701-2.39 77.766 77.766 0 019.521-7.134l.922-.569 4.06 7.445a14.797 14.797 0 003.29 4.553c1.462 1.206 3.58 1.806 5.286.979a4.47 4.47 0 002.285-4.022 6.723 6.723 0 00-1.904-4.386 14.587 14.587 0 00-3.953-2.854 18.189 18.189 0 00-7.952-2.405 79.46 79.46 0 0111.89-5.768l4.402 7.384a14.98 14.98 0 003.466 4.424c1.523 1.146 3.648 1.662 5.332.759a4.458 4.458 0 001.656-1.752c.38-.724.553-1.538.499-2.353a6.726 6.726 0 00-2.071-4.311 14.4 14.4 0 00-4.06-2.701 18.598 18.598 0 00-7.518-2.095 76.959 76.959 0 019.186-2.686 67.767 67.767 0 012.78-.569l4.776 7.444a14.782 14.782 0 003.61 4.31c1.524 1.101 3.702 1.518 5.332.6a4.443 4.443 0 001.6-1.803 4.42 4.42 0 00.419-2.371 6.705 6.705 0 00-2.209-4.234 14.575 14.575 0 00-4.144-2.573 19.778 19.778 0 00-6.748-1.821 74.858 74.858 0 019.574-.82l7.571 4.182a15.014 15.014 0 005.241 2.079c1.873.228 3.991-.402 4.981-2.004a4.43 4.43 0 00-.221-4.629 6.775 6.775 0 00-3.976-2.678 14.584 14.584 0 00-4.875-.296c-3.046.227-6.093.895-8.561 2.58-3.416.064-6.824.36-10.199.888a19.3 19.3 0 005.499-4.834 14.434 14.434 0 002.537-4.151 6.679 6.679 0 00.053-4.781 4.462 4.462 0 00-3.687-2.816c-1.889-.106-3.618 1.268-4.494 2.937a14.534 14.534 0 00-1.272 5.464l-.853 8.583a78.598 78.598 0 00-12.088 3.271 18.638 18.638 0 004.411-6.292 14.472 14.472 0 001.424-4.651 6.739 6.739 0 00-1.135-4.645 4.474 4.474 0 00-4.281-1.813c-1.858.364-3.191 2.117-3.625 3.946a14.836 14.836 0 00.129 5.615c.437 2.839.868 5.674 1.295 8.507l-.366.137a79.942 79.942 0 00-11.593 5.676 17.743 17.743 0 003.611-7.763c.419-1.578.569-3.214.442-4.842a6.714 6.714 0 00-2.057-4.31 4.47 4.47 0 00-4.57-.918c-1.744.759-2.689 2.717-2.742 4.599a14.674 14.674 0 001.272 5.471c1.015 2.767 2.046 5.55 3.092 8.348l-.152.091h-.076v.06a78.042 78.042 0 00-10.138 7.407c.728-2.502.943-5.124.632-7.71a14.963 14.963 0 00-1.135-4.827 6.897 6.897 0 00-3.382-3.513 4.585 4.585 0 00-4.699.569c-1.455 1.267-1.73 3.483-1.173 5.312a15.22 15.22 0 002.993 4.88l5.134 6.389c.045.069.084.145.122.213a75.397 75.397 0 00-9.331 10.192c-.29.387.259.918.556.523a74.726 74.726 0 019.14-10.017l3.809 7.065a14.785 14.785 0 003.29 4.553c1.562 1.161 3.679 1.761 5.385.934z" fill="#8EB2DB"/><path d="M799.454 589.727a20.537 20.537 0 01-5.986 2.231s-8.15 2.664-15.866 2.839a30.901 30.901 0 01-11.715-1.609l-1.524-.607a11.729 11.729 0 01-1.416-.714c-.351-.189-.709-.379-1.044-.584a6.023 6.023 0 01-.533-.311 29.139 29.139 0 01-10.841-11.815 28.997 28.997 0 01-2.93-15.74c.563-5.365 2.894-12.544 6.322-12.643a4.046 4.046 0 002.049-.091c1.561-.629 1.782-2.618 2.285-5.228.99-4.827 1.447-7.247 2.81-8.348.617-.531 2.384-1.131 5.873-2.345 2.422-.842 2.59-.797 2.963-1.168 1.767-1.913-1.059-4.971-.434-9.243.503-3.279 2.917-6.618 6.093-7.506 1.882-.485 2.575.243 6.216-.265 2.567-.365 3.892-.577 4.989-1.29 4.242-2.785.533-10.549 4.242-12.529 1.828-.979 4.677-.137 7.404.667 2.727.805 3.298 1.647 4.456 1.867 6.611 1.336 12.659-20.155 15.675-19.26 2.286.691 4.312 15.178 1.829 24.565-.412 1.449-1.288 4.265.083 7.179 1.524 3.377 4.57 3.498 5.104 5.942.251 1.237-.297 2.079-5.766 9.524-1.76 2.367-2.986 3.999-2.285 5.259.7 1.259 2.665 1.153 3.564 2.921.322.627.434 1.339.32 2.034-.259 3.741-3.907 7.642-5.743 9.516-3.641 3.757-5.812 5.358-5.263 6.42.548 1.063 3.046.198 4.486 1.844 1.021 1.184.945 2.952.648 4.06-.427 1.571-1.661 2.368-5.546 4.379-3.884 2.011-4.669 2.277-6.74 3.423-3.596 1.973-6.856 3.794-6.452 5.433.373 1.518 3.268 1.343 4.783 3.893a4.987 4.987 0 01.624 4.149 4.992 4.992 0 01-2.772 3.159l.038-.008z" fill="#3A67B3"/><path d="M790.634 583.505c-1.79 2.011-4.837 1.1-7.16.888a39.497 39.497 0 00-6.642-.076 40.51 40.51 0 00-12.271 2.868v-.038c2.491-4.219 4.639-8.666 6.856-12.992a104.585 104.585 0 017.495-13.014 64.633 64.633 0 018.241-9.274c4.631-.546 9.14.759 13.779.615 4.045-.121 8.508-1.966 9.628-6.215.099-.38-.503-.486-.602-.106-1.18 4.492-6.253 5.843-10.351 5.714-3.938-.122-7.815-.987-11.761-.676l1.059-1.009c2.902-2.755 5.774-5.578 7.884-8.985a66.183 66.183 0 003.899-7.331 21.488 21.488 0 0011.593-5.949c.267-.281-.198-.676-.464-.395a20.714 20.714 0 01-10.801 5.661l.175-.387a188.065 188.065 0 007.373-18.471c.183-.554.374-1.108.541-1.661.122-.365-.426-.623-.541-.259a180.997 180.997 0 01-6.748 17.538c-1.341 3.036-2.758 6.071-4.38 8.962a28.225 28.225 0 01-1.173 1.935c-1.615-1.624-1.523-4.037-1.523-6.154a18.961 18.961 0 00-1.871-8.049 19.019 19.019 0 00-5.122-6.499c-.304-.242-.7.22-.396.463a18.643 18.643 0 016.216 9.706c.42 1.937.615 3.916.579 5.897.038 1.874.358 3.794 1.759 5.145a37.346 37.346 0 01-4.502 5.532c-3.45 3.521-7.274 6.671-10.435 10.48a72.54 72.54 0 00-7.853 12.081l-.571 1.101c-2.437-4.554-4.966-9.433-4.882-14.76.017-1.235.196-2.462.533-3.651a20.24 20.24 0 00.914-3.468c.228-2.231-.929-4.181-2.08-6.002-.213-.327-.716 0-.51.341a14.784 14.784 0 011.721 3.279 6.116 6.116 0 010 3.604c-.319 1.199-.761 2.345-.982 3.567a15.374 15.374 0 00-.198 3.347c.228 5.122 2.666 9.751 5.027 14.183a.23.23 0 00.16.121c-2.864 5.487-5.469 11.156-8.668 16.445v.046a.238.238 0 00-.084.136 56.425 56.425 0 01-2.079 3.21c.172.113.35.217.533.311.762-1.062 1.432-2.155 2.102-3.255a40.026 40.026 0 0113.794-3.157 41.184 41.184 0 017.236.326c2.095.273 4.456.44 5.995-1.29.244-.273-.213-.668-.442-.379z" fill="#fff"/><path d="M89.688 533.484c-1.173-1.48-.503-3.795.99-4.971 1.493-1.176 3.52-1.366 5.408-1.26 2.96.244 5.87.9 8.645 1.951a130.502 130.502 0 01-9.734-10.23 21.606 21.606 0 01-11.76 4.455c-1.615.098-3.45-.084-4.449-1.343-1.165-1.518-.495-3.795.99-4.971 1.486-1.176 3.504-1.374 5.393-1.267 3.053.255 6.054.943 8.912 2.041a110.073 110.073 0 01-10.024-14.092 21.702 21.702 0 01-12.187 2.451c-1.607-.152-3.39-.622-4.174-2.034-.914-1.639.122-3.847 1.775-4.75s3.671-.797 5.514-.395a31.515 31.515 0 018.196 3.271c-3.047-5.274-5.682-11.019-6.55-17.052l-.046-.38a21.689 21.689 0 01-12.522.759c-1.57-.379-3.268-1.1-3.809-2.603-.67-1.76.67-3.794 2.438-4.454 1.767-.66 3.747-.266 5.514.394a33.271 33.271 0 018.272 4.865c-.815-6.989-.342-14.168-1.394-21.12a21.608 21.608 0 01-12.72.82c-1.569-.372-3.275-1.093-3.808-2.603-.67-1.753.67-3.794 2.437-4.447s3.755-.266 5.515.395c3.199 1.183 5.789 3.035 8.493 5.023a37.302 37.302 0 00-1.242-5.152 28.583 28.583 0 00-5.263-9.41 21.587 21.587 0 01-12.317 4.234c-1.614 0-3.442-.22-4.387-1.518-1.097-1.517-.328-3.794 1.203-4.925 1.531-1.13 3.557-1.222 5.431-1.039 3.443.334 6.452 1.464 9.628 2.732a37.435 37.435 0 00-14.266-10.093 21.628 21.628 0 01-11.525 2.807c-1.607-.068-3.42-.44-4.28-1.806-.998-1.593-.084-3.847 1.523-4.834 1.607-.986 3.633-.994 5.492-.69a31.218 31.218 0 018.234 2.77.76.76 0 01.35.045 39.085 39.085 0 0112.43 7.665c.762.721 1.577 1.479 2.286 2.276a21.414 21.414 0 01-1.173-11.474c.274-1.586.883-3.324 2.353-3.992 1.714-.758 3.809.418 4.616 2.133.808 1.715.51 3.711 0 5.509-1.013 3.355-2.75 6.117-4.654 9.031a28.724 28.724 0 013.885 5.578 32.608 32.608 0 013.1 9.584 21.434 21.434 0 014.235-11.079c.975-1.283 2.285-2.55 3.93-2.474 1.882.083 3.222 2.117 3.13 3.991-.09 1.875-1.248 3.537-2.55 4.895-2.507 2.588-5.409 4.273-8.524 6.071.762 5.487.693 11.171 1.013 16.642.099 1.73.244 3.438.487 5.123a21.469 21.469 0 014.281-12.142c.975-1.283 2.285-2.55 3.923-2.482 1.881.084 3.23 2.117 3.138 3.992-.091 1.874-1.242 3.536-2.552 4.894-2.551 2.657-5.522 4.356-8.721 6.193a34.43 34.43 0 001.226 5.312 58.377 58.377 0 004.03 9.289c.419.758.86 1.578 1.302 2.352a21.477 21.477 0 012.49-11.383c.763-1.412 1.89-2.876 3.497-3.035 1.874-.205 3.511 1.601 3.71 3.468.198 1.866-.686 3.688-1.768 5.221-1.995 2.845-4.486 4.902-7.182 7.057a106.714 106.714 0 009.787 13.743 21.43 21.43 0 01-.274-12.142c.434-1.517 1.204-3.225 2.735-3.749 1.782-.607 3.808.759 4.387 2.565.579 1.807.152 3.742-.556 5.48-1.356 3.301-3.397 5.911-5.614 8.689l1.463 1.692a122.167 122.167 0 008.569 8.848 21.366 21.366 0 01-.176-11.861c.427-1.555 1.204-3.225 2.727-3.749 1.783-.614 3.809.759 4.395 2.558.587 1.798.153 3.749-.563 5.486-1.31 3.21-3.276 5.768-5.424 8.454a95.449 95.449 0 0011.03 8.682c.807.546-.092 1.76-.899 1.222a96.114 96.114 0 01-11.136-8.811 21.727 21.727 0 01-11.814 4.432c-1.622.129-3.473-.061-4.471-1.328z" fill="#8EB2DB"/><path d="M69.855 689.494c4.105.076 10.412-.371 20.215-4.507 6.01-2.565 14.35-6.071 22.614-14.001.358-.35.991-.941 1.76-1.784a.468.468 0 00.122-.121c.084-.069.152-.144.236-.22.267-.273.548-.577.861-.865 5.781-6.276 16.932-20.399 14.114-35.326-.145-.865-2.285-11.709-8.059-12.696-7.228-1.153-15.036 13.812-18.006 12.317-1.524-.759.045-4.66.198-9.706.457-11.338-5.957-25.673-15.874-27.456a15.069 15.069 0 00-7.523.78 15.02 15.02 0 00-6.187 4.334c-5.576 6.519-.389 17.925-1.379 18.213-1.462.41-4.745-23.714-18.06-27.736-4.676-1.397-10.983-.425-13.481 3.035-3.657 5.062 2.544 13.379.144 15.178-2.544 1.889-8.972-7.627-21.57-9.699-3.223-.493-10.74-1.707-15.638 2.838-4.281 3.901-5.462 10.784-3.245 15.899 2.072 4.705 6.52 6.701 7.754 7.209 7.967 3.438 13.108-1.707 27.291-.554 4.951.387 10.36 1.518 10.496 3.172 0 1.237-2.97 1.647-6.093 4.819a1.74 1.74 0 00-.297.296c-.945.979-4.296 4.47-4.22 8.985 0 .19.168 5.084 3.435 6.83a6.604 6.604 0 004.28.448c7.93-1.336 18.152-.592 18.41.69.328 1.457-12.468 3.491-13.108 8.454-.518 4.128 7.617 7.945 8.676 8.431 8.797 4.037 18.105 2.125 18.15 2.846.047.721-7.662.258-13.77 5.137-2.857 2.277-6.901 6.83-5.728 10.238 1.37 4.189 9.894 4.431 13.482 4.522z" fill="#3A67B3"/><path d="M67.493 661.446c.252-1.752 2.057-2.595 3.634-2.898a16.455 16.455 0 016.002.083c4.15.713 8.21 2.436 12.491 2.224a10.313 10.313 0 005.995-2.095c-5.07-4.286-9.85-8.9-14.312-13.811-1.699-1.799-3.39-3.613-5.111-5.411-6.467-1.654-12.637 2.679-19.134 2.094a9.738 9.738 0 01-4.806-1.684c-.244-.167.046-.516.282-.349 2.727 1.912 6.215 1.851 9.369 1.29 3.153-.562 6.093-1.677 9.285-2.057a14.338 14.338 0 014.448.129c-4.646-4.834-9.483-9.509-14.998-13.371-6.68-4.667-14.419-8.204-22.645-8.758a32.285 32.285 0 00-3.092-.06c-.29 0-.343-.448-.054-.456 7.983-.197 15.699 2.512 22.462 6.58a54.152 54.152 0 013.367 2.193.226.226 0 010-.159c1.524-3.742-1.05-7.377-3.397-10.101a35.553 35.553 0 01-3.656-4.622c-.853-1.396-1.57-3.035-1.234-4.697.061-.281.51-.22.45.068-.397 1.951.761 3.871 1.835 5.396 1.188 1.662 2.636 3.111 3.908 4.705 2.094 2.618 3.854 6.071 2.513 9.433a.188.188 0 01-.092.1.195.195 0 01-.136.014c6.185 4.325 11.57 9.69 16.757 15.177 2.871 3.035 5.713 6.071 8.637 9.106a19.869 19.869 0 004.472-13.894 18.685 18.685 0 00-2.286-7.506c-1.363-2.58-2.985-5.077-3.717-7.93-.73-2.853-.441-6.071 1.691-8.219.198-.204.556.076.35.281-2.147 2.178-2.284 5.441-1.523 8.242.762 2.8 2.537 5.365 3.877 8.013a18.012 18.012 0 012.064 7.232 20.423 20.423 0 01-.853 7.081 19.332 19.332 0 01-3.755 7.027 105.962 105.962 0 0011.327 10.199 59.524 59.524 0 008.98 5.707c-1.462-7.194 3.9-13.44 5.179-20.232a12.545 12.545 0 00-.198-5.972c-.083-.281.343-.448.427-.167 2.171 7.156-3.138 13.66-4.738 20.33a13.753 13.753 0 00-.19 6.124.18.18 0 010 .137 43.245 43.245 0 007.48 2.944c-.084.076-.153.152-.237.22a.468.468 0 01-.121.122 48.056 48.056 0 01-12.484-5.798 68.972 68.972 0 01-5.98-4.348c-2.84 2.352-6.733 2.565-10.23 1.988-4.06-.676-7.974-2.277-12.133-2.277-1.92 0-5.332.342-5.675 2.755a.256.256 0 01-.308.186.255.255 0 01-.187-.308z" fill="#fff"/><path d="M159.003 88.002h-4.144a53.883 53.883 0 00-5.789-15.048l3.436-3.423a13.076 13.076 0 003.85-9.262c0-3.474-1.385-6.806-3.85-9.262a13.174 13.174 0 00-9.297-3.837 13.17 13.17 0 00-9.296 3.837l-2.902 2.93a53.917 53.917 0 00-14.792-6.603v-4.811c0-1.72-.34-3.424-1.001-5.013a13.097 13.097 0 00-2.85-4.25 13.154 13.154 0 00-4.265-2.838 13.191 13.191 0 00-10.062 0 13.153 13.153 0 00-4.265 2.839 13.093 13.093 0 00-2.85 4.25c-.66 1.588-1 3.292-1 5.012v4.128a54.253 54.253 0 00-15.105 5.767l-3.435-3.422a13.175 13.175 0 00-9.298-3.84 13.174 13.174 0 00-9.3 3.836 13.076 13.076 0 00-3.852 9.263 13.075 13.075 0 003.85 9.265l2.932 2.922a53.425 53.425 0 00-6.589 14.714h-4.86a13.178 13.178 0 00-9.096 3.947 13.08 13.08 0 00-3.742 9.155 13.08 13.08 0 003.742 9.155 13.177 13.177 0 009.096 3.947h4.144a53.67 53.67 0 005.789 15.048l-3.435 3.423a13.073 13.073 0 00-3.851 9.262c0 3.474 1.385 6.806 3.85 9.262a13.173 13.173 0 009.297 3.836c3.487 0 6.83-1.38 9.296-3.836l2.925-2.914a54.685 54.685 0 0014.777 6.572v4.826c0 3.474 1.385 6.806 3.85 9.262a13.173 13.173 0 009.297 3.836c3.487 0 6.831-1.38 9.296-3.836a13.071 13.071 0 003.851-9.262v-4.128a54.261 54.261 0 0015.104-5.767l3.435 3.422a13.175 13.175 0 009.297 3.836c3.486 0 6.831-1.38 9.296-3.836a13.071 13.071 0 003.851-9.262c0-3.474-1.385-6.806-3.851-9.262l-2.925-2.914a54.532 54.532 0 006.596-14.722h4.845a13.18 13.18 0 009.096-3.947 13.08 13.08 0 003.742-9.155 13.08 13.08 0 00-3.742-9.155 13.177 13.177 0 00-9.096-3.947zm-18.22 11.694a38.902 38.902 0 01-6.594 21.673 39.118 39.118 0 01-17.569 14.369 39.283 39.283 0 01-22.621 2.223 39.193 39.193 0 01-20.048-10.673 38.962 38.962 0 01-10.717-19.972 38.871 38.871 0 012.227-22.538 39.038 39.038 0 0114.42-17.506 39.255 39.255 0 0121.751-6.574 39.23 39.23 0 0127.679 11.424 38.939 38.939 0 0111.472 27.574z" fill="#FAD101"/><path d="M76.93 99.696a24.591 24.591 0 004.176 13.697 24.72 24.72 0 0011.109 9.077 24.828 24.828 0 0014.298 1.399 24.77 24.77 0 0012.669-6.752 24.623 24.623 0 006.769-12.626 24.57 24.57 0 00-1.412-14.245 24.683 24.683 0 00-9.118-11.062 24.816 24.816 0 00-13.751-4.151c-3.25 0-6.468.638-9.47 1.877a24.745 24.745 0 00-8.029 5.347 24.642 24.642 0 00-5.362 8.002 24.57 24.57 0 00-1.878 9.437z" fill="#FAD101"/><path d="M268.214 38.873h-2.704a35.396 35.396 0 00-3.809-9.866l2.247-2.238a8.566 8.566 0 000-12.142 8.633 8.633 0 00-6.093-2.515 8.634 8.634 0 00-6.094 2.515l-1.919 1.912a35.163 35.163 0 00-9.651-4.295V9.132a8.554 8.554 0 00-2.518-6.058 8.616 8.616 0 00-6.081-2.51 8.616 8.616 0 00-6.081 2.51 8.55 8.55 0 00-2.519 6.058v2.702a35.521 35.521 0 00-9.902 3.794l-2.285-2.276a8.633 8.633 0 00-6.093-2.515 8.634 8.634 0 00-6.094 2.515 8.57 8.57 0 00-2.524 6.07 8.57 8.57 0 002.524 6.072l1.92 1.912a34.883 34.883 0 00-4.311 9.615h-3.177a8.624 8.624 0 00-6.245 2.416 8.545 8.545 0 000 12.295 8.604 8.604 0 006.245 2.417h2.712a35.01 35.01 0 003.808 9.865l-2.285 2.277a8.57 8.57 0 00-2.524 6.07 8.57 8.57 0 002.524 6.072 8.634 8.634 0 006.094 2.514 8.633 8.633 0 006.093-2.514l1.912-1.905a35.714 35.714 0 009.788 4.196v3.157a8.553 8.553 0 002.425 6.223 8.605 8.605 0 006.171 2.6 8.621 8.621 0 006.17-2.6 8.565 8.565 0 001.846-2.867 8.517 8.517 0 00.579-3.356V81.18a35.211 35.211 0 009.902-3.795l2.247 2.277a8.634 8.634 0 006.094 2.515 8.633 8.633 0 006.093-2.515 8.57 8.57 0 002.524-6.071 8.57 8.57 0 00-2.524-6.071l-1.912-1.905A35.418 35.418 0 00265.068 56h3.169a8.622 8.622 0 006.245-2.416 8.56 8.56 0 002.61-6.148 8.546 8.546 0 00-2.61-6.147 8.605 8.605 0 00-6.245-2.416h-.023zm-11.913 7.634c0 5.044-1.501 9.976-4.314 14.17a25.585 25.585 0 01-11.489 9.394 25.69 25.69 0 01-14.792 1.451 25.633 25.633 0 01-13.108-6.98 25.48 25.48 0 01-7.006-13.06 25.413 25.413 0 011.457-14.736 25.529 25.529 0 019.429-11.446 25.685 25.685 0 0124.02-2.357 25.613 25.613 0 018.305 5.529 25.493 25.493 0 015.549 8.274 25.416 25.416 0 011.949 9.76z" fill="#73B4FF"/><path d="M214.522 46.507c0 3.19.95 6.308 2.729 8.96a16.174 16.174 0 007.265 5.94 16.243 16.243 0 009.353.916 16.203 16.203 0 008.287-4.416 16.113 16.113 0 004.428-8.259 16.07 16.07 0 00-.924-9.318 16.137 16.137 0 00-5.965-7.235 16.23 16.23 0 00-8.994-2.714 16.227 16.227 0 00-11.443 4.724 16.11 16.11 0 00-4.736 11.402z" fill="#73B4FF"/><path d="M613.785 29.349l16.277-10.845-10.679-4.318-5.598 15.163z" fill="#2459B3"/><path d="M630.74 21.904L646.477.618 620.48 18.504l10.26 3.4zM646.477.58l-42.236 9.205 9.94 3.825L646.477.58z" fill="#5686D6"/><path d="M646.477.618l-25.997 18-6.695 10.73.312-15.852L646.477.618z" fill="#3B70C7"/><path d="M22.607 165.908a2.003 2.003 0 01.244 1.563 2.038 2.038 0 01-1.425 1.518L14.51 171a2.086 2.086 0 01-2.001-.495 2.068 2.068 0 01-.58-1.972l1.705-6.974a2.04 2.04 0 011.432-1.479 2.028 2.028 0 012.004.485l5.202 4.963c.128.112.24.239.335.38zm-9.049 3.308l.069.091a.418.418 0 00.426.099l6.916-2.003a.44.44 0 00.183-.759l-5.21-4.963a.43.43 0 00-.617.031.407.407 0 00-.091.212l-1.714 6.974a.429.429 0 00.038.318zm867.137 162.94a2 2 0 01.244 1.563 2.048 2.048 0 01-1.424 1.518l-6.916 2.003a2.076 2.076 0 01-2.003-.488 2.06 2.06 0 01-.58-1.971l1.714-6.974a2.047 2.047 0 011.425-1.487 2.069 2.069 0 012.003.493l5.202 4.963c.13.11.243.237.335.38zm-9.049 3.308l.069.091a.436.436 0 00.427.099l6.916-2.011a.43.43 0 00.304-.311.442.442 0 00-.122-.417l-5.21-4.964a.432.432 0 00-.723.213l-1.714 6.974a.442.442 0 00.053.326zM458.301 60.69a2.038 2.038 0 01.163 1.809 2.058 2.058 0 01-1.343 1.227l-6.917 2.01a2.046 2.046 0 01-2.011-.485 2.054 2.054 0 01-.578-1.973l1.713-6.974a2.062 2.062 0 012.499-1.508c.352.086.675.263.937.514l5.202 4.963c.131.123.243.263.335.417zm-9.049 3.34l.069.09a.435.435 0 00.426.099l6.916-2.011a.408.408 0 00.298-.311.414.414 0 00-.122-.418l-5.203-4.963a.43.43 0 00-.449-.138.43.43 0 00-.312.35l-1.714 6.967a.394.394 0 00.091.334z" fill="#D94559"/><path d="M24.55 318.335l2.543-2.535a1.478 1.478 0 00-1.042-2.532 1.49 1.49 0 00-1.052.43l-2.544 2.535-2.544-2.535a1.478 1.478 0 00-1.047-.429 1.477 1.477 0 00-1.475 1.475c0 .391.157.765.434 1.041l2.545 2.535-2.544 2.527a1.476 1.476 0 00.23 2.269c.243.162.528.249.82.25a1.482 1.482 0 001.044-.432l2.537-2.535 2.544 2.535a1.467 1.467 0 001.043.433 1.481 1.481 0 001.479-1.477 1.467 1.467 0 00-.435-1.043l-2.537-2.512zm797.389-142.752l2.544-2.534a1.473 1.473 0 00-1.047-2.519c-.393 0-.769.155-1.047.432l-2.544 2.534-2.544-2.534a1.484 1.484 0 00-2.091.004 1.465 1.465 0 00.004 2.083l2.544 2.534-2.544 2.527a1.475 1.475 0 00-.318 1.606 1.477 1.477 0 001.933.794c.18-.074.342-.183.479-.32l2.537-2.527 2.544 2.527a1.483 1.483 0 002.035-.052 1.466 1.466 0 00.052-2.028l-2.537-2.527z" fill="#FFB86B"/><path d="M159.909 31.238a5.828 5.828 0 01-3.231-.972 5.8 5.8 0 01-2.144-2.597 5.783 5.783 0 011.255-6.313 5.82 5.82 0 016.335-1.258 5.808 5.808 0 012.609 2.133c.639.952.98 2.072.98 3.217a5.79 5.79 0 01-1.701 4.09 5.831 5.831 0 01-4.103 1.7zm0-9.766a4 4 0 00-2.217.67 3.975 3.975 0 00-1.697 4.082c.154.771.534 1.48 1.092 2.036a4.006 4.006 0 004.35.862 3.97 3.97 0 002.463-3.674 3.977 3.977 0 00-1.171-2.81 4.006 4.006 0 00-2.82-1.166zm645.763 422.075a5.83 5.83 0 01-3.229-.976 5.773 5.773 0 01-.881-8.909 5.83 5.83 0 016.334-1.255 5.815 5.815 0 012.608 2.133c.639.952.979 2.072.979 3.217a5.795 5.795 0 01-1.706 4.09 5.838 5.838 0 01-4.105 1.7zm0-9.767c-.79 0-1.561.233-2.218.67a3.98 3.98 0 00-1.47 1.785 3.962 3.962 0 00.866 4.333 3.993 3.993 0 004.349.863 3.987 3.987 0 001.791-1.465 3.964 3.964 0 00.673-2.209 3.977 3.977 0 00-1.171-2.81 4.007 4.007 0 00-2.82-1.167z" fill="#2363A8"/></svg>