<svg width="310" height="83" fill="none" xmlns="http://www.w3.org/2000/svg"><path d="M291.597 22.84l8.957-5.968-5.876-2.376-3.081 8.344z" fill="#2459B3"/><path d="M300.927 18.743l8.66-11.714-14.306 9.843 5.646 1.871zm8.66-11.735l-23.242 5.066 5.47 2.105 17.772-7.17z" fill="#5686D6"/><path d="M48.503 34.662h-2.42a31.478 31.478 0 00-3.381-8.789l2.006-1.998a7.635 7.635 0 002.249-5.41 7.635 7.635 0 00-2.249-5.409 7.692 7.692 0 00-5.429-2.24c-2.036 0-3.99.806-5.43 2.24l-1.694 1.711a31.488 31.488 0 00-8.639-3.856v-2.81a7.626 7.626 0 00-2.248-5.408 7.68 7.68 0 00-5.43-2.24 7.703 7.703 0 00-5.428 2.24 7.647 7.647 0 00-2.25 5.409v2.41a31.689 31.689 0 00-8.82 3.369l-2.007-2a7.694 7.694 0 00-5.43-2.241c-2.036 0-3.99.805-5.43 2.24a7.637 7.637 0 00-2.25 5.41 7.632 7.632 0 002.248 5.41l1.712 1.706A31.203 31.203 0 00-15.665 33h-2.838a7.695 7.695 0 00-5.312 2.305A7.639 7.639 0 00-26 40.65a7.64 7.64 0 002.185 5.347 7.696 7.696 0 005.312 2.305h2.42a31.341 31.341 0 003.381 8.789l-2.006 1.998a7.635 7.635 0 00-2.249 5.41c0 2.028.809 3.974 2.249 5.408A7.693 7.693 0 00-9.28 72.15c2.036 0 3.99-.806 5.43-2.24l1.707-1.702a31.95 31.95 0 008.63 3.838v2.818c0 2.029.809 3.975 2.249 5.41a7.692 7.692 0 005.429 2.24c2.036 0 3.99-.806 5.429-2.24a7.635 7.635 0 002.249-5.41v-2.41a31.684 31.684 0 008.82-3.369l2.007 1.999a7.692 7.692 0 005.43 2.24 7.69 7.69 0 005.428-2.24 7.635 7.635 0 002.25-5.41 7.635 7.635 0 00-2.25-5.408l-1.708-1.702a31.848 31.848 0 003.852-8.598h2.83a7.696 7.696 0 005.312-2.305A7.64 7.64 0 0056 42.313a7.64 7.64 0 00-2.185-5.346 7.695 7.695 0 00-5.312-2.305zm-10.64 6.83c0 4.505-1.34 8.91-3.852 12.656a22.846 22.846 0 01-10.26 8.392 22.943 22.943 0 01-13.211 1.298 22.89 22.89 0 01-11.708-6.233 22.754 22.754 0 01-6.259-11.663c-.883-4.42-.43-9 1.3-13.163a22.798 22.798 0 018.422-10.224 22.925 22.925 0 0128.867 2.833 22.742 22.742 0 016.7 16.103z" fill="#FAD101"/><path d="M.572 41.491c0 2.848.85 5.632 2.438 8a14.44 14.44 0 006.488 5.3 14.502 14.502 0 008.35.817 14.469 14.469 0 007.4-3.943 14.383 14.383 0 003.952-7.373 14.35 14.35 0 00-.825-8.32 14.41 14.41 0 00-5.325-6.46 14.49 14.49 0 00-8.03-2.424c-1.898 0-3.778.372-5.531 1.096A14.453 14.453 0 004.8 31.307a14.39 14.39 0 00-3.13 4.673 14.349 14.349 0 00-1.098 5.51z" fill="#FAD101"/><path d="M97.843 31.484a.206.206 0 01-.189-.125.208.208 0 01.113-.268s.533-.22 1.518-.61a.206.206 0 01.29.193.203.203 0 01-.14.188c-.98.384-1.513.605-1.513.605a.173.173 0 01-.08.017zm72.694 1.458a6.68 6.68 0 01-1.342-.13.209.209 0 01-.159-.242.216.216 0 01.031-.074.213.213 0 01.132-.086.205.205 0 01.08.001c.414.085.835.127 1.258.125a7.887 7.887 0 001.886-.238.206.206 0 01.247.15.196.196 0 01-.023.156.197.197 0 01-.128.091 8.468 8.468 0 01-1.982.247zm89.032-.205a66.5 66.5 0 01-3.273-.1.204.204 0 01-.143-.066.224.224 0 01-.042-.068.212.212 0 01.007-.157.198.198 0 01.119-.105.198.198 0 01.08-.01c1.09.055 2.184.088 3.257.1a.21.21 0 01.209.21.21.21 0 01-.209.209l-.005-.013zm3.27-.033a.208.208 0 01-.148-.062.206.206 0 010-.295.208.208 0 01.148-.061 74.516 74.516 0 003.252-.175.211.211 0 01.227.192.204.204 0 01-.01.08.2.2 0 01-.04.072.204.204 0 01-.143.073 75.845 75.845 0 01-3.274.18l-.012-.004zm-9.792-.293h-.021a98.075 98.075 0 01-3.256-.346.207.207 0 01-.176-.23.203.203 0 01.23-.175 96.02 96.02 0 003.24.346.203.203 0 01.177.142c.008.026.01.053.008.08a.206.206 0 01-.062.136.204.204 0 01-.14.056v-.009zm16.301-.217a.206.206 0 01-.196-.258.192.192 0 01.036-.07.198.198 0 01.135-.077 58.136 58.136 0 003.219-.497.212.212 0 01.149.388.218.218 0 01-.077.03 62.24 62.24 0 01-3.236.5l-.03-.016zm-22.785-.585h-.033a98.133 98.133 0 01-3.224-.572.206.206 0 01-.128-.089.207.207 0 01-.001-.226.206.206 0 01.129-.086.207.207 0 01.08 0 66.22 66.22 0 003.211.573.21.21 0 01.192.225.21.21 0 01-.226.192v-.017zm-71.114-.18a.205.205 0 01-.109-.375 8.415 8.415 0 002.322-2.134.212.212 0 01.29-.046c.042.033.071.08.08.133a.213.213 0 01-.034.151 8.941 8.941 0 01-2.431 2.238.211.211 0 01-.118.034zm-9.007-.212a.203.203 0 01-.156-.071 5.8 5.8 0 01-1.043-1.892c-.13-.38-.239-.76-.327-1.132a.203.203 0 01.151-.246.206.206 0 01.247.15c.084.36.189.727.314 1.099a5.36 5.36 0 00.969 1.758.206.206 0 01-.021.288.229.229 0 01-.134.046zm109.332-.192a.196.196 0 01-.197-.155.192.192 0 01-.005-.079.2.2 0 01.152-.167 46.036 46.036 0 003.131-.877.205.205 0 01.26.134.205.205 0 01-.134.255 51.258 51.258 0 01-3.157.885l-.05.004zm-35.628-.672h-.03a95.302 95.302 0 01-3.177-.786.206.206 0 01-.123-.096.208.208 0 01.016-.225.2.2 0 01.212-.071c1.048.276 2.096.538 3.165.78a.21.21 0 01.109.373.213.213 0 01-.155.045l-.017-.02zm-137.739-.64a.2.2 0 01-.188-.133.206.206 0 01-.015-.078.205.205 0 01.064-.14.203.203 0 01.068-.041c.91-.342 1.941-.723 3.072-1.132a.207.207 0 01.26.121.2.2 0 01-.1.251c-1.132.418-2.159.785-3.064 1.128a.24.24 0 01-.097.024zm179.579-.684a.205.205 0 01-.189-.126.211.211 0 01.113-.267 31.3 31.3 0 002.935-1.374.204.204 0 01.276.084.212.212 0 01.014.154.21.21 0 01-.098.121 33.18 33.18 0 01-2.976 1.395.236.236 0 01-.075.013zm-48.157-.343h-.059a100.75 100.75 0 01-3.122-.985.203.203 0 01.05-.396.203.203 0 01.08.012c1.031.338 2.095.668 3.11.977a.21.21 0 01.139.081.209.209 0 01-.041.296.213.213 0 01-.157.04v-.025zm-125.269-1.19a.214.214 0 01-.158-.037.21.21 0 01.091-.38c.981-.339 2.017-.69 3.098-1.053a.21.21 0 01.271.21.206.206 0 01-.07.14.205.205 0 01-.071.039c-1.077.359-2.096.71-3.093 1.048a.19.19 0 01-.068.033zm119.078-.869a.212.212 0 01-.071 0 116.588 116.588 0 01-3.056-1.165.203.203 0 01-.128-.188.21.21 0 01.058-.146.204.204 0 01.221-.046 75.08 75.08 0 003.047 1.165.204.204 0 01.122.26.205.205 0 01-.193.121zm-48.718-.405a.203.203 0 01-.145-.06.203.203 0 01-.061-.144 4.577 4.577 0 00-1.094-2.857.209.209 0 01.105-.325.21.21 0 01.157.019.19.19 0 01.061.052 5.001 5.001 0 011.182 3.11.205.205 0 01-.205.205zm108.821-.284a.214.214 0 01-.168-.083.204.204 0 01.046-.284 18.402 18.402 0 002.469-2.088.208.208 0 01.277.013.203.203 0 01.059.135.2.2 0 01-.047.14 19.083 19.083 0 01-2.515 2.117.195.195 0 01-.138.05h.017zm-172.977-.505a.203.203 0 01-.18-.296.203.203 0 01.117-.1 260.44 260.44 0 013.127-.974.202.202 0 01.256.134.21.21 0 01-.139.255c-1.067.325-2.107.65-3.118.973l-.063.008zm50.123-.384h-.026a.204.204 0 01-.136-.076.203.203 0 01-.044-.15 7.919 7.919 0 011.052-3.14.208.208 0 01.293-.096.21.21 0 01.098.137.208.208 0 01-.039.164 7.51 7.51 0 00-.997 2.981.204.204 0 01-.201.18zm56.673-.835a.236.236 0 01-.075 0c-1.014-.418-2.037-.81-3.039-1.19a.208.208 0 01-.117-.264.206.206 0 01.264-.117c1.002.38 2.029.781 3.047 1.19a.203.203 0 01.112.11.194.194 0 01.001.157.204.204 0 01-.076.095.213.213 0 01-.117.035v-.016zm-100.542-.664a.202.202 0 01-.193-.146.211.211 0 01-.009-.08.203.203 0 01.076-.136.193.193 0 01.071-.035c1.031-.3 2.096-.597 3.148-.89a.206.206 0 01.219.294.204.204 0 01-.11.099c-1.065.292-2.112.588-3.144.885a.13.13 0 01-.058.009zm94.44-1.616a.223.223 0 01-.072 0c-1.031-.368-2.07-.723-3.085-1.057a.205.205 0 01.13-.388c1.019.338 2.058.693 3.094 1.06a.207.207 0 01.125.264.202.202 0 01-.192.1v.02zm-88.132-.113a.212.212 0 01-.235-.184.211.211 0 01.185-.234 172.95 172.95 0 013.173-.793.216.216 0 01.258.16.214.214 0 01-.085.223.214.214 0 01-.077.034c-1.065.26-2.125.522-3.169.794h-.05zm47.972-.668a.213.213 0 01-.109-.034c-.5-.306-1.016-.585-1.546-.835-.42-.213-.885-.418-1.342-.597a.202.202 0 01-.088-.313.198.198 0 01.264-.109c.466.188.927.393 1.367.606.542.261 1.071.55 1.584.864a.214.214 0 01.063.284.21.21 0 01-.193.113v.02zm-41.618-.86a.211.211 0 01-.23-.188.209.209 0 01.188-.23c1.082-.238 2.159-.468 3.199-.677a.21.21 0 01.16.032.209.209 0 01.091.135.194.194 0 010 .083.199.199 0 01-.032.077.208.208 0 01-.136.09c-1.039.214-2.116.419-3.193.677h-.047zm75.574-.418a.137.137 0 01-.059 0 128.386 128.386 0 00-3.131-.91.221.221 0 01-.163-.263.221.221 0 01.098-.137.225.225 0 01.166-.027c1.031.289 2.096.593 3.139.915a.212.212 0 01.181.238.212.212 0 01-.239.18l.008.004zm-41.203-.305a.209.209 0 01-.194-.136.21.21 0 01-.004-.124.201.201 0 01.068-.103c.289-.23.595-.456.918-.673a40.97 40.97 0 00-2.779-.593.209.209 0 01-.074-.028.217.217 0 01-.057-.055.21.21 0 01-.031-.072.19.19 0 01-.001-.079.186.186 0 01.026-.075.2.2 0 01.208-.092 32.63 32.63 0 013.178.698c.46-.28.936-.533 1.425-.76a.205.205 0 01.255.104.201.201 0 01.011.147.208.208 0 01-.09.116 13.309 13.309 0 00-2.729 1.67.213.213 0 01-.13.042v.013zm-27.962-.572a.21.21 0 11-.033-.418c1.094-.196 2.179-.376 3.231-.539a.213.213 0 01.235.171.215.215 0 01-.003.08.205.205 0 01-.169.154c-1.048.16-2.133.343-3.223.535l-.038.017zm62.874-.86h-.051a98.133 98.133 0 00-3.177-.735.205.205 0 01-.155-.242.201.201 0 01.243-.16c1.048.226 2.121.477 3.19.74a.21.21 0 01-.05.418v-.021zm-56.406-.142a.21.21 0 01-.222-.197.205.205 0 01.052-.151.21.21 0 01.145-.07 98.228 98.228 0 013.252-.363.216.216 0 01.227.183.205.205 0 01-.185.222c-1.052.1-2.146.221-3.244.359l-.025.017zm16.301-.493c-1.04-.1-2.134-.171-3.249-.213a.21.21 0 01-.209-.209.21.21 0 01.209-.209c1.124.038 2.226.109 3.274.209a.209.209 0 11-.021.418l-.004.004zm-9.792-.117a.204.204 0 01-.154-.34.21.21 0 01.142-.07 81.841 81.841 0 013.273-.12.203.203 0 01.194.121.21.21 0 01-.185.288c-1.052 0-2.151.054-3.261.12h-.009zm43.504-.63h-.046a81.114 81.114 0 00-3.215-.519.213.213 0 01-.14-.08.204.204 0 01-.036-.073.207.207 0 01.075-.222.21.21 0 01.156-.042c1.056.15 2.142.326 3.236.522a.205.205 0 01.142.075.202.202 0 01.049.152.217.217 0 01-.075.143.214.214 0 01-.154.047l.008-.004zm-22.68-.03a.21.21 0 01-.055-.418 28.302 28.302 0 013.203-.693.215.215 0 01.158.038.21.21 0 01-.091.38 28.331 28.331 0 00-3.165.697l-.05-.004zm16.221-.885a60.627 60.627 0 00-3.248-.247.21.21 0 01-.193-.217c0-.027.006-.053.018-.078a.193.193 0 01.116-.104.2.2 0 01.08-.01c1.056.054 2.158.138 3.269.25a.209.209 0 11-.021.418l-.021-.012zm-9.787-.197a.208.208 0 110-.417 48.47 48.47 0 013.278-.125.21.21 0 01.209.208.21.21 0 01-.209.21c-1.119 0-2.213.05-3.253.129l-.025-.005zm111.915 5.613a.237.237 0 01-.105-.025.204.204 0 01-.071-.28c.272-.46.508-.94.704-1.436a.204.204 0 01.262-.105.205.205 0 01.119.255 10.358 10.358 0 01-.733 1.49.2.2 0 01-.074.075.2.2 0 01-.102.026z" fill="#3A67B3"/><path d="M101.431 28.08h-1.488a19.472 19.472 0 00-2.096-5.428l1.236-1.232a4.715 4.715 0 000-6.682 4.751 4.751 0 00-6.706 0l-1.056 1.053a19.348 19.348 0 00-5.311-2.364v-1.712c0-1.25-.499-2.45-1.386-3.334a4.741 4.741 0 00-6.693 0 4.706 4.706 0 00-1.386 3.334V13.2a19.549 19.549 0 00-5.449 2.088l-1.257-1.252a4.751 4.751 0 00-6.707 0 4.716 4.716 0 000 6.681l1.057 1.053a19.203 19.203 0 00-2.373 5.29h-1.748a4.748 4.748 0 00-3.436 1.33 4.714 4.714 0 00-1.437 3.383 4.7 4.7 0 001.437 3.383 4.734 4.734 0 003.436 1.33h1.493a19.269 19.269 0 002.095 5.429L62.4 43.169a4.716 4.716 0 000 6.681 4.751 4.751 0 006.706 0l1.052-1.048a19.65 19.65 0 005.387 2.31v1.737a4.7 4.7 0 001.334 3.424 4.734 4.734 0 003.396 1.43 4.747 4.747 0 003.395-1.43 4.713 4.713 0 001.335-3.424v-1.487a19.377 19.377 0 005.449-2.088l1.236 1.253a4.75 4.75 0 006.707 0 4.716 4.716 0 000-6.682l-1.052-1.048a19.504 19.504 0 002.356-5.291h1.743a4.747 4.747 0 003.437-1.33 4.71 4.71 0 001.062-5.22 4.708 4.708 0 00-2.645-2.558 4.747 4.747 0 00-1.854-.317h-.012zm-6.556 4.202c0 2.776-.826 5.49-2.374 7.798a14.078 14.078 0 01-6.323 5.17 14.137 14.137 0 01-8.14.798 14.105 14.105 0 01-7.212-3.842 14.02 14.02 0 01-3.856-7.186 13.987 13.987 0 01.802-8.11 14.047 14.047 0 015.188-6.299 14.125 14.125 0 0117.789 1.746 14.033 14.033 0 013.054 4.554 13.992 13.992 0 011.072 5.37z" fill="#73B4FF"/><path d="M71.885 32.282a8.85 8.85 0 001.5 4.93 8.9 8.9 0 003.999 3.269 8.939 8.939 0 005.147.504 8.918 8.918 0 004.56-2.43 8.844 8.844 0 001.928-9.672 8.882 8.882 0 00-3.282-3.982 8.93 8.93 0 00-8.358-.818 8.905 8.905 0 00-2.888 1.924 8.866 8.866 0 00-2.606 6.275z" fill="#73B4FF"/><path d="M309.587 7.03l-14.306 9.905-3.684 5.905.172-8.724 17.818-7.087z" fill="#3B70C7"/><path d="M248.78 8.634a.887.887 0 01.109.696.91.91 0 01-.634.676l-3.08.895a.926.926 0 01-1.138-.625.926.926 0 01-.012-.473l.76-3.105a.907.907 0 01.638-.66.903.903 0 01.892.217l2.316 2.21c.057.05.107.106.149.169zm-4.029 1.473l.031.04a.184.184 0 00.19.045l3.079-.892a.195.195 0 00.144-.145.199.199 0 00-.062-.193l-2.32-2.21a.196.196 0 00-.19-.044.183.183 0 00-.126.152l-.763 3.105a.19.19 0 00.017.142z" fill="#D94559"/><path d="M136.188 32.25l1.133-1.128a.654.654 0 000-.93.658.658 0 00-.932 0l-1.133 1.13-1.133-1.13a.66.66 0 00-1.123.466c0 .174.07.34.194.464l1.132 1.128-1.132 1.126a.658.658 0 00-.192.464.654.654 0 00.911.604.655.655 0 00.213-.143l1.13-1.125 1.133 1.125a.658.658 0 001.098-.47.655.655 0 00-.169-.456l-1.13-1.125z" fill="#FFB86B"/></svg>