<svg width="360" height="563" fill="none" xmlns="http://www.w3.org/2000/svg"><path d="M24.3 544.995c.27-1.135-.71-2.256-1.855-2.524-1.146-.268-2.332.157-3.364.711a19.712 19.712 0 00-4.34 3.356 80.424 80.424 0 002.788-8.278c2.584.578 5.287.374 7.762-.585.931-.368 1.914-.95 2.144-1.917.258-1.155-.714-2.255-1.854-2.525-1.141-.269-2.325.149-3.357.703a20.05 20.05 0 00-4.467 3.477 68.025 68.025 0 001.94-10.517 13.455 13.455 0 007.479-1.819c.862-.506 1.739-1.236 1.81-2.232.085-1.157-1.074-2.123-2.237-2.196-1.164-.073-2.268.515-3.197 1.223a19.539 19.539 0 00-3.744 3.978c.331-3.751.308-7.659-.782-11.265l-.073-.224a13.452 13.452 0 007.224-2.854c.78-.624 1.545-1.472 1.456-2.455-.084-1.162-1.368-1.95-2.532-1.857-1.164.093-2.172.833-2.99 1.665a20.616 20.616 0 00-3.37 4.891c-1.37-4.128-3.511-8.025-4.739-12.193a13.41 13.41 0 007.351-2.872c.784-.619 1.552-1.47 1.457-2.455-.082-1.157-1.368-1.949-2.53-1.852-1.162.097-2.176.834-2.991 1.665-1.485 1.501-2.454 3.216-3.452 5.037a22.992 22.992 0 01-.65-3.21 17.666 17.666 0 01.493-6.649 13.38 13.38 0 008.017-.853c.906-.423 1.875-1.025 2.065-1.999.219-1.137-.808-2.211-1.962-2.443-1.155-.233-2.316.247-3.32.84-1.843 1.088-3.236 2.509-4.687 4.051a23.19 23.19 0 015.366-9.389c2.486.198 4.98-.302 7.2-1.445.884-.459 1.804-1.142 1.93-2.132.143-1.154-.959-2.177-2.119-2.309-1.16-.131-2.298.395-3.261 1.052a19.368 19.368 0 00-3.896 3.707.47.47 0 00-.185.117 24.219 24.219 0 00-4.97 7.548c-.24.603-.498 1.242-.688 1.873a13.217 13.217 0 00-2.34-6.733c-.569-.816-1.365-1.63-2.364-1.619-1.16.024-2.028 1.231-2.033 2.403-.005 1.172.684 2.212 1.44 3.086 1.445 1.613 3.142 2.705 4.972 3.838a17.756 17.756 0 00-.722 4.141 20.137 20.137 0 00.766 6.18 13.231 13.231 0 00-5.272-5.096c-.882-.463-1.948-.83-2.852-.357-1.033.54-1.254 2.03-.713 3.056.542 1.026 1.626 1.653 2.711 2.073 2.083.793 4.151.976 6.37 1.168 1.006 3.272 2.53 6.437 3.781 9.585.397.995.762 1.989 1.066 2.997a13.25 13.25 0 00-5.576-5.679c-.882-.463-1.948-.83-2.85-.363-1.033.539-1.258 2.032-.717 3.057.541 1.026 1.621 1.656 2.711 2.073 2.126.82 4.237.994 6.512 1.184.32 1.079.555 2.181.7 3.297.238 2.076.294 4.169.168 6.257-.037.534-.07 1.109-.116 1.658a13.245 13.245 0 00-4.373-5.722c-.796-.592-1.812-1.117-2.755-.785-1.105.376-1.551 1.816-1.175 2.914.377 1.097 1.35 1.886 2.357 2.461 1.863 1.071 3.798 1.571 5.874 2.071a65.947 65.947 0 01-1.899 10.26 13.221 13.221 0 00-3.02-6.872c-.64-.736-1.518-1.491-2.514-1.383-1.159.127-1.938 1.422-1.791 2.585.147 1.163.893 2.135 1.744 2.923 1.624 1.494 3.451 2.421 5.421 3.396l-.378 1.331a75.515 75.515 0 01-2.495 7.199 13.178 13.178 0 00-3.002-6.688c-.646-.76-1.518-1.491-2.51-1.386-1.16.123-1.938 1.423-1.797 2.584.14 1.16.894 2.139 1.75 2.925 1.574 1.454 3.345 2.372 5.253 3.314a59.135 59.135 0 01-3.92 7.75c-.31.518.512.962.824.449a59.514 59.514 0 003.945-7.85c2.596.57 5.306.357 7.787-.612.944-.353 1.933-.943 2.161-1.915z" fill="#8EB2DB"/><path d="M42.122 583.582c-2.523.046-6.397-.229-12.42-2.77-3.691-1.575-8.815-3.729-13.892-8.601-.22-.214-.608-.578-1.08-1.096a.288.288 0 01-.076-.074c-.051-.042-.093-.089-.145-.135-.164-.168-.337-.355-.529-.532-3.551-3.855-10.402-12.531-8.67-21.701.089-.532 1.404-7.194 4.95-7.8 4.441-.708 9.237 8.485 11.062 7.567.936-.467-.028-2.863-.121-5.963-.281-6.965 3.659-15.771 9.751-16.867a9.265 9.265 0 014.622.48 9.226 9.226 0 013.8 2.662c3.426 4.005.24 11.012.848 11.189.898.252 2.915-14.569 11.094-17.04 2.873-.857 6.748-.261 8.283 1.865 2.246 3.11-1.563 8.219-.09 9.324 1.564 1.161 5.513-4.685 13.252-5.958 1.98-.303 6.598-1.049 9.607 1.744 2.63 2.396 3.355 6.624 1.993 9.767-1.272 2.89-4.005 4.116-4.763 4.428-4.895 2.112-8.053-1.049-16.766-.34-3.041.238-6.364.932-6.448 1.949 0 .76 1.825 1.011 3.743 2.96.068.053.13.114.183.182.58.601 2.639 2.746 2.592 5.52 0 .116-.103 3.123-2.11 4.195a4.046 4.046 0 01-2.63.276c-4.871-.821-11.15-.364-11.31.424-.2.895 7.66 2.144 8.053 5.193.319 2.536-4.679 4.881-5.33 5.18-5.404 2.48-11.122 1.305-11.15 1.748-.028.443 4.707.158 8.46 3.156 1.755 1.399 4.24 4.196 3.519 6.289-.842 2.573-6.079 2.723-8.282 2.779z" fill="#3A67B3"/><path d="M43.572 566.351c-.154-1.077-1.263-1.594-2.232-1.781a10.112 10.112 0 00-3.687.051c-2.55.439-5.044 1.497-7.674 1.366a6.335 6.335 0 01-3.683-1.286 93.178 93.178 0 008.793-8.485c1.043-1.105 2.082-2.219 3.14-3.324 3.972-1.016 7.762 1.645 11.754 1.287a5.996 5.996 0 002.952-1.035c.15-.103-.028-.317-.173-.215-1.675 1.175-3.818 1.138-5.755.793-1.937-.345-3.744-1.031-5.704-1.264a8.822 8.822 0 00-2.733.079c2.854-2.969 5.826-5.841 9.214-8.214 4.103-2.867 8.857-5.039 13.911-5.38a19.775 19.775 0 011.9-.037c.178 0 .21-.275.033-.28-4.904-.121-9.644 1.543-13.8 4.042a33.99 33.99 0 00-2.068 1.347.137.137 0 000-.097c-.936-2.299.646-4.532 2.087-6.206a21.847 21.847 0 002.246-2.839c.524-.857.964-1.864.758-2.885-.037-.173-.313-.136-.276.042.243 1.198-.468 2.377-1.128 3.314-.73 1.021-1.619 1.912-2.4 2.891-1.287 1.608-2.368 3.729-1.544 5.794a.117.117 0 00.14.07c-3.8 2.658-7.108 5.954-10.294 9.324-1.764 1.865-3.51 3.73-5.306 5.595a12.208 12.208 0 01-2.747-8.536 11.48 11.48 0 011.404-4.611c.837-1.585 1.834-3.119 2.283-4.872.45-1.753.271-3.729-1.039-5.049-.121-.126-.341.047-.215.173 1.32 1.338 1.404 3.342.936 5.063-.468 1.72-1.558 3.296-2.382 4.923a11.061 11.061 0 00-1.268 4.442c-.082 1.47.095 2.942.524 4.35a11.87 11.87 0 002.307 4.317 65.214 65.214 0 01-6.958 6.266 36.53 36.53 0 01-5.517 3.506c.898-4.42-2.396-8.257-3.182-12.429a7.72 7.72 0 01.122-3.669c.051-.173-.21-.275-.262-.103-1.334 4.396 1.928 8.392 2.91 12.49a8.443 8.443 0 01.117 3.762.1.1 0 000 .084 26.572 26.572 0 01-4.595 1.809c.052.046.094.093.145.135.02.029.046.054.075.074a29.522 29.522 0 007.67-3.561 42.393 42.393 0 003.673-2.672c1.745 1.446 4.136 1.576 6.284 1.222 2.494-.415 4.9-1.399 7.454-1.399 1.18 0 3.276.21 3.486 1.692a.157.157 0 10.304-.074z" fill="#fff"/><path d="M48.503 34.662h-2.42a31.478 31.478 0 00-3.381-8.789l2.006-1.998a7.635 7.635 0 002.249-5.41 7.635 7.635 0 00-2.249-5.409 7.692 7.692 0 00-5.429-2.24c-2.036 0-3.99.806-5.43 2.24l-1.694 1.711a31.488 31.488 0 00-8.639-3.856v-2.81a7.626 7.626 0 00-2.248-5.408 7.68 7.68 0 00-5.43-2.24 7.703 7.703 0 00-5.428 2.24 7.647 7.647 0 00-2.25 5.409v2.41a31.689 31.689 0 00-8.82 3.369l-2.007-2a7.694 7.694 0 00-5.43-2.241c-2.036 0-3.99.805-5.43 2.24a7.637 7.637 0 00-2.25 5.41 7.632 7.632 0 002.248 5.41l1.712 1.706A31.203 31.203 0 00-15.665 33h-2.838a7.695 7.695 0 00-5.312 2.305A7.639 7.639 0 00-26 40.65a7.64 7.64 0 002.185 5.347 7.696 7.696 0 005.312 2.305h2.42a31.341 31.341 0 003.381 8.789l-2.006 1.998a7.635 7.635 0 00-2.249 5.41c0 2.028.809 3.974 2.249 5.408A7.693 7.693 0 00-9.28 72.15c2.036 0 3.99-.806 5.43-2.24l1.707-1.702a31.95 31.95 0 008.63 3.838v2.818c0 2.029.809 3.975 2.249 5.41a7.692 7.692 0 005.429 2.24c2.036 0 3.99-.806 5.429-2.24a7.635 7.635 0 002.249-5.41v-2.41a31.684 31.684 0 008.82-3.369l2.007 1.999a7.692 7.692 0 005.43 2.24 7.69 7.69 0 005.428-2.24 7.635 7.635 0 002.25-5.41 7.635 7.635 0 00-2.25-5.408l-1.708-1.702a31.848 31.848 0 003.852-8.598h2.83a7.696 7.696 0 005.312-2.305A7.64 7.64 0 0056 42.313a7.64 7.64 0 00-2.185-5.346 7.695 7.695 0 00-5.312-2.305zm-10.64 6.83c0 4.505-1.34 8.91-3.852 12.656a22.846 22.846 0 01-10.26 8.392 22.943 22.943 0 01-13.211 1.298 22.89 22.89 0 01-11.708-6.233 22.754 22.754 0 01-6.259-11.663c-.883-4.42-.43-9 1.3-13.163a22.798 22.798 0 018.422-10.224 22.925 22.925 0 0128.867 2.833 22.742 22.742 0 016.7 16.103z" fill="#FAD101"/><path d="M.572 41.491c0 2.848.85 5.632 2.438 8a14.44 14.44 0 006.488 5.3 14.502 14.502 0 008.35.817 14.469 14.469 0 007.4-3.943 14.383 14.383 0 003.952-7.373 14.35 14.35 0 00-.825-8.32 14.41 14.41 0 00-5.325-6.46 14.49 14.49 0 00-8.03-2.424c-1.898 0-3.778.372-5.531 1.096A14.453 14.453 0 004.8 31.307a14.39 14.39 0 00-3.13 4.673 14.349 14.349 0 00-1.098 5.51z" fill="#FAD101"/><path d="M97.843 31.484a.206.206 0 01-.189-.125.208.208 0 01.113-.268s.533-.22 1.518-.61a.206.206 0 01.29.193.203.203 0 01-.14.188c-.98.384-1.513.605-1.513.605a.173.173 0 01-.08.017zm194.396-10.227a.237.237 0 01-.105-.025.204.204 0 01-.071-.28c.272-.46.508-.94.704-1.436a.204.204 0 01.262-.105.205.205 0 01.119.255 10.358 10.358 0 01-.733 1.49.2.2 0 01-.074.075.2.2 0 01-.102.026z" fill="#3A67B3"/><path d="M101.431 28.08h-1.488a19.472 19.472 0 00-2.096-5.428l1.236-1.232a4.715 4.715 0 000-6.682 4.751 4.751 0 00-6.706 0l-1.056 1.053a19.348 19.348 0 00-5.311-2.364v-1.712c0-1.25-.499-2.45-1.386-3.334a4.741 4.741 0 00-6.693 0 4.706 4.706 0 00-1.386 3.334V13.2a19.549 19.549 0 00-5.449 2.088l-1.257-1.252a4.751 4.751 0 00-6.707 0 4.716 4.716 0 000 6.681l1.057 1.053a19.203 19.203 0 00-2.373 5.29h-1.748a4.748 4.748 0 00-3.436 1.33 4.714 4.714 0 00-1.437 3.383 4.7 4.7 0 001.437 3.383 4.734 4.734 0 003.436 1.33h1.493a19.269 19.269 0 002.095 5.429L62.4 43.169a4.716 4.716 0 000 6.681 4.751 4.751 0 006.706 0l1.052-1.048a19.65 19.65 0 005.387 2.31v1.737a4.7 4.7 0 001.334 3.424 4.734 4.734 0 003.396 1.43 4.747 4.747 0 003.395-1.43 4.713 4.713 0 001.335-3.424v-1.487a19.377 19.377 0 005.449-2.088l1.236 1.253a4.75 4.75 0 006.707 0 4.716 4.716 0 000-6.682l-1.052-1.048a19.504 19.504 0 002.356-5.291h1.743a4.747 4.747 0 003.437-1.33 4.71 4.71 0 001.062-5.22 4.708 4.708 0 00-2.645-2.558 4.747 4.747 0 00-1.854-.317h-.012zm-6.556 4.202c0 2.776-.826 5.49-2.374 7.798a14.078 14.078 0 01-6.323 5.17 14.137 14.137 0 01-8.14.798 14.105 14.105 0 01-7.212-3.842 14.02 14.02 0 01-3.856-7.186 13.987 13.987 0 01.802-8.11 14.047 14.047 0 015.188-6.299 14.125 14.125 0 0117.789 1.746 14.033 14.033 0 013.054 4.554 13.992 13.992 0 011.072 5.37z" fill="#73B4FF"/><path d="M71.885 32.282a8.85 8.85 0 001.5 4.93 8.9 8.9 0 003.999 3.269 8.939 8.939 0 005.147.504 8.918 8.918 0 004.56-2.43 8.844 8.844 0 001.928-9.672 8.882 8.882 0 00-3.282-3.982 8.93 8.93 0 00-8.358-.818 8.905 8.905 0 00-2.888 1.924 8.866 8.866 0 00-2.606 6.275z" fill="#73B4FF"/><path d="M291.597 22.84l8.957-5.968-5.876-2.376-3.081 8.344z" fill="#2459B3"/><path d="M300.927 18.743l8.66-11.714-14.306 9.843 5.646 1.871zm8.66-11.735l-23.242 5.066 5.47 2.105 17.772-7.17z" fill="#5686D6"/><path d="M309.587 7.03l-14.306 9.905-3.684 5.905.172-8.724 17.818-7.087z" fill="#3B70C7"/><path d="M354.569 527.912a2.753 2.753 0 01-2.723-.935 4.202 4.202 0 01-.915-2.831 9.04 9.04 0 01.669-2.957 11.584 11.584 0 012.613-4.289c-2.471.01-4.94.209-7.383.595l-.665.114 1.167 5.147a9.192 9.192 0 01.337 3.48c-.187 1.165-.929 2.317-2.066 2.634a2.78 2.78 0 01-2.723-.934 4.185 4.185 0 01-.916-2.831 9.1 9.1 0 01.673-2.961 11.34 11.34 0 012.725-4.399 49.562 49.562 0 00-7.928 2.209l.982 5.259a9.312 9.312 0 01.202 3.492c-.24 1.162-1.021 2.279-2.179 2.551a2.777 2.777 0 01-1.494-.135 2.754 2.754 0 01-1.202-.892 4.182 4.182 0 01-.806-2.865 8.991 8.991 0 01.784-2.933 11.61 11.61 0 012.65-4.075 48.169 48.169 0 00-5.396 2.531c-.518.281-1.027.579-1.533.88l.832 5.442a9.21 9.21 0 01.088 3.498c-.259 1.141-1.105 2.234-2.244 2.477a2.761 2.761 0 01-1.49-.182 2.74 2.74 0 01-1.171-.934 4.17 4.17 0 01-.711-2.886 9.107 9.107 0 01.877-2.907 12.336 12.336 0 012.403-3.63 46.68 46.68 0 00-4.809 3.562l-1.817 5.071a9.353 9.353 0 01-1.592 3.129c-.782.878-2.03 1.457-3.151 1.118a2.75 2.75 0 01-1.802-2.251 4.222 4.222 0 01.755-2.888 9.114 9.114 0 012.155-2.147c1.517-1.149 3.215-2.093 5.061-2.324a47.087 47.087 0 015.13-3.788 12.008 12.008 0 01-4.558.011 8.95 8.95 0 01-2.893-.892 4.15 4.15 0 01-1.993-2.208 2.774 2.774 0 01.564-2.833c.839-.828 2.212-.899 3.308-.481a9.004 9.004 0 012.843 2.025l3.93 3.653a48.995 48.995 0 016.993-3.455 11.6 11.6 0 01-4.649-1.118 8.99 8.99 0 01-2.58-1.583 4.188 4.188 0 01-1.381-2.635 2.785 2.785 0 011.253-2.61c1.019-.596 2.363-.327 3.318.347a9.22 9.22 0 012.251 2.674c.964 1.504 1.929 3.005 2.895 4.502l.227-.087a49.828 49.828 0 017.752-2.128 11.033 11.033 0 01-4.881-2.135 8.969 8.969 0 01-2.199-2.076 4.174 4.174 0 01-.813-2.859 2.79 2.79 0 011.757-2.311c1.127-.365 2.374.159 3.173 1.015a9.131 9.131 0 011.658 3.077c.664 1.71 1.328 3.433 1.99 5.169l.109-.02.035-.032.025.029a48.508 48.508 0 017.784-.722 12.001 12.001 0 01-3.468-3.337 9.292 9.292 0 01-1.456-2.719 4.293 4.293 0 01.134-3.033 2.858 2.858 0 012.43-1.671c1.201-.008 2.241.913 2.734 1.995.423 1.12.63 2.311.609 3.51l.232 5.097c.006.05.02.102.03.149 2.874.041 5.737.346 8.553.91.294.062.257.536-.044.474a46.557 46.557 0 00-8.392-.908l1.128 4.866a9.214 9.214 0 01.336 3.48c-.251 1.185-.994 2.337-2.131 2.655z" fill="#8EB2DB"/><path d="M337.854 517.133a12.696 12.696 0 003.702 1.38s5.039 1.647 9.81 1.755c2.457.138 4.917-.2 7.244-.995l.942-.375c.302-.127.594-.275.876-.441.217-.118.438-.235.645-.362.113-.058.223-.122.33-.192a18.017 18.017 0 006.703-7.306 17.93 17.93 0 001.812-9.732c-.348-3.318-1.79-7.757-3.909-7.818-.42.091-.857.071-1.267-.056-.965-.389-1.102-1.619-1.413-3.233-.612-2.984-.895-4.481-1.738-5.161-.381-.329-1.474-.7-3.631-1.45-1.498-.521-1.601-.493-1.832-.723-1.093-1.183.654-3.074.268-5.715-.311-2.027-1.804-4.092-3.768-4.641-1.163-.3-1.591.15-3.843-.164-1.587-.226-2.406-.357-3.085-.798-2.623-1.722-.329-6.522-2.623-7.747-1.13-.605-2.892-.085-4.578.413-1.686.497-2.039 1.018-2.755 1.154-4.088.826-7.828-12.463-9.693-11.909-1.413.427-2.666 9.385-1.13 15.189.254.896.796 2.637-.052 4.439-.942 2.088-2.826 2.163-3.156 3.674-.155.765.184 1.286 3.566 5.889 1.088 1.464 1.846 2.473 1.413 3.252-.434.779-1.649.713-2.205 1.806a2.03 2.03 0 00-.197 1.258c.16 2.313 2.416 4.725 3.551 5.884 2.251 2.323 3.593 3.313 3.254 3.97-.339.657-1.884.122-2.774 1.14-.631.732-.584 1.826-.4 2.511.264.971 1.027 1.464 3.429 2.707 2.402 1.244 2.887 1.408 4.168 2.116 2.223 1.22 4.239 2.347 3.989 3.36-.231.939-2.021.831-2.958 2.407a3.082 3.082 0 001.328 4.519l-.023-.005z" fill="#3A67B3"/><path d="M343.308 513.286c1.107 1.243 2.991.68 4.427.549a24.384 24.384 0 014.107-.047c2.607.192 5.167.79 7.588 1.774v-.024c-1.541-2.609-2.869-5.359-4.239-8.033a64.724 64.724 0 00-4.635-8.048 40.04 40.04 0 00-5.096-5.734c-2.863-.338-5.651.469-8.52.38-2.501-.075-5.261-1.215-5.953-3.843-.061-.234.311-.3.372-.065.73 2.777 3.867 3.613 6.401 3.533 2.435-.075 4.832-.61 7.272-.418l-.655-.624c-1.794-1.703-3.57-3.449-4.875-5.556a41.12 41.12 0 01-2.411-4.532 13.287 13.287 0 01-7.168-3.679c-.165-.174.122-.418.287-.244a12.809 12.809 0 006.678 3.5l-.108-.239a116.435 116.435 0 01-4.559-11.421c-.113-.343-.231-.685-.334-1.028-.076-.225.263-.385.334-.159a111.945 111.945 0 004.173 10.844c.829 1.877 1.705 3.754 2.708 5.541.231.413.471.817.725 1.197.999-1.004.942-2.496.942-3.806a11.729 11.729 0 014.324-8.995c.188-.15.433.136.245.286a11.522 11.522 0 00-3.843 6.002 15.73 15.73 0 00-.358 3.646c-.024 1.159-.222 2.346-1.088 3.181a23.075 23.075 0 002.783 3.421c2.134 2.177 4.498 4.125 6.453 6.48a44.87 44.87 0 014.855 7.47l.354.681c1.507-2.816 3.07-5.833 3.019-9.127a8.753 8.753 0 00-.33-2.257 12.422 12.422 0 01-.565-2.144c-.141-1.38.574-2.586 1.286-3.712.131-.202.442 0 .315.211a9.162 9.162 0 00-1.064 2.027 3.78 3.78 0 000 2.229c.198.742.471 1.45.607 2.206.116.683.157 1.377.123 2.069-.142 3.167-1.649 6.03-3.109 8.77a.135.135 0 01-.099.075c1.771 3.393 3.382 6.898 5.36 10.168v.029a.149.149 0 01.052.084c.41.676.834 1.342 1.286 1.985-.107.07-.217.134-.33.192-.471-.657-.885-1.332-1.3-2.013a24.744 24.744 0 00-8.529-1.952 25.456 25.456 0 00-4.475.202c-1.295.169-2.755.272-3.706-.798-.151-.169.132-.413.273-.234z" fill="#fff"/><path d="M248.78 8.634a.887.887 0 01.109.696.91.91 0 01-.634.676l-3.08.895a.926.926 0 01-1.138-.625.926.926 0 01-.012-.473l.76-3.105a.907.907 0 01.638-.66.903.903 0 01.892.217l2.316 2.21c.057.05.107.106.149.169zm-4.029 1.473l.031.04a.184.184 0 00.19.045l3.079-.892a.195.195 0 00.144-.145.199.199 0 00-.062-.193l-2.32-2.21a.196.196 0 00-.19-.044.183.183 0 00-.126.152l-.763 3.105a.19.19 0 00.017.142z" fill="#D94559"/><path d="M124.188 478.256l1.133-1.129a.656.656 0 00.004-.932.667.667 0 00-.936-.004l-1.133 1.129-1.133-1.129a.664.664 0 00-.931.002.656.656 0 00.002.928l1.132 1.128-1.132 1.126a.653.653 0 00-.14.715.659.659 0 001.072.214l1.13-1.129 1.133 1.129c.06.061.133.109.213.142a.636.636 0 00.503 0 .652.652 0 00.356-.355.645.645 0 000-.503.644.644 0 00-.143-.213l-1.13-1.119z" fill="#FFB86B"/><path d="M188.588 534.156a2.583 2.583 0 01-2.391-1.591 2.568 2.568 0 01.561-2.81 2.59 2.59 0 012.82-.559 2.582 2.582 0 011.598 2.382 2.58 2.58 0 01-.76 1.821 2.597 2.597 0 01-1.828.757zm0-4.348a1.78 1.78 0 00-1.642 1.093 1.765 1.765 0 00.385 1.929 1.783 1.783 0 002.734-.268 1.762 1.762 0 00-.222-2.235 1.777 1.777 0 00-1.255-.519z" fill="#2363A8"/><path d="M267.781 484.635a.9.9 0 01.108.696.916.916 0 01-.634.676l-3.079.892a.922.922 0 01-1.139-.622.914.914 0 01-.011-.473l.763-3.105a.91.91 0 01.634-.663.915.915 0 01.892.22l2.317 2.21a.776.776 0 01.149.169zm-4.029 1.473l.03.041a.202.202 0 00.089.047.215.215 0 00.101-.003l3.08-.896a.188.188 0 00.132-.238.194.194 0 00-.051-.086l-2.32-2.21a.193.193 0 00-.274.005.194.194 0 00-.048.089l-.763 3.106a.194.194 0 00.024.145z" fill="#D94559"/><path d="M136.188 32.25l1.133-1.128a.654.654 0 000-.93.658.658 0 00-.932 0l-1.133 1.13-1.133-1.13a.66.66 0 00-1.123.466c0 .174.07.34.194.464l1.132 1.128-1.132 1.126a.658.658 0 00-.192.464.654.654 0 00.911.604.655.655 0 00.213-.143l1.13-1.125 1.133 1.125a.658.658 0 001.098-.47.655.655 0 00-.169-.456l-1.13-1.125z" fill="#FFB86B"/></svg>