<svg width="360" height="110" fill="none" xmlns="http://www.w3.org/2000/svg"><path d="M24.3 91.996c.27-1.136-.71-2.257-1.855-2.525-1.146-.268-2.332.157-3.364.71a19.718 19.718 0 00-4.34 3.357 80.543 80.543 0 002.788-8.278 13.39 13.39 0 007.762-.585c.931-.368 1.914-.95 2.144-1.917.258-1.155-.714-2.255-1.854-2.525-1.141-.27-2.325.149-3.357.703a20.078 20.078 0 00-4.467 3.477 68.003 68.003 0 001.94-10.517 13.456 13.456 0 007.479-1.819c.862-.506 1.739-1.236 1.81-2.232.085-1.157-1.074-2.123-2.237-2.196-1.164-.073-2.268.516-3.197 1.223a19.533 19.533 0 00-3.744 3.978c.331-3.751.308-7.659-.782-11.265l-.073-.224a13.455 13.455 0 007.224-2.854c.78-.624 1.545-1.472 1.456-2.455-.084-1.162-1.368-1.95-2.532-1.857-1.164.093-2.172.833-2.99 1.665a20.612 20.612 0 00-3.37 4.89c-1.37-4.127-3.511-8.024-4.739-12.192a13.406 13.406 0 007.351-2.872c.784-.619 1.552-1.47 1.457-2.455-.082-1.157-1.368-1.95-2.53-1.852-1.162.097-2.176.835-2.991 1.665-1.485 1.5-2.454 3.216-3.452 5.037a22.994 22.994 0 01-.65-3.21 17.663 17.663 0 01.493-6.649 13.38 13.38 0 008.017-.853c.906-.423 1.875-1.025 2.065-2 .219-1.136-.808-2.21-1.962-2.442-1.155-.233-2.316.247-3.32.84-1.843 1.088-3.236 2.51-4.687 4.05a23.187 23.187 0 015.366-9.388 13.41 13.41 0 007.2-1.445c.884-.459 1.804-1.142 1.93-2.132.143-1.154-.959-2.177-2.119-2.309-1.16-.131-2.298.395-3.261 1.052a19.362 19.362 0 00-3.896 3.707.473.473 0 00-.185.117 24.216 24.216 0 00-4.97 7.548c-.24.603-.498 1.242-.688 1.873a13.213 13.213 0 00-2.34-6.733c-.569-.816-1.365-1.63-2.364-1.619-1.16.024-2.028 1.231-2.033 2.403-.005 1.172.684 2.212 1.44 3.086 1.445 1.613 3.142 2.705 4.972 3.838a17.752 17.752 0 00-.722 4.141 20.132 20.132 0 00.766 6.18 13.235 13.235 0 00-5.272-5.096c-.882-.463-1.948-.83-2.852-.356-1.033.539-1.254 2.029-.713 3.055.542 1.026 1.626 1.653 2.711 2.073 2.083.793 4.151.976 6.37 1.168 1.006 3.272 2.53 6.437 3.781 9.585.397.995.762 1.99 1.066 2.997a13.254 13.254 0 00-5.576-5.68c-.882-.462-1.948-.829-2.85-.362-1.033.54-1.258 2.031-.717 3.057.541 1.026 1.621 1.656 2.711 2.073 2.126.82 4.237.994 6.512 1.184.32 1.079.555 2.18.7 3.297a35.93 35.93 0 01.168 6.257c-.037.534-.07 1.109-.116 1.658a13.254 13.254 0 00-4.373-5.723c-.796-.59-1.812-1.116-2.755-.784-1.105.376-1.551 1.816-1.175 2.914.377 1.097 1.35 1.886 2.357 2.46 1.863 1.072 3.798 1.572 5.874 2.072a65.954 65.954 0 01-1.899 10.26 13.221 13.221 0 00-3.02-6.872c-.64-.736-1.518-1.49-2.514-1.383-1.159.127-1.938 1.422-1.791 2.585.147 1.163.893 2.135 1.744 2.923 1.624 1.494 3.451 2.421 5.421 3.396l-.378 1.331a75.568 75.568 0 01-2.495 7.2 13.18 13.18 0 00-3.002-6.69c-.646-.759-1.518-1.49-2.51-1.385-1.16.123-1.938 1.423-1.797 2.584.14 1.16.894 2.139 1.75 2.925 1.574 1.454 3.345 2.372 5.253 3.314a59.123 59.123 0 01-3.92 7.75c-.31.518.512.962.824.449a59.493 59.493 0 003.945-7.85c2.596.57 5.306.357 7.787-.612.944-.353 1.933-.944 2.161-1.914z" fill="#8EB2DB"/><path d="M42.122 130.582c-2.523.046-6.397-.229-12.42-2.77-3.691-1.575-8.815-3.729-13.892-8.601-.22-.214-.608-.578-1.08-1.096a.288.288 0 01-.076-.074c-.051-.042-.093-.089-.145-.135-.164-.168-.337-.355-.529-.532-3.551-3.855-10.402-12.531-8.67-21.701.089-.532 1.404-7.194 4.95-7.8 4.441-.708 9.237 8.485 11.062 7.567.936-.466-.028-2.863-.121-5.963-.281-6.965 3.659-15.771 9.751-16.867a9.26 9.26 0 014.622.48 9.227 9.227 0 013.8 2.662c3.426 4.005.24 11.012.848 11.189.898.252 2.915-14.569 11.094-17.04 2.873-.857 6.748-.26 8.283 1.865 2.246 3.11-1.563 8.22-.09 9.324 1.564 1.161 5.513-4.685 13.252-5.958 1.98-.303 6.598-1.049 9.607 1.744 2.63 2.396 3.355 6.624 1.993 9.767-1.272 2.89-4.005 4.116-4.763 4.428-4.895 2.112-8.053-1.049-16.766-.34-3.041.238-6.364.933-6.448 1.949 0 .76 1.825 1.011 3.743 2.96.068.053.13.114.183.182.58.601 2.639 2.746 2.592 5.52 0 .116-.103 3.123-2.11 4.195a4.046 4.046 0 01-2.63.276c-4.871-.821-11.15-.364-11.31.424-.2.895 7.66 2.144 8.053 5.193.319 2.536-4.679 4.881-5.33 5.18-5.404 2.48-11.122 1.305-11.15 1.748-.028.443 4.707.158 8.46 3.156 1.755 1.399 4.24 4.196 3.519 6.289-.842 2.573-6.079 2.723-8.282 2.779z" fill="#3A67B3"/><path d="M43.572 113.351c-.154-1.077-1.263-1.594-2.232-1.781a10.112 10.112 0 00-3.687.051c-2.55.439-5.044 1.497-7.674 1.366a6.335 6.335 0 01-3.683-1.286 93.178 93.178 0 008.793-8.485c1.043-1.105 2.082-2.219 3.14-3.324 3.972-1.016 7.762 1.645 11.754 1.287a5.996 5.996 0 002.952-1.035c.15-.103-.028-.317-.173-.215-1.675 1.175-3.818 1.138-5.755.793-1.937-.345-3.744-1.03-5.704-1.264a8.803 8.803 0 00-2.733.08c2.854-2.97 5.826-5.842 9.214-8.215 4.103-2.867 8.857-5.04 13.911-5.38a19.939 19.939 0 011.9-.037c.178 0 .21-.275.033-.28-4.904-.121-9.644 1.543-13.8 4.042a33.99 33.99 0 00-2.068 1.347.14.14 0 000-.097c-.936-2.299.646-4.532 2.087-6.206a21.882 21.882 0 002.246-2.839c.524-.858.964-1.865.758-2.885-.037-.173-.313-.136-.276.041.243 1.199-.468 2.378-1.128 3.315-.73 1.021-1.619 1.912-2.4 2.89-1.287 1.609-2.368 3.73-1.544 5.795a.116.116 0 00.14.07c-3.8 2.658-7.108 5.954-10.294 9.324-1.764 1.865-3.51 3.73-5.306 5.595a12.208 12.208 0 01-2.747-8.536c.136-1.619.614-3.19 1.404-4.611.837-1.585 1.834-3.119 2.283-4.872.45-1.753.271-3.73-1.039-5.049-.121-.126-.341.047-.215.173 1.32 1.338 1.404 3.342.936 5.063-.468 1.72-1.558 3.296-2.382 4.923a11.063 11.063 0 00-1.268 4.443 12.525 12.525 0 00.524 4.349 11.87 11.87 0 002.307 4.317 65.214 65.214 0 01-6.958 6.266 36.53 36.53 0 01-5.517 3.506c.898-4.42-2.396-8.257-3.182-12.429a7.721 7.721 0 01.122-3.67c.051-.172-.21-.274-.262-.102-1.334 4.396 1.928 8.392 2.91 12.49a8.443 8.443 0 01.117 3.762.1.1 0 000 .084 26.572 26.572 0 01-4.595 1.809c.052.046.094.093.145.135.02.029.046.054.075.074a29.522 29.522 0 007.67-3.561 42.393 42.393 0 003.673-2.672c1.745 1.446 4.136 1.576 6.284 1.222 2.494-.415 4.9-1.399 7.454-1.399 1.18 0 3.276.21 3.486 1.692a.157.157 0 10.304-.074z" fill="#fff"/><path d="M354.569 74.912a2.753 2.753 0 01-2.723-.935 4.2 4.2 0 01-.915-2.832 9.048 9.048 0 01.669-2.956 11.585 11.585 0 012.613-4.289c-2.471.01-4.94.209-7.383.595l-.665.114 1.167 5.147a9.195 9.195 0 01.337 3.48c-.187 1.165-.929 2.317-2.066 2.635a2.78 2.78 0 01-2.723-.935 4.184 4.184 0 01-.916-2.832 9.096 9.096 0 01.673-2.96 11.33 11.33 0 012.725-4.398 49.528 49.528 0 00-7.928 2.208l.982 5.259a9.313 9.313 0 01.202 3.492c-.24 1.162-1.021 2.279-2.179 2.55a2.776 2.776 0 01-1.494-.134 2.753 2.753 0 01-1.202-.892 4.18 4.18 0 01-.806-2.865 8.988 8.988 0 01.784-2.933 11.62 11.62 0 012.65-4.075 48.084 48.084 0 00-5.396 2.532 43.22 43.22 0 00-1.533.88l.832 5.44a9.213 9.213 0 01.088 3.5c-.259 1.14-1.105 2.233-2.244 2.476a2.763 2.763 0 01-1.49-.182 2.742 2.742 0 01-1.171-.934 4.17 4.17 0 01-.711-2.885 9.104 9.104 0 01.877-2.908 12.34 12.34 0 012.403-3.63 46.701 46.701 0 00-4.809 3.562l-1.817 5.07a9.35 9.35 0 01-1.592 3.13c-.782.878-2.03 1.457-3.151 1.118a2.753 2.753 0 01-1.802-2.25 4.223 4.223 0 01.755-2.889 9.1 9.1 0 012.155-2.147c1.517-1.149 3.215-2.093 5.061-2.324a46.97 46.97 0 015.13-3.788 12.016 12.016 0 01-4.558.011 8.958 8.958 0 01-2.893-.892 4.15 4.15 0 01-1.993-2.208 2.772 2.772 0 01.564-2.833c.839-.828 2.212-.9 3.308-.481a9.017 9.017 0 012.843 2.025l3.93 3.653a48.983 48.983 0 016.993-3.455 11.596 11.596 0 01-4.649-1.118 8.985 8.985 0 01-2.58-1.583 4.187 4.187 0 01-1.381-2.635 2.786 2.786 0 011.253-2.61c1.019-.596 2.363-.327 3.318.347a9.217 9.217 0 012.251 2.674c.964 1.504 1.929 3.005 2.895 4.502l.227-.087a49.786 49.786 0 017.752-2.128 11.033 11.033 0 01-4.881-2.135 8.967 8.967 0 01-2.199-2.076 4.172 4.172 0 01-.813-2.859 2.79 2.79 0 011.757-2.311c1.127-.365 2.374.16 3.173 1.015a9.126 9.126 0 011.658 3.077c.664 1.71 1.328 3.433 1.99 5.17l.109-.021.035-.032.025.029a48.508 48.508 0 017.784-.722 12 12 0 01-3.468-3.337 9.308 9.308 0 01-1.456-2.72 4.292 4.292 0 01.134-3.032 2.863 2.863 0 012.43-1.67c1.201-.009 2.241.912 2.734 1.994.423 1.12.63 2.311.609 3.51l.232 5.097c.006.05.02.102.03.15 2.874.04 5.737.345 8.553.91.294.06.257.535-.044.473a46.511 46.511 0 00-8.392-.908l1.128 4.866a9.214 9.214 0 01.336 3.48c-.251 1.185-.994 2.337-2.131 2.654z" fill="#8EB2DB"/><path d="M337.854 64.133a12.715 12.715 0 003.702 1.38s5.039 1.647 9.81 1.755c2.457.138 4.917-.2 7.244-.995l.942-.375a7.28 7.28 0 00.876-.441c.217-.118.438-.235.645-.362.113-.058.223-.122.33-.192a18.018 18.018 0 006.703-7.306 17.931 17.931 0 001.812-9.732c-.348-3.318-1.79-7.757-3.909-7.818-.42.09-.857.071-1.267-.056-.965-.39-1.102-1.619-1.413-3.233-.612-2.984-.895-4.481-1.738-5.162-.381-.328-1.474-.699-3.631-1.45-1.498-.52-1.601-.492-1.832-.722-1.093-1.183.654-3.074.268-5.715-.311-2.027-1.804-4.092-3.768-4.641-1.163-.3-1.591.15-3.843-.164-1.587-.226-2.406-.357-3.085-.798-2.623-1.722-.329-6.523-2.623-7.747-1.13-.605-2.892-.085-4.578.413-1.686.497-2.039 1.018-2.755 1.154-4.088.826-7.828-12.463-9.693-11.91-1.413.428-2.666 9.386-1.13 15.19.254.896.796 2.637-.052 4.439-.942 2.088-2.826 2.163-3.156 3.674-.155.765.184 1.286 3.566 5.89 1.088 1.463 1.846 2.472 1.413 3.25-.434.78-1.649.714-2.205 1.807a2.027 2.027 0 00-.197 1.258c.16 2.313 2.416 4.725 3.551 5.884 2.251 2.323 3.593 3.313 3.254 3.97-.339.657-1.884.122-2.774 1.14-.631.732-.584 1.826-.4 2.51.264.972 1.027 1.465 3.429 2.708 2.402 1.244 2.887 1.408 4.168 2.117 2.223 1.22 4.239 2.346 3.989 3.36-.231.938-2.021.83-2.958 2.406a3.074 3.074 0 00-.386 2.566c.127.43.346.827.641 1.165.296.337.663.606 1.073.788l-.023-.005z" fill="#3A67B3"/><path d="M343.308 60.286c1.107 1.243 2.991.68 4.427.549a24.511 24.511 0 014.107-.047c2.607.192 5.167.79 7.588 1.774v-.024c-1.541-2.609-2.869-5.359-4.239-8.033a64.738 64.738 0 00-4.635-8.048 39.975 39.975 0 00-5.096-5.734c-2.863-.338-5.651.47-8.52.38-2.501-.075-5.261-1.215-5.953-3.843-.061-.234.311-.3.372-.066.73 2.778 3.867 3.614 6.401 3.534 2.435-.075 4.832-.61 7.272-.418l-.655-.624c-1.794-1.703-3.57-3.449-4.875-5.556a41.123 41.123 0 01-2.411-4.532 13.285 13.285 0 01-7.168-3.68c-.165-.173.122-.417.287-.243a12.812 12.812 0 006.678 3.5l-.108-.239a116.371 116.371 0 01-4.559-11.421c-.113-.343-.231-.685-.334-1.028-.076-.225.263-.385.334-.16a111.887 111.887 0 004.173 10.845c.829 1.877 1.705 3.753 2.708 5.541.231.413.471.817.725 1.197.999-1.004.942-2.496.942-3.806a11.726 11.726 0 014.324-8.995c.188-.15.433.136.245.286a11.517 11.517 0 00-3.843 6.002 15.732 15.732 0 00-.358 3.646c-.024 1.159-.222 2.346-1.088 3.181a23.094 23.094 0 002.783 3.421c2.134 2.177 4.498 4.125 6.453 6.48a44.839 44.839 0 014.855 7.47l.354.68c1.507-2.815 3.07-5.832 3.019-9.126a8.75 8.75 0 00-.33-2.257 12.421 12.421 0 01-.565-2.144c-.141-1.38.574-2.586 1.286-3.712.131-.202.442 0 .315.211a9.152 9.152 0 00-1.064 2.027 3.78 3.78 0 000 2.23c.198.74.471 1.45.607 2.205.116.683.157 1.377.123 2.069-.142 3.167-1.649 6.03-3.109 8.77a.133.133 0 01-.04.049.144.144 0 01-.059.026c1.771 3.393 3.382 6.898 5.36 10.168v.029a.151.151 0 01.052.084c.41.676.834 1.342 1.286 1.985-.107.07-.217.134-.33.192-.471-.657-.885-1.332-1.3-2.013a24.747 24.747 0 00-8.529-1.952 25.465 25.465 0 00-4.475.202c-1.295.169-2.755.272-3.706-.798-.151-.169.132-.413.273-.234z" fill="#fff"/><path d="M124.188 25.256l1.133-1.128a.659.659 0 00-.464-1.128.661.661 0 00-.468.192l-1.133 1.128-1.133-1.128a.66.66 0 00-1.123.465c0 .174.07.34.194.464l1.132 1.128-1.132 1.126a.656.656 0 00.102 1.01.658.658 0 00.83-.081l1.13-1.129 1.133 1.129a.642.642 0 00.464.193.657.657 0 00.465-1.122l-1.13-1.119z" fill="#FFB86B"/><path d="M188.588 81.156a2.584 2.584 0 01-2.391-1.592 2.567 2.567 0 01.561-2.809 2.592 2.592 0 014.418 1.823 2.58 2.58 0 01-.76 1.821 2.6 2.6 0 01-1.828.757zm0-4.348a1.77 1.77 0 00-.347 3.507 1.784 1.784 0 001.824-.753 1.76 1.76 0 00-.222-2.235 1.782 1.782 0 00-1.255-.52z" fill="#2363A8"/><path d="M267.781 31.635a.905.905 0 01.126.337.87.87 0 01-.018.359.9.9 0 01-.634.676l-3.079.892a.922.922 0 01-1.139-.622.915.915 0 01-.011-.473l.763-3.105a.908.908 0 01.634-.663.92.92 0 01.892.22l2.317 2.21a.785.785 0 01.149.169zm-4.029 1.473l.03.04a.198.198 0 00.19.044l3.08-.895a.191.191 0 00.087-.05.188.188 0 00.045-.188.195.195 0 00-.051-.086l-2.32-2.21a.19.19 0 00-.186-.048.192.192 0 00-.136.142l-.763 3.106a.195.195 0 00.024.145z" fill="#D94559"/></svg>